<svg width="801" height="801" viewBox="0 0 801 801" fill="none" xmlns="http://www.w3.org/2000/svg">
<rect x="0.444092" y="0.165039" width="800" height="800" fill="#EDEDED"/>
<rect y="572" width="800" height="111" fill="#C3974B"/>
<rect y="465" width="800" height="111" fill="#D8A950"/>
<rect y="218" width="800" height="249" fill="#D2A44D"/>
<path d="M267 497H550V564C550 565.105 549.105 566 548 566H269C267.895 566 267 565.105 267 564V497Z" fill="#D62200"/>
<path d="M287 428H530L550 497H267L287 428Z" fill="#FF5100"/>
<path d="M251 424H534V485C534 486.105 533.105 487 532 487H253C251.895 487 251 486.105 251 485V424Z" fill="#007A84"/>
<path d="M271 355H514L534 424H251L271 355Z" fill="#009999"/>
<path d="M284.09 408L291.434 371H401.111L404.518 408H284.09Z" fill="#1517A3" stroke="#007A84" stroke-width="10"/>
<path d="M275.17 467.968H277.425V472.296C276.846 472.733 276.175 473.068 275.413 473.302C274.651 473.536 273.884 473.653 273.112 473.653C272.005 473.653 271.009 473.419 270.126 472.952C269.242 472.474 268.546 471.819 268.038 470.986C267.54 470.143 267.291 469.193 267.291 468.136C267.291 467.08 267.54 466.135 268.038 465.302C268.546 464.458 269.247 463.803 270.141 463.336C271.035 462.858 272.041 462.62 273.158 462.62C274.093 462.62 274.941 462.777 275.703 463.092C276.465 463.407 277.105 463.864 277.623 464.464L276.038 465.926C275.276 465.124 274.357 464.723 273.28 464.723C272.599 464.723 271.995 464.865 271.467 465.149C270.938 465.434 270.527 465.835 270.232 466.353C269.938 466.871 269.79 467.466 269.79 468.136C269.79 468.796 269.938 469.386 270.232 469.904C270.527 470.422 270.933 470.828 271.451 471.123C271.98 471.407 272.579 471.55 273.249 471.55C273.961 471.55 274.601 471.397 275.17 471.092V467.968ZM281.821 466.353C282.106 465.957 282.487 465.657 282.964 465.454C283.452 465.251 284.01 465.149 284.64 465.149V467.344C284.376 467.323 284.198 467.313 284.107 467.313C283.426 467.313 282.893 467.506 282.507 467.892C282.121 468.268 281.928 468.837 281.928 469.599V473.47H279.551V465.271H281.821V466.353ZM289.316 465.149C290.586 465.149 291.561 465.454 292.242 466.064C292.923 466.663 293.263 467.572 293.263 468.791V473.47H291.038V472.449C290.591 473.211 289.758 473.592 288.539 473.592C287.909 473.592 287.36 473.485 286.893 473.272C286.436 473.058 286.085 472.764 285.842 472.388C285.598 472.012 285.476 471.585 285.476 471.108C285.476 470.346 285.76 469.746 286.329 469.31C286.908 468.873 287.797 468.654 288.996 468.654H290.886C290.886 468.136 290.728 467.74 290.413 467.466C290.098 467.181 289.626 467.039 288.996 467.039C288.559 467.039 288.127 467.11 287.701 467.252C287.284 467.384 286.929 467.567 286.634 467.801L285.781 466.14C286.228 465.825 286.761 465.581 287.381 465.408C288.011 465.236 288.656 465.149 289.316 465.149ZM289.133 471.992C289.54 471.992 289.9 471.9 290.215 471.717C290.53 471.524 290.754 471.245 290.886 470.879V470.041H289.255C288.28 470.041 287.792 470.361 287.792 471.001C287.792 471.306 287.909 471.55 288.143 471.732C288.386 471.905 288.717 471.992 289.133 471.992ZM305.914 465.149C306.94 465.149 307.753 465.454 308.352 466.064C308.962 466.663 309.267 467.567 309.267 468.776V473.47H306.889V469.142C306.889 468.492 306.752 468.009 306.478 467.694C306.214 467.369 305.833 467.207 305.335 467.207C304.776 467.207 304.334 467.389 304.009 467.755C303.684 468.111 303.522 468.644 303.522 469.355V473.47H301.144V469.142C301.144 467.852 300.626 467.207 299.59 467.207C299.041 467.207 298.604 467.389 298.279 467.755C297.954 468.111 297.792 468.644 297.792 469.355V473.47H295.414V465.271H297.685V466.216C297.99 465.871 298.361 465.606 298.797 465.424C299.244 465.241 299.732 465.149 300.26 465.149C300.839 465.149 301.363 465.266 301.83 465.5C302.297 465.723 302.673 466.053 302.958 466.49C303.293 466.064 303.715 465.733 304.223 465.5C304.741 465.266 305.304 465.149 305.914 465.149ZM321.897 465.149C322.923 465.149 323.736 465.454 324.335 466.064C324.945 466.663 325.25 467.567 325.25 468.776V473.47H322.872V469.142C322.872 468.492 322.735 468.009 322.461 467.694C322.197 467.369 321.816 467.207 321.318 467.207C320.759 467.207 320.317 467.389 319.992 467.755C319.667 468.111 319.504 468.644 319.504 469.355V473.47H317.127V469.142C317.127 467.852 316.609 467.207 315.573 467.207C315.024 467.207 314.587 467.389 314.262 467.755C313.937 468.111 313.775 468.644 313.775 469.355V473.47H311.397V465.271H313.668V466.216C313.973 465.871 314.344 465.606 314.78 465.424C315.227 465.241 315.715 465.149 316.243 465.149C316.822 465.149 317.346 465.266 317.813 465.5C318.28 465.723 318.656 466.053 318.941 466.49C319.276 466.064 319.698 465.733 320.205 465.5C320.724 465.266 321.287 465.149 321.897 465.149ZM330.687 465.149C331.957 465.149 332.932 465.454 333.613 466.064C334.294 466.663 334.634 467.572 334.634 468.791V473.47H332.409V472.449C331.962 473.211 331.129 473.592 329.91 473.592C329.28 473.592 328.732 473.485 328.264 473.272C327.807 473.058 327.457 472.764 327.213 472.388C326.969 472.012 326.847 471.585 326.847 471.108C326.847 470.346 327.131 469.746 327.7 469.31C328.279 468.873 329.168 468.654 330.367 468.654H332.257C332.257 468.136 332.099 467.74 331.784 467.466C331.469 467.181 330.997 467.039 330.367 467.039C329.93 467.039 329.499 467.11 329.072 467.252C328.655 467.384 328.3 467.567 328.005 467.801L327.152 466.14C327.599 465.825 328.132 465.581 328.752 465.408C329.382 465.236 330.027 465.149 330.687 465.149ZM330.504 471.992C330.911 471.992 331.271 471.9 331.586 471.717C331.901 471.524 332.125 471.245 332.257 470.879V470.041H330.626C329.651 470.041 329.163 470.361 329.163 471.001C329.163 471.306 329.28 471.55 329.514 471.732C329.758 471.905 330.088 471.992 330.504 471.992ZM339.056 466.353C339.341 465.957 339.722 465.657 340.199 465.454C340.687 465.251 341.246 465.149 341.875 465.149V467.344C341.611 467.323 341.433 467.313 341.342 467.313C340.661 467.313 340.128 467.506 339.742 467.892C339.356 468.268 339.163 468.837 339.163 469.599V473.47H336.786V465.271H339.056V466.353ZM350.971 465.149C352.241 465.149 353.216 465.454 353.897 466.064C354.578 466.663 354.918 467.572 354.918 468.791V473.47H352.693V472.449C352.246 473.211 351.413 473.592 350.194 473.592C349.564 473.592 349.015 473.485 348.548 473.272C348.091 473.058 347.74 472.764 347.497 472.388C347.253 472.012 347.131 471.585 347.131 471.108C347.131 470.346 347.415 469.746 347.984 469.31C348.563 468.873 349.452 468.654 350.651 468.654H352.541C352.541 468.136 352.383 467.74 352.068 467.466C351.753 467.181 351.281 467.039 350.651 467.039C350.214 467.039 349.782 467.11 349.356 467.252C348.939 467.384 348.584 467.567 348.289 467.801L347.436 466.14C347.883 465.825 348.416 465.581 349.036 465.408C349.666 465.236 350.311 465.149 350.971 465.149ZM350.788 471.992C351.194 471.992 351.555 471.9 351.87 471.717C352.185 471.524 352.409 471.245 352.541 470.879V470.041H350.91C349.935 470.041 349.447 470.361 349.447 471.001C349.447 471.306 349.564 471.55 349.798 471.732C350.041 471.905 350.372 471.992 350.788 471.992ZM362.052 465.149C363.068 465.149 363.886 465.454 364.506 466.064C365.136 466.673 365.451 467.577 365.451 468.776V473.47H363.073V469.142C363.073 468.492 362.931 468.009 362.647 467.694C362.362 467.369 361.951 467.207 361.412 467.207C360.813 467.207 360.336 467.394 359.98 467.77C359.624 468.136 359.447 468.685 359.447 469.416V473.47H357.069V465.271H359.34V466.231C359.655 465.886 360.046 465.622 360.513 465.439C360.981 465.246 361.494 465.149 362.052 465.149ZM376.046 462.162V473.47H373.775V472.525C373.186 473.236 372.333 473.592 371.215 473.592C370.443 473.592 369.742 473.419 369.112 473.074C368.492 472.728 368.005 472.235 367.649 471.595C367.294 470.955 367.116 470.214 367.116 469.37C367.116 468.527 367.294 467.786 367.649 467.146C368.005 466.506 368.492 466.013 369.112 465.667C369.742 465.322 370.443 465.149 371.215 465.149C372.262 465.149 373.079 465.479 373.669 466.14V462.162H376.046ZM371.627 471.641C372.226 471.641 372.724 471.438 373.12 471.032C373.516 470.615 373.714 470.061 373.714 469.37C373.714 468.68 373.516 468.131 373.12 467.725C372.724 467.308 372.226 467.1 371.627 467.1C371.017 467.1 370.514 467.308 370.118 467.725C369.722 468.131 369.524 468.68 369.524 469.37C369.524 470.061 369.722 470.615 370.118 471.032C370.514 471.438 371.017 471.641 371.627 471.641ZM392.985 462.803L388.368 473.47H385.93L381.327 462.803H383.994L387.24 470.422L390.532 462.803H392.985ZM396.999 473.592C396.136 473.592 395.358 473.414 394.668 473.058C393.987 472.693 393.454 472.19 393.068 471.55C392.681 470.91 392.488 470.183 392.488 469.37C392.488 468.558 392.681 467.831 393.068 467.191C393.454 466.551 393.987 466.053 394.668 465.698C395.358 465.332 396.136 465.149 396.999 465.149C397.863 465.149 398.635 465.332 399.315 465.698C399.996 466.053 400.53 466.551 400.916 467.191C401.302 467.831 401.495 468.558 401.495 469.37C401.495 470.183 401.302 470.91 400.916 471.55C400.53 472.19 399.996 472.693 399.315 473.058C398.635 473.414 397.863 473.592 396.999 473.592ZM396.999 471.641C397.609 471.641 398.107 471.438 398.493 471.032C398.889 470.615 399.087 470.061 399.087 469.37C399.087 468.68 398.889 468.131 398.493 467.725C398.107 467.308 397.609 467.1 396.999 467.1C396.39 467.1 395.887 467.308 395.491 467.725C395.094 468.131 394.896 468.68 394.896 469.37C394.896 470.061 395.094 470.615 395.491 471.032C395.887 471.438 396.39 471.641 396.999 471.641ZM407.046 473.592C406.172 473.592 405.385 473.414 404.684 473.058C403.993 472.693 403.449 472.19 403.053 471.55C402.667 470.91 402.474 470.183 402.474 469.37C402.474 468.558 402.667 467.831 403.053 467.191C403.449 466.551 403.993 466.053 404.684 465.698C405.385 465.332 406.172 465.149 407.046 465.149C407.909 465.149 408.661 465.332 409.301 465.698C409.951 466.053 410.424 466.567 410.718 467.237L408.874 468.228C408.448 467.476 407.833 467.1 407.031 467.1C406.411 467.1 405.898 467.303 405.491 467.709C405.085 468.116 404.882 468.669 404.882 469.37C404.882 470.071 405.085 470.625 405.491 471.032C405.898 471.438 406.411 471.641 407.031 471.641C407.843 471.641 408.458 471.265 408.874 470.513L410.718 471.519C410.424 472.169 409.951 472.677 409.301 473.043C408.661 473.409 407.909 473.592 407.046 473.592ZM415.394 465.149C416.664 465.149 417.639 465.454 418.32 466.064C419 466.663 419.341 467.572 419.341 468.791V473.47H417.116V472.449C416.669 473.211 415.836 473.592 414.617 473.592C413.987 473.592 413.438 473.485 412.971 473.272C412.514 473.058 412.163 472.764 411.919 472.388C411.676 472.012 411.554 471.585 411.554 471.108C411.554 470.346 411.838 469.746 412.407 469.31C412.986 468.873 413.875 468.654 415.074 468.654H416.964C416.964 468.136 416.806 467.74 416.491 467.466C416.176 467.181 415.704 467.039 415.074 467.039C414.637 467.039 414.205 467.11 413.779 467.252C413.362 467.384 413.006 467.567 412.712 467.801L411.858 466.14C412.306 465.825 412.839 465.581 413.459 465.408C414.088 465.236 414.734 465.149 415.394 465.149ZM415.211 471.992C415.617 471.992 415.978 471.9 416.293 471.717C416.608 471.524 416.831 471.245 416.964 470.879V470.041H415.333C414.358 470.041 413.87 470.361 413.87 471.001C413.87 471.306 413.987 471.55 414.221 471.732C414.464 471.905 414.795 471.992 415.211 471.992ZM426.338 465.149C427.1 465.149 427.791 465.327 428.411 465.683C429.041 466.028 429.533 466.521 429.889 467.161C430.245 467.791 430.422 468.527 430.422 469.37C430.422 470.214 430.245 470.955 429.889 471.595C429.533 472.225 429.041 472.718 428.411 473.074C427.791 473.419 427.1 473.592 426.338 473.592C425.211 473.592 424.352 473.236 423.763 472.525V473.47H421.492V462.162H423.87V466.14C424.469 465.479 425.292 465.149 426.338 465.149ZM425.927 471.641C426.536 471.641 427.034 471.438 427.42 471.032C427.816 470.615 428.015 470.061 428.015 469.37C428.015 468.68 427.816 468.131 427.42 467.725C427.034 467.308 426.536 467.1 425.927 467.1C425.317 467.1 424.814 467.308 424.418 467.725C424.032 468.131 423.839 468.68 423.839 469.37C423.839 470.061 424.032 470.615 424.418 471.032C424.814 471.438 425.317 471.641 425.927 471.641ZM440.273 465.271V473.47H438.018V472.494C437.703 472.85 437.327 473.124 436.89 473.317C436.453 473.5 435.981 473.592 435.473 473.592C434.396 473.592 433.543 473.282 432.913 472.662C432.283 472.042 431.968 471.123 431.968 469.904V465.271H434.345V469.553C434.345 470.874 434.899 471.534 436.006 471.534C436.575 471.534 437.032 471.352 437.378 470.986C437.723 470.61 437.896 470.056 437.896 469.325V465.271H440.273ZM442.476 462.162H444.853V473.47H442.476V462.162ZM450.366 465.149C451.636 465.149 452.611 465.454 453.292 466.064C453.972 466.663 454.313 467.572 454.313 468.791V473.47H452.088V472.449C451.641 473.211 450.808 473.592 449.589 473.592C448.959 473.592 448.41 473.485 447.943 473.272C447.486 473.058 447.135 472.764 446.891 472.388C446.648 472.012 446.526 471.585 446.526 471.108C446.526 470.346 446.81 469.746 447.379 469.31C447.958 468.873 448.847 468.654 450.046 468.654H451.936C451.936 468.136 451.778 467.74 451.463 467.466C451.148 467.181 450.676 467.039 450.046 467.039C449.609 467.039 449.177 467.11 448.751 467.252C448.334 467.384 447.979 467.567 447.684 467.801L446.831 466.14C447.278 465.825 447.811 465.581 448.431 465.408C449.06 465.236 449.706 465.149 450.366 465.149ZM450.183 471.992C450.589 471.992 450.95 471.9 451.265 471.717C451.58 471.524 451.803 471.245 451.936 470.879V470.041H450.305C449.33 470.041 448.842 470.361 448.842 471.001C448.842 471.306 448.959 471.55 449.193 471.732C449.436 471.905 449.767 471.992 450.183 471.992ZM458.735 466.353C459.019 465.957 459.4 465.657 459.878 465.454C460.366 465.251 460.924 465.149 461.554 465.149V467.344C461.29 467.323 461.112 467.313 461.021 467.313C460.34 467.313 459.807 467.506 459.421 467.892C459.035 468.268 458.842 468.837 458.842 469.599V473.47H456.464V465.271H458.735V466.353ZM471.388 465.271L467.685 473.973C467.309 474.917 466.842 475.583 466.283 475.969C465.734 476.355 465.069 476.548 464.287 476.548C463.86 476.548 463.438 476.482 463.022 476.35C462.605 476.218 462.265 476.035 462.001 475.801L462.869 474.11C463.052 474.272 463.261 474.399 463.494 474.491C463.738 474.582 463.977 474.628 464.21 474.628C464.536 474.628 464.8 474.547 465.003 474.384C465.206 474.232 465.389 473.973 465.551 473.607L465.582 473.531L462.031 465.271H464.485L466.786 470.833L469.102 465.271H471.388Z" fill="#242525"/>
<path d="M276.646 446.436C277.515 446.693 278.18 447.114 278.642 447.698C279.103 448.282 279.334 449.001 279.334 449.856C279.334 451.118 278.852 452.103 277.888 452.808C276.938 453.514 275.574 453.867 273.796 453.867H266.771V439.615H273.409C275.065 439.615 276.354 439.934 277.277 440.572C278.2 441.21 278.662 442.119 278.662 443.3C278.662 444.006 278.486 444.63 278.133 445.173C277.78 445.703 277.284 446.123 276.646 446.436ZM270.049 445.519H273.124C273.843 445.519 274.386 445.377 274.753 445.092C275.119 444.793 275.302 444.359 275.302 443.789C275.302 443.232 275.112 442.805 274.732 442.506C274.366 442.207 273.83 442.058 273.124 442.058H270.049V445.519ZM273.674 451.424C275.221 451.424 275.995 450.813 275.995 449.591C275.995 448.411 275.221 447.82 273.674 447.82H270.049V451.424H273.674ZM291.614 451.18V453.867H280.843V451.729L286.34 446.537C286.924 445.981 287.318 445.506 287.521 445.112C287.725 444.705 287.827 444.304 287.827 443.911C287.827 443.341 287.63 442.906 287.236 442.608C286.856 442.296 286.293 442.139 285.546 442.139C284.922 442.139 284.359 442.262 283.856 442.506C283.354 442.737 282.933 443.09 282.594 443.565L280.191 442.017C280.748 441.189 281.515 440.545 282.492 440.083C283.47 439.608 284.589 439.37 285.852 439.37C286.91 439.37 287.833 439.547 288.621 439.9C289.422 440.239 290.039 440.728 290.474 441.366C290.922 441.99 291.145 442.73 291.145 443.585C291.145 444.359 290.983 445.085 290.657 445.764C290.331 446.442 289.7 447.216 288.763 448.085L285.485 451.18H291.614ZM299.637 439.615H306.112C307.659 439.615 309.023 439.913 310.204 440.511C311.398 441.094 312.322 441.922 312.973 442.995C313.638 444.067 313.971 445.316 313.971 446.741C313.971 448.166 313.638 449.415 312.973 450.487C312.322 451.56 311.398 452.394 310.204 452.992C309.023 453.575 307.659 453.867 306.112 453.867H299.637V439.615ZM305.949 451.159C307.374 451.159 308.507 450.766 309.349 449.978C310.204 449.177 310.632 448.098 310.632 446.741C310.632 445.384 310.204 444.311 309.349 443.524C308.507 442.723 307.374 442.323 305.949 442.323H302.935V451.159H305.949ZM326.964 448.431C326.964 448.472 326.944 448.757 326.903 449.286H318.616C318.766 449.965 319.119 450.501 319.675 450.895C320.232 451.288 320.924 451.485 321.752 451.485C322.322 451.485 322.824 451.404 323.259 451.241C323.707 451.064 324.121 450.793 324.501 450.426L326.191 452.259C325.159 453.44 323.652 454.03 321.671 454.03C320.435 454.03 319.343 453.793 318.392 453.317C317.442 452.829 316.709 452.157 316.194 451.302C315.678 450.447 315.42 449.476 315.42 448.39C315.42 447.318 315.671 446.354 316.173 445.499C316.689 444.63 317.388 443.958 318.27 443.483C319.166 442.995 320.164 442.75 321.263 442.75C322.336 442.75 323.306 442.981 324.175 443.443C325.044 443.904 325.722 444.569 326.211 445.438C326.713 446.293 326.964 447.291 326.964 448.431ZM321.284 445.153C320.564 445.153 319.96 445.356 319.472 445.764C318.983 446.171 318.684 446.727 318.576 447.433H323.971C323.863 446.741 323.564 446.191 323.075 445.784C322.587 445.363 321.99 445.153 321.284 445.153ZM332.764 454.03C331.855 454.03 330.966 453.921 330.097 453.704C329.228 453.474 328.536 453.188 328.02 452.849L329.079 450.569C329.568 450.881 330.158 451.139 330.85 451.342C331.543 451.532 332.221 451.628 332.886 451.628C334.23 451.628 334.902 451.295 334.902 450.63C334.902 450.318 334.719 450.094 334.352 449.958C333.986 449.822 333.423 449.707 332.662 449.612C331.767 449.476 331.027 449.32 330.443 449.144C329.859 448.967 329.35 448.655 328.916 448.207C328.495 447.759 328.285 447.121 328.285 446.293C328.285 445.601 328.482 444.99 328.875 444.461C329.283 443.918 329.866 443.497 330.626 443.198C331.4 442.9 332.31 442.75 333.355 442.75C334.128 442.75 334.895 442.838 335.655 443.015C336.429 443.178 337.067 443.409 337.569 443.707L336.511 445.967C335.547 445.424 334.495 445.153 333.355 445.153C332.676 445.153 332.167 445.248 331.828 445.438C331.488 445.628 331.319 445.872 331.319 446.171C331.319 446.51 331.502 446.748 331.868 446.883C332.235 447.019 332.819 447.148 333.619 447.27C334.515 447.42 335.248 447.583 335.818 447.759C336.388 447.922 336.884 448.227 337.305 448.675C337.725 449.123 337.936 449.748 337.936 450.548C337.936 451.227 337.732 451.831 337.325 452.36C336.918 452.89 336.321 453.304 335.533 453.602C334.76 453.888 333.837 454.03 332.764 454.03ZM346.961 453.338C346.649 453.569 346.262 453.745 345.8 453.867C345.352 453.976 344.877 454.03 344.375 454.03C343.072 454.03 342.061 453.698 341.341 453.032C340.635 452.367 340.282 451.39 340.282 450.1V445.601H338.592V443.157H340.282V440.49H343.459V443.157H346.187V445.601H343.459V450.06C343.459 450.521 343.574 450.881 343.805 451.139C344.049 451.383 344.388 451.505 344.823 451.505C345.325 451.505 345.753 451.37 346.106 451.098L346.961 453.338ZM348.744 442.913H351.92V453.867H348.744V442.913ZM350.332 441.386C349.748 441.386 349.273 441.216 348.907 440.877C348.54 440.538 348.357 440.117 348.357 439.615C348.357 439.112 348.54 438.692 348.907 438.352C349.273 438.013 349.748 437.843 350.332 437.843C350.916 437.843 351.391 438.006 351.757 438.332C352.124 438.658 352.307 439.065 352.307 439.554C352.307 440.083 352.124 440.524 351.757 440.877C351.391 441.216 350.916 441.386 350.332 441.386ZM361.526 442.75C362.883 442.75 363.976 443.157 364.804 443.972C365.645 444.786 366.066 445.994 366.066 447.596V453.867H362.89V448.085C362.89 447.216 362.7 446.571 362.32 446.15C361.94 445.716 361.39 445.499 360.671 445.499C359.87 445.499 359.232 445.75 358.757 446.252C358.282 446.741 358.044 447.474 358.044 448.451V453.867H354.868V442.913H357.902V444.196C358.322 443.734 358.845 443.381 359.469 443.137C360.094 442.879 360.779 442.75 361.526 442.75ZM373.364 442.75C375.06 442.75 376.363 443.157 377.273 443.972C378.182 444.773 378.637 445.988 378.637 447.616V453.867H375.664V452.503C375.067 453.521 373.954 454.03 372.325 454.03C371.484 454.03 370.751 453.888 370.126 453.602C369.515 453.317 369.047 452.924 368.721 452.422C368.396 451.919 368.233 451.349 368.233 450.711C368.233 449.693 368.613 448.892 369.373 448.309C370.147 447.725 371.334 447.433 372.936 447.433H375.461C375.461 446.741 375.25 446.212 374.83 445.845C374.409 445.465 373.778 445.275 372.936 445.275C372.352 445.275 371.775 445.37 371.205 445.56C370.649 445.736 370.174 445.981 369.78 446.293L368.64 444.074C369.237 443.653 369.95 443.327 370.778 443.096C371.619 442.866 372.481 442.75 373.364 442.75ZM373.119 451.892C373.662 451.892 374.144 451.77 374.565 451.526C374.986 451.268 375.284 450.895 375.461 450.406V449.286H373.282C371.979 449.286 371.327 449.714 371.327 450.569C371.327 450.976 371.484 451.302 371.796 451.546C372.122 451.777 372.563 451.892 373.119 451.892ZM388.577 453.338C388.265 453.569 387.878 453.745 387.416 453.867C386.968 453.976 386.493 454.03 385.991 454.03C384.688 454.03 383.677 453.698 382.957 453.032C382.251 452.367 381.898 451.39 381.898 450.1V445.601H380.209V443.157H381.898V440.49H385.075V443.157H387.803V445.601H385.075V450.06C385.075 450.521 385.19 450.881 385.421 451.139C385.665 451.383 386.005 451.505 386.439 451.505C386.941 451.505 387.369 451.37 387.722 451.098L388.577 453.338ZM390.36 442.913H393.536V453.867H390.36V442.913ZM391.948 441.386C391.364 441.386 390.889 441.216 390.523 440.877C390.156 440.538 389.973 440.117 389.973 439.615C389.973 439.112 390.156 438.692 390.523 438.352C390.889 438.013 391.364 437.843 391.948 437.843C392.532 437.843 393.007 438.006 393.373 438.332C393.74 438.658 393.923 439.065 393.923 439.554C393.923 440.083 393.74 440.524 393.373 440.877C393.007 441.216 392.532 441.386 391.948 441.386ZM401.696 454.03C400.542 454.03 399.504 453.793 398.581 453.317C397.672 452.829 396.959 452.157 396.443 451.302C395.927 450.447 395.669 449.476 395.669 448.39C395.669 447.304 395.927 446.334 396.443 445.479C396.959 444.623 397.672 443.958 398.581 443.483C399.504 442.995 400.542 442.75 401.696 442.75C402.85 442.75 403.882 442.995 404.791 443.483C405.7 443.958 406.413 444.623 406.929 445.479C407.445 446.334 407.703 447.304 407.703 448.39C407.703 449.476 407.445 450.447 406.929 451.302C406.413 452.157 405.7 452.829 404.791 453.317C403.882 453.793 402.85 454.03 401.696 454.03ZM401.696 451.424C402.511 451.424 403.176 451.152 403.692 450.609C404.221 450.053 404.486 449.313 404.486 448.39C404.486 447.467 404.221 446.734 403.692 446.191C403.176 445.635 402.511 445.356 401.696 445.356C400.882 445.356 400.21 445.635 399.68 446.191C399.151 446.734 398.886 447.467 398.886 448.39C398.886 449.313 399.151 450.053 399.68 450.609C400.21 451.152 400.882 451.424 401.696 451.424ZM416.484 442.75C417.841 442.75 418.934 443.157 419.762 443.972C420.603 444.786 421.024 445.994 421.024 447.596V453.867H417.848V448.085C417.848 447.216 417.658 446.571 417.278 446.15C416.898 445.716 416.348 445.499 415.628 445.499C414.828 445.499 414.19 445.75 413.715 446.252C413.239 446.741 413.002 447.474 413.002 448.451V453.867H409.826V442.913H412.859V444.196C413.28 443.734 413.803 443.381 414.427 443.137C415.052 442.879 415.737 442.75 416.484 442.75ZM425.104 446.721C424.548 446.721 424.08 446.531 423.7 446.15C423.319 445.77 423.129 445.295 423.129 444.725C423.129 444.142 423.319 443.673 423.7 443.32C424.08 442.954 424.548 442.771 425.104 442.771C425.661 442.771 426.129 442.954 426.509 443.32C426.889 443.673 427.079 444.142 427.079 444.725C427.079 445.295 426.889 445.77 426.509 446.15C426.129 446.531 425.661 446.721 425.104 446.721ZM425.104 454.03C424.548 454.03 424.08 453.84 423.7 453.46C423.319 453.08 423.129 452.605 423.129 452.035C423.129 451.451 423.319 450.983 423.7 450.63C424.08 450.263 424.548 450.08 425.104 450.08C425.661 450.08 426.129 450.263 426.509 450.63C426.889 450.983 427.079 451.451 427.079 452.035C427.079 452.605 426.889 453.08 426.509 453.46C426.129 453.84 425.661 454.03 425.104 454.03Z" fill="#2CB2BD"/>
<path d="M283.879 522.879C282.49 522.879 281.409 522.482 280.635 521.688C279.861 520.894 279.474 519.753 279.474 518.265V512.341H280.962V518.205C280.962 520.438 281.939 521.554 283.894 521.554C284.847 521.554 285.576 521.281 286.082 520.735C286.588 520.18 286.841 519.336 286.841 518.205V512.341H288.285V518.265C288.285 519.763 287.898 520.909 287.124 521.703C286.35 522.487 285.269 522.879 283.879 522.879ZM295.4 512.341C296.75 512.341 297.812 512.663 298.586 513.308C299.36 513.953 299.747 514.841 299.747 515.972C299.747 517.104 299.36 517.992 298.586 518.637C297.812 519.282 296.75 519.604 295.4 519.604H292.825V522.76H291.337V512.341H295.4ZM295.356 518.309C296.298 518.309 297.018 518.111 297.514 517.714C298.01 517.307 298.258 516.727 298.258 515.972C298.258 515.218 298.01 514.643 297.514 514.246C297.018 513.839 296.298 513.635 295.356 513.635H292.825V518.309H295.356ZM305.997 512.341C307.346 512.341 308.408 512.663 309.182 513.308C309.956 513.953 310.343 514.841 310.343 515.972C310.343 517.104 309.956 517.992 309.182 518.637C308.408 519.282 307.346 519.604 305.997 519.604H303.422V522.76H301.933V512.341H305.997ZM305.952 518.309C306.895 518.309 307.614 518.111 308.111 517.714C308.607 517.307 308.855 516.727 308.855 515.972C308.855 515.218 308.607 514.643 308.111 514.246C307.614 513.839 306.895 513.635 305.952 513.635H303.422V518.309H305.952ZM320.091 521.465V522.76H312.53V512.341H319.883V513.635H314.018V516.836H319.243V518.101H314.018V521.465H320.091ZM329.468 522.76L327.22 519.56C326.942 519.579 326.724 519.589 326.565 519.589H323.99V522.76H322.502V512.341H326.565C327.915 512.341 328.976 512.663 329.75 513.308C330.524 513.953 330.911 514.841 330.911 515.972C330.911 516.776 330.713 517.461 330.316 518.026C329.919 518.592 329.353 519.004 328.619 519.262L331.09 522.76H329.468ZM326.52 518.324C327.463 518.324 328.182 518.121 328.679 517.714C329.175 517.307 329.423 516.727 329.423 515.972C329.423 515.218 329.175 514.643 328.679 514.246C328.182 513.839 327.463 513.635 326.52 513.635H323.99V518.324H326.52ZM332.573 518.056H336.577V519.292H332.573V518.056ZM338.985 512.341H340.474V522.76H338.985V512.341ZM352.553 512.341V522.76H351.333L345.081 514.99V522.76H343.593V512.341H344.813L351.065 520.11V512.341H352.553ZM357.741 513.635H354.169V512.341H362.787V513.635H359.215V522.76H357.741V513.635ZM371.969 521.465V522.76H364.408V512.341H371.761V513.635H365.897V516.836H371.121V518.101H365.897V521.465H371.969ZM381.346 522.76L379.098 519.56C378.82 519.579 378.602 519.589 378.443 519.589H375.868V522.76H374.38V512.341H378.443C379.793 512.341 380.854 512.663 381.628 513.308C382.402 513.953 382.789 514.841 382.789 515.972C382.789 516.776 382.591 517.461 382.194 518.026C381.797 518.592 381.232 519.004 380.497 519.262L382.968 522.76H381.346ZM378.398 518.324C379.341 518.324 380.061 518.121 380.557 517.714C381.053 517.307 381.301 516.727 381.301 515.972C381.301 515.218 381.053 514.643 380.557 514.246C380.061 513.839 379.341 513.635 378.398 513.635H375.868V518.324H378.398ZM394.854 522.76L394.839 515.169L391.074 521.495H390.389L386.623 515.213V522.76H385.194V512.341H386.415L390.761 519.664L395.048 512.341H396.268L396.283 522.76H394.854ZM406.972 521.465V522.76H399.41V512.341H406.763V513.635H400.899V516.836H406.123V518.101H400.899V521.465H406.972ZM409.382 512.341H413.773C414.874 512.341 415.852 512.559 416.705 512.995C417.558 513.432 418.218 514.047 418.685 514.841C419.161 515.625 419.399 516.528 419.399 517.55C419.399 518.572 419.161 519.48 418.685 520.274C418.218 521.058 417.558 521.668 416.705 522.105C415.852 522.541 414.874 522.76 413.773 522.76H409.382V512.341ZM413.683 521.465C414.527 521.465 415.266 521.301 415.901 520.974C416.546 520.646 417.042 520.19 417.39 519.604C417.737 519.009 417.911 518.324 417.911 517.55C417.911 516.776 417.737 516.096 417.39 515.511C417.042 514.916 416.546 514.454 415.901 514.127C415.266 513.799 414.527 513.635 413.683 513.635H410.87V521.465H413.683ZM421.679 512.341H423.167V522.76H421.679V512.341ZM432.925 520.155H427.388L426.242 522.76H424.709L429.427 512.341H430.901L435.634 522.76H434.071L432.925 520.155ZM432.404 518.964L430.157 513.859L427.909 518.964H432.404ZM438.734 513.635H435.162V512.341H443.78V513.635H440.208V522.76H438.734V513.635ZM452.963 521.465V522.76H445.401V512.341H452.754V513.635H446.89V516.836H452.114V518.101H446.89V521.465H452.963Z" fill="#FF9F00"/>
<path d="M290.583 540.782H293.933V547.21C293.073 547.858 292.077 548.356 290.945 548.703C289.814 549.05 288.675 549.224 287.528 549.224C285.883 549.224 284.405 548.877 283.092 548.183C281.779 547.474 280.746 546.5 279.992 545.263C279.252 544.011 278.883 542.6 278.883 541.031C278.883 539.462 279.252 538.059 279.992 536.822C280.746 535.569 281.787 534.596 283.115 533.902C284.442 533.193 285.936 532.838 287.596 532.838C288.984 532.838 290.244 533.072 291.375 533.54C292.507 534.008 293.457 534.687 294.227 535.577L291.873 537.75C290.742 536.558 289.376 535.962 287.777 535.962C286.766 535.962 285.868 536.173 285.084 536.595C284.299 537.018 283.688 537.614 283.251 538.383C282.813 539.153 282.594 540.035 282.594 541.031C282.594 542.012 282.813 542.887 283.251 543.656C283.688 544.426 284.292 545.029 285.061 545.467C285.846 545.889 286.736 546.101 287.732 546.101C288.788 546.101 289.738 545.874 290.583 545.422V540.782ZM307.432 548.952L304.377 544.539H304.196H301.005V548.952H297.338V533.11H304.196C305.599 533.11 306.813 533.344 307.839 533.812C308.88 534.279 309.68 534.943 310.238 535.803C310.797 536.663 311.076 537.682 311.076 538.858C311.076 540.035 310.789 541.054 310.216 541.914C309.657 542.759 308.858 543.407 307.817 543.86L311.37 548.952H307.432ZM307.364 538.858C307.364 537.968 307.077 537.289 306.504 536.822C305.931 536.339 305.093 536.097 303.992 536.097H301.005V541.62H303.992C305.093 541.62 305.931 541.378 306.504 540.895C307.077 540.412 307.364 539.734 307.364 538.858ZM324.414 545.557H317.058L315.655 548.952H311.898L318.959 533.11H322.581L329.664 548.952H325.817L324.414 545.557ZM323.259 542.774L320.747 536.708L318.235 542.774H323.259ZM345.724 548.952L345.701 539.447L341.039 547.277H339.387L334.748 539.651V548.952H331.308V533.11H334.34L340.27 542.955L346.109 533.11H349.119L349.164 548.952H345.724ZM367.339 548.952L367.316 539.447L362.654 547.277H361.002L356.363 539.651V548.952H352.923V533.11H355.955L361.885 542.955L367.724 533.11H370.734L370.779 548.952H367.339ZM384.971 545.557H377.616L376.212 548.952H372.456L379.517 533.11H383.138L390.221 548.952H386.374L384.971 545.557ZM383.817 542.774L381.305 536.708L378.792 542.774H383.817ZM401.959 548.952L398.903 544.539H398.722H395.531V548.952H391.865V533.11H398.722C400.125 533.11 401.34 533.344 402.366 533.812C403.407 534.279 404.207 534.943 404.765 535.803C405.323 536.663 405.602 537.682 405.602 538.858C405.602 540.035 405.316 541.054 404.742 541.914C404.184 542.759 403.384 543.407 402.343 543.86L405.897 548.952H401.959ZM401.891 538.858C401.891 537.968 401.604 537.289 401.031 536.822C400.457 536.339 399.62 536.097 398.519 536.097H395.531V541.62H398.519C399.62 541.62 400.457 541.378 401.031 540.895C401.604 540.412 401.891 539.734 401.891 538.858ZM414.916 533.11H418.583V548.952H414.916V533.11ZM436.872 533.11V548.952H433.862L425.964 539.334V548.952H422.342V533.11H425.375L433.251 542.728V533.11H436.872ZM454.068 549.224C451.805 549.224 450.039 548.598 448.772 547.345C447.52 546.093 446.894 544.305 446.894 541.982V533.11H450.56V541.846C450.56 544.682 451.737 546.101 454.09 546.101C455.237 546.101 456.112 545.761 456.716 545.082C457.319 544.388 457.621 543.309 457.621 541.846V533.11H461.242V541.982C461.242 544.305 460.608 546.093 459.341 547.345C458.089 548.598 456.331 549.224 454.068 549.224ZM470.07 549.224C468.818 549.224 467.603 549.058 466.427 548.726C465.265 548.379 464.329 547.934 463.62 547.391L464.865 544.63C465.544 545.127 466.351 545.527 467.287 545.829C468.222 546.131 469.158 546.282 470.093 546.282C471.134 546.282 471.903 546.131 472.401 545.829C472.899 545.512 473.148 545.097 473.148 544.584C473.148 544.207 472.997 543.898 472.696 543.656C472.409 543.4 472.032 543.196 471.564 543.045C471.111 542.894 470.493 542.728 469.708 542.547C468.501 542.261 467.513 541.974 466.743 541.687C465.974 541.401 465.31 540.941 464.752 540.307C464.209 539.673 463.937 538.828 463.937 537.772C463.937 536.852 464.186 536.022 464.684 535.283C465.182 534.528 465.929 533.932 466.925 533.495C467.935 533.057 469.165 532.838 470.613 532.838C471.624 532.838 472.613 532.959 473.578 533.201C474.544 533.442 475.389 533.789 476.113 534.242L474.981 537.025C473.518 536.195 472.054 535.781 470.591 535.781C469.565 535.781 468.803 535.947 468.305 536.278C467.822 536.61 467.581 537.048 467.581 537.591C467.581 538.134 467.86 538.542 468.418 538.813C468.992 539.07 469.859 539.326 471.021 539.583C472.228 539.869 473.216 540.156 473.986 540.443C474.755 540.729 475.411 541.182 475.955 541.801C476.513 542.419 476.792 543.257 476.792 544.313C476.792 545.218 476.535 546.048 476.022 546.802C475.525 547.541 474.77 548.13 473.759 548.567C472.748 549.005 471.519 549.224 470.07 549.224ZM491.563 546.01V548.952H479.297V533.11H491.269V536.052H482.941V539.492H490.296V542.344H482.941V546.01H491.563Z" fill="#33302C"/>
</svg>
