<svg width="808" height="808" viewBox="0 0 808 808" fill="none" xmlns="http://www.w3.org/2000/svg">
<g filter="url(#filter0_dd_202_9)">
<rect x="4" width="800" height="800" fill="white"/>
<path d="M117 443H692L712 518H97L117 443Z" fill="#F6F6F6"/>
<path d="M269.615 469.454C267.952 460.068 264.018 451.035 258.036 442.868C247.475 429.213 247.782 419.048 247.782 419.048C247.782 415.233 244.586 411.419 238.311 408.406C225.666 402.531 205.159 402.531 192.704 408.406C186.428 411.343 183.232 415.195 183.232 419.048C183.232 419.048 183.539 429.213 173.002 442.868C167.094 450.92 163.186 459.82 161.494 469.073C159.291 476.702 164.454 484.693 177.051 490.548C198.363 500.484 232.959 500.484 254.2 490.548C266.418 484.788 271.509 476.969 269.615 469.454Z" fill="#2F2F2F"/>
<path d="M458.615 469.454C456.952 460.068 453.018 451.035 447.036 442.868C436.475 429.213 436.782 419.048 436.782 419.048C436.782 415.233 433.586 411.419 427.311 408.406C414.666 402.531 394.159 402.531 381.704 408.406C375.428 411.343 372.232 415.195 372.232 419.048C372.232 419.048 372.539 429.213 362.002 442.868C356.094 450.92 352.186 459.82 350.494 469.073C348.291 476.702 353.454 484.693 366.051 490.548C387.363 500.484 421.959 500.484 443.2 490.548C455.418 484.788 460.509 476.969 458.615 469.454Z" fill="#2F2F2F"/>
<path d="M647.615 469.454C645.952 460.068 642.018 451.035 636.036 442.868C625.475 429.213 625.782 419.048 625.782 419.048C625.782 415.233 622.586 411.419 616.311 408.406C603.666 402.531 583.159 402.531 570.704 408.406C564.428 411.343 561.232 415.195 561.232 419.048C561.232 419.048 561.539 429.213 551.002 442.868C545.094 450.92 541.186 459.82 539.494 469.073C537.291 476.702 542.454 484.693 555.051 490.548C576.363 500.484 610.959 500.484 632.2 490.548C644.418 484.788 649.509 476.969 647.615 469.454Z" fill="#2F2F2F"/>
<rect x="97" y="518" width="615" height="14" fill="#EDEDED"/>
<g clip-path="url(#clip0_202_9)">
<path d="M170.092 402.973L161 291.858L269.581 292.082L259.967 402.973L215.7 415.791L170.092 402.973Z" fill="#E9CA32"/>
<path d="M215.7 405.061V302.441L260.415 302.59L252.441 394.403L215.7 405.061Z" fill="#FFDE25"/>
<path d="M210.912 314.628H199.091V382.929L189.896 381.177V371.983L178.951 370.232V390.809L210.912 399.128V314.628ZM219.78 314.628H252.505L250.316 327.719H232.273V349.201H250.316L248.127 392.561L219.78 399.128V385.556L238.933 378.988L240.039 361.037L219.78 363.971V314.628Z" fill="white"/>
</g>
<g clip-path="url(#clip1_202_9)">
<rect x="550" y="273" width="87.0435" height="34.1957" fill="#F6F6F6"/>
<path d="M638.096 316.091L630.07 406L593.994 416.001L558.017 406.014L550 316.091H638.096Z" fill="#264DE4"/>
<path d="M623.2 400.275L630.058 323.443H594.048V408.357L623.2 400.275Z" fill="#2965F1"/>
<path d="M568.379 356.792L569.367 367.821H594.048V356.792H568.379Z" fill="#EBEBEB"/>
<path d="M594.048 334.47H594.01H566.394L567.396 345.499H594.048V334.47Z" fill="#EBEBEB"/>
<path d="M594.048 396.912V385.438L593.999 385.45L581.717 382.134L580.931 373.338H574.963H569.86L571.405 390.655L593.997 396.926L594.048 396.912Z" fill="#EBEBEB"/>
<path d="M570.733 282.326H584.091V287.912H576.319V293.498H584.091V299.084H570.733V282.326Z" fill="black"/>
<path d="M586.762 282.326H600.12V287.184H592.348V288.155H600.12V299.327H586.762V294.227H594.534V293.255H586.762V282.326Z" fill="black"/>
<path d="M602.792 282.326H616.149V287.184H608.378V288.155H616.149V299.327H602.792V294.227H610.563V293.255H602.792V282.326Z" fill="black"/>
<path d="M607.591 367.821L606.311 382.124L594.01 385.444V396.918L616.62 390.652L616.786 388.789L619.377 359.754L619.647 356.792L621.638 334.47H594.01V345.499H609.551L608.548 356.792H594.01V367.821H607.591Z" fill="white"/>
<path d="M560 268H627L637 273H550L560 268Z" fill="#FCFCFC"/>
</g>
<g clip-path="url(#clip2_202_9)">
<rect x="361.652" y="273" width="87.0435" height="34.1957" fill="#F6F6F6"/>
<path d="M372 268H439L449 273H362L372 268Z" fill="#FCFCFC"/>
<path d="M369.327 282.326H374.913V287.864H380.061V282.326H385.647V299.084H380.061V293.498H374.961V299.084H369.327V282.326ZM393.03 287.912H388.1V282.326H403.571V287.912H398.616V299.084H393.03V287.912ZM406.024 282.326H411.877L415.471 288.228L419.066 282.326H424.919V299.084H419.333V290.778L415.423 296.801L411.513 290.778V299.084H406.024V282.326ZM427.688 282.326H433.274V293.547H441.191V299.084H427.688" fill="black"/>
<path d="M369.133 406.043L361.118 316.085H449.23L441.215 405.994L405.101 416" fill="#E44D26"/>
<path d="M405.174 408.35V323.468H441.191L434.318 400.214" fill="#F16529"/>
<path d="M377.487 334.47H405.174V345.496H389.582L390.602 356.789H405.174V367.791H380.499L377.487 334.47ZM380.984 373.328H392.059L392.836 382.145L405.174 385.448V396.959L382.539 390.645" fill="#EBEBEB"/>
<path d="M432.763 334.47H405.125V345.496H431.743L432.763 334.47ZM430.748 356.789H405.125V367.815H418.726L417.439 382.145L405.125 385.448V396.911L427.712 390.645" fill="white"/>
</g>
</g>
<defs>
<filter id="filter0_dd_202_9" x="0" y="0" width="808" height="808" filterUnits="userSpaceOnUse" color-interpolation-filters="sRGB">
<feFlood flood-opacity="0" result="BackgroundImageFix"/>
<feColorMatrix in="SourceAlpha" type="matrix" values="0 0 0 0 0 0 0 0 0 0 0 0 0 0 0 0 0 0 127 0" result="hardAlpha"/>
<feOffset dy="4"/>
<feGaussianBlur stdDeviation="2"/>
<feComposite in2="hardAlpha" operator="out"/>
<feColorMatrix type="matrix" values="0 0 0 0 0 0 0 0 0 0 0 0 0 0 0 0 0 0 0.25 0"/>
<feBlend mode="normal" in2="BackgroundImageFix" result="effect1_dropShadow_202_9"/>
<feColorMatrix in="SourceAlpha" type="matrix" values="0 0 0 0 0 0 0 0 0 0 0 0 0 0 0 0 0 0 127 0" result="hardAlpha"/>
<feOffset dy="4"/>
<feGaussianBlur stdDeviation="2"/>
<feComposite in2="hardAlpha" operator="out"/>
<feColorMatrix type="matrix" values="0 0 0 0 0 0 0 0 0 0 0 0 0 0 0 0 0 0 0.25 0"/>
<feBlend mode="normal" in2="effect1_dropShadow_202_9" result="effect2_dropShadow_202_9"/>
<feBlend mode="normal" in="SourceGraphic" in2="effect2_dropShadow_202_9" result="shape"/>
</filter>
<clipPath id="clip0_202_9">
<rect width="108.581" height="124.348" fill="white" transform="translate(161 291.652)"/>
</clipPath>
<clipPath id="clip1_202_9">
<rect width="87" height="148" fill="white" transform="translate(550 268)"/>
</clipPath>
<clipPath id="clip2_202_9">
<rect width="124" height="148" fill="white" transform="translate(343 268)"/>
</clipPath>
</defs>
</svg>
