<svg width="800" height="800" viewBox="0 0 800 800" fill="none" xmlns="http://www.w3.org/2000/svg">
<rect width="800" height="800" fill="white"/>
<g clip-path="url(#clip0_201_8)">
<path d="M655.995 645.196C651.941 646.258 647.748 640.85 643.521 633.73C640.462 628.594 637.403 622.556 634.364 617.427C633.8 616.478 633.236 615.555 632.679 614.68C631.079 612.185 638.518 604.428 642.837 603.154C643.965 602.822 645.837 604.78 648.026 607.434L648.736 608.296C649.672 609.444 650.647 610.692 651.656 611.906C653.978 614.739 656.387 617.427 658.517 618.541C663.998 621.481 686.518 609.915 695.609 616.79C704.699 623.664 663.52 643.238 655.995 645.196Z" fill="#FFD6C4"/>
<g style="mix-blend-mode:multiply" opacity="0.51">
<path d="M648.292 634.208C646.712 633.951 645.119 633.792 643.521 633.73C640.462 628.594 637.403 622.556 634.364 617.427C639.009 612.516 645.412 608.834 648.026 607.434L648.736 608.296C645.624 616.922 639.234 622.071 643.328 625.867C647.648 629.848 651.954 627.658 651.496 622.596C651.092 617.791 649.506 615.549 651.656 611.906C653.978 614.739 656.387 617.427 658.517 618.541C657.906 628.826 664.635 636.842 648.292 634.208Z" fill="#FFD6C4"/>
</g>
<path d="M678.456 634.605C668.835 640.683 653.241 650.145 647.568 645.686C645.832 644.201 644.393 642.4 643.328 640.378C641.304 636.615 639.726 632.629 638.624 628.501C642.399 627.631 652.923 625.395 652.604 623.424C652.286 621.454 651.178 616.57 653.991 614.301C656.805 612.031 660.388 614.898 661.045 614.533C661.702 614.168 687.115 611.647 695.861 614.705C696.738 614.955 697.543 615.41 698.21 616.033C702.888 621.075 688.077 628.527 678.456 634.605Z" fill="#2F80ED"/>
<path style="mix-blend-mode:multiply" d="M678.456 634.606C668.835 640.684 653.242 650.146 647.568 645.687C645.832 644.202 644.393 642.4 643.328 640.379C651.244 640.797 661.689 636.822 668.861 633.166C681.469 626.716 690.168 620.897 695.861 614.706C696.738 614.956 697.543 615.411 698.21 616.033C702.888 621.076 688.078 628.528 678.456 634.606Z" fill="url(#paint0_linear_201_8)"/>
<path d="M649.227 609.882C650.203 608.176 647.761 601.256 646.507 601.07C645.253 600.884 639.101 606.77 635.479 608.9C631.856 611.029 627.516 611.348 628.18 612.881C628.843 614.414 631.053 620.08 633.654 619.569C636.255 619.058 645.525 616.331 649.227 609.882Z" fill="url(#paint1_linear_201_8)"/>
<path d="M417.837 609.829C234.215 616.464 155.074 585.278 167.018 480.544C168.487 467.182 171.743 454.077 176.699 441.581C206.691 366.462 293.091 337.936 356.32 325.82C513.188 295.761 612.852 401.948 637.078 464.672C637.989 467.021 638.79 469.306 639.48 471.527C658.703 532.958 601.459 603.207 417.837 609.829Z" fill="#FFC939"/>
<path style="mix-blend-mode:multiply" opacity="0.58" d="M639.46 471.526C638.765 469.314 637.965 467.03 637.058 464.672C633.223 478.825 628.346 501.963 622.414 507.895C612.812 517.503 588.367 483.165 588.367 462.608C588.367 442.052 486.142 410.885 407.114 398.689C299.282 382.034 220.526 506.628 238.886 524.981C257.246 543.335 288.838 572.537 317.297 572.537C345.756 572.537 350.368 537.588 390.638 557.767C409.974 567.454 476.235 548.809 486.049 548.809C495.863 548.809 488.172 576.074 474.238 582.961C460.304 589.849 308.352 597.307 242.164 568.689C181.695 542.525 168.272 514.623 176.699 441.58C171.75 454.077 168.5 467.182 167.038 480.544C155.094 585.264 234.235 616.45 417.857 609.828C601.479 603.206 658.703 532.957 639.46 471.526ZM536.279 564.84C532.298 564.84 542.915 538.902 544.573 531.935C544.573 531.935 555.522 522.977 560.498 522.977C565.475 522.977 574.101 532.93 574.101 541.855C574.101 550.78 540.26 564.84 536.279 564.84Z" fill="#F2BD37"/>
<path d="M438.977 382.274C436.735 386.461 431.075 392.698 424.313 392.041C420.776 391.703 416.941 389.48 413.139 384.078C410.883 380.887 407.167 374.895 402.755 367.39C385.502 337.989 358.032 285.377 368.914 286.869C378.283 288.15 397.931 288.608 410.783 314.665C423.636 340.723 442.395 375.89 438.977 382.274Z" fill="#20B5D8"/>
<path style="mix-blend-mode:multiply" opacity="0.5" d="M424.313 392.054C420.776 391.716 416.941 389.493 413.139 384.092C410.883 380.9 407.167 374.908 402.754 367.404C391.733 339.296 380.347 303.803 380.347 303.803C390.3 312.993 409.543 320.889 407.884 334.99C406.225 349.09 405.893 347.166 409.543 350.968C413.192 354.77 416.841 353.436 416.841 362.062C416.841 370.688 419.874 373.687 423.251 378.339C426.629 382.99 423.537 386.189 424.313 392.054Z" fill="url(#paint2_linear_201_8)"/>
<path d="M432.056 355.931C425.978 357.158 417.883 383.328 420.305 392.094C422.727 400.859 442.281 405.311 443.277 394.363C443.927 387.197 440.298 354.272 432.056 355.931Z" fill="#F2F2F2"/>
<path d="M486.129 323.61C486.095 324.313 484.801 327.02 482.579 331.008C472.387 349.547 443.383 395.757 438.035 397.044C431.539 398.61 422.813 387.754 428.414 375.233C429.343 373.156 432.395 368.896 436.642 363.588C446.92 350.649 463.946 331.486 473.004 322.535C475.817 319.761 477.861 317.963 478.697 317.651C482.32 316.324 484.941 318.275 485.817 321.115C486.065 321.922 486.171 322.766 486.129 323.61Z" fill="#FFD6C4"/>
<path d="M433.636 431.866C450.987 421.628 552.184 367.728 561.036 373.474C569.887 379.221 570.179 415.941 536.929 440.658C503.679 465.375 443.065 495.606 431.904 479.183C420.743 462.761 422.375 438.502 433.636 431.866Z" fill="#1517A3"/>
<g style="mix-blend-mode:multiply" opacity="0.61">
<path d="M533.22 443.366C533.127 436.207 529.637 429.744 526.525 425.504C519.757 416.28 521.018 419.465 513.254 423.281C505.491 427.096 478.551 444.348 473.495 439.173C468.438 433.997 463.953 443.021 455.692 447.075C447.431 451.13 444.71 440.367 438.579 435.185C438.579 435.185 426.748 469.808 439.302 483.504C458.704 487.094 504.283 464.022 533.22 443.366Z" fill="#1517A3"/>
</g>
<path d="M649.453 604.03L643.527 608.084C639.468 610.859 634.961 612.913 630.203 614.155L627.775 614.819C601.18 583.546 557.174 498.699 557.174 498.699L554.56 499.648C538.681 505.408 455.307 535.519 427.126 542.898C396.471 550.913 371.535 527.716 365.629 503.954C365.888 503.244 366.167 502.528 366.465 501.824C368.456 497.18 382.012 482.323 396.782 472.589C399.052 471.215 401.301 469.935 403.484 468.866C408.793 466.212 424.757 462.861 445.042 459.577L445.745 459.464C492.671 451.906 561.932 444.8 574.877 447.858C593.496 452.191 649.453 604.03 649.453 604.03Z" fill="#1517A3"/>
<g style="mix-blend-mode:multiply" opacity="0.61">
<path d="M558.315 497.796C558.315 497.796 556.988 498.459 554.56 499.587C538.681 505.347 455.307 535.458 427.126 542.837C396.471 550.853 371.535 527.655 365.629 503.894C365.888 503.184 366.167 502.467 366.465 501.764C368.456 497.119 382.012 482.262 396.782 472.528C399.052 471.154 401.301 469.874 403.484 468.806C408.793 466.151 424.757 462.801 445.042 459.516L445.745 459.403C432.654 481.3 393.093 495.38 399.012 508.578C405.621 523.435 457.059 518.657 476.441 506.846C495.823 495.035 489.712 496.734 494.522 487.279C499.333 477.823 498.457 458.7 510.812 454.261C523.167 449.822 545.316 450.804 545.442 465.601C545.569 480.398 545.277 492.076 545.277 492.076L556.066 490.809L558.315 497.796Z" fill="#1517A3"/>
</g>
<path d="M438.174 465.621C424.512 479.728 397.698 490.218 381.813 496.104C374.169 498.937 369.053 500.702 369.146 501.3C372.391 522.414 310.297 459.496 273.211 405.75C272.349 404.502 271.499 403.255 270.67 402.02C268.507 398.815 266.443 395.644 264.499 392.538C250.405 370.031 242.509 350.735 248.308 342.401C254.28 333.775 267.385 324.32 282.925 315.64C294.659 309.152 306.798 303.425 319.268 298.495C341.038 289.868 361.104 284.726 368.934 286.883C375.397 288.661 384.122 304.168 393.226 324.3C395.767 329.913 398.335 335.892 400.897 342.036C403.338 347.902 405.774 353.907 408.196 359.892C412.807 371.444 417.246 382.897 421.261 393.016C427.126 407.82 432.09 419.777 435.341 424.992C439.707 431.993 439.933 429.697 445.739 432.849C450.496 435.45 442.461 461.202 438.174 465.621Z" fill="#20B5D8"/>
<g style="mix-blend-mode:multiply" opacity="0.5">
<path d="M334.542 319.33C331.749 319.33 320.688 334.989 320.688 334.989C320.688 334.989 314.53 333.284 298.831 333.284C287.258 333.284 281.578 323.63 282.906 315.634C294.646 309.147 306.792 303.422 319.268 298.495C333.109 301.354 342.492 312.535 343.48 316.643C345.113 323.477 337.329 319.33 334.542 319.33Z" fill="#7879F1"/>
</g>
<path d="M400.897 342.036C382.125 355.387 317.914 399.599 283.323 404.867C279.98 405.417 276.599 405.712 273.211 405.75C270.112 401.264 267.193 396.845 264.499 392.538C266.859 388.901 269.627 385.544 272.747 382.532C272.747 382.532 365.808 345.082 393.226 324.3C395.767 329.913 398.322 335.892 400.897 342.036Z" fill="#11C0F1"/>
<g style="mix-blend-mode:multiply" opacity="0.5">
<path d="M430.112 428.602C430.112 428.602 422.482 458.946 407.884 469.562C397.658 476.987 387.188 487.604 381.813 496.104C374.169 498.937 369.053 500.702 369.146 501.3C372.391 522.413 310.297 459.496 273.211 405.749C272.349 404.502 271.499 403.254 270.67 402.02C269.747 367.622 280.676 343.715 280.676 343.715C289.11 349.129 291.021 385.146 307.981 392.518C324.941 399.89 376.04 392.392 388.608 380.8C395.741 374.225 403.113 365.884 408.162 359.892C412.774 371.444 417.213 382.897 421.228 393.016C413.159 405.411 404.135 421.23 407.884 424.979C414.247 431.342 430.112 428.602 430.112 428.602Z" fill="#5D5FEF"/>
</g>
<path d="M305.731 387.549C280.722 403.878 242.157 403.069 222.191 424.946C202.225 446.823 201.376 471.553 217.129 497.935C232.881 524.318 286.137 574.243 314.928 568.178C343.719 562.113 363.114 536.992 368.483 518.963C373.851 500.935 375.43 481.042 390.512 471.779C405.594 462.516 420.04 451.872 425.879 438.708C431.718 425.543 427.16 410.447 415.514 399.559C403.869 388.67 387.194 357.809 365.178 351.259C343.162 344.71 334.695 356.17 328.723 361.571C322.751 366.972 312.858 382.897 305.731 387.549Z" fill="#E69D17"/>
<path d="M429.734 436.259C424.26 449.232 410.531 459.676 396.165 468.72C381.8 477.764 380.479 497.491 375.503 515.307C370.526 533.123 352.212 557.874 324.669 563.6C299.229 568.908 253.378 526.647 234.427 499.429C232.854 497.173 231.468 495.023 230.293 493.006C214.945 466.69 215.529 442.185 234.447 420.68C237.65 417.091 241.369 413.998 245.482 411.503C259.814 402.618 278.659 399.353 295.426 393.375C302.122 390.986 308.498 388.173 314.138 384.39C320.92 379.845 330.249 364.152 335.916 358.851C341.582 353.549 349.598 342.262 370.752 348.971C385.582 353.675 398.017 370.204 408.01 383.435C412.263 389.068 416.078 394.098 419.442 397.369C420.088 397.993 420.712 398.63 421.314 399.28C425.811 404.046 429.095 409.825 430.889 416.128C432.787 422.776 432.38 429.871 429.734 436.259Z" fill="#FDC830"/>
<path style="mix-blend-mode:multiply" opacity="0.39" d="M381.661 423.28C372.205 423.28 287.73 446.81 273.855 461.766C262.037 474.513 248.149 432.709 245.469 411.489C259.801 402.604 278.646 399.34 295.413 393.361C295.055 399.864 291.691 408.012 292.096 417.136C292.865 434.72 387.321 405.743 399.012 412.126C410.704 418.51 391.116 423.28 381.661 423.28Z" fill="url(#paint3_linear_201_8)"/>
<path style="mix-blend-mode:multiply" opacity="0.39" d="M384.334 406.035C388.19 403.52 399.032 392.664 407.996 383.428C412.25 389.061 416.065 394.091 419.429 397.362C420.075 397.986 420.699 398.623 421.3 399.273C408.866 398.324 389.457 404.177 384.334 406.035Z" fill="url(#paint4_linear_201_8)"/>
<path style="mix-blend-mode:multiply" opacity="0.39" d="M429.734 436.259C424.26 449.231 410.531 459.676 396.165 468.72C381.8 477.764 380.479 497.491 375.503 515.307C370.526 533.123 352.212 557.873 324.669 563.6C299.229 568.908 253.378 526.647 234.427 499.428C273.53 517.596 290.636 547.542 334.184 522.978C381.826 496.104 357.408 464.062 389.384 448.176C415.786 435.071 427.418 428.403 430.889 416.107C432.791 422.762 432.384 429.865 429.734 436.259Z" fill="#FCC62C"/>
<path d="M301.976 434.222C301.976 434.222 339.174 475.302 344.761 484.041C344.761 484.041 338.623 491.161 338.125 491.207C337.628 491.254 331.112 484.764 328.769 483.324C326.427 481.884 321.789 480.703 320.216 479.396C318.644 478.089 303.13 461.135 302.679 460.399C302.228 459.662 300.449 452.516 299.454 450.512C298.459 448.508 293.482 442.165 293.283 441.296C293.084 440.426 299.381 435.032 300.084 434.713C300.788 434.395 301.478 433.671 301.976 434.222Z" fill="url(#paint5_linear_201_8)"/>
<path d="M363.685 439.166C375.078 439.166 384.314 429.93 384.314 418.537C384.314 407.143 375.078 397.907 363.685 397.907C352.292 397.907 343.055 407.143 343.055 418.537C343.055 429.93 352.292 439.166 363.685 439.166Z" fill="url(#paint6_linear_201_8)"/>
<g style="mix-blend-mode:multiply" opacity="0.39">
<path d="M363.685 439.166C375.078 439.166 384.314 429.93 384.314 418.537C384.314 407.143 375.078 397.907 363.685 397.907C352.292 397.907 343.055 407.143 343.055 418.537C343.055 429.93 352.292 439.166 363.685 439.166Z" fill="#B4631B"/>
</g>
<path d="M368.462 399.399C368.462 399.399 499.18 278.953 501.038 276.598C502.896 274.242 502.69 269.484 503.619 268.058C504.548 266.631 528.038 237.628 530.692 238.762C533.346 239.897 551.972 252.637 553.312 256.207C554.652 259.777 524.528 286.066 521.548 287.042C518.569 288.017 513.188 288.866 512.763 289.862C512.338 290.857 384.036 416.844 384.036 416.844L368.462 399.399Z" fill="#7B3D04"/>
<path d="M306.176 444.845C306.839 446.265 333.54 479.914 334.456 476.397C335.372 472.88 303.13 438.31 306.176 444.845Z" fill="#11C0F1"/>
<path d="M313.07 458.627L505.915 279.484L516.373 258.344" stroke="#BDBDBD" stroke-width="0.663542" stroke-linecap="round" stroke-linejoin="round"/>
<path d="M316.242 461.773L507.514 281.495L526.525 248.391" stroke="#EF5DA8" stroke-width="0.663542" stroke-linecap="round" stroke-linejoin="round"/>
<path d="M316.242 461.773L507.514 281.495L526.525 248.391" stroke="#BDBDBD" stroke-width="0.663542" stroke-linecap="round" stroke-linejoin="round"/>
<path d="M319.414 464.924L509.485 283.147L539.723 260.812" stroke="#BDBDBD" stroke-width="0.663542" stroke-linecap="round" stroke-linejoin="round"/>
<path d="M322.579 468.076L511.264 284.978C511.841 284.826 529.272 270.765 529.272 270.765" stroke="#BDBDBD" stroke-width="0.663542" stroke-linecap="round" stroke-linejoin="round"/>
<path d="M325.75 471.221L513.241 286.611L521.131 279.073" fill="#1517A3"/>
<path d="M325.75 471.221L513.241 286.611L521.131 279.073" stroke="#BDBDBD" stroke-width="0.663542" stroke-linecap="round" stroke-linejoin="round"/>
<path d="M370.812 445.456C365.21 446.94 359.284 446.633 353.865 444.58C352.52 445.477 351.243 446.47 350.043 447.553C343.892 453.525 337.946 458.74 338.975 466.066C340.003 473.391 354.528 491.148 366.518 485.614C378.509 480.08 390.751 459.948 394.56 446.637C397.99 434.64 392.29 425.072 391.123 423.287C390.211 428.537 387.813 433.416 384.213 437.346C380.613 441.275 375.962 444.089 370.812 445.456Z" fill="#F2994A"/>
<path d="M522.703 278.986C522.703 278.986 524.694 281.946 526.021 281.7C527.348 281.455 529.71 281.163 529.71 282.53C529.71 283.897 525.178 287.964 524.07 287.088C522.962 286.212 524.694 283.85 523.944 283.147C523.194 282.443 521.084 280.493 521.084 279.504C521.084 278.515 521.635 278.429 522.703 278.986Z" fill="#4F4F4F"/>
<path d="M521.104 281.243C522.621 281.243 523.851 280.013 523.851 278.496C523.851 276.978 522.621 275.749 521.104 275.749C519.587 275.749 518.357 276.978 518.357 278.496C518.357 280.013 519.587 281.243 521.104 281.243Z" fill="#4F4F4F"/>
<path d="M530.865 271.289C530.865 271.289 532.855 274.255 534.182 274.003C535.509 273.751 537.878 273.466 537.878 274.833C537.878 276.199 533.346 280.267 532.238 279.398C531.13 278.529 532.855 276.16 532.112 275.456C531.369 274.753 529.252 272.802 529.252 271.807C529.252 270.812 529.803 270.699 530.865 271.289Z" fill="#4F4F4F"/>
<path d="M529.272 273.512C530.789 273.512 532.019 272.282 532.019 270.765C532.019 269.248 530.789 268.018 529.272 268.018C527.755 268.018 526.525 269.248 526.525 270.765C526.525 272.282 527.755 273.512 529.272 273.512Z" fill="#4F4F4F"/>
<path d="M541.315 261.336C541.315 261.336 543.306 264.302 544.633 264.05C545.96 263.798 548.329 263.513 548.329 264.879C548.329 266.246 543.797 270.314 542.689 269.445C541.581 268.575 543.306 266.207 542.563 265.503C541.82 264.8 539.703 262.849 539.703 261.854C539.703 260.858 540.254 260.746 541.315 261.336Z" fill="#4F4F4F"/>
<path d="M539.723 263.559C541.24 263.559 542.47 262.329 542.47 260.812C542.47 259.295 541.24 258.065 539.723 258.065C538.205 258.065 536.976 259.295 536.976 260.812C536.976 262.329 538.205 263.559 539.723 263.559Z" fill="#4F4F4F"/>
<path d="M508.225 264.508C508.225 264.508 505.358 262.398 505.677 261.044C505.995 259.691 506.393 257.382 505.013 257.315C503.633 257.249 499.36 261.582 500.182 262.73C501.005 263.878 503.447 262.265 504.111 263.048C504.774 263.831 506.612 266.034 507.621 266.081C508.629 266.127 508.729 265.603 508.225 264.508Z" fill="#4F4F4F"/>
<path d="M508.636 268.874C510.153 268.874 511.383 267.644 511.383 266.127C511.383 264.61 510.153 263.38 508.636 263.38C507.119 263.38 505.889 264.61 505.889 266.127C505.889 267.644 507.119 268.874 508.636 268.874Z" fill="#4F4F4F"/>
<path d="M516.34 256.725C516.34 256.725 513.473 254.615 513.792 253.261C514.11 251.908 514.508 249.598 513.128 249.539C511.748 249.479 507.475 253.799 508.298 254.947C509.12 256.094 511.562 254.482 512.226 255.265C512.889 256.048 514.727 258.251 515.729 258.297C516.731 258.344 516.844 257.82 516.34 256.725Z" fill="#4F4F4F"/>
<path d="M516.751 261.091C518.268 261.091 519.498 259.861 519.498 258.344C519.498 256.827 518.268 255.597 516.751 255.597C515.234 255.597 514.004 256.827 514.004 258.344C514.004 259.861 515.234 261.091 516.751 261.091Z" fill="#4F4F4F"/>
<path d="M526.79 246.772C526.79 246.772 523.924 244.662 524.236 243.308C524.548 241.954 524.952 239.645 523.572 239.579C522.192 239.513 517.925 243.839 518.742 244.993C519.558 246.148 522.006 244.529 522.676 245.305C523.347 246.082 525.171 248.291 526.18 248.338C527.188 248.384 527.288 247.86 526.79 246.772Z" fill="#4F4F4F"/>
<path d="M527.202 251.138C528.719 251.138 529.949 249.908 529.949 248.391C529.949 246.873 528.719 245.644 527.202 245.644C525.685 245.644 524.455 246.873 524.455 248.391C524.455 249.908 525.685 251.138 527.202 251.138Z" fill="#4F4F4F"/>
<path d="M288.234 437.52C288.083 439.608 287.729 441.677 287.179 443.697C285.307 450.293 281.386 452.662 275.998 451.434C272.567 450.658 268.546 448.429 264.054 444.912C262.209 443.465 260.405 440.658 258.693 436.87C247.957 413.128 240.678 350.782 248.295 342.401C259.084 330.517 266.211 330.583 278.3 340.729C279.255 341.577 280.055 342.585 280.663 343.708C290.317 360.423 289.547 421.801 288.234 437.52Z" fill="#20B5D8"/>
<g style="mix-blend-mode:multiply" opacity="0.5">
<path d="M288.234 437.52C288.083 439.608 287.729 441.677 287.179 443.697C283.668 446.576 279.929 449.163 275.998 451.434C272.568 450.658 268.546 448.428 264.054 444.912C262.21 443.465 260.405 440.658 258.693 436.87C259.217 434.262 259.741 431.448 260.232 428.462C263.55 408.264 277.484 410.175 271.844 408.185C266.204 406.194 270.185 406.526 277.484 399.227C284.783 391.928 280.968 390.767 276.489 386.288C272.01 381.809 272.508 382.306 280.663 379.321C288.818 376.335 285.434 359.215 280.663 343.715C290.317 360.423 289.548 421.8 288.234 437.52Z" fill="#5D5FEF"/>
</g>
<path d="M344.754 317.996H329.453L322.678 331.227L320.688 334.99C320.688 334.99 304.763 333.271 293.894 326.516C289.972 324.088 288.181 319.675 288.055 314.917C287.996 311.868 288.542 308.837 289.66 305.999C291.711 300.724 295.632 296.332 300.702 295.33C311.073 293.286 319.029 293.863 325.127 295.827C342.352 301.381 344.754 317.996 344.754 317.996Z" fill="#F2F2F2"/>
<g style="mix-blend-mode:multiply" opacity="0.61">
<path d="M298.067 325.408C306.222 328.938 317.31 330.59 322.618 331.227L320.687 334.99C320.687 334.99 304.762 333.271 293.894 326.516C289.972 324.088 288.181 319.675 288.054 314.917C289.952 318.958 293.044 323.232 298.067 325.408Z" fill="#F2F2F2"/>
</g>
<g style="mix-blend-mode:multiply" opacity="0.61">
<path d="M325.14 295.84C327.92 302.861 322.486 316.231 313.661 315.627C307.45 315.203 295.957 308.66 289.674 306.013C291.724 300.737 295.645 296.345 300.715 295.343C311.086 293.292 319.042 293.85 325.14 295.84Z" fill="#F2F2F2"/>
</g>
<path style="mix-blend-mode:multiply" opacity="0.61" d="M343.48 317.996H329.453L330.581 315.289L343.48 317.996Z" fill="url(#paint7_linear_201_8)"/>
<path d="M328.65 315.143C328.495 315.361 328.312 315.557 328.106 315.727C324.456 318.753 308.598 321.181 302.102 317.406C299.381 315.82 296.243 310.007 293.509 303.776C291.06 298.209 288.944 292.304 287.743 288.807C287.079 286.876 286.701 285.675 286.701 285.675C283.881 277.533 311.849 266.432 313.714 276.75C314.721 282.122 316.568 287.301 319.188 292.098C320.562 294.628 322.098 297.066 323.786 299.397C326.832 303.611 331.231 311.686 328.65 315.143Z" fill="#FFD6C4"/>
<g style="mix-blend-mode:multiply" opacity="0.51">
<path d="M287.763 288.807C287.099 286.876 286.721 285.675 286.721 285.675C283.901 277.533 311.869 266.432 313.734 276.75C314.741 282.122 316.588 287.301 319.208 292.098C318.387 294.166 317.452 296.186 316.408 298.15C313.561 303.033 291.883 291.123 287.763 288.807Z" fill="#FCDDEC"/>
</g>
<g style="mix-blend-mode:multiply" opacity="0.51">
<path d="M328.65 315.143C328.495 315.361 328.312 315.557 328.106 315.727C324.456 318.753 308.598 321.181 302.102 317.406C299.381 315.82 296.243 310.007 293.509 303.776C296.057 306.802 302.175 313.696 307.443 316.835C312.546 319.867 323.388 318.043 328.65 315.143Z" fill="#FCDDEC"/>
</g>
<path d="M268.526 253.818C271.791 263.811 285.626 288.555 293.801 291.64C301.976 294.726 331.298 290.432 333.819 280.493C336.34 270.553 324.894 240.965 317.562 231.51C310.23 222.054 296.329 219.832 290.357 220.747C284.385 221.663 262.395 235.04 268.526 253.818Z" fill="#FFD6C4"/>
<path style="mix-blend-mode:multiply" opacity="0.51" d="M288.778 253.082C295.878 250.136 315.154 241.968 315.154 232.512C315.154 232.512 287.285 235.332 274.678 242.797C270.756 245.126 269.164 249.924 269.223 255.756C273.424 266.685 286.117 288.741 293.774 291.66C298.499 293.452 310.263 292.768 319.858 289.962C315.963 289.298 310.615 288.23 303.515 286.392C285.46 281.714 281.678 256.028 288.778 253.082Z" fill="#FFD6C4"/>
<path d="M531.9 542.884C528.728 550.368 525.968 555.113 523.97 555.889C511.463 560.773 500.322 554.522 500.322 554.522C500.322 554.522 500.142 426.346 516.379 414.979L519.982 411.661L561.042 373.475C576.437 387.582 548.594 503.416 531.9 542.884Z" fill="#1517A3"/>
<path d="M281.678 256.028C284.504 259.618 287.364 281.203 283.257 281.023C279.15 280.844 261.898 272.066 264.857 261.462C264.857 261.462 251.699 239.804 272.508 225.001C293.316 210.197 310.429 216.003 315.127 211.491C319.825 206.979 317.662 201.783 320.741 202.54C323.819 203.296 333.481 230.853 308.193 240.693C282.905 250.534 280.019 253.453 278.698 253.414C277.378 253.374 280.523 254.561 281.678 256.028Z" fill="#6D411A"/>
<path d="M507.063 268.217L503.546 277.214L371.834 399.561" stroke="#BDBDBD" stroke-width="0.66"/>
<g style="mix-blend-mode:multiply">
<path d="M278.699 253.42C280.026 253.46 282.906 250.534 308.193 240.7C333.481 230.866 323.826 203.296 320.741 202.546C320.475 202.47 320.197 202.455 319.925 202.5C321.497 205.904 320.867 214.994 317.091 226.706C312.891 239.758 277.279 249.16 271.599 248.497C265.919 247.833 271.639 252.916 269.966 257.607C269.018 260.261 266.191 260.208 263.517 258.795C263.906 259.705 264.349 260.591 264.844 261.449C262.528 269.756 272.607 276.943 279.064 279.756C280.183 279.978 281.32 280.094 282.461 280.101C283.28 280.101 284.082 279.859 284.763 279.404C286.376 274.368 284.007 258.994 281.665 256.015C280.523 254.561 277.378 253.374 278.699 253.42Z" fill="#6D411A"/>
</g>
<path d="M282.056 271.787C276.243 266.359 271.274 264.322 270.053 271.329C268.626 279.544 285.858 290.227 286.92 283.857C287.982 277.487 283.814 273.432 282.056 271.787Z" fill="#FFD6C4"/>
<path d="M372.596 395.558L388.807 412.252" stroke="#4F4F4F" stroke-width="0.663542" stroke-miterlimit="10" stroke-linecap="round"/>
<path d="M389.497 418.537C387.327 422.127 385.748 425.093 384.321 424.602C382.894 424.11 382.994 421.582 384.321 418.537C385.648 415.491 391.023 415.982 389.497 418.537Z" fill="url(#paint8_linear_201_8)"/>
<path style="mix-blend-mode:multiply" opacity="0.51" d="M389.497 418.537C387.327 422.127 385.748 425.093 384.321 424.602C382.894 424.11 382.994 421.582 384.321 418.537C385.648 415.491 391.023 415.982 389.497 418.537Z" fill="url(#paint9_linear_201_8)"/>
<path d="M389.371 418.789C389.258 419.008 389.139 419.227 389.012 419.452C378.181 417.573 367.036 418.995 357.023 423.533C350.666 426.433 344.94 430.514 338.988 434.15C324.088 443.29 307.71 449.767 290.589 453.293C286.064 454.222 281.227 454.912 276.934 453.2C272.747 451.521 269.761 447.673 268.44 443.32C268.047 442.025 267.805 440.689 267.717 439.339C267.193 431.111 270.371 421.503 278.791 419.26C280.464 418.815 282.156 418.444 283.854 418.138C285.075 417.917 286.303 417.729 287.537 417.574C296.827 416.387 306.468 416.778 315.777 416.453C330.641 415.942 346.566 413.354 357.07 402.844C358.801 401.119 360.553 399.088 362.968 398.737C364.402 398.531 365.828 398.962 367.255 399.221C372.251 400.13 377.593 398.936 382.364 400.681C383.611 401.138 384.768 401.812 385.781 402.671C388.55 405.079 390.271 408.471 390.578 412.127C390.813 414.417 390.395 416.727 389.371 418.789Z" fill="#FFD6C4"/>
<path style="mix-blend-mode:multiply" opacity="0.51" d="M388.807 418.059C388.96 418.327 389.15 418.573 389.371 418.789C389.258 419.008 389.139 419.227 389.012 419.452C378.181 417.573 367.036 418.995 357.023 423.533C350.666 426.433 344.94 430.514 338.988 434.15C324.088 443.29 307.71 449.767 290.589 453.293C286.064 454.222 281.227 454.912 276.934 453.2C272.747 451.521 269.761 447.673 268.44 443.32C267.233 437.614 267.644 434.176 271.93 428.457C275.147 424.226 279.216 420.718 283.874 418.159C285.306 417.338 286.804 416.639 288.353 416.068C288.101 416.5 287.836 417.017 287.557 417.594C283.868 425.398 278.692 445.344 285.613 446.551C295.101 448.21 312.274 443.347 322.599 437.819C332.923 432.292 357.103 418.464 367.255 417.216C377.407 415.969 387.228 415.405 388.807 418.059Z" fill="#FFD6C4"/>
<path d="M292.089 417.142C285.115 417.501 278.732 425.662 277 432.238C272.74 448.442 281.811 450.651 281.811 454.971C281.811 459.291 268.646 457.678 265.222 454.254C262.913 451.945 262.362 443.346 263.158 435.496C263.445 432.073 264.138 428.696 265.222 425.437C268.208 417.308 278.752 410.553 287.179 410.898C290.808 411.051 293.389 411.934 294.816 413.002C297.138 414.727 296.402 416.917 292.089 417.142Z" fill="#F2F2F2"/>
<g style="mix-blend-mode:multiply" opacity="0.51">
<path d="M274.432 276.764C273.165 274.621 271.778 271.582 273.682 271.582C275.587 271.582 278.453 274.196 278.911 274.979C279.369 275.762 278.121 277.719 279.78 277.925C281.439 278.131 281.174 276.498 282.142 277.467C283.111 278.436 284.219 282.072 282.142 282.072C280.066 282.072 275.613 278.768 274.432 276.764Z" fill="#FCDDEC"/>
</g>
<g style="mix-blend-mode:multiply" opacity="0.61">
<path d="M292.089 417.142C285.115 417.501 278.732 425.662 277 432.238C272.74 448.442 281.811 450.651 281.811 454.971C281.811 459.291 268.646 457.678 265.222 454.254C262.913 451.945 262.362 443.346 263.158 435.496C263.444 435.987 263.888 436 264.486 435.39C267.332 432.537 266.941 429.352 267.651 435.854C268.361 442.357 268.361 449.424 270.603 443.571C272.846 437.719 271.181 426.1 282.461 419.797C287.995 416.705 291.969 414.276 294.803 413.002C297.138 414.727 296.402 416.917 292.089 417.142Z" fill="#F2F2F2"/>
</g>
<path style="mix-blend-mode:multiply" opacity="0.51" d="M385.781 402.671C388.55 405.078 390.271 408.47 390.578 412.126C390.17 411.766 389.673 411.521 389.138 411.416C387.314 411.085 388.309 409.744 388.807 409.127C389.304 408.51 388.309 407.455 387.314 405.743C386.318 404.031 384.905 406.652 385.781 402.671Z" fill="url(#paint10_linear_201_8)"/>
<g style="mix-blend-mode:multiply" opacity="0.51">
<path d="M482.592 331.008C472.4 349.547 443.397 395.756 438.048 397.044C431.552 398.61 422.827 387.754 428.427 375.233C429.356 373.156 432.408 368.896 436.655 363.588C430.504 376.235 427.551 387.263 433.536 389.964C443.284 394.363 477.151 338.871 479.188 333.563C479.367 333.098 479.593 332.587 479.852 332.043C481.318 329.07 483.932 325.069 485.823 321.141C487.502 317.664 488.604 314.247 487.814 311.652C487.569 310.823 487.336 310.04 487.151 309.31C488.056 310.288 488.793 311.409 489.334 312.628C492.101 319.243 487.834 328.062 482.592 331.008Z" fill="#FCDDEC"/>
</g>
<g style="mix-blend-mode:multiply" opacity="0.61">
<path d="M531.9 542.884C528.728 550.369 525.968 555.113 523.97 555.89C511.463 560.773 500.322 554.523 500.322 554.523C500.322 554.523 500.142 426.346 516.379 414.98L519.982 411.629C516.18 424.276 507.023 462.569 510.952 471.215C515.377 480.949 510.374 484.705 508.158 497.757C505.942 510.809 504.947 534.802 505.756 539.447C506.566 544.092 511.39 539.387 523.785 541.219C526.52 541.611 529.23 542.167 531.9 542.884Z" fill="#EF5DA8"/>
</g>
<path d="M506.546 546.175C505.046 546.978 503.839 552.757 504.721 553.368C505.604 553.978 512.909 552.312 516.612 552.259C520.314 552.206 523.798 553.699 523.964 552.372C524.13 551.045 524.959 546.241 522.75 545.571C520.54 544.901 512.246 543.136 506.546 546.175Z" fill="url(#paint11_linear_201_8)"/>
<path d="M500.541 591.031C497.223 589.12 497.568 583.426 499.167 576.433C500.952 568.603 504.336 559.114 506.088 551.371C506.751 548.352 517.959 548.053 522.066 550.263C522.909 550.72 523.035 552.572 522.875 555.08C522.537 560.474 520.885 568.935 522.119 573.161C523.957 579.352 549.026 587.248 550.572 599.04C552.118 610.831 507.508 595.098 500.541 591.031Z" fill="#FFD6C4"/>
<g style="mix-blend-mode:multiply" opacity="0.51">
<path d="M522.875 555.054C515.284 555.81 510.58 555.717 507.415 561.961C504.163 568.377 503.765 570.919 508.244 578.218C511.708 583.865 504.263 584.747 499.167 576.406C500.952 568.577 504.336 559.088 506.088 551.344C506.751 548.325 517.959 548.027 522.066 550.236C522.909 550.694 523.068 552.545 522.875 555.054Z" fill="#FFD6C4"/>
</g>
<path d="M488.504 319.27C491.158 318.082 496.055 313.683 492.976 313.192C491.621 313.011 490.244 313.103 488.925 313.464C487.607 313.824 486.374 314.444 485.299 315.289C483.308 316.729 483.64 321.486 488.504 319.27Z" fill="#FFD6C4"/>
<path style="mix-blend-mode:multiply" opacity="0.51" d="M489.327 312.595C488.787 311.377 488.049 310.256 487.144 309.277C487.356 310.007 487.588 310.79 487.807 311.62C488.57 314.214 487.469 317.631 485.817 321.108C483.926 325.036 481.311 329.038 479.845 332.01C480.804 331.811 481.729 331.473 482.592 331.008C487.834 328.062 492.1 319.244 489.327 312.595Z" fill="#FFD6C4"/>
<path d="M378.197 199.819C369.863 195.885 368.184 191.001 368.184 191.001L365.769 191.791C365.769 191.791 369.962 220.913 368.184 225.167C366.264 223.693 363.901 222.912 361.48 222.951C359.06 222.99 356.724 223.848 354.852 225.384C352.981 226.919 351.684 229.043 351.173 231.41C350.662 233.776 350.967 236.246 352.039 238.417C353.11 240.588 354.884 242.333 357.073 243.367C359.261 244.402 361.736 244.665 364.093 244.114C366.451 243.564 368.553 242.232 370.057 240.335C371.561 238.438 372.379 236.088 372.378 233.667C372.378 222.327 370.453 206.74 370.453 206.74C370.453 206.74 381.886 204.537 385.954 213.986C385.947 213.993 386.531 203.754 378.197 199.819Z" fill="#9B51E0"/>
<path d="M203.32 263.785C203.315 265.354 202.871 266.891 202.038 268.221C201.205 269.551 200.016 270.622 198.607 271.312C197.197 272.002 195.623 272.285 194.061 272.127C192.5 271.969 191.014 271.378 189.771 270.42C188.371 273.738 191.662 296.63 191.662 296.63L189.771 297.247C189.724 296.935 188.749 290.612 187.999 284.892C187.999 284.892 186.486 272.65 186.486 263.758C186.486 261.525 187.373 259.383 188.952 257.804C190.531 256.225 192.673 255.338 194.906 255.338C197.14 255.338 199.281 256.225 200.861 257.804C202.44 259.383 203.327 261.525 203.327 263.758L203.32 263.785Z" fill="#9B51E0"/>
<path d="M416.974 289.829C417.261 288.809 417.828 287.891 418.61 287.177C419.392 286.462 420.358 285.982 421.4 285.788C422.441 285.595 423.515 285.697 424.502 286.083C425.488 286.468 426.347 287.122 426.98 287.971C428.5 286.06 430.53 270.619 430.53 270.619L431.857 270.56C431.857 270.772 431.32 275.038 430.756 278.9C430.756 278.9 429.502 287.122 427.883 292.894C427.682 293.612 427.341 294.283 426.88 294.869C426.42 295.455 425.848 295.944 425.199 296.309C424.549 296.674 423.834 296.908 423.094 296.997C422.354 297.085 421.603 297.027 420.886 296.826C420.168 296.625 419.497 296.284 418.911 295.823C418.325 295.363 417.836 294.791 417.471 294.142C417.106 293.492 416.872 292.777 416.784 292.037C416.695 291.297 416.753 290.546 416.954 289.829H416.974Z" fill="#9B51E0"/>
<path d="M240.399 278.9L239.961 276.286L236.391 277.858H236.285L205.158 291.574H205.092L207.262 304.035C208.688 312.382 210.38 322.734 210.918 327.757C209.099 326.493 206.905 325.883 204.695 326.024C202.484 326.166 200.387 327.052 198.744 328.538C197.102 330.024 196.01 332.022 195.648 334.207C195.286 336.392 195.674 338.636 196.749 340.572C197.824 342.509 199.523 344.024 201.57 344.872C203.616 345.72 205.889 345.85 208.019 345.241C210.148 344.632 212.009 343.32 213.298 341.519C214.587 339.718 215.229 337.533 215.118 335.321C214.998 328.473 212.636 313.119 210.871 302.522L238.368 289.842C239.808 298.269 241.553 308.905 242.104 314.021C240.285 312.754 238.09 312.141 235.878 312.281C233.665 312.42 231.565 313.305 229.92 314.791C228.274 316.276 227.18 318.275 226.816 320.462C226.451 322.649 226.838 324.894 227.913 326.833C228.988 328.772 230.688 330.29 232.735 331.14C234.783 331.989 237.058 332.12 239.19 331.512C241.322 330.903 243.184 329.591 244.475 327.789C245.766 325.986 246.408 323.8 246.298 321.586C246.145 312.323 241.726 286.478 240.399 278.9Z" fill="#9B51E0"/>
<path d="M367.208 266.346C367.097 266.152 366.938 265.989 366.746 265.873C366.555 265.757 366.337 265.692 366.113 265.682L363.645 265.589L364.249 263.207C364.374 262.762 364.319 262.285 364.096 261.88C363.98 261.679 363.813 261.511 363.611 261.395C363.41 261.278 363.181 261.217 362.948 261.217C362.549 261.24 362.167 261.393 361.861 261.651C361.555 261.909 361.341 262.26 361.25 262.65L360.54 265.45L356.406 265.291L357.01 262.909C357.126 262.474 357.071 262.011 356.857 261.615C356.741 261.413 356.573 261.246 356.372 261.129C356.17 261.013 355.942 260.951 355.709 260.951C355.309 260.976 354.927 261.128 354.62 261.386C354.313 261.644 354.097 261.994 354.004 262.384L353.294 265.185L350.421 265.072C350.021 265.096 349.64 265.248 349.333 265.506C349.027 265.765 348.813 266.115 348.722 266.505C348.597 266.95 348.652 267.427 348.875 267.832C348.986 268.026 349.145 268.189 349.337 268.305C349.528 268.421 349.746 268.486 349.97 268.496L352.438 268.589L351.416 272.57L348.543 272.464C348.144 272.488 347.764 272.64 347.458 272.897C347.153 273.154 346.937 273.502 346.844 273.89C346.721 274.336 346.775 274.812 346.997 275.217C347.109 275.411 347.268 275.574 347.459 275.69C347.65 275.806 347.868 275.872 348.092 275.881L350.547 275.934L349.943 278.309C349.827 278.744 349.882 279.207 350.096 279.603C350.207 279.797 350.366 279.96 350.558 280.076C350.749 280.192 350.967 280.258 351.19 280.267H351.243C351.643 280.243 352.025 280.091 352.331 279.832C352.637 279.574 352.851 279.224 352.942 278.834L353.652 276.04L357.786 276.199L357.182 278.588C357.066 279.023 357.121 279.486 357.335 279.882C357.447 280.076 357.606 280.239 357.797 280.355C357.988 280.471 358.206 280.536 358.43 280.546H358.509C358.91 280.521 359.291 280.368 359.598 280.11C359.905 279.852 360.121 279.502 360.215 279.112L360.925 276.319L363.798 276.425C364.198 276.401 364.579 276.249 364.885 275.99C365.191 275.732 365.406 275.382 365.496 274.992C365.612 274.557 365.558 274.094 365.344 273.698C365.235 273.501 365.077 273.337 364.885 273.22C364.693 273.104 364.473 273.04 364.249 273.034L361.781 272.935L362.796 268.953L365.669 269.066C366.069 269.042 366.451 268.889 366.758 268.631C367.065 268.373 367.281 268.023 367.374 267.633C367.484 267.198 367.425 266.738 367.208 266.346ZM358.662 272.842L354.528 272.683L355.543 268.701L359.677 268.861L358.662 272.842Z" fill="#9B51E0"/>
<path d="M186.267 321.055C186.155 320.861 185.996 320.699 185.805 320.583C185.614 320.467 185.396 320.401 185.172 320.392L182.711 320.299L183.314 317.917C183.43 317.482 183.376 317.019 183.162 316.623C183.045 316.42 182.876 316.252 182.674 316.136C182.471 316.019 182.241 315.958 182.007 315.959C181.608 315.984 181.227 316.137 180.921 316.395C180.615 316.653 180.4 317.003 180.309 317.393L179.599 320.193L175.465 320.033L176.068 317.651C176.188 317.217 176.133 316.752 175.916 316.357C175.8 316.156 175.632 315.988 175.431 315.872C175.229 315.756 175.001 315.694 174.768 315.694C174.368 315.718 173.987 315.87 173.681 316.128C173.375 316.387 173.16 316.737 173.069 317.127L172.359 319.927L169.486 319.814C169.086 319.838 168.705 319.991 168.399 320.249C168.093 320.507 167.878 320.858 167.787 321.248C167.668 321.682 167.723 322.147 167.94 322.542C168.052 322.736 168.211 322.898 168.402 323.014C168.594 323.13 168.811 323.196 169.035 323.205L171.497 323.298L170.481 327.279L167.608 327.173C167.209 327.196 166.828 327.347 166.522 327.604C166.215 327.861 166.001 328.21 165.91 328.6C165.786 329.045 165.841 329.521 166.062 329.927C166.171 330.124 166.329 330.289 166.521 330.405C166.713 330.522 166.932 330.586 167.157 330.59L169.625 330.69L169.015 333.065C168.894 333.511 168.948 333.986 169.168 334.392C169.279 334.586 169.438 334.749 169.63 334.865C169.821 334.981 170.039 335.047 170.262 335.056H170.322C170.722 335.032 171.103 334.88 171.409 334.621C171.716 334.363 171.93 334.013 172.021 333.623L172.731 330.829L176.865 330.989L176.261 333.364C176.145 333.799 176.2 334.262 176.414 334.658C176.525 334.852 176.684 335.014 176.876 335.13C177.067 335.246 177.285 335.312 177.508 335.321H177.561C177.961 335.298 178.343 335.145 178.649 334.887C178.955 334.629 179.169 334.278 179.26 333.888L179.97 331.095L182.843 331.201C183.244 331.176 183.625 331.024 183.932 330.766C184.239 330.508 184.455 330.158 184.549 329.768C184.661 329.332 184.607 328.871 184.396 328.474C184.284 328.279 184.124 328.116 183.931 328C183.738 327.884 183.519 327.818 183.294 327.81L180.833 327.717L181.848 323.736L184.721 323.849C185.121 323.825 185.502 323.672 185.808 323.414C186.114 323.156 186.329 322.806 186.42 322.416C186.488 322.19 186.51 321.954 186.484 321.72C186.457 321.486 186.384 321.26 186.267 321.055ZM177.721 327.551L173.587 327.392L174.609 323.411L178.743 323.57L177.721 327.551Z" fill="#2F80ED"/>
<path d="M417.565 220.316C417.546 219.731 417.472 219.149 417.346 218.577C417.328 218.488 417.306 218.399 417.279 218.312C417.279 218.219 417.226 218.133 417.186 218.02C417.147 217.907 417.113 217.821 417.047 217.695C416.989 217.562 416.917 217.436 416.835 217.317L416.695 217.118C416.632 217.038 416.564 216.962 416.49 216.892L416.384 216.786L416.251 216.673C416.151 216.6 416.045 216.534 415.939 216.467C415.71 216.343 415.464 216.253 415.209 216.202C415.084 216.182 414.958 216.169 414.831 216.162H414.665H414.506C414.419 216.175 414.332 216.192 414.247 216.215L414.008 216.282L413.782 216.361L413.603 216.441L413.431 216.527L413.291 216.613L413.026 216.786C412.88 216.899 412.727 217.011 412.615 217.118L412.436 217.277L412.27 217.436L411.799 217.901C411.732 217.974 411.653 218.04 411.573 218.113L411.334 218.325L410.266 219.241C409.456 219.915 408.71 220.661 408.036 221.47C407.354 222.305 406.767 223.213 406.284 224.178L405.959 224.894L405.8 225.253C405.747 225.379 405.707 225.498 405.661 225.618L405.402 226.341L405.269 226.706L405.163 227.071L404.957 227.801C404.881 228.038 404.817 228.28 404.765 228.524L404.433 229.984C404.274 230.952 404.082 231.921 403.982 232.89C403.922 233.368 403.849 233.859 403.803 234.33L403.63 235.763V235.81C403.099 236.035 402.529 236.241 401.938 236.473C400.226 237.05 398.335 237.575 396.431 238.417C395.446 238.845 394.502 239.363 393.611 239.963C391.755 241.242 390.262 242.979 389.278 245.006C388.806 245.982 388.426 246.999 388.143 248.045C387.873 249.085 387.691 250.146 387.599 251.217C387.507 252.325 387.558 253.44 387.752 254.535C387.946 255.666 388.304 256.764 388.813 257.793C389.324 258.807 389.966 259.748 390.724 260.593C392.185 262.172 393.933 263.46 395.873 264.388C396.338 264.621 396.802 264.84 397.267 265.052L397.93 265.344L398.276 265.483L398.7 265.636C399.49 265.905 400.31 266.076 401.142 266.147L401.082 266.81L400.936 268.204C400.892 268.646 400.839 269.111 400.777 269.597C400.717 270.055 400.671 270.519 400.605 270.977L400.392 272.304L400.266 272.968C400.233 273.174 400.187 273.378 400.127 273.578C400.087 273.764 400.007 273.943 399.948 274.129C399.888 274.315 399.868 274.308 399.828 274.395L399.775 274.527L399.702 274.66C399.334 275.356 398.833 275.973 398.229 276.478C397.639 276.99 396.942 277.363 396.188 277.568C395.435 277.774 394.644 277.807 393.876 277.666C393.503 277.586 393.143 277.452 392.808 277.268C392.46 277.089 392.136 276.866 391.846 276.604C391.242 276.022 390.748 275.337 390.386 274.58C390.303 274.389 390.148 274.239 389.955 274.163C389.761 274.086 389.545 274.09 389.354 274.172C389.163 274.255 389.013 274.41 388.936 274.604C388.86 274.797 388.863 275.013 388.946 275.204C389.312 276.185 389.864 277.086 390.572 277.858C391.326 278.683 392.292 279.284 393.365 279.597C394.447 279.904 395.59 279.926 396.683 279.663C397.755 279.405 398.76 278.926 399.636 278.256C400.513 277.586 401.245 276.744 401.786 275.781L401.885 275.602L401.978 275.416C402.038 275.29 402.104 275.171 402.157 275.038C402.257 274.779 402.363 274.527 402.443 274.255C402.522 274.007 402.586 273.755 402.635 273.499L402.801 272.762L403.053 271.329C403.133 270.851 403.192 270.38 403.265 269.909C403.338 269.438 403.405 268.96 403.464 268.489L403.644 267.076L403.763 266.027C404.404 265.914 405.033 265.741 405.641 265.51C406.204 265.289 406.744 265.013 407.253 264.687C407.512 264.521 407.751 264.342 407.99 264.156C408.229 263.97 408.454 263.765 408.653 263.552C408.852 263.34 409.065 263.114 409.264 262.889C409.463 262.663 409.642 262.424 409.801 262.179C410.128 261.697 410.415 261.189 410.657 260.659C411.108 259.647 411.427 258.581 411.606 257.488C411.802 256.352 411.802 255.192 411.606 254.057C411.559 253.761 411.492 253.468 411.407 253.181C411.328 252.891 411.233 252.605 411.122 252.325C410.895 251.762 410.604 251.228 410.252 250.733C410.173 250.607 410.08 250.487 409.987 250.368C409.894 250.248 409.801 250.135 409.702 250.023C409.504 249.79 409.294 249.568 409.071 249.359C408.859 249.153 408.62 248.981 408.408 248.795C408.195 248.609 407.93 248.457 407.678 248.317C407.184 248.022 406.665 247.773 406.125 247.574C405.966 247.512 405.807 247.459 405.647 247.415L405.933 244.515C406.123 242.64 406.322 240.768 406.53 238.902C406.862 238.723 407.194 238.523 407.519 238.305L407.877 238.052L408.049 237.926L408.202 237.813L408.773 237.362C410.338 236.142 411.815 234.811 413.192 233.381C413.909 232.629 414.575 231.829 415.183 230.986C415.819 230.093 416.349 229.128 416.762 228.113C417.224 227.033 417.496 225.881 417.565 224.709C417.565 223.76 417.618 222.824 417.624 221.835C417.611 221.344 417.604 220.86 417.565 220.316ZM400.107 261.721L399.875 261.628L399.563 261.495L398.952 261.23C398.561 261.044 398.169 260.858 397.791 260.659C396.336 259.928 395.021 258.944 393.909 257.753C392.893 256.64 392.22 255.258 391.972 253.772C391.741 252.204 391.843 250.606 392.27 249.08C392.633 247.548 393.336 246.117 394.327 244.893C394.825 244.312 395.393 243.794 396.019 243.354C396.688 242.891 397.399 242.491 398.143 242.16C399.669 241.496 401.401 240.945 403.232 240.308C403.126 241.635 403.013 242.923 402.914 244.23L402.708 246.97C402.168 246.982 401.63 247.047 401.102 247.163C400.485 247.29 399.891 247.514 399.344 247.826C398.868 248.126 398.423 248.473 398.017 248.861C397.182 249.641 396.518 250.586 396.066 251.635C395.841 252.171 395.685 252.732 395.601 253.307C395.522 253.888 395.522 254.478 395.601 255.059C395.759 256.187 396.197 257.257 396.875 258.171C397.035 258.397 397.214 258.596 397.38 258.835C397.546 259.073 397.745 259.226 397.937 259.405C398.316 259.758 398.717 260.086 399.138 260.387C399.323 260.521 399.549 260.583 399.776 260.562C400.003 260.542 400.215 260.439 400.372 260.274C400.457 260.184 400.523 260.079 400.566 259.963C400.609 259.848 400.63 259.725 400.625 259.601C400.621 259.478 400.592 259.357 400.541 259.244C400.49 259.132 400.416 259.031 400.326 258.947H400.293C399.978 258.658 399.681 258.35 399.404 258.025C399.264 257.872 399.145 257.7 399.019 257.541C398.893 257.381 398.786 257.202 398.694 257.03C398.298 256.381 398.07 255.645 398.03 254.886C398.012 254.162 398.179 253.445 398.514 252.803C399.056 251.811 399.877 251.001 400.877 250.474C401.157 250.337 401.457 250.245 401.766 250.202C402.012 250.167 402.26 250.149 402.509 250.149L402.098 255.543C401.932 257.713 401.766 259.883 401.587 262.046C401.086 261.997 400.594 261.888 400.12 261.721H400.107ZM405.933 251.21C406.085 251.303 406.225 251.423 406.371 251.529C406.505 251.644 406.634 251.765 406.756 251.894C406.888 252.013 406.988 252.153 407.107 252.279L407.26 252.484C407.312 252.551 407.359 252.622 407.399 252.697C407.759 253.309 407.993 253.987 408.089 254.691C408.185 255.395 408.14 256.111 407.957 256.797C407.811 257.562 407.568 258.304 407.233 259.007C407.072 259.332 406.883 259.643 406.669 259.936C406.57 260.082 406.45 260.208 406.344 260.347C406.238 260.487 406.112 260.6 405.986 260.706C405.738 260.937 405.467 261.142 405.176 261.316C404.889 261.486 404.587 261.628 404.274 261.741C404.486 259.75 404.685 257.76 404.884 255.769L405.369 250.859C405.57 250.961 405.763 251.078 405.946 251.21H405.933ZM413.822 221.789C413.822 222.685 413.756 223.64 413.716 224.569C413.671 225.289 413.503 225.996 413.218 226.659C412.902 227.383 412.509 228.071 412.044 228.71C411.539 229.393 410.989 230.043 410.398 230.654C409.414 231.651 408.373 232.59 407.28 233.467C407.283 233.436 407.283 233.405 407.28 233.374C407.399 232.465 407.598 231.589 407.764 230.72L408.089 229.393C408.138 229.18 408.198 228.97 408.268 228.763L408.468 228.099C408.731 227.29 409.053 226.5 409.43 225.737C409.798 225.027 410.243 224.359 410.757 223.746C411.3 223.116 411.902 222.538 412.555 222.021L413.663 221.119L413.809 220.993C413.829 221.258 413.829 221.524 413.822 221.789Z" fill="#2F80ED"/>
<path d="M500.209 565.936C503.626 568.052 512.982 574.104 514.21 572.405C515.437 570.706 518.244 566.281 521.986 566.652C525.729 567.024 526.226 571.781 526.976 571.961C527.726 572.14 553.378 593.134 553.06 600.287C552.741 607.44 536.385 602.125 524.833 599.584C513.281 597.042 494.881 592.663 494.011 585.185C493.142 577.707 500.209 565.936 500.209 565.936Z" fill="url(#paint12_linear_201_8)"/>
<path d="M553.053 600.32C552.735 607.467 536.379 602.152 524.833 599.617C513.287 597.082 494.874 592.69 494.011 585.218C493.839 582.724 494.153 580.221 494.934 577.846C496.248 573.683 498.017 569.678 500.209 565.902C503.62 568.026 512.982 574.071 514.203 572.379C515.424 570.686 518.237 566.247 521.98 566.626C525.722 567.004 526.22 571.755 526.976 571.934C527.733 572.113 552.297 592.238 553.034 599.803C553.056 599.974 553.062 600.148 553.053 600.32Z" fill="#2F80ED"/>
<path style="mix-blend-mode:multiply" d="M553.053 600.32C552.735 607.466 536.379 602.151 524.833 599.617C513.287 597.082 494.874 592.689 494.011 585.218C493.839 582.724 494.153 580.22 494.934 577.846C497.19 581.668 501.47 585.078 506.088 586.983C512.584 589.637 545.721 601.866 553.034 599.822C553.055 599.987 553.061 600.154 553.053 600.32Z" fill="url(#paint13_linear_201_8)"/>
<path d="M501.304 275.695L515.019 289.829" stroke="#4F4F4F" stroke-width="0.663542" stroke-miterlimit="10" stroke-linecap="round"/>
<path d="M376.896 391.49L393.106 408.185" stroke="#4F4F4F" stroke-width="0.663542" stroke-miterlimit="10" stroke-linecap="round"/>
<path d="M381.667 387.21L397.877 403.905" stroke="#4F4F4F" stroke-width="0.663542" stroke-miterlimit="10" stroke-linecap="round"/>
<path d="M386.524 381.616L402.735 398.311" stroke="#4F4F4F" stroke-width="0.663542" stroke-miterlimit="10" stroke-linecap="round"/>
<path d="M392.794 376.799L409.005 393.5" stroke="#4F4F4F" stroke-width="0.663542" stroke-miterlimit="10" stroke-linecap="round"/>
<path d="M399.005 371.638L415.216 388.339" stroke="#4F4F4F" stroke-width="0.663542" stroke-miterlimit="10" stroke-linecap="round"/>
<path d="M406.152 364.716L422.369 381.417" stroke="#4F4F4F" stroke-width="0.663542" stroke-miterlimit="10" stroke-linecap="round"/>
<path d="M414.26 356.369L430.471 373.064" stroke="#4F4F4F" stroke-width="0.663542" stroke-miterlimit="10" stroke-linecap="round"/>
<path d="M422.369 348.015L438.579 364.716" stroke="#4F4F4F" stroke-width="0.663542" stroke-miterlimit="10" stroke-linecap="round"/>
<path d="M430.915 341.114L446.323 357.205" stroke="#4F4F4F" stroke-width="0.663542" stroke-miterlimit="10" stroke-linecap="round"/>
<path d="M440.125 332.74L455.599 348.858" stroke="#4F4F4F" stroke-width="0.663542" stroke-miterlimit="10" stroke-linecap="round"/>
<path d="M448.399 324.737L462.991 339.767" stroke="#4F4F4F" stroke-width="0.663542" stroke-miterlimit="10" stroke-linecap="round"/>
<path d="M456.787 316.901L471.358 331.698" stroke="#4F4F4F" stroke-width="0.663542" stroke-miterlimit="10" stroke-linecap="round"/>
<path d="M465.419 309.376L479.175 323.795" stroke="#4F4F4F" stroke-width="0.663542" stroke-miterlimit="10" stroke-linecap="round"/>
<path d="M473.495 301.812L487.144 316.118" stroke="#4F4F4F" stroke-width="0.663542" stroke-miterlimit="10" stroke-linecap="round"/>
<path d="M480.594 295.004L495.08 309.921" stroke="#4F4F4F" stroke-width="0.663542" stroke-miterlimit="10" stroke-linecap="round"/>
<path d="M487.495 288.94L501.304 303.16" stroke="#4F4F4F" stroke-width="0.663542" stroke-miterlimit="10" stroke-linecap="round"/>
<path d="M492.976 282.762L506.692 296.889" stroke="#4F4F4F" stroke-width="0.663542" stroke-miterlimit="10" stroke-linecap="round"/>
<path d="M482.592 331.008C481.734 331.474 480.813 331.814 479.858 332.017C475.698 332.959 470.933 331.864 472.081 330.291C474.231 327.352 473.727 324.665 473.017 322.535C472.353 320.597 471.551 319.124 472.387 318.334C473.223 317.545 474.377 320.571 474.696 319.662C475.266 317.936 473.541 314.831 473.866 314.466C474.742 313.477 476.992 315.209 477.456 315.183C479.009 315.096 474.311 310.916 475.83 309.695C477.98 307.957 479.812 311.321 481.55 311.646C483.289 311.971 477.768 308.103 479.812 306.085C481.285 304.632 484.729 306.57 487.157 309.29C488.062 310.269 488.8 311.39 489.34 312.608C492.1 319.243 487.834 328.062 482.592 331.008Z" fill="#FFD6C4"/>
</g>
<defs>
<linearGradient id="paint0_linear_201_8" x1="643.328" y1="630.77" x2="699.099" y2="630.77" gradientUnits="userSpaceOnUse">
<stop stop-color="#8E2DE2"/>
<stop offset="1" stop-color="#4A00E0"/>
</linearGradient>
<linearGradient id="paint1_linear_201_8" x1="650.345" y1="601.783" x2="630.893" y2="612.875" gradientUnits="userSpaceOnUse">
<stop stop-color="#8E2DE2"/>
<stop offset="1" stop-color="#4A00E0"/>
</linearGradient>
<linearGradient id="paint2_linear_201_8" x1="380.347" y1="347.909" x2="424.864" y2="347.909" gradientUnits="userSpaceOnUse">
<stop stop-color="#20B5D8"/>
<stop offset="1" stop-color="#8CEE98"/>
</linearGradient>
<linearGradient id="paint3_linear_201_8" x1="323.932" y1="400.481" x2="324.795" y2="498.931" gradientUnits="userSpaceOnUse">
<stop stop-color="#FDC830"/>
<stop offset="1" stop-color="#F37335"/>
</linearGradient>
<linearGradient id="paint4_linear_201_8" x1="402.675" y1="385.816" x2="402.947" y2="417.069" gradientUnits="userSpaceOnUse">
<stop stop-color="#FDC830"/>
<stop offset="1" stop-color="#F37335"/>
</linearGradient>
<linearGradient id="paint5_linear_201_8" x1="317.326" y1="433.127" x2="320.732" y2="492.217" gradientUnits="userSpaceOnUse">
<stop stop-color="#8E2DE2"/>
<stop offset="1" stop-color="#4A00E0"/>
</linearGradient>
<linearGradient id="paint6_linear_201_8" x1="349.731" y1="375.798" x2="360.347" y2="408.312" gradientUnits="userSpaceOnUse">
<stop stop-color="#FDC830"/>
<stop offset="1" stop-color="#F37335"/>
</linearGradient>
<linearGradient id="paint7_linear_201_8" x1="336.613" y1="319.516" x2="336.241" y2="315.588" gradientUnits="userSpaceOnUse">
<stop stop-color="#11C0F1"/>
<stop offset="1" stop-color="#F5F4F3"/>
</linearGradient>
<linearGradient id="paint8_linear_201_8" x1="386.504" y1="417.296" x2="386.604" y2="428.742" gradientUnits="userSpaceOnUse">
<stop stop-color="#FEC180"/>
<stop offset="0.11" stop-color="#FEBB82"/>
<stop offset="1" stop-color="#FF8993"/>
</linearGradient>
<linearGradient id="paint9_linear_201_8" x1="386.504" y1="417.296" x2="386.604" y2="428.742" gradientUnits="userSpaceOnUse">
<stop stop-color="#FEC180"/>
<stop offset="0.11" stop-color="#FEBB82"/>
<stop offset="1" stop-color="#FF8993"/>
</linearGradient>
<linearGradient id="paint10_linear_201_8" x1="388.004" y1="403.653" x2="388.123" y2="416.904" gradientUnits="userSpaceOnUse">
<stop stop-color="#FEC180"/>
<stop offset="0.11" stop-color="#FEBB82"/>
<stop offset="1" stop-color="#FF8993"/>
</linearGradient>
<linearGradient id="paint11_linear_201_8" x1="504.423" y1="548.975" x2="524.256" y2="548.975" gradientUnits="userSpaceOnUse">
<stop stop-color="#8E2DE2"/>
<stop offset="1" stop-color="#4A00E0"/>
</linearGradient>
<linearGradient id="paint12_linear_201_8" x1="493.336" y1="579.793" x2="553.614" y2="587.708" gradientUnits="userSpaceOnUse">
<stop stop-color="#8E2DE2"/>
<stop offset="1" stop-color="#4A00E0"/>
</linearGradient>
<linearGradient id="paint13_linear_201_8" x1="493.938" y1="590.891" x2="553.06" y2="590.891" gradientUnits="userSpaceOnUse">
<stop stop-color="#8E2DE2"/>
<stop offset="1" stop-color="#4A00E0"/>
</linearGradient>
<clipPath id="clip0_201_8">
<rect width="705.067" height="455.84" fill="white" transform="translate(42 191)"/>
</clipPath>
</defs>
</svg>
