<svg width="801" height="801" viewBox="0 0 801 801" fill="none" xmlns="http://www.w3.org/2000/svg">
<rect x="0.444092" y="0.165039" width="800" height="800" fill="white"/>
<path d="M112.944 432.665H687.944L707.944 507.665H92.9441L112.944 432.665Z" fill="#F6F6F6"/>
<rect x="92.9441" y="507.665" width="615" height="14" fill="#EDEDED"/>
<path d="M200.773 434.212C200.41 440.922 202.644 447.37 206.84 451.707C219.257 464.55 239.619 481.544 261.892 483.586C282.973 487.589 305.845 476.004 322.825 464.095C328.104 460.394 331.479 453.749 331.867 446.483L335.006 388.344L203.629 381.245L200.773 434.212Z" fill="#363D54"/>
<path d="M270.965 429.822L270.911 434.443L365.284 381.56L365.343 376.942L270.965 429.822Z" fill="#444D69"/>
<path d="M177.999 374.523L270.966 429.825L365.344 376.946L272.376 321.665L177.999 374.523Z" fill="#363D54"/>
<path d="M177.999 374.521L177.944 379.145L270.912 434.444L270.966 429.823L177.999 374.521Z" fill="#2E3447"/>
<path d="M280.032 374.757C280.067 372.075 276.246 369.85 271.498 369.788C266.749 369.726 262.871 371.85 262.836 374.532C262.801 377.214 266.622 379.439 271.37 379.501C276.119 379.564 279.997 377.439 280.032 374.757Z" fill="#FFC939"/>
<path d="M270.865 376.939L319.302 407.266L317.387 489.012L320.813 490.585L323.429 404.378L272.816 373.713L270.865 376.939Z" fill="#FFC939"/>
<path d="M321.537 487.362C321.577 486.432 320.48 485.632 319.092 485.581C317.701 485.523 316.545 486.232 316.509 487.162L314.413 496.204C314.358 497.748 316.197 499.063 318.532 499.157C320.865 499.245 322.805 498.071 322.863 496.531C322.874 496.313 322.834 496.106 322.772 495.902L321.537 487.362Z" fill="#FFC939"/>
<path d="M444.45 278.665H603.514V472.235C603.514 473.339 602.618 474.235 601.514 474.235H444.45V278.665Z" fill="url(#paint0_linear_203_10)"/>
<rect x="467.919" y="302.133" width="114.734" height="20.8608" fill="#363D54"/>
<rect x="546.147" y="362.107" width="36.5063" height="2.60759" fill="#363D54"/>
<rect x="546.147" y="367.323" width="36.5063" height="2.60759" fill="#363D54"/>
<rect x="470.527" y="429.906" width="36.5063" height="2.60759" fill="#363D54"/>
<rect x="546.147" y="382.97" width="36.5063" height="2.60759" fill="#363D54"/>
<rect x="535.716" y="372.538" width="46.9367" height="2.60759" fill="#363D54"/>
<rect x="486.172" y="367.323" width="57.3671" height="2.60759" fill="#363D54"/>
<rect x="449.666" y="435.121" width="57.3671" height="2.60759" fill="#363D54"/>
<rect x="486.172" y="382.97" width="57.3671" height="2.60759" fill="#363D54"/>
<rect x="460.096" y="372.538" width="73.0127" height="2.60759" fill="#363D54"/>
<rect x="509.64" y="377.753" width="73.0127" height="2.60759" fill="#363D54"/>
<circle cx="553.969" cy="432.513" r="20.8608" fill="#D78383"/>
<path d="M543.539 448.159H564.4V484.666L553.969 475.539L543.539 484.666V448.159Z" fill="#D78383"/>
<circle cx="553.97" cy="432.514" r="15.6456" fill="#FFC939"/>
<path d="M438.925 439.854H444.45L444.45 474.234C440.767 472.706 434.505 463.69 438.925 439.854Z" fill="url(#paint1_linear_203_10)"/>
<defs>
<linearGradient id="paint0_linear_203_10" x1="523.982" y1="278.665" x2="523.982" y2="474.235" gradientUnits="userSpaceOnUse">
<stop stop-color="#F6F1E8"/>
<stop offset="0.858967" stop-color="#F6F1E8"/>
<stop offset="0.906609" stop-color="#F6F1E8"/>
<stop offset="1" stop-color="#D9C7AB"/>
</linearGradient>
<linearGradient id="paint1_linear_203_10" x1="440.927" y1="439.854" x2="440.927" y2="474.234" gradientUnits="userSpaceOnUse">
<stop stop-color="#DBCAAF"/>
<stop offset="1" stop-color="#DAC8AC"/>
</linearGradient>
</defs>
</svg>
