<svg width="801" height="801" viewBox="0 0 801 801" fill="none" xmlns="http://www.w3.org/2000/svg">
<rect x="0.444092" y="0.165039" width="800" height="800" fill="#EDEDED"/>
<g clip-path="url(#clip0_714_335)">
<rect x="123.6" y="55" width="552.475" height="1078" rx="33.6875" fill="#494760"/>
<rect x="164.025" y="176.259" width="471.625" height="808.5" rx="5" fill="white"/>
<path d="M164 181C164 178.239 166.239 176 169 176H631C633.761 176 636 178.239 636 181V563H164V181Z" fill="#1517A3"/>
<path d="M272.635 427.5V432H253.873V407.769H272.185V412.269H259.446V417.531H270.696V421.892H259.446V427.5H272.635ZM295.342 413.377V432H290.219V429.785C289.504 430.592 288.65 431.215 287.657 431.654C286.665 432.069 285.592 432.277 284.438 432.277C281.992 432.277 280.054 431.573 278.623 430.165C277.192 428.758 276.477 426.669 276.477 423.9V413.377H281.877V423.104C281.877 426.104 283.134 427.604 285.65 427.604C286.942 427.604 287.981 427.188 288.765 426.358C289.55 425.504 289.942 424.246 289.942 422.585V413.377H295.342ZM319.556 413.377V428.885C319.556 432.3 318.668 434.838 316.891 436.5C315.114 438.162 312.518 438.992 309.102 438.992C307.302 438.992 305.595 438.773 303.979 438.335C302.364 437.896 301.026 437.262 299.964 436.431L302.11 432.554C302.895 433.2 303.887 433.708 305.087 434.077C306.287 434.469 307.487 434.665 308.687 434.665C310.556 434.665 311.929 434.238 312.806 433.385C313.706 432.554 314.156 431.285 314.156 429.577V428.781C312.749 430.327 310.787 431.1 308.272 431.1C306.564 431.1 304.995 430.731 303.564 429.992C302.156 429.231 301.037 428.169 300.206 426.808C299.376 425.446 298.96 423.877 298.96 422.1C298.96 420.323 299.376 418.754 300.206 417.392C301.037 416.031 302.156 414.981 303.564 414.242C304.995 413.481 306.564 413.1 308.272 413.1C310.972 413.1 313.026 413.988 314.433 415.765V413.377H319.556ZM309.345 426.669C310.776 426.669 311.941 426.254 312.841 425.423C313.764 424.569 314.226 423.462 314.226 422.1C314.226 420.738 313.764 419.642 312.841 418.812C311.941 417.958 310.776 417.531 309.345 417.531C307.914 417.531 306.737 417.958 305.814 418.812C304.891 419.642 304.429 420.738 304.429 422.1C304.429 423.462 304.891 424.569 305.814 425.423C306.737 426.254 307.914 426.669 309.345 426.669ZM342.825 422.758C342.825 422.827 342.79 423.312 342.721 424.212H328.632C328.886 425.365 329.486 426.277 330.432 426.946C331.378 427.615 332.555 427.95 333.963 427.95C334.932 427.95 335.786 427.812 336.525 427.535C337.286 427.235 337.99 426.773 338.636 426.15L341.509 429.265C339.755 431.273 337.194 432.277 333.825 432.277C331.725 432.277 329.867 431.873 328.252 431.065C326.636 430.235 325.39 429.092 324.513 427.638C323.636 426.185 323.198 424.535 323.198 422.688C323.198 420.865 323.625 419.227 324.478 417.773C325.355 416.296 326.544 415.154 328.044 414.346C329.567 413.515 331.263 413.1 333.132 413.1C334.955 413.1 336.605 413.492 338.082 414.277C339.559 415.062 340.713 416.192 341.544 417.669C342.398 419.123 342.825 420.819 342.825 422.758ZM333.167 417.185C331.944 417.185 330.917 417.531 330.086 418.223C329.255 418.915 328.748 419.862 328.563 421.062H337.736C337.552 419.885 337.044 418.95 336.213 418.258C335.382 417.542 334.367 417.185 333.167 417.185ZM357.739 413.1C360.047 413.1 361.904 413.792 363.312 415.177C364.743 416.562 365.458 418.615 365.458 421.338V432H360.058V422.169C360.058 420.692 359.735 419.596 359.089 418.881C358.443 418.142 357.508 417.773 356.285 417.773C354.924 417.773 353.839 418.2 353.031 419.054C352.224 419.885 351.82 421.131 351.82 422.792V432H346.42V413.377H351.577V415.558C352.293 414.773 353.181 414.173 354.243 413.758C355.304 413.319 356.47 413.1 357.739 413.1ZM388.798 422.758C388.798 422.827 388.764 423.312 388.694 424.212H374.606C374.86 425.365 375.46 426.277 376.406 426.946C377.352 427.615 378.529 427.95 379.937 427.95C380.906 427.95 381.76 427.812 382.498 427.535C383.26 427.235 383.964 426.773 384.61 426.15L387.483 429.265C385.729 431.273 383.167 432.277 379.798 432.277C377.698 432.277 375.84 431.873 374.225 431.065C372.61 430.235 371.364 429.092 370.487 427.638C369.61 426.185 369.171 424.535 369.171 422.688C369.171 420.865 369.598 419.227 370.452 417.773C371.329 416.296 372.517 415.154 374.017 414.346C375.54 413.515 377.237 413.1 379.106 413.1C380.929 413.1 382.579 413.492 384.056 414.277C385.533 415.062 386.687 416.192 387.517 417.669C388.371 419.123 388.798 420.819 388.798 422.758ZM379.14 417.185C377.917 417.185 376.89 417.531 376.06 418.223C375.229 418.915 374.721 419.862 374.537 421.062H383.71C383.525 419.885 383.017 418.95 382.187 418.258C381.356 417.542 380.34 417.185 379.14 417.185ZM420.37 419.4C421.754 419.838 422.839 420.577 423.623 421.615C424.408 422.631 424.8 423.888 424.8 425.388C424.8 427.512 423.97 429.15 422.308 430.304C420.67 431.435 418.27 432 415.108 432H402.577V407.769H414.416C417.37 407.769 419.631 408.335 421.2 409.465C422.793 410.596 423.589 412.131 423.589 414.069C423.589 415.246 423.3 416.296 422.723 417.219C422.17 418.142 421.385 418.869 420.37 419.4ZM408.15 411.992V417.704H413.723C415.108 417.704 416.158 417.462 416.873 416.977C417.589 416.492 417.946 415.777 417.946 414.831C417.946 413.885 417.589 413.181 416.873 412.719C416.158 412.235 415.108 411.992 413.723 411.992H408.15ZM414.693 427.777C416.17 427.777 417.277 427.535 418.016 427.05C418.777 426.565 419.158 425.815 419.158 424.8C419.158 422.792 417.67 421.788 414.693 421.788H408.15V427.777H414.693ZM436.177 413.1C439.061 413.1 441.277 413.792 442.823 415.177C444.369 416.538 445.142 418.604 445.142 421.373V432H440.088V429.681C439.073 431.412 437.18 432.277 434.411 432.277C432.98 432.277 431.734 432.035 430.673 431.55C429.634 431.065 428.838 430.396 428.284 429.542C427.73 428.688 427.454 427.719 427.454 426.635C427.454 424.904 428.1 423.542 429.392 422.55C430.707 421.558 432.727 421.062 435.45 421.062H439.742C439.742 419.885 439.384 418.985 438.669 418.362C437.954 417.715 436.88 417.392 435.45 417.392C434.457 417.392 433.477 417.554 432.507 417.877C431.561 418.177 430.754 418.592 430.084 419.123L428.146 415.35C429.161 414.635 430.373 414.081 431.78 413.688C433.211 413.296 434.677 413.1 436.177 413.1ZM435.761 428.642C436.684 428.642 437.504 428.435 438.219 428.019C438.934 427.581 439.442 426.946 439.742 426.115V424.212H436.038C433.823 424.212 432.715 424.938 432.715 426.392C432.715 427.085 432.98 427.638 433.511 428.054C434.065 428.446 434.815 428.642 435.761 428.642ZM450.029 413.377H455.429V432H450.029V413.377ZM452.729 410.781C451.737 410.781 450.929 410.492 450.306 409.915C449.683 409.338 449.372 408.623 449.372 407.769C449.372 406.915 449.683 406.2 450.306 405.623C450.929 405.046 451.737 404.758 452.729 404.758C453.722 404.758 454.529 405.035 455.152 405.588C455.775 406.142 456.087 406.835 456.087 407.665C456.087 408.565 455.775 409.315 455.152 409.915C454.529 410.492 453.722 410.781 452.729 410.781ZM469.441 432.277C467.456 432.277 465.668 431.873 464.076 431.065C462.506 430.235 461.272 429.092 460.372 427.638C459.495 426.185 459.056 424.535 459.056 422.688C459.056 420.842 459.495 419.192 460.372 417.738C461.272 416.285 462.506 415.154 464.076 414.346C465.668 413.515 467.456 413.1 469.441 413.1C471.402 413.1 473.11 413.515 474.564 414.346C476.041 415.154 477.114 416.319 477.783 417.842L473.595 420.092C472.626 418.385 471.229 417.531 469.406 417.531C467.999 417.531 466.833 417.992 465.91 418.915C464.987 419.838 464.526 421.096 464.526 422.688C464.526 424.281 464.987 425.538 465.91 426.462C466.833 427.385 467.999 427.846 469.406 427.846C471.252 427.846 472.649 426.992 473.595 425.285L477.783 427.569C477.114 429.046 476.041 430.2 474.564 431.031C473.11 431.862 471.402 432.277 469.441 432.277ZM492.076 413.1C494.384 413.1 496.242 413.792 497.65 415.177C499.08 416.562 499.796 418.615 499.796 421.338V432H494.396V422.169C494.396 420.692 494.073 419.596 493.426 418.881C492.78 418.142 491.846 417.773 490.623 417.773C489.261 417.773 488.176 418.2 487.369 419.054C486.561 419.885 486.157 421.131 486.157 422.792V432H480.757V406.315H486.157V415.315C486.873 414.6 487.738 414.058 488.753 413.688C489.769 413.296 490.876 413.1 492.076 413.1ZM523.452 413.377V432H518.329V429.785C517.614 430.592 516.76 431.215 515.767 431.654C514.775 432.069 513.702 432.277 512.548 432.277C510.102 432.277 508.164 431.573 506.733 430.165C505.302 428.758 504.587 426.669 504.587 423.9V413.377H509.987V423.104C509.987 426.104 511.244 427.604 513.76 427.604C515.052 427.604 516.09 427.188 516.875 426.358C517.66 425.504 518.052 424.246 518.052 422.585V413.377H523.452ZM536.451 424.696L533.855 427.258V432H528.455V406.315H533.855V420.854L541.747 413.377H548.186L540.432 421.269L548.878 432H542.336L536.451 424.696Z" fill="white"/>
<rect x="329.676" y="121.474" width="140.325" height="16.8389" rx="5.61298" fill="black"/>
<circle cx="377.386" cy="101.835" r="5.61298" fill="#C4C4C4"/>
<circle cx="399.838" cy="101.835" r="5.61298" fill="#C4C4C4"/>
<circle cx="422.29" cy="101.835" r="5.61298" fill="#C4C4C4"/>
<mask id="mask0_714_335" style="mask-type:alpha" maskUnits="userSpaceOnUse" x="329" y="220" width="141" height="141">
<circle cx="399.5" cy="290.5" r="70.5" fill="#DBDBE5"/>
</mask>
<g mask="url(#mask0_714_335)">
<circle cx="399.5" cy="290.5" r="70.5" fill="#DBDBE5"/>
<path fill-rule="evenodd" clip-rule="evenodd" d="M445.872 264.632C444.868 266.136 443.808 267.698 442.68 269.326C438.047 273.457 431.032 276.711 421.642 279.09C417.16 280.211 413.686 280.898 411.216 281.157H411.122C411.495 283.908 412.502 287.04 414.13 290.545C415.008 292.173 416.26 294.425 417.886 297.303C417.977 297.29 418.068 297.29 418.167 297.303C429.445 295.459 439.558 288.889 448.502 277.588C449.129 276.711 449.692 275.963 450.194 275.334V275.149C449.316 271.393 447.876 267.886 445.872 264.632ZM393.84 248.111C397.096 249.112 401.166 250.865 406.048 253.368C412.936 256.748 418.008 259.629 421.264 262.008H420.513C418.634 262.256 417.63 263.697 417.505 266.326C417.379 269.205 421.013 270.143 428.4 269.144C432.407 268.018 435.85 266.075 438.731 263.324C440.108 261.82 441.298 260.509 442.299 259.38C434.91 250.368 424.515 245.674 411.117 245.298C405.11 245.166 399.351 246.107 393.84 248.111ZM376.842 300.59C377.684 299.595 378.528 298.315 379.378 296.74C378.252 296.616 377.374 296.425 376.748 296.177C376.121 295.677 375.432 295.239 374.681 294.861C374.43 295.863 374.242 297.364 374.118 299.367H374.306C374.557 299.243 374.869 299.18 375.244 299.18C375.87 299.18 376.436 299.555 376.935 300.305C376.935 300.399 376.902 300.493 376.842 300.59Z" fill="#6D411A"/>
<path fill-rule="evenodd" clip-rule="evenodd" d="M401.542 303.128H417.696C417.567 302.943 417.442 302.755 417.321 302.565C412.309 295.178 408.493 291.174 405.861 290.55C405.361 290.299 400.162 289.86 390.272 289.234C381.508 288.734 376.122 287.542 374.118 285.666C372.242 284.415 370.611 283.287 369.234 282.285C368.628 284.829 368.123 287.428 367.73 290.078C371.27 291.767 373.527 293.365 374.493 294.866H374.679C375.432 295.241 376.119 295.68 376.745 296.182C377.372 296.433 378.249 296.621 379.375 296.745C379.499 296.745 379.626 296.806 379.75 296.933C380.499 296.557 381.439 296.37 382.565 296.37C384.444 296.37 388.076 297.371 393.46 299.375C397.216 300.737 399.909 301.989 401.542 303.128ZM366.883 315.331C367.439 315.638 368.095 316.137 368.856 316.835C371.737 319.338 374.679 320.276 377.684 319.65C380.691 319.023 383.067 319.274 384.822 320.4C386.572 321.526 388.203 323.466 389.704 326.22C391.332 328.972 392.397 330.788 392.899 331.665C393.777 332.794 394.842 333.793 396.092 334.67C397.472 335.297 399.285 335.297 401.539 334.67C406.796 333.793 410.993 331.477 414.125 327.722C418.256 322.967 420.386 319.711 420.513 317.958L420.886 318.146C421.921 315.635 422.359 312.975 422.202 310.165C421.561 309.151 420.901 308.119 420.232 307.069H403.325C402.059 314.185 398.522 317.436 392.712 316.835C387.074 316.082 383.134 314.644 380.877 312.514C378.498 310.135 377.182 307.695 376.933 305.192C376.806 303.189 376.745 301.685 376.745 300.686L376.839 300.592C376.9 300.496 376.933 300.402 376.933 300.311C376.433 299.56 375.868 299.185 375.242 299.185C374.866 299.185 374.554 299.246 374.303 299.372C374.052 300.123 373.738 300.94 373.362 301.814C372.112 305.071 369.921 306.82 366.789 307.071H366.508C366.559 309.772 366.685 312.526 366.883 315.331ZM368.668 329.04C370.421 329.791 371.425 330.166 371.676 330.166C371.795 330.151 371.922 330.151 372.049 330.166C372.652 329.844 373.53 329.72 374.679 329.791C376.507 329.791 377.887 330.76 378.812 332.7C380.552 333.889 382.117 334.485 383.509 334.485C384.635 334.485 385.327 334.046 385.573 333.169C385.7 332.669 385.948 332.357 386.326 332.231C385.573 330.351 384.949 329.289 384.45 329.04C382.946 328.036 378.939 326.662 372.427 324.909C371.306 324.559 370.337 324.214 369.518 323.877C368.988 323.657 368.519 323.438 368.108 323.218C367.974 323.16 367.847 323.099 367.733 323.03C367.768 323.274 367.799 323.525 367.826 323.781C367.925 324.4 368.017 325.026 368.108 325.657C368.23 326.662 368.42 327.79 368.668 329.04Z" fill="#FFD6C4"/>
<path fill-rule="evenodd" clip-rule="evenodd" d="M392.339 280.969C391.964 280.969 391.586 280.969 391.211 280.969C389.96 280.718 388.708 280.467 387.455 280.219L381.445 277.964C380.818 277.713 380.192 277.401 379.566 277.026H379.38C379.127 276.775 378.815 276.524 378.44 276.275C377.438 275.773 376.375 275.086 375.247 274.211C374.334 273.412 373.55 272.504 372.898 271.487C372.391 272.76 371.92 274.046 371.489 275.337C370.738 277.591 370.048 279.843 369.424 282.098C369.3 282.098 369.237 282.161 369.237 282.285C370.614 283.287 372.244 284.416 374.121 285.666C376.124 287.542 381.511 288.732 390.275 289.234C400.165 289.86 405.364 290.296 405.863 290.55C408.493 291.176 412.312 295.181 417.323 302.565C417.447 302.756 417.572 302.943 417.699 303.128H420.607C420.113 301.84 419.517 300.526 418.825 299.185C418.571 298.559 418.259 297.932 417.886 297.306C416.258 294.427 415.005 292.176 414.131 290.547C412.502 287.043 411.498 283.911 411.123 281.159H410.935C409.934 281.159 409.119 281.159 408.493 281.159C406.992 281.159 406.178 281.159 406.051 281.159H405.676C405.176 281.159 404.737 281.159 404.359 281.159C403.109 281.159 402.044 281.159 401.167 281.159C399.539 281.159 398.037 281.159 396.66 281.159H395.532C394.409 281.159 393.343 281.159 392.342 281.159V280.969H392.339ZM378.812 332.7C378.939 333.014 379.066 333.359 379.188 333.735C380.189 336.362 381.817 337.99 384.072 338.616C386.451 339.243 387.767 338.302 388.015 335.799C388.145 335.172 388.079 334.173 387.83 332.796C387.577 331.293 387.016 329.791 386.139 328.29C385.388 326.662 384.323 325.412 382.946 324.534C381.569 323.408 379.563 322.97 376.936 323.218C374.179 323.469 370.986 322.404 367.355 320.025L368.108 323.218C367.979 323.142 367.852 323.048 367.733 322.939V323.033C367.849 323.099 367.976 323.16 368.108 323.218C368.519 323.439 368.988 323.659 369.518 323.88C370.337 324.217 371.306 324.562 372.427 324.912C378.939 326.664 382.946 328.039 384.45 329.043C384.949 329.292 385.573 330.357 386.326 332.233C385.951 332.36 385.7 332.672 385.573 333.172C385.325 334.049 384.635 334.488 383.509 334.488C382.117 334.483 380.552 333.889 378.812 332.7ZM421.733 307.069H420.232C420.904 308.119 421.561 309.151 422.202 310.166C422.129 309.151 421.974 308.119 421.733 307.069ZM369.516 333.638L371.111 331.102C371.271 330.676 371.585 330.364 372.049 330.164C371.92 330.149 371.793 330.149 371.676 330.164C371.425 330.164 370.423 329.789 368.669 329.038C368.892 330.476 369.171 332.008 369.516 333.638Z" fill="#E7BCA9"/>
<path fill-rule="evenodd" clip-rule="evenodd" d="M376.747 349.595C376.666 350.288 376.602 350.947 376.559 351.568C376.306 353.82 375.933 356.387 375.433 359.265C379.065 369.279 388.017 371.785 402.294 366.776C414.817 362.27 421.955 358.076 423.708 354.196C423.943 349.294 424.57 344.754 425.584 340.583C426.784 335.904 428.475 331.679 430.656 327.908L434.037 325.281C435.386 324.269 436.638 322.798 437.792 320.868C435.809 322.92 433.618 324.829 431.219 326.594C431.592 324.842 432.657 322.775 434.412 320.399C435.289 319.149 436.791 317.333 438.921 314.954C442.552 310.448 443.054 306.254 440.422 302.374C437.414 300.913 434.815 301.164 432.627 303.124H433.098L430.281 307.068H429.812C427.481 313.844 425.572 318.099 424.081 319.836L424.456 320.024V320.214L424.643 320.024C425.769 328.912 422.014 336.173 413.374 341.805C404.609 347.313 393.276 350.065 379.377 350.065C378.423 349.928 377.546 349.77 376.747 349.595Z" fill="#C59178"/>
<path fill-rule="evenodd" clip-rule="evenodd" d="M417.882 297.305C418.255 297.932 418.57 298.558 418.821 299.185C419.513 300.524 420.109 301.837 420.603 303.128H432.624C434.812 301.168 437.414 300.917 440.419 302.377C443.052 306.257 442.549 310.452 438.918 314.958C436.788 317.337 435.284 319.153 434.409 320.403C432.657 322.781 431.592 324.846 431.216 326.598C433.613 324.831 435.806 322.924 437.79 320.872C444.056 314.248 448.187 306.08 450.19 296.367C450.315 295.868 450.502 295.365 450.753 294.866C450.878 292.738 451.129 290.547 451.507 288.295C451.631 283.54 451.192 279.156 450.19 275.151V275.339C449.688 275.968 449.125 276.716 448.499 277.593C439.555 288.896 429.441 295.467 418.164 297.308C418.068 297.29 417.976 297.29 417.882 297.305ZM420.887 318.146L424.08 319.837C425.571 318.1 427.481 313.845 429.812 307.069H421.732C421.973 308.119 422.128 309.151 422.204 310.165C422.361 312.975 421.922 315.635 420.887 318.146Z" fill="url(#paint0_linear_714_335)"/>
<path fill-rule="evenodd" clip-rule="evenodd" d="M411.119 281.153H411.213C413.685 280.895 417.16 280.207 421.638 279.087C431.029 276.708 438.043 273.454 442.676 269.323C443.802 267.695 444.865 266.133 445.869 264.629C445.243 263.503 444.553 262.438 443.805 261.439C443.303 260.688 442.801 260.001 442.301 259.372C441.297 260.501 440.11 261.812 438.733 263.315C435.852 266.067 432.408 268.009 428.402 269.135C421.014 270.137 417.38 269.196 417.507 266.318C417.631 263.688 418.633 262.25 420.515 261.999H421.265C417.885 261.246 415.316 260.998 413.564 261.246C411.687 261.497 409.996 262.309 408.492 263.686C406.864 264.938 405.989 267.003 405.862 269.884C405.862 270.008 405.862 270.195 405.862 270.447C405.862 273.655 407.272 276.878 410.089 280.116L410.183 280.212C410.434 280.585 410.683 280.9 410.934 281.151H411.119V281.153Z" fill="#36200B"/>
<path fill-rule="evenodd" clip-rule="evenodd" d="M421.264 262.004C418.008 259.625 412.936 256.747 406.048 253.364C401.164 250.861 397.096 249.109 393.84 248.107C391.21 247.23 389.022 246.791 387.264 246.791C382.256 246.791 378.125 248.482 374.866 251.863C372.112 254.868 370.735 258.434 370.735 262.565C370.735 266.135 371.453 269.11 372.896 271.484C373.547 272.498 374.329 273.406 375.244 274.207C376.37 275.085 377.435 275.772 378.437 276.271C378.812 276.522 379.124 276.771 379.378 277.022C379.111 276.647 378.863 276.271 378.624 275.894C376.996 273.421 376.182 271.42 376.182 269.886C376.182 260.871 379.877 255.051 387.264 252.421L387.83 252.611C381.944 256.491 379.002 261.497 379.002 267.631C379.002 270.53 381.411 274.347 386.235 279.084C386.63 279.446 387.039 279.824 387.455 280.212C388.707 280.461 389.96 280.712 391.21 280.963C391.586 280.963 391.963 280.963 392.339 280.963C392.075 280.633 391.824 280.288 391.586 279.931C389.582 277.134 388.578 274.225 388.578 271.199C388.578 262.187 391.771 257.054 398.156 255.804H398.344C394.712 258.931 392.461 261.309 391.583 262.937C391.084 264.063 390.83 266.318 390.83 269.696C390.83 273.256 392.461 276.761 395.717 280.212C396.021 280.529 396.333 280.841 396.655 281.151C398.032 281.151 399.536 281.151 401.161 281.151C402.039 281.151 403.104 281.151 404.354 281.151C404.09 280.856 403.837 280.572 403.603 280.306C400.474 276.624 398.907 273.276 398.907 270.261C398.907 268.009 399.784 265.694 401.537 263.315C403.289 260.685 405.417 259.06 407.925 258.434C403.667 262.44 401.537 266.32 401.537 270.076C401.537 273.084 403.507 276.464 407.453 280.217C407.79 280.529 408.138 280.844 408.485 281.156C409.112 281.156 409.926 281.156 410.927 281.156C410.676 280.905 410.428 280.59 410.177 280.217L410.083 280.121C407.265 276.883 405.855 273.659 405.855 270.451C405.855 270.2 405.855 270.013 405.855 269.888C405.982 267.008 406.86 264.943 408.485 263.691C409.989 262.314 411.68 261.502 413.557 261.251C415.317 261.002 417.883 261.251 421.264 262.004Z" fill="url(#paint1_linear_714_335)"/>
<path fill-rule="evenodd" clip-rule="evenodd" d="M408.49 281.156C408.14 280.842 407.795 280.53 407.458 280.218C403.512 276.465 401.542 273.085 401.542 270.077C401.542 266.321 403.672 262.441 407.93 258.434C405.424 259.061 403.297 260.689 401.542 263.316C399.789 265.695 398.912 268.01 398.912 270.262C398.912 273.277 400.477 276.627 403.609 280.307C403.842 280.576 404.093 280.857 404.359 281.151C404.734 281.151 405.173 281.151 405.675 281.151H406.051C406.175 281.156 406.991 281.156 408.49 281.156ZM392.339 280.969V281.156C393.34 281.156 394.403 281.156 395.529 281.156H396.657C396.335 280.847 396.024 280.533 395.719 280.218C392.463 276.767 390.832 273.262 390.832 269.702C390.832 266.321 391.086 264.069 391.586 262.943C392.463 261.315 394.715 258.937 398.346 255.81H398.159C391.771 257.06 388.58 262.193 388.58 271.205C388.58 274.231 389.585 277.142 391.588 279.937C391.824 280.297 392.075 280.639 392.339 280.969ZM379.378 277.025H379.563C380.189 277.401 380.815 277.713 381.442 277.964L387.452 280.218C387.036 279.83 386.628 279.452 386.232 279.09C381.411 274.353 379 270.533 379 267.637C379 261.503 381.941 256.494 387.827 252.617L387.262 252.427C379.875 255.057 376.18 260.877 376.18 269.892C376.18 271.424 376.994 273.427 378.622 275.899C378.863 276.275 379.109 276.65 379.378 277.025Z" fill="#AC6630"/>
<path fill-rule="evenodd" clip-rule="evenodd" d="M374.397 349.128C375.112 349.303 375.895 349.457 376.747 349.597C377.546 349.772 378.424 349.927 379.377 350.066C393.277 350.066 404.61 347.315 413.374 341.806C422.014 336.174 425.772 328.914 424.644 320.025L424.456 320.215V320.025L424.081 319.838L420.888 318.146L420.515 317.958C420.389 319.711 418.258 322.967 414.127 327.722C410.995 331.478 406.798 333.793 401.541 334.67C399.284 335.297 397.474 335.297 396.094 334.67C394.844 333.793 393.779 332.794 392.901 331.665C392.402 330.788 391.334 328.972 389.706 326.221C388.205 323.467 386.577 321.527 384.824 320.401C383.07 319.275 380.691 319.024 377.686 319.65C374.678 320.276 371.736 319.335 368.858 316.835C368.095 316.138 367.438 315.636 366.885 315.331C365.386 314.466 364.73 315.093 364.915 317.21C365.148 319.891 366.086 321.8 367.732 322.939C367.854 323.048 367.981 323.142 368.107 323.218L367.354 320.025C370.988 322.404 374.179 323.469 376.935 323.218C379.562 322.969 381.568 323.408 382.945 324.534C384.322 325.412 385.387 326.662 386.138 328.29C387.015 329.791 387.576 331.292 387.829 332.796C388.081 334.173 388.144 335.175 388.015 335.799C387.766 338.302 386.452 339.24 384.071 338.616C381.817 337.99 380.189 336.362 379.187 333.735C379.063 333.362 378.936 333.014 378.812 332.7C377.886 330.76 376.507 329.791 374.678 329.791C373.529 329.72 372.652 329.844 372.048 330.166C371.582 330.367 371.27 330.679 371.11 331.105L369.515 333.641L369.421 333.737L368.483 328.665C366.979 333.047 366.226 336.301 366.226 338.431C366.226 341.436 366.479 343.564 366.979 344.814C367.479 345.943 368.356 346.881 369.606 347.629C370.468 348.174 372.064 348.674 374.397 349.128Z" fill="url(#paint2_linear_714_335)"/>
<path fill-rule="evenodd" clip-rule="evenodd" d="M429.812 307.07H430.281L433.099 303.127H432.627H420.607H417.698H401.544C402.908 304.08 403.535 304.958 403.421 305.757C403.421 305.881 403.421 306.071 403.421 306.32C403.382 306.576 403.355 306.827 403.327 307.07H420.234H421.735H429.812Z" fill="#99765D"/>
<path fill-rule="evenodd" clip-rule="evenodd" d="M374.306 299.371H374.118C374.242 297.368 374.43 295.866 374.681 294.865H374.496C373.53 293.363 371.273 291.766 367.732 290.077C367.141 289.798 366.518 289.516 365.853 289.232C362.726 287.855 360.343 287.604 358.717 288.482C356.716 289.359 356.024 291.423 356.653 294.677C357.279 299.81 358.342 303.002 359.846 304.253C361.342 305.249 363.563 306.188 366.515 307.07H366.797C369.926 306.819 372.12 305.067 373.37 301.813C373.74 300.938 374.055 300.122 374.306 299.371ZM371.582 300.687C370.377 304.755 368.688 306.634 366.51 306.319H366.416C363.662 305.569 361.656 304.691 360.406 303.692C359.402 302.815 358.53 300.124 357.776 295.615C357.652 294.74 357.591 293.99 357.591 293.363C357.715 292.861 357.964 292.486 358.339 292.235C359.344 290.985 361.41 291.045 364.537 292.422C365.534 292.833 366.439 293.242 367.261 293.642C370.606 295.296 372.325 296.83 372.426 298.242L372.241 298.43C372.115 299.181 371.927 299.868 371.676 300.497V300.685H371.582V300.687ZM403.324 307.07C403.352 306.824 403.38 306.573 403.418 306.319C403.418 306.068 403.418 305.881 403.418 305.756C403.532 304.96 402.906 304.083 401.542 303.127C399.906 301.988 397.215 300.735 393.462 299.371C388.078 297.368 384.447 296.366 382.568 296.366C381.442 296.366 380.501 296.553 379.753 296.929C379.626 296.805 379.499 296.741 379.378 296.741C378.528 298.313 377.684 299.597 376.842 300.591L376.748 300.685C376.748 301.686 376.809 303.187 376.935 305.191C377.184 307.694 378.5 310.133 380.879 312.512C383.136 314.64 387.077 316.08 392.714 316.833C398.524 317.44 402.059 314.186 403.324 307.07ZM399.662 312.702C398.285 315.081 395.968 316.144 392.714 315.895C387.83 315.396 384.386 314.143 382.383 312.142C380.379 310.263 379.253 308.386 379.002 306.507C379.002 305.881 378.941 305.381 378.814 305.003C378.814 303.626 378.941 302.688 379.19 302.186C379.689 300.436 380.879 299.559 382.758 299.559C384.386 299.559 387.83 300.56 393.087 302.564C396.936 303.963 399.442 305.122 400.601 306.038C401.103 306.426 401.354 306.768 401.354 307.07C401.354 307.194 401.293 307.319 401.166 307.445C400.915 309.573 400.416 311.325 399.662 312.702Z" fill="#95785E"/>
<path fill-rule="evenodd" clip-rule="evenodd" d="M357.588 293.36C357.713 293.86 357.773 294.486 357.773 295.237C360.276 295.987 362.158 296.614 363.408 297.113C364.494 297.43 365.617 297.838 366.791 298.333C367.938 298.845 369.127 299.439 370.359 300.118C370.836 300.357 371.247 300.544 371.579 300.681H371.673V300.494C371.924 299.865 372.112 299.177 372.239 298.427L372.424 298.239C372.322 296.824 370.603 295.292 367.258 293.639C366.436 293.238 365.528 292.83 364.534 292.419C361.408 291.042 359.338 290.981 358.337 292.231C357.964 292.485 357.713 292.86 357.588 293.36ZM378.812 305C383.82 305.629 387.14 306.189 388.768 306.691C390.771 307.318 394.405 309.321 399.662 312.702C400.415 311.325 400.915 309.572 401.166 307.445C401.293 307.318 401.354 307.194 401.354 307.069C401.354 306.768 401.103 306.425 400.601 306.037C399.442 305.122 396.936 303.963 393.087 302.563C387.829 300.56 384.383 299.558 382.758 299.558C380.878 299.558 379.689 300.435 379.19 302.185C378.939 302.685 378.812 303.623 378.812 305Z" fill="#C7E0E5"/>
<path fill-rule="evenodd" clip-rule="evenodd" d="M371.582 300.686C371.247 300.549 370.838 300.361 370.362 300.123C369.129 299.443 367.94 298.85 366.794 298.337C365.62 297.843 364.496 297.437 363.411 297.117C362.161 296.618 360.281 295.991 357.776 295.241C357.776 294.49 357.715 293.864 357.591 293.364C357.591 293.991 357.652 294.741 357.776 295.616C358.529 300.123 359.404 302.816 360.406 303.693C361.656 304.695 363.662 305.57 366.416 306.32H366.51C368.688 306.63 370.377 304.753 371.582 300.686ZM378.812 305.002C378.938 305.377 378.999 305.879 378.999 306.506C379.25 308.385 380.376 310.261 382.38 312.14C384.383 314.144 387.827 315.394 392.711 315.894C395.965 316.145 398.283 315.08 399.66 312.701C394.403 309.32 390.769 307.317 388.765 306.691C387.14 306.191 383.82 305.631 378.812 305.002Z" fill="#EEFCFF"/>
</g>
<a href="https://github.com/EugeneBaichuk" target="_blank">
    <circle cursor="pointer" cx="301.5" cy="487.635" r="25.5" fill="white"/>
</a>
<a href="https://t.me/Eugene_Baichuk" target="_blank">
    <circle cursor="pointer" cx="399.5" cy="487.635" r="25.5" fill="white"/>
</a>
<a href="https://www.linkedin.com/in/eugene-baichuk/" target="_blank">
    <circle cursor="pointer" cx="498.5" cy="487.635" r="25.5" fill="white"/>
</a>
<a href="https://github.com/EugeneBaichuk" target="_blank">
    <path cursor="pointer" fill-rule="evenodd" clip-rule="evenodd" d="M301.534 475.581C294.771 475.581 289.286 481.066 289.286 487.829C289.286 493.239 292.817 497.823 297.627 499.476C298.228 499.551 298.453 499.176 298.453 498.875C298.453 498.575 298.453 497.823 298.453 496.771C295.072 497.523 294.32 495.118 294.32 495.118C293.794 493.69 292.968 493.315 292.968 493.315C291.841 492.563 293.043 492.563 293.043 492.563C294.245 492.638 294.921 493.841 294.921 493.841C296.049 495.719 297.777 495.193 298.453 494.893C298.528 494.066 298.904 493.54 299.205 493.239C296.499 492.939 293.644 491.887 293.644 487.153C293.644 485.8 294.095 484.748 294.921 483.847C294.846 483.621 294.395 482.344 295.072 480.691C295.072 480.691 296.124 480.39 298.453 481.968C299.43 481.668 300.482 481.592 301.534 481.592C302.586 481.592 303.638 481.743 304.615 481.968C306.944 480.39 307.996 480.691 307.996 480.691C308.672 482.344 308.222 483.621 308.146 483.922C308.898 484.748 309.424 485.876 309.424 487.228C309.424 491.962 306.568 492.939 303.863 493.239C304.314 493.615 304.69 494.367 304.69 495.494C304.69 497.147 304.69 498.424 304.69 498.875C304.69 499.176 304.915 499.551 305.516 499.476C310.401 497.823 313.857 493.239 313.857 487.829C313.782 481.066 308.297 475.581 301.534 475.581Z" fill="#231E1B"/>
</a>
<a href="https://t.me/Eugene_Baichuk" target="_blank">
    <path cursor="pointer" d="M409.828 478.912L406.136 498.188C406.136 498.188 405.619 499.525 404.2 498.884L395.681 492.119L395.641 492.099C396.792 491.029 405.716 482.721 406.106 482.344C406.709 481.761 406.335 481.414 405.634 481.854L392.453 490.523L387.367 488.751C387.367 488.751 386.567 488.456 386.49 487.815C386.412 487.173 387.394 486.826 387.394 486.826L408.125 478.404C408.125 478.404 409.828 477.629 409.828 478.912V478.912Z" fill="#27A6E5"/>
</a>
<a href="https://www.linkedin.com/in/eugene-baichuk/" target="_blank">
    <path cursor="pointer" d="M508.4 488.486V495.263H504.433V488.899C504.433 487.329 503.855 486.255 502.45 486.255C501.376 486.255 500.715 486.999 500.467 487.66C500.384 487.908 500.301 488.238 500.301 488.652V495.263H496.335C496.335 495.263 496.417 484.52 496.335 483.445H500.301V485.098C500.797 484.272 501.789 483.115 503.855 483.115C506.417 483.115 508.4 484.85 508.4 488.486ZM492.203 477.743C490.88 477.743 489.971 478.652 489.971 479.809C489.971 480.966 490.798 481.875 492.12 481.875C493.525 481.875 494.351 480.966 494.351 479.809C494.434 478.57 493.608 477.743 492.203 477.743ZM490.219 495.263H494.186V483.445H490.219V495.263Z" fill="#2878B7"/>
</a>
<rect width="184" height="24" transform="translate(262 613)" fill="white"/>
<a href="tel:+375336200741" target="_blank">
    <rect cursor="pointer" x="262" y="613" width="184" height="24" fill="white"/>
</a>
<a href="tel:+375336200741" target="_blank">
    <path d="M267.12 629.24V620.76H268.38V629.24H267.12ZM263.4 625.6V624.42H272.1V625.6H263.4ZM278.333 632.12C277.32 632.12 276.36 631.96 275.453 631.64C274.56 631.307 273.84 630.867 273.293 630.32L273.993 629.18C274.447 629.647 275.053 630.033 275.813 630.34C276.587 630.647 277.427 630.8 278.333 630.8C279.493 630.8 280.38 630.547 280.993 630.04C281.62 629.533 281.933 628.853 281.933 628C281.933 627.147 281.627 626.467 281.013 625.96C280.413 625.453 279.46 625.2 278.153 625.2H277.153V624.14L281.473 618.72L281.673 619.28H273.873V618H282.873V619.02L278.553 624.44L277.853 623.98H278.393C280.073 623.98 281.327 624.353 282.153 625.1C282.993 625.847 283.413 626.807 283.413 627.98C283.413 628.767 283.227 629.473 282.853 630.1C282.48 630.727 281.913 631.22 281.153 631.58C280.407 631.94 279.467 632.12 278.333 632.12ZM287.648 632L293.688 618.64L294.128 619.28H285.468L286.208 618.58V621.9H284.788V618H295.068V619.02L289.208 632H287.648ZM301.015 632.12C300.015 632.12 299.061 631.96 298.155 631.64C297.248 631.307 296.528 630.867 295.995 630.32L296.695 629.18C297.135 629.647 297.735 630.033 298.495 630.34C299.268 630.647 300.101 630.8 300.995 630.8C302.181 630.8 303.081 630.54 303.695 630.02C304.321 629.487 304.635 628.793 304.635 627.94C304.635 627.34 304.488 626.827 304.195 626.4C303.915 625.96 303.435 625.62 302.755 625.38C302.075 625.14 301.141 625.02 299.955 625.02H296.975L297.695 618H305.355V619.28H298.275L299.015 618.58L298.395 624.46L297.655 623.74H300.275C301.688 623.74 302.821 623.913 303.675 624.26C304.528 624.607 305.141 625.093 305.515 625.72C305.901 626.333 306.095 627.053 306.095 627.88C306.095 628.667 305.908 629.387 305.535 630.04C305.161 630.68 304.601 631.187 303.855 631.56C303.108 631.933 302.161 632.12 301.015 632.12ZM316.517 635.88C315.784 634.667 315.211 633.267 314.797 631.68C314.397 630.08 314.197 628.36 314.197 626.52C314.197 624.68 314.397 622.96 314.797 621.36C315.211 619.747 315.784 618.347 316.517 617.16H317.877C317.091 618.533 316.511 619.993 316.137 621.54C315.777 623.073 315.597 624.733 315.597 626.52C315.597 628.307 315.777 629.973 316.137 631.52C316.511 633.053 317.091 634.507 317.877 635.88H316.517ZM323.919 632.12C322.906 632.12 321.946 631.96 321.039 631.64C320.146 631.307 319.426 630.867 318.879 630.32L319.579 629.18C320.033 629.647 320.639 630.033 321.399 630.34C322.173 630.647 323.013 630.8 323.919 630.8C325.079 630.8 325.966 630.547 326.579 630.04C327.206 629.533 327.519 628.853 327.519 628C327.519 627.147 327.213 626.467 326.599 625.96C325.999 625.453 325.046 625.2 323.739 625.2H322.739V624.14L327.059 618.72L327.259 619.28H319.459V618H328.459V619.02L324.139 624.44L323.439 623.98H323.979C325.659 623.98 326.913 624.353 327.739 625.1C328.579 625.847 328.999 626.807 328.999 627.98C328.999 628.767 328.813 629.473 328.439 630.1C328.066 630.727 327.499 631.22 326.739 631.58C325.993 631.94 325.053 632.12 323.919 632.12ZM335.111 632.12C334.097 632.12 333.137 631.96 332.231 631.64C331.337 631.307 330.617 630.867 330.071 630.32L330.771 629.18C331.224 629.647 331.831 630.033 332.591 630.34C333.364 630.647 334.204 630.8 335.111 630.8C336.271 630.8 337.157 630.547 337.771 630.04C338.397 629.533 338.711 628.853 338.711 628C338.711 627.147 338.404 626.467 337.791 625.96C337.191 625.453 336.237 625.2 334.931 625.2H333.931V624.14L338.251 618.72L338.451 619.28H330.651V618H339.651V619.02L335.331 624.44L334.631 623.98H335.171C336.851 623.98 338.104 624.353 338.931 625.1C339.771 625.847 340.191 626.807 340.191 627.98C340.191 628.767 340.004 629.473 339.631 630.1C339.257 630.727 338.691 631.22 337.931 631.58C337.184 631.94 336.244 632.12 335.111 632.12ZM343.34 635.88H341.98C342.78 634.507 343.36 633.053 343.72 631.52C344.093 629.973 344.28 628.307 344.28 626.52C344.28 624.733 344.093 623.073 343.72 621.54C343.36 619.993 342.78 618.533 341.98 617.16H343.34C344.1 618.347 344.68 619.747 345.08 621.36C345.48 622.96 345.68 624.68 345.68 626.52C345.68 628.36 345.48 630.08 345.08 631.68C344.68 633.267 344.1 634.667 343.34 635.88ZM359.776 632.12C358.536 632.12 357.489 631.847 356.636 631.3C355.783 630.74 355.136 629.94 354.696 628.9C354.256 627.847 354.036 626.587 354.036 625.12C354.036 623.533 354.303 622.207 354.836 621.14C355.383 620.06 356.136 619.247 357.096 618.7C358.056 618.153 359.169 617.88 360.436 617.88C361.063 617.88 361.663 617.94 362.236 618.06C362.809 618.18 363.316 618.373 363.756 618.64L363.176 619.8C362.816 619.56 362.403 619.393 361.936 619.3C361.469 619.193 360.976 619.14 360.456 619.14C358.949 619.14 357.743 619.62 356.836 620.58C355.943 621.54 355.496 622.973 355.496 624.88C355.496 625.173 355.509 625.54 355.536 625.98C355.576 626.407 355.656 626.833 355.776 627.26L355.276 626.88C355.423 626.187 355.709 625.6 356.136 625.12C356.563 624.627 357.096 624.253 357.736 624C358.376 623.747 359.076 623.62 359.836 623.62C360.769 623.62 361.589 623.793 362.296 624.14C363.003 624.487 363.556 624.973 363.956 625.6C364.356 626.227 364.556 626.967 364.556 627.82C364.556 628.687 364.349 629.447 363.936 630.1C363.523 630.74 362.949 631.24 362.216 631.6C361.496 631.947 360.683 632.12 359.776 632.12ZM359.716 630.9C360.383 630.9 360.969 630.78 361.476 630.54C361.996 630.287 362.403 629.933 362.696 629.48C362.989 629.013 363.136 628.473 363.136 627.86C363.136 626.94 362.816 626.207 362.176 625.66C361.549 625.113 360.696 624.84 359.616 624.84C358.896 624.84 358.269 624.973 357.736 625.24C357.203 625.507 356.783 625.873 356.476 626.34C356.169 626.793 356.016 627.313 356.016 627.9C356.016 628.407 356.156 628.893 356.436 629.36C356.716 629.813 357.129 630.187 357.676 630.48C358.236 630.76 358.916 630.9 359.716 630.9ZM365.964 632V630.98L371.784 625.28C372.317 624.76 372.717 624.307 372.984 623.92C373.25 623.52 373.43 623.147 373.524 622.8C373.617 622.453 373.664 622.127 373.664 621.82C373.664 621.007 373.384 620.367 372.824 619.9C372.277 619.433 371.464 619.2 370.384 619.2C369.557 619.2 368.824 619.327 368.184 619.58C367.557 619.833 367.017 620.227 366.564 620.76L365.544 619.88C366.09 619.24 366.79 618.747 367.644 618.4C368.497 618.053 369.45 617.88 370.504 617.88C371.45 617.88 372.27 618.033 372.964 618.34C373.657 618.633 374.19 619.067 374.564 619.64C374.95 620.213 375.144 620.887 375.144 621.66C375.144 622.113 375.077 622.56 374.944 623C374.824 623.44 374.597 623.907 374.264 624.4C373.944 624.88 373.47 625.427 372.844 626.04L367.504 631.28L367.104 630.72H375.784V632H365.964ZM383.132 632.12C382.052 632.12 381.092 631.84 380.252 631.28C379.412 630.707 378.752 629.893 378.272 628.84C377.792 627.773 377.552 626.493 377.552 625C377.552 623.507 377.792 622.233 378.272 621.18C378.752 620.113 379.412 619.3 380.252 618.74C381.092 618.167 382.052 617.88 383.132 617.88C384.212 617.88 385.172 618.167 386.012 618.74C386.852 619.3 387.512 620.113 387.992 621.18C388.485 622.233 388.732 623.507 388.732 625C388.732 626.493 388.485 627.773 387.992 628.84C387.512 629.893 386.852 630.707 386.012 631.28C385.172 631.84 384.212 632.12 383.132 632.12ZM383.132 630.8C383.958 630.8 384.678 630.58 385.292 630.14C385.905 629.687 386.385 629.033 386.732 628.18C387.078 627.313 387.252 626.253 387.252 625C387.252 623.747 387.078 622.693 386.732 621.84C386.385 620.973 385.905 620.32 385.292 619.88C384.678 619.427 383.958 619.2 383.132 619.2C382.332 619.2 381.618 619.427 380.992 619.88C380.365 620.32 379.878 620.973 379.532 621.84C379.185 622.693 379.012 623.747 379.012 625C379.012 626.253 379.185 627.313 379.532 628.18C379.878 629.033 380.365 629.687 380.992 630.14C381.618 630.58 382.332 630.8 383.132 630.8ZM401.608 632.12C400.528 632.12 399.568 631.84 398.728 631.28C397.888 630.707 397.228 629.893 396.748 628.84C396.268 627.773 396.028 626.493 396.028 625C396.028 623.507 396.268 622.233 396.748 621.18C397.228 620.113 397.888 619.3 398.728 618.74C399.568 618.167 400.528 617.88 401.608 617.88C402.688 617.88 403.648 618.167 404.488 618.74C405.328 619.3 405.988 620.113 406.468 621.18C406.962 622.233 407.208 623.507 407.208 625C407.208 626.493 406.962 627.773 406.468 628.84C405.988 629.893 405.328 630.707 404.488 631.28C403.648 631.84 402.688 632.12 401.608 632.12ZM401.608 630.8C402.435 630.8 403.155 630.58 403.768 630.14C404.382 629.687 404.862 629.033 405.208 628.18C405.555 627.313 405.728 626.253 405.728 625C405.728 623.747 405.555 622.693 405.208 621.84C404.862 620.973 404.382 620.32 403.768 619.88C403.155 619.427 402.435 619.2 401.608 619.2C400.808 619.2 400.095 619.427 399.468 619.88C398.842 620.32 398.355 620.973 398.008 621.84C397.662 622.693 397.488 623.747 397.488 625C397.488 626.253 397.662 627.313 398.008 628.18C398.355 629.033 398.842 629.687 399.468 630.14C400.095 630.58 400.808 630.8 401.608 630.8ZM411.574 632L417.614 618.64L418.054 619.28H409.394L410.134 618.58V621.9H408.714V618H418.994V619.02L413.134 632H411.574ZM425.886 628.32V627.28L433.306 618H434.906L427.546 627.28L426.766 627.04H438.026V628.32H425.886ZM433.786 632V628.32L433.826 627.04V623.8H435.226V632H433.786ZM441.281 632V618.6L441.921 619.28H437.981V618H442.721V632H441.281Z" fill="#333333"/>
</a>
<path d="M273.31 607L273.295 599.35L269.5 605.725H268.81L265.015 599.395V607H263.575V596.5H264.805L269.185 603.88L273.505 596.5H274.735L274.75 607H273.31ZM281.096 607.09C280.306 607.09 279.596 606.915 278.966 606.565C278.336 606.215 277.841 605.735 277.481 605.125C277.131 604.505 276.956 603.805 276.956 603.025C276.956 602.245 277.131 601.55 277.481 600.94C277.841 600.32 278.336 599.84 278.966 599.5C279.596 599.15 280.306 598.975 281.096 598.975C281.886 598.975 282.591 599.15 283.211 599.5C283.841 599.84 284.331 600.32 284.681 600.94C285.041 601.55 285.221 602.245 285.221 603.025C285.221 603.805 285.041 604.505 284.681 605.125C284.331 605.735 283.841 606.215 283.211 606.565C282.591 606.915 281.886 607.09 281.096 607.09ZM281.096 605.83C281.606 605.83 282.061 605.715 282.461 605.485C282.871 605.245 283.191 604.915 283.421 604.495C283.651 604.065 283.766 603.575 283.766 603.025C283.766 602.475 283.651 601.99 283.421 601.57C283.191 601.14 282.871 600.81 282.461 600.58C282.061 600.35 281.606 600.235 281.096 600.235C280.586 600.235 280.126 600.35 279.716 600.58C279.316 600.81 278.996 601.14 278.756 601.57C278.526 601.99 278.411 602.475 278.411 603.025C278.411 603.575 278.526 604.065 278.756 604.495C278.996 604.915 279.316 605.245 279.716 605.485C280.126 605.715 280.586 605.83 281.096 605.83ZM291.428 598.975C292.198 598.975 292.888 599.145 293.498 599.485C294.108 599.825 294.583 600.3 294.923 600.91C295.273 601.52 295.448 602.225 295.448 603.025C295.448 603.825 295.273 604.535 294.923 605.155C294.583 605.765 294.108 606.24 293.498 606.58C292.888 606.92 292.198 607.09 291.428 607.09C290.838 607.09 290.298 606.975 289.808 606.745C289.318 606.515 288.913 606.18 288.593 605.74V607H287.213V595.87H288.653V600.25C288.973 599.83 289.373 599.515 289.853 599.305C290.333 599.085 290.858 598.975 291.428 598.975ZM291.308 605.83C291.818 605.83 292.273 605.715 292.673 605.485C293.083 605.245 293.403 604.915 293.633 604.495C293.873 604.065 293.993 603.575 293.993 603.025C293.993 602.475 293.873 601.99 293.633 601.57C293.403 601.14 293.083 600.81 292.673 600.58C292.273 600.35 291.818 600.235 291.308 600.235C290.808 600.235 290.353 600.35 289.943 600.58C289.533 600.81 289.213 601.14 288.983 601.57C288.753 601.99 288.638 602.475 288.638 603.025C288.638 603.575 288.753 604.065 288.983 604.495C289.213 604.915 289.533 605.245 289.943 605.485C290.353 605.715 290.808 605.83 291.308 605.83ZM297.437 599.05H298.877V607H297.437V599.05ZM298.157 597.52C297.877 597.52 297.642 597.43 297.452 597.25C297.272 597.07 297.182 596.85 297.182 596.59C297.182 596.33 297.272 596.11 297.452 595.93C297.642 595.74 297.877 595.645 298.157 595.645C298.437 595.645 298.667 595.735 298.847 595.915C299.037 596.085 299.132 596.3 299.132 596.56C299.132 596.83 299.037 597.06 298.847 597.25C298.667 597.43 298.437 597.52 298.157 597.52ZM301.627 595.87H303.067V607H301.627V595.87ZM313.001 603.07C313.001 603.18 312.991 603.325 312.971 603.505H306.521C306.611 604.205 306.916 604.77 307.436 605.2C307.966 605.62 308.621 605.83 309.401 605.83C310.351 605.83 311.116 605.51 311.696 604.87L312.491 605.8C312.131 606.22 311.681 606.54 311.141 606.76C310.611 606.98 310.016 607.09 309.356 607.09C308.516 607.09 307.771 606.92 307.121 606.58C306.471 606.23 305.966 605.745 305.606 605.125C305.256 604.505 305.081 603.805 305.081 603.025C305.081 602.255 305.251 601.56 305.591 600.94C305.941 600.32 306.416 599.84 307.016 599.5C307.626 599.15 308.311 598.975 309.071 598.975C309.831 598.975 310.506 599.15 311.096 599.5C311.696 599.84 312.161 600.32 312.491 600.94C312.831 601.56 313.001 602.27 313.001 603.07ZM309.071 600.19C308.381 600.19 307.801 600.4 307.331 600.82C306.871 601.24 306.601 601.79 306.521 602.47H311.621C311.541 601.8 311.266 601.255 310.796 600.835C310.336 600.405 309.761 600.19 309.071 600.19Z" fill="#50507F"/>
<path d="M224.667 624.333H211.333V605.666H224.667V624.333ZM224.667 600.333H211.333C209.853 600.333 208.667 601.52 208.667 603V627C208.667 627.707 208.948 628.385 209.448 628.885C209.948 629.385 210.626 629.666 211.333 629.666H224.667C225.374 629.666 226.052 629.385 226.552 628.885C227.052 628.385 227.333 627.707 227.333 627V603C227.333 601.52 226.133 600.333 224.667 600.333Z" fill="#50507F"/>
<rect width="291" height="24" transform="translate(262 677)" fill="white"/>
<a cursor="pointer" href="mailto:eugene.baichuk@gmail.com" target="_blank">
    <rect x="262" y="677" width="290" height="24" fill="white"/>
</a>
<a cursor="pointer" href="mailto:eugene.baichuk@gmail.com" target="_blank">
    <path d="M274.18 694.72V696H264.28V682H273.88V683.28H265.76V688.26H273V689.52H265.76V694.72H274.18ZM286.683 685.48V696H285.323V694.08C284.949 694.72 284.436 695.22 283.783 695.58C283.129 695.927 282.383 696.1 281.543 696.1C280.169 696.1 279.083 695.72 278.283 694.96C277.496 694.187 277.103 693.06 277.103 691.58V685.48H278.523V691.44C278.523 692.547 278.796 693.387 279.343 693.96C279.889 694.533 280.669 694.82 281.683 694.82C282.789 694.82 283.663 694.487 284.303 693.82C284.943 693.14 285.263 692.2 285.263 691V685.48H286.683ZM300.4 685.48V694.72C300.4 696.507 299.96 697.827 299.08 698.68C298.213 699.547 296.9 699.98 295.14 699.98C294.166 699.98 293.24 699.833 292.36 699.54C291.493 699.26 290.786 698.867 290.24 698.36L290.96 697.28C291.466 697.733 292.08 698.087 292.8 698.34C293.533 698.593 294.3 698.72 295.1 698.72C296.433 698.72 297.413 698.407 298.04 697.78C298.666 697.167 298.98 696.207 298.98 694.9V693.56C298.54 694.227 297.96 694.733 297.24 695.08C296.533 695.427 295.746 695.6 294.88 695.6C293.893 695.6 292.993 695.387 292.18 694.96C291.38 694.52 290.746 693.913 290.28 693.14C289.826 692.353 289.6 691.467 289.6 690.48C289.6 689.493 289.826 688.613 290.28 687.84C290.746 687.067 291.38 686.467 292.18 686.04C292.98 685.613 293.88 685.4 294.88 685.4C295.773 685.4 296.58 685.58 297.3 685.94C298.02 686.3 298.6 686.82 299.04 687.5V685.48H300.4ZM295.02 694.34C295.78 694.34 296.466 694.18 297.08 693.86C297.693 693.527 298.166 693.067 298.5 692.48C298.846 691.893 299.02 691.227 299.02 690.48C299.02 689.733 298.846 689.073 298.5 688.5C298.166 687.913 297.693 687.46 297.08 687.14C296.48 686.807 295.793 686.64 295.02 686.64C294.26 686.64 293.573 686.8 292.96 687.12C292.36 687.44 291.886 687.893 291.54 688.48C291.206 689.067 291.04 689.733 291.04 690.48C291.04 691.227 291.206 691.893 291.54 692.48C291.886 693.067 292.36 693.527 292.96 693.86C293.573 694.18 294.26 694.34 295.02 694.34ZM313.531 691.18H304.731C304.811 692.273 305.231 693.16 305.991 693.84C306.751 694.507 307.711 694.84 308.871 694.84C309.524 694.84 310.124 694.727 310.671 694.5C311.217 694.26 311.691 693.913 312.091 693.46L312.891 694.38C312.424 694.94 311.837 695.367 311.131 695.66C310.437 695.953 309.671 696.1 308.831 696.1C307.751 696.1 306.791 695.873 305.951 695.42C305.124 694.953 304.477 694.313 304.011 693.5C303.544 692.687 303.311 691.767 303.311 690.74C303.311 689.713 303.531 688.793 303.971 687.98C304.424 687.167 305.037 686.533 305.811 686.08C306.597 685.627 307.477 685.4 308.451 685.4C309.424 685.4 310.297 685.627 311.071 686.08C311.844 686.533 312.451 687.167 312.891 687.98C313.331 688.78 313.551 689.7 313.551 690.74L313.531 691.18ZM308.451 686.62C307.437 686.62 306.584 686.947 305.891 687.6C305.211 688.24 304.824 689.08 304.731 690.12H312.191C312.097 689.08 311.704 688.24 311.011 687.6C310.331 686.947 309.477 686.62 308.451 686.62ZM321.801 685.4C323.121 685.4 324.168 685.787 324.941 686.56C325.728 687.32 326.121 688.433 326.121 689.9V696H324.701V690.04C324.701 688.947 324.428 688.113 323.881 687.54C323.334 686.967 322.554 686.68 321.541 686.68C320.408 686.68 319.508 687.02 318.841 687.7C318.188 688.367 317.861 689.293 317.861 690.48V696H316.441V685.48H317.801V687.42C318.188 686.78 318.721 686.287 319.401 685.94C320.094 685.58 320.894 685.4 321.801 685.4ZM339.175 691.18H330.375C330.455 692.273 330.875 693.16 331.635 693.84C332.395 694.507 333.355 694.84 334.515 694.84C335.168 694.84 335.768 694.727 336.315 694.5C336.862 694.26 337.335 693.913 337.735 693.46L338.535 694.38C338.068 694.94 337.482 695.367 336.775 695.66C336.082 695.953 335.315 696.1 334.475 696.1C333.395 696.1 332.435 695.873 331.595 695.42C330.768 694.953 330.122 694.313 329.655 693.5C329.188 692.687 328.955 691.767 328.955 690.74C328.955 689.713 329.175 688.793 329.615 687.98C330.068 687.167 330.682 686.533 331.455 686.08C332.242 685.627 333.122 685.4 334.095 685.4C335.068 685.4 335.942 685.627 336.715 686.08C337.488 686.533 338.095 687.167 338.535 687.98C338.975 688.78 339.195 689.7 339.195 690.74L339.175 691.18ZM334.095 686.62C333.082 686.62 332.228 686.947 331.535 687.6C330.855 688.24 330.468 689.08 330.375 690.12H337.835C337.742 689.08 337.348 688.24 336.655 687.6C335.975 686.947 335.122 686.62 334.095 686.62ZM342.225 696.1C341.932 696.1 341.679 695.993 341.465 695.78C341.265 695.567 341.165 695.307 341.165 695C341.165 694.693 341.265 694.44 341.465 694.24C341.679 694.027 341.932 693.92 342.225 693.92C342.519 693.92 342.772 694.027 342.985 694.24C343.199 694.44 343.305 694.693 343.305 695C343.305 695.307 343.199 695.567 342.985 695.78C342.772 695.993 342.519 696.1 342.225 696.1ZM351.744 685.4C352.73 685.4 353.624 685.627 354.424 686.08C355.224 686.52 355.85 687.147 356.304 687.96C356.757 688.773 356.984 689.7 356.984 690.74C356.984 691.78 356.757 692.707 356.304 693.52C355.85 694.333 355.224 694.967 354.424 695.42C353.624 695.873 352.73 696.1 351.744 696.1C350.864 696.1 350.07 695.913 349.364 695.54C348.67 695.167 348.11 694.627 347.684 693.92V696H346.324V681.16H347.744V687.48C348.184 686.8 348.744 686.287 349.424 685.94C350.117 685.58 350.89 685.4 351.744 685.4ZM351.644 694.84C352.377 694.84 353.044 694.673 353.644 694.34C354.244 693.993 354.71 693.507 355.044 692.88C355.39 692.253 355.564 691.54 355.564 690.74C355.564 689.94 355.39 689.227 355.044 688.6C354.71 687.973 354.244 687.493 353.644 687.16C353.044 686.813 352.377 686.64 351.644 686.64C350.897 686.64 350.224 686.813 349.624 687.16C349.037 687.493 348.57 687.973 348.224 688.6C347.89 689.227 347.724 689.94 347.724 690.74C347.724 691.54 347.89 692.253 348.224 692.88C348.57 693.507 349.037 693.993 349.624 694.34C350.224 694.673 350.897 694.84 351.644 694.84ZM363.5 685.4C364.873 685.4 365.927 685.747 366.66 686.44C367.393 687.12 367.76 688.133 367.76 689.48V696H366.4V694.36C366.08 694.907 365.607 695.333 364.98 695.64C364.367 695.947 363.633 696.1 362.78 696.1C361.607 696.1 360.673 695.82 359.98 695.26C359.287 694.7 358.94 693.96 358.94 693.04C358.94 692.147 359.26 691.427 359.9 690.88C360.553 690.333 361.587 690.06 363 690.06H366.34V689.42C366.34 688.513 366.087 687.827 365.58 687.36C365.073 686.88 364.333 686.64 363.36 686.64C362.693 686.64 362.053 686.753 361.44 686.98C360.827 687.193 360.3 687.493 359.86 687.88L359.22 686.82C359.753 686.367 360.393 686.02 361.14 685.78C361.887 685.527 362.673 685.4 363.5 685.4ZM363 694.98C363.8 694.98 364.487 694.8 365.06 694.44C365.633 694.067 366.06 693.533 366.34 692.84V691.12H363.04C361.24 691.12 360.34 691.747 360.34 693C360.34 693.613 360.573 694.1 361.04 694.46C361.507 694.807 362.16 694.98 363 694.98ZM371.617 685.48H373.037V696H371.617V685.48ZM372.337 683.18C372.043 683.18 371.797 683.08 371.597 682.88C371.397 682.68 371.297 682.44 371.297 682.16C371.297 681.893 371.397 681.66 371.597 681.46C371.797 681.26 372.043 681.16 372.337 681.16C372.63 681.16 372.877 681.26 373.077 681.46C373.277 681.647 373.377 681.873 373.377 682.14C373.377 682.433 373.277 682.68 373.077 682.88C372.877 683.08 372.63 683.18 372.337 683.18ZM381.348 696.1C380.308 696.1 379.374 695.873 378.548 695.42C377.734 694.967 377.094 694.333 376.628 693.52C376.161 692.693 375.928 691.767 375.928 690.74C375.928 689.713 376.161 688.793 376.628 687.98C377.094 687.167 377.734 686.533 378.548 686.08C379.374 685.627 380.308 685.4 381.348 685.4C382.254 685.4 383.061 685.58 383.768 685.94C384.488 686.287 385.054 686.8 385.468 687.48L384.408 688.2C384.061 687.68 383.621 687.293 383.088 687.04C382.554 686.773 381.974 686.64 381.348 686.64C380.588 686.64 379.901 686.813 379.288 687.16C378.688 687.493 378.214 687.973 377.868 688.6C377.534 689.227 377.368 689.94 377.368 690.74C377.368 691.553 377.534 692.273 377.868 692.9C378.214 693.513 378.688 693.993 379.288 694.34C379.901 694.673 380.588 694.84 381.348 694.84C381.974 694.84 382.554 694.713 383.088 694.46C383.621 694.207 384.061 693.82 384.408 693.3L385.468 694.02C385.054 694.7 384.488 695.22 383.768 695.58C383.048 695.927 382.241 696.1 381.348 696.1ZM393.461 685.4C394.781 685.4 395.828 685.787 396.601 686.56C397.388 687.32 397.781 688.433 397.781 689.9V696H396.361V690.04C396.361 688.947 396.088 688.113 395.541 687.54C394.994 686.967 394.214 686.68 393.201 686.68C392.068 686.68 391.168 687.02 390.501 687.7C389.848 688.367 389.521 689.293 389.521 690.48V696H388.101V681.16H389.521V687.32C389.908 686.707 390.441 686.233 391.121 685.9C391.801 685.567 392.581 685.4 393.461 685.4ZM411.116 685.48V696H409.756V694.08C409.383 694.72 408.87 695.22 408.216 695.58C407.563 695.927 406.816 696.1 405.976 696.1C404.603 696.1 403.516 695.72 402.716 694.96C401.93 694.187 401.536 693.06 401.536 691.58V685.48H402.956V691.44C402.956 692.547 403.23 693.387 403.776 693.96C404.323 694.533 405.103 694.82 406.116 694.82C407.223 694.82 408.096 694.487 408.736 693.82C409.376 693.14 409.696 692.2 409.696 691V685.48H411.116ZM418.993 690.72L416.513 693V696H415.093V681.16H416.513V691.22L422.793 685.48H424.553L420.053 689.78L424.973 696H423.233L418.993 690.72ZM435.505 681.88C437.292 681.88 438.885 682.253 440.285 683C441.698 683.733 442.798 684.773 443.585 686.12C444.372 687.453 444.765 688.98 444.765 690.7C444.765 692.393 444.472 693.72 443.885 694.68C443.298 695.627 442.485 696.1 441.445 696.1C440.792 696.1 440.258 695.907 439.845 695.52C439.445 695.133 439.225 694.6 439.185 693.92C438.785 694.613 438.238 695.153 437.545 695.54C436.852 695.913 436.065 696.1 435.185 696.1C434.252 696.1 433.405 695.88 432.645 695.44C431.898 694.987 431.305 694.367 430.865 693.58C430.438 692.793 430.225 691.907 430.225 690.92C430.225 689.933 430.438 689.053 430.865 688.28C431.305 687.493 431.898 686.88 432.645 686.44C433.405 686 434.252 685.78 435.185 685.78C436.038 685.78 436.805 685.967 437.485 686.34C438.178 686.7 438.732 687.213 439.145 687.88V685.86H440.445V693.44C440.445 693.973 440.558 694.36 440.785 694.6C441.012 694.84 441.312 694.96 441.685 694.96C442.312 694.96 442.805 694.587 443.165 693.84C443.538 693.093 443.725 692.053 443.725 690.72C443.725 689.173 443.378 687.813 442.685 686.64C441.992 685.453 441.018 684.533 439.765 683.88C438.525 683.227 437.105 682.9 435.505 682.9C433.892 682.9 432.458 683.24 431.205 683.92C429.965 684.587 428.998 685.533 428.305 686.76C427.612 687.973 427.265 689.36 427.265 690.92C427.265 692.48 427.605 693.873 428.285 695.1C428.978 696.327 429.938 697.28 431.165 697.96C432.405 698.64 433.825 698.98 435.425 698.98C436.052 698.98 436.705 698.907 437.385 698.76C438.078 698.613 438.705 698.393 439.265 698.1L439.605 699.08C439.032 699.373 438.365 699.6 437.605 699.76C436.858 699.92 436.132 700 435.425 700C433.612 700 432.005 699.613 430.605 698.84C429.205 698.067 428.112 696.993 427.325 695.62C426.552 694.233 426.165 692.667 426.165 690.92C426.165 689.16 426.558 687.6 427.345 686.24C428.132 684.867 429.232 683.8 430.645 683.04C432.072 682.267 433.692 681.88 435.505 681.88ZM435.365 694.94C436.085 694.94 436.732 694.773 437.305 694.44C437.878 694.107 438.332 693.64 438.665 693.04C438.998 692.427 439.165 691.72 439.165 690.92C439.165 690.133 438.998 689.44 438.665 688.84C438.332 688.227 437.878 687.76 437.305 687.44C436.732 687.107 436.085 686.94 435.365 686.94C434.632 686.94 433.972 687.107 433.385 687.44C432.812 687.773 432.358 688.24 432.025 688.84C431.705 689.44 431.545 690.133 431.545 690.92C431.545 691.707 431.705 692.407 432.025 693.02C432.358 693.62 432.812 694.093 433.385 694.44C433.972 694.773 434.632 694.94 435.365 694.94ZM457.509 685.48V694.72C457.509 696.507 457.069 697.827 456.189 698.68C455.322 699.547 454.009 699.98 452.249 699.98C451.276 699.98 450.349 699.833 449.469 699.54C448.602 699.26 447.896 698.867 447.349 698.36L448.069 697.28C448.576 697.733 449.189 698.087 449.909 698.34C450.642 698.593 451.409 698.72 452.209 698.72C453.542 698.72 454.522 698.407 455.149 697.78C455.776 697.167 456.089 696.207 456.089 694.9V693.56C455.649 694.227 455.069 694.733 454.349 695.08C453.642 695.427 452.856 695.6 451.989 695.6C451.002 695.6 450.102 695.387 449.289 694.96C448.489 694.52 447.856 693.913 447.389 693.14C446.936 692.353 446.709 691.467 446.709 690.48C446.709 689.493 446.936 688.613 447.389 687.84C447.856 687.067 448.489 686.467 449.289 686.04C450.089 685.613 450.989 685.4 451.989 685.4C452.882 685.4 453.689 685.58 454.409 685.94C455.129 686.3 455.709 686.82 456.149 687.5V685.48H457.509ZM452.129 694.34C452.889 694.34 453.576 694.18 454.189 693.86C454.802 693.527 455.276 693.067 455.609 692.48C455.956 691.893 456.129 691.227 456.129 690.48C456.129 689.733 455.956 689.073 455.609 688.5C455.276 687.913 454.802 687.46 454.189 687.14C453.589 686.807 452.902 686.64 452.129 686.64C451.369 686.64 450.682 686.8 450.069 687.12C449.469 687.44 448.996 687.893 448.649 688.48C448.316 689.067 448.149 689.733 448.149 690.48C448.149 691.227 448.316 691.893 448.649 692.48C448.996 693.067 449.469 693.527 450.069 693.86C450.682 694.18 451.369 694.34 452.129 694.34ZM474.6 685.4C475.92 685.4 476.953 685.78 477.7 686.54C478.46 687.3 478.84 688.42 478.84 689.9V696H477.42V690.04C477.42 688.947 477.153 688.113 476.62 687.54C476.1 686.967 475.36 686.68 474.4 686.68C473.307 686.68 472.447 687.02 471.82 687.7C471.193 688.367 470.88 689.293 470.88 690.48V696H469.46V690.04C469.46 688.947 469.193 688.113 468.66 687.54C468.14 686.967 467.393 686.68 466.42 686.68C465.34 686.68 464.48 687.02 463.84 687.7C463.213 688.367 462.9 689.293 462.9 690.48V696H461.48V685.48H462.84V687.4C463.213 686.76 463.733 686.267 464.4 685.92C465.067 685.573 465.833 685.4 466.7 685.4C467.58 685.4 468.34 685.587 468.98 685.96C469.633 686.333 470.12 686.887 470.44 687.62C470.827 686.927 471.38 686.387 472.1 686C472.833 685.6 473.667 685.4 474.6 685.4ZM486.371 685.4C487.744 685.4 488.798 685.747 489.531 686.44C490.264 687.12 490.631 688.133 490.631 689.48V696H489.271V694.36C488.951 694.907 488.478 695.333 487.851 695.64C487.238 695.947 486.504 696.1 485.651 696.1C484.478 696.1 483.544 695.82 482.851 695.26C482.158 694.7 481.811 693.96 481.811 693.04C481.811 692.147 482.131 691.427 482.771 690.88C483.424 690.333 484.458 690.06 485.871 690.06H489.211V689.42C489.211 688.513 488.958 687.827 488.451 687.36C487.944 686.88 487.204 686.64 486.231 686.64C485.564 686.64 484.924 686.753 484.311 686.98C483.698 687.193 483.171 687.493 482.731 687.88L482.091 686.82C482.624 686.367 483.264 686.02 484.011 685.78C484.758 685.527 485.544 685.4 486.371 685.4ZM485.871 694.98C486.671 694.98 487.358 694.8 487.931 694.44C488.504 694.067 488.931 693.533 489.211 692.84V691.12H485.911C484.111 691.12 483.211 691.747 483.211 693C483.211 693.613 483.444 694.1 483.911 694.46C484.378 694.807 485.031 694.98 485.871 694.98ZM494.488 685.48H495.908V696H494.488V685.48ZM495.208 683.18C494.914 683.18 494.668 683.08 494.468 682.88C494.268 682.68 494.168 682.44 494.168 682.16C494.168 681.893 494.268 681.66 494.468 681.46C494.668 681.26 494.914 681.16 495.208 681.16C495.501 681.16 495.748 681.26 495.948 681.46C496.148 681.647 496.248 681.873 496.248 682.14C496.248 682.433 496.148 682.68 495.948 682.88C495.748 683.08 495.501 683.18 495.208 683.18ZM499.859 681.16H501.279V696H499.859V681.16ZM505.37 696.1C505.077 696.1 504.823 695.993 504.61 695.78C504.41 695.567 504.31 695.307 504.31 695C504.31 694.693 504.41 694.44 504.61 694.24C504.823 694.027 505.077 693.92 505.37 693.92C505.663 693.92 505.917 694.027 506.13 694.24C506.343 694.44 506.45 694.693 506.45 695C506.45 695.307 506.343 695.567 506.13 695.78C505.917 695.993 505.663 696.1 505.37 696.1ZM513.535 696.1C512.495 696.1 511.562 695.873 510.735 695.42C509.922 694.967 509.282 694.333 508.815 693.52C508.349 692.693 508.115 691.767 508.115 690.74C508.115 689.713 508.349 688.793 508.815 687.98C509.282 687.167 509.922 686.533 510.735 686.08C511.562 685.627 512.495 685.4 513.535 685.4C514.442 685.4 515.249 685.58 515.955 685.94C516.675 686.287 517.242 686.8 517.655 687.48L516.595 688.2C516.249 687.68 515.809 687.293 515.275 687.04C514.742 686.773 514.162 686.64 513.535 686.64C512.775 686.64 512.089 686.813 511.475 687.16C510.875 687.493 510.402 687.973 510.055 688.6C509.722 689.227 509.555 689.94 509.555 690.74C509.555 691.553 509.722 692.273 510.055 692.9C510.402 693.513 510.875 693.993 511.475 694.34C512.089 694.673 512.775 694.84 513.535 694.84C514.162 694.84 514.742 694.713 515.275 694.46C515.809 694.207 516.249 693.82 516.595 693.3L517.655 694.02C517.242 694.7 516.675 695.22 515.955 695.58C515.235 695.927 514.429 696.1 513.535 696.1ZM524.569 696.1C523.556 696.1 522.642 695.873 521.829 695.42C521.016 694.953 520.376 694.313 519.909 693.5C519.442 692.687 519.209 691.767 519.209 690.74C519.209 689.713 519.442 688.793 519.909 687.98C520.376 687.167 521.016 686.533 521.829 686.08C522.642 685.627 523.556 685.4 524.569 685.4C525.582 685.4 526.496 685.627 527.309 686.08C528.122 686.533 528.756 687.167 529.209 687.98C529.676 688.793 529.909 689.713 529.909 690.74C529.909 691.767 529.676 692.687 529.209 693.5C528.756 694.313 528.122 694.953 527.309 695.42C526.496 695.873 525.582 696.1 524.569 696.1ZM524.569 694.84C525.316 694.84 525.982 694.673 526.569 694.34C527.169 693.993 527.636 693.507 527.969 692.88C528.302 692.253 528.469 691.54 528.469 690.74C528.469 689.94 528.302 689.227 527.969 688.6C527.636 687.973 527.169 687.493 526.569 687.16C525.982 686.813 525.316 686.64 524.569 686.64C523.822 686.64 523.149 686.813 522.549 687.16C521.962 687.493 521.496 687.973 521.149 688.6C520.816 689.227 520.649 689.94 520.649 690.74C520.649 691.54 520.816 692.253 521.149 692.88C521.496 693.507 521.962 693.993 522.549 694.34C523.149 694.673 523.822 694.84 524.569 694.84ZM545.928 685.4C547.248 685.4 548.281 685.78 549.028 686.54C549.788 687.3 550.168 688.42 550.168 689.9V696H548.748V690.04C548.748 688.947 548.481 688.113 547.948 687.54C547.428 686.967 546.688 686.68 545.728 686.68C544.635 686.68 543.775 687.02 543.148 687.7C542.521 688.367 542.208 689.293 542.208 690.48V696H540.788V690.04C540.788 688.947 540.521 688.113 539.988 687.54C539.468 686.967 538.721 686.68 537.748 686.68C536.668 686.68 535.808 687.02 535.168 687.7C534.541 688.367 534.228 689.293 534.228 690.48V696H532.808V685.48H534.168V687.4C534.541 686.76 535.061 686.267 535.728 685.92C536.395 685.573 537.161 685.4 538.028 685.4C538.908 685.4 539.668 685.587 540.308 685.96C540.961 686.333 541.448 686.887 541.768 687.62C542.155 686.927 542.708 686.387 543.428 686C544.161 685.6 544.995 685.4 545.928 685.4Z" fill="#333333"/>
</a>
<path d="M271.195 669.695V671H263.575V660.5H270.985V661.805H265.075V665.03H270.34V666.305H265.075V669.695H271.195ZM272.611 666.26H276.646V667.505H272.611V666.26ZM288.808 662.975C289.808 662.975 290.598 663.265 291.178 663.845C291.768 664.425 292.063 665.285 292.063 666.425V671H290.623V666.59C290.623 665.82 290.443 665.24 290.083 664.85C289.733 664.46 289.228 664.265 288.568 664.265C287.838 664.265 287.258 664.495 286.828 664.955C286.398 665.405 286.183 666.055 286.183 666.905V671H284.743V666.59C284.743 665.82 284.563 665.24 284.203 664.85C283.853 664.46 283.348 664.265 282.688 664.265C281.958 664.265 281.378 664.495 280.948 664.955C280.518 665.405 280.303 666.055 280.303 666.905V671H278.863V663.05H280.243V664.235C280.533 663.825 280.913 663.515 281.383 663.305C281.853 663.085 282.388 662.975 282.988 662.975C283.608 662.975 284.158 663.1 284.638 663.35C285.118 663.6 285.488 663.965 285.748 664.445C286.048 663.985 286.463 663.625 286.993 663.365C287.533 663.105 288.138 662.975 288.808 662.975ZM297.608 662.975C298.708 662.975 299.548 663.245 300.128 663.785C300.718 664.325 301.013 665.13 301.013 666.2V671H299.648V669.95C299.408 670.32 299.063 670.605 298.613 670.805C298.173 670.995 297.648 671.09 297.038 671.09C296.148 671.09 295.433 670.875 294.893 670.445C294.363 670.015 294.098 669.45 294.098 668.75C294.098 668.05 294.353 667.49 294.863 667.07C295.373 666.64 296.183 666.425 297.293 666.425H299.573V666.14C299.573 665.52 299.393 665.045 299.033 664.715C298.673 664.385 298.143 664.22 297.443 664.22C296.973 664.22 296.513 664.3 296.063 664.46C295.613 664.61 295.233 664.815 294.923 665.075L294.323 663.995C294.733 663.665 295.223 663.415 295.793 663.245C296.363 663.065 296.968 662.975 297.608 662.975ZM297.278 669.98C297.828 669.98 298.303 669.86 298.703 669.62C299.103 669.37 299.393 669.02 299.573 668.57V667.46H297.353C296.133 667.46 295.523 667.87 295.523 668.69C295.523 669.09 295.678 669.405 295.988 669.635C296.298 669.865 296.728 669.98 297.278 669.98ZM303.678 663.05H305.118V671H303.678V663.05ZM304.398 661.52C304.118 661.52 303.883 661.43 303.693 661.25C303.513 661.07 303.423 660.85 303.423 660.59C303.423 660.33 303.513 660.11 303.693 659.93C303.883 659.74 304.118 659.645 304.398 659.645C304.678 659.645 304.908 659.735 305.088 659.915C305.278 660.085 305.373 660.3 305.373 660.56C305.373 660.83 305.278 661.06 305.088 661.25C304.908 661.43 304.678 661.52 304.398 661.52ZM307.867 659.87H309.307V671H307.867V659.87Z" fill="#50507F"/>
<path d="M228.667 673.666L218 680.333L207.333 673.666V671L218 677.666L228.667 671V673.666ZM228.667 668.333H207.333C205.853 668.333 204.667 669.52 204.667 671V687C204.667 687.707 204.948 688.385 205.448 688.885C205.948 689.385 206.626 689.666 207.333 689.666H228.667C229.374 689.666 230.052 689.385 230.552 688.885C231.052 688.385 231.333 687.707 231.333 687V671C231.333 669.52 230.133 668.333 228.667 668.333Z" fill="#50507F"/>
<a cursor="pointer" href="https://www.google.com/maps/place/%D0%93%D1%80%D0%BE%D0%B4%D0%BD%D0%BE/@53.6840259,23.7107689,11z/data=!3m1!4b1!4m5!3m4!1s0x46dfd64beac55d1d:0xf013fd26569718c0!8m2!3d53.6687634!4d23.8222673" target="_blank">
    <rect x="260" y="738" width="175" height="27" fill="white"/>
</a>
<a cursor="pointer" href="https://www.google.com/maps/place/%D0%93%D1%80%D0%BE%D0%B4%D0%BD%D0%BE/@53.6840259,23.7107689,11z/data=!3m1!4b1!4m5!3m4!1s0x46dfd64beac55d1d:0xf013fd26569718c0!8m2!3d53.6687634!4d23.8222673" target="_blank">
    <path d="M264.28 760V746H270.32C271.88 746 273.087 746.313 273.94 746.94C274.807 747.567 275.24 748.453 275.24 749.6C275.24 750.36 275.06 751 274.7 751.52C274.353 752.04 273.873 752.433 273.26 752.7C272.66 752.967 272 753.1 271.28 753.1L271.62 752.62C272.513 752.62 273.28 752.76 273.92 753.04C274.573 753.307 275.08 753.713 275.44 754.26C275.8 754.793 275.98 755.46 275.98 756.26C275.98 757.447 275.54 758.367 274.66 759.02C273.793 759.673 272.48 760 270.72 760H264.28ZM265.76 758.78H270.7C271.927 758.78 272.867 758.573 273.52 758.16C274.173 757.733 274.5 757.06 274.5 756.14C274.5 755.233 274.173 754.573 273.52 754.16C272.867 753.733 271.927 753.52 270.7 753.52H265.6V752.3H270.22C271.34 752.3 272.207 752.087 272.82 751.66C273.447 751.233 273.76 750.6 273.76 749.76C273.76 748.907 273.447 748.273 272.82 747.86C272.207 747.433 271.34 747.22 270.22 747.22H265.76V758.78ZM283.518 760.1C282.425 760.1 281.465 759.873 280.638 759.42C279.811 758.953 279.165 758.32 278.698 757.52C278.231 756.707 277.998 755.78 277.998 754.74C277.998 753.7 278.218 752.78 278.658 751.98C279.111 751.18 279.725 750.553 280.498 750.1C281.285 749.633 282.165 749.4 283.138 749.4C284.125 749.4 284.998 749.627 285.758 750.08C286.531 750.52 287.138 751.147 287.578 751.96C288.018 752.76 288.238 753.687 288.238 754.74C288.238 754.807 288.231 754.88 288.218 754.96C288.218 755.027 288.218 755.1 288.218 755.18H279.078V754.12H287.458L286.898 754.54C286.898 753.78 286.731 753.107 286.398 752.52C286.078 751.92 285.638 751.453 285.078 751.12C284.518 750.787 283.871 750.62 283.138 750.62C282.418 750.62 281.771 750.787 281.198 751.12C280.625 751.453 280.178 751.92 279.858 752.52C279.538 753.12 279.378 753.807 279.378 754.58V754.8C279.378 755.6 279.551 756.307 279.898 756.92C280.258 757.52 280.751 757.993 281.378 758.34C282.018 758.673 282.745 758.84 283.558 758.84C284.198 758.84 284.791 758.727 285.338 758.5C285.898 758.273 286.378 757.927 286.778 757.46L287.578 758.38C287.111 758.94 286.525 759.367 285.818 759.66C285.125 759.953 284.358 760.1 283.518 760.1ZM291.128 760V745.16H292.548V760H291.128ZM303.08 760V757.68L303.02 757.3V753.42C303.02 752.527 302.766 751.84 302.26 751.36C301.766 750.88 301.026 750.64 300.04 750.64C299.36 750.64 298.713 750.753 298.1 750.98C297.486 751.207 296.966 751.507 296.54 751.88L295.9 750.82C296.433 750.367 297.073 750.02 297.82 749.78C298.566 749.527 299.353 749.4 300.18 749.4C301.54 749.4 302.586 749.74 303.32 750.42C304.066 751.087 304.44 752.107 304.44 753.48V760H303.08ZM299.46 760.1C298.673 760.1 297.986 759.973 297.4 759.72C296.826 759.453 296.386 759.093 296.08 758.64C295.773 758.173 295.62 757.64 295.62 757.04C295.62 756.493 295.746 756 296 755.56C296.266 755.107 296.693 754.747 297.28 754.48C297.88 754.2 298.68 754.06 299.68 754.06H303.3V755.12H299.72C298.706 755.12 298 755.3 297.6 755.66C297.213 756.02 297.02 756.467 297.02 757C297.02 757.6 297.253 758.08 297.72 758.44C298.186 758.8 298.84 758.98 299.68 758.98C300.48 758.98 301.166 758.8 301.74 758.44C302.326 758.067 302.753 757.533 303.02 756.84L303.34 757.82C303.073 758.513 302.606 759.067 301.94 759.48C301.286 759.893 300.46 760.1 299.46 760.1ZM308.296 760V749.5H309.656V752.36L309.516 751.86C309.81 751.06 310.303 750.453 310.996 750.04C311.69 749.613 312.55 749.4 313.576 749.4V750.78C313.523 750.78 313.47 750.78 313.416 750.78C313.363 750.767 313.31 750.76 313.256 750.76C312.15 750.76 311.283 751.1 310.656 751.78C310.03 752.447 309.716 753.4 309.716 754.64V760H308.296ZM320.664 760.1C319.77 760.1 318.99 759.933 318.324 759.6C317.657 759.267 317.137 758.767 316.764 758.1C316.404 757.433 316.224 756.6 316.224 755.6V749.5H317.644V755.44C317.644 756.56 317.917 757.407 318.464 757.98C319.024 758.54 319.804 758.82 320.804 758.82C321.537 758.82 322.17 758.673 322.704 758.38C323.25 758.073 323.664 757.633 323.944 757.06C324.237 756.487 324.384 755.8 324.384 755V749.5H325.804V760H324.444V757.12L324.664 757.64C324.33 758.413 323.81 759.02 323.104 759.46C322.41 759.887 321.597 760.1 320.664 760.1ZM332.581 760.1C331.715 760.1 330.895 759.98 330.121 759.74C329.348 759.487 328.741 759.173 328.301 758.8L328.941 757.68C329.368 758 329.915 758.28 330.581 758.52C331.248 758.747 331.948 758.86 332.681 758.86C333.681 758.86 334.401 758.707 334.841 758.4C335.281 758.08 335.501 757.66 335.501 757.14C335.501 756.753 335.375 756.453 335.121 756.24C334.881 756.013 334.561 755.847 334.161 755.74C333.761 755.62 333.315 755.52 332.821 755.44C332.328 755.36 331.835 755.267 331.341 755.16C330.861 755.053 330.421 754.9 330.021 754.7C329.621 754.487 329.295 754.2 329.041 753.84C328.801 753.48 328.681 753 328.681 752.4C328.681 751.827 328.841 751.313 329.161 750.86C329.481 750.407 329.948 750.053 330.561 749.8C331.188 749.533 331.948 749.4 332.841 749.4C333.521 749.4 334.201 749.493 334.881 749.68C335.561 749.853 336.121 750.087 336.561 750.38L335.941 751.52C335.475 751.2 334.975 750.973 334.441 750.84C333.908 750.693 333.375 750.62 332.841 750.62C331.895 750.62 331.195 750.787 330.741 751.12C330.301 751.44 330.081 751.853 330.081 752.36C330.081 752.76 330.201 753.073 330.441 753.3C330.695 753.527 331.021 753.707 331.421 753.84C331.835 753.96 332.281 754.06 332.761 754.14C333.255 754.22 333.741 754.32 334.221 754.44C334.715 754.547 335.161 754.7 335.561 754.9C335.975 755.087 336.301 755.36 336.541 755.72C336.795 756.067 336.921 756.527 336.921 757.1C336.921 757.713 336.748 758.247 336.401 758.7C336.068 759.14 335.575 759.487 334.921 759.74C334.281 759.98 333.501 760.1 332.581 760.1ZM338.667 762.92L339.547 759.22L339.707 760.08C339.4 760.08 339.14 759.98 338.927 759.78C338.727 759.58 338.627 759.32 338.627 759C338.627 758.68 338.727 758.42 338.927 758.22C339.14 758.02 339.394 757.92 339.687 757.92C339.994 757.92 340.24 758.027 340.427 758.24C340.627 758.453 340.727 758.707 340.727 759C340.727 759.107 340.72 759.213 340.707 759.32C340.694 759.427 340.667 759.547 340.627 759.68C340.587 759.813 340.534 759.973 340.467 760.16L339.627 762.92H338.667ZM355.44 760.12C354.373 760.12 353.386 759.947 352.48 759.6C351.586 759.24 350.806 758.74 350.14 758.1C349.486 757.46 348.973 756.707 348.6 755.84C348.24 754.973 348.06 754.027 348.06 753C348.06 751.973 348.24 751.027 348.6 750.16C348.973 749.293 349.493 748.54 350.16 747.9C350.826 747.26 351.606 746.767 352.5 746.42C353.406 746.06 354.393 745.88 355.46 745.88C356.526 745.88 357.5 746.047 358.38 746.38C359.273 746.713 360.033 747.22 360.66 747.9L359.74 748.84C359.153 748.253 358.506 747.833 357.8 747.58C357.093 747.327 356.333 747.2 355.52 747.2C354.653 747.2 353.853 747.347 353.12 747.64C352.4 747.92 351.766 748.327 351.22 748.86C350.686 749.38 350.266 749.993 349.96 750.7C349.666 751.393 349.52 752.16 349.52 753C349.52 753.827 349.666 754.593 349.96 755.3C350.266 756.007 350.686 756.627 351.22 757.16C351.766 757.68 352.4 758.087 353.12 758.38C353.853 758.66 354.646 758.8 355.5 758.8C356.3 758.8 357.053 758.68 357.76 758.44C358.48 758.2 359.14 757.793 359.74 757.22L360.58 758.34C359.913 758.927 359.133 759.373 358.24 759.68C357.346 759.973 356.413 760.12 355.44 760.12ZM359.16 758.16V753H360.58V758.34L359.16 758.16ZM364.468 760V749.5H365.828V752.36L365.688 751.86C365.982 751.06 366.475 750.453 367.168 750.04C367.862 749.613 368.722 749.4 369.748 749.4V750.78C369.695 750.78 369.642 750.78 369.588 750.78C369.535 750.767 369.482 750.76 369.428 750.76C368.322 750.76 367.455 751.1 366.828 751.78C366.202 752.447 365.888 753.4 365.888 754.64V760H364.468ZM376.522 760.1C375.508 760.1 374.595 759.873 373.782 759.42C372.982 758.953 372.348 758.32 371.882 757.52C371.415 756.707 371.182 755.78 371.182 754.74C371.182 753.687 371.415 752.76 371.882 751.96C372.348 751.16 372.982 750.533 373.782 750.08C374.582 749.627 375.495 749.4 376.522 749.4C377.562 749.4 378.482 749.627 379.282 750.08C380.095 750.533 380.728 751.16 381.182 751.96C381.648 752.76 381.882 753.687 381.882 754.74C381.882 755.78 381.648 756.707 381.182 757.52C380.728 758.32 380.095 758.953 379.282 759.42C378.468 759.873 377.548 760.1 376.522 760.1ZM376.522 758.84C377.282 758.84 377.955 758.673 378.542 758.34C379.128 757.993 379.588 757.513 379.922 756.9C380.268 756.273 380.442 755.553 380.442 754.74C380.442 753.913 380.268 753.193 379.922 752.58C379.588 751.967 379.128 751.493 378.542 751.16C377.955 750.813 377.288 750.64 376.542 750.64C375.795 750.64 375.128 750.813 374.542 751.16C373.955 751.493 373.488 751.967 373.142 752.58C372.795 753.193 372.622 753.913 372.622 754.74C372.622 755.553 372.795 756.273 373.142 756.9C373.488 757.513 373.955 757.993 374.542 758.34C375.128 758.673 375.788 758.84 376.522 758.84ZM388.961 760.1C387.961 760.1 387.061 759.873 386.261 759.42C385.474 758.967 384.854 758.34 384.401 757.54C383.947 756.727 383.721 755.793 383.721 754.74C383.721 753.673 383.947 752.74 384.401 751.94C384.854 751.14 385.474 750.52 386.261 750.08C387.061 749.627 387.961 749.4 388.961 749.4C389.881 749.4 390.701 749.607 391.421 750.02C392.154 750.433 392.734 751.04 393.161 751.84C393.601 752.627 393.821 753.593 393.821 754.74C393.821 755.873 393.607 756.84 393.181 757.64C392.754 758.44 392.174 759.053 391.441 759.48C390.721 759.893 389.894 760.1 388.961 760.1ZM389.061 758.84C389.807 758.84 390.474 758.673 391.061 758.34C391.661 757.993 392.127 757.513 392.461 756.9C392.807 756.273 392.981 755.553 392.981 754.74C392.981 753.913 392.807 753.193 392.461 752.58C392.127 751.967 391.661 751.493 391.061 751.16C390.474 750.813 389.807 750.64 389.061 750.64C388.327 750.64 387.667 750.813 387.081 751.16C386.494 751.493 386.027 751.967 385.681 752.58C385.334 753.193 385.161 753.913 385.161 754.74C385.161 755.553 385.334 756.273 385.681 756.9C386.027 757.513 386.494 757.993 387.081 758.34C387.667 758.673 388.327 758.84 389.061 758.84ZM393.021 760V756.84L393.161 754.72L392.961 752.6V745.16H394.381V760H393.021ZM403.695 749.4C404.549 749.4 405.295 749.567 405.935 749.9C406.589 750.22 407.095 750.713 407.455 751.38C407.829 752.047 408.015 752.887 408.015 753.9V760H406.595V754.04C406.595 752.933 406.315 752.1 405.755 751.54C405.209 750.967 404.435 750.68 403.435 750.68C402.689 750.68 402.035 750.833 401.475 751.14C400.929 751.433 400.502 751.867 400.195 752.44C399.902 753 399.755 753.68 399.755 754.48V760H398.335V749.5H399.695V752.38L399.475 751.84C399.809 751.08 400.342 750.487 401.075 750.06C401.809 749.62 402.682 749.4 403.695 749.4ZM416.131 760.1C415.118 760.1 414.204 759.873 413.391 759.42C412.591 758.953 411.958 758.32 411.491 757.52C411.024 756.707 410.791 755.78 410.791 754.74C410.791 753.687 411.024 752.76 411.491 751.96C411.958 751.16 412.591 750.533 413.391 750.08C414.191 749.627 415.104 749.4 416.131 749.4C417.171 749.4 418.091 749.627 418.891 750.08C419.704 750.533 420.338 751.16 420.791 751.96C421.258 752.76 421.491 753.687 421.491 754.74C421.491 755.78 421.258 756.707 420.791 757.52C420.338 758.32 419.704 758.953 418.891 759.42C418.078 759.873 417.158 760.1 416.131 760.1ZM416.131 758.84C416.891 758.84 417.564 758.673 418.151 758.34C418.738 757.993 419.198 757.513 419.531 756.9C419.878 756.273 420.051 755.553 420.051 754.74C420.051 753.913 419.878 753.193 419.531 752.58C419.198 751.967 418.738 751.493 418.151 751.16C417.564 750.813 416.898 750.64 416.151 750.64C415.404 750.64 414.738 750.813 414.151 751.16C413.564 751.493 413.098 751.967 412.751 752.58C412.404 753.193 412.231 753.913 412.231 754.74C412.231 755.553 412.404 756.273 412.751 756.9C413.098 757.513 413.564 757.993 414.151 758.34C414.738 758.673 415.398 758.84 416.131 758.84Z" fill="#333333"/>
</a>
<path d="M263.575 724.5H265.075V733.695H270.76V735H263.575V724.5ZM275.574 735.09C274.784 735.09 274.074 734.915 273.444 734.565C272.814 734.215 272.319 733.735 271.959 733.125C271.609 732.505 271.434 731.805 271.434 731.025C271.434 730.245 271.609 729.55 271.959 728.94C272.319 728.32 272.814 727.84 273.444 727.5C274.074 727.15 274.784 726.975 275.574 726.975C276.364 726.975 277.069 727.15 277.689 727.5C278.319 727.84 278.809 728.32 279.159 728.94C279.519 729.55 279.699 730.245 279.699 731.025C279.699 731.805 279.519 732.505 279.159 733.125C278.809 733.735 278.319 734.215 277.689 734.565C277.069 734.915 276.364 735.09 275.574 735.09ZM275.574 733.83C276.084 733.83 276.539 733.715 276.939 733.485C277.349 733.245 277.669 732.915 277.899 732.495C278.129 732.065 278.244 731.575 278.244 731.025C278.244 730.475 278.129 729.99 277.899 729.57C277.669 729.14 277.349 728.81 276.939 728.58C276.539 728.35 276.084 728.235 275.574 728.235C275.064 728.235 274.604 728.35 274.194 728.58C273.794 728.81 273.474 729.14 273.234 729.57C273.004 729.99 272.889 730.475 272.889 731.025C272.889 731.575 273.004 732.065 273.234 732.495C273.474 732.915 273.794 733.245 274.194 733.485C274.604 733.715 275.064 733.83 275.574 733.83ZM285.155 735.09C284.345 735.09 283.62 734.915 282.98 734.565C282.35 734.215 281.855 733.735 281.495 733.125C281.135 732.505 280.955 731.805 280.955 731.025C280.955 730.245 281.135 729.55 281.495 728.94C281.855 728.32 282.35 727.84 282.98 727.5C283.62 727.15 284.345 726.975 285.155 726.975C285.875 726.975 286.515 727.12 287.075 727.41C287.645 727.7 288.085 728.12 288.395 728.67L287.3 729.375C287.05 728.995 286.74 728.71 286.37 728.52C286 728.33 285.59 728.235 285.14 728.235C284.62 728.235 284.15 728.35 283.73 728.58C283.32 728.81 282.995 729.14 282.755 729.57C282.525 729.99 282.41 730.475 282.41 731.025C282.41 731.585 282.525 732.08 282.755 732.51C282.995 732.93 283.32 733.255 283.73 733.485C284.15 733.715 284.62 733.83 285.14 733.83C285.59 733.83 286 733.735 286.37 733.545C286.74 733.355 287.05 733.07 287.3 732.69L288.395 733.38C288.085 733.93 287.645 734.355 287.075 734.655C286.515 734.945 285.875 735.09 285.155 735.09ZM293.155 726.975C294.255 726.975 295.095 727.245 295.675 727.785C296.265 728.325 296.56 729.13 296.56 730.2V735H295.195V733.95C294.955 734.32 294.61 734.605 294.16 734.805C293.72 734.995 293.195 735.09 292.585 735.09C291.695 735.09 290.98 734.875 290.44 734.445C289.91 734.015 289.645 733.45 289.645 732.75C289.645 732.05 289.9 731.49 290.41 731.07C290.92 730.64 291.73 730.425 292.84 730.425H295.12V730.14C295.12 729.52 294.94 729.045 294.58 728.715C294.22 728.385 293.69 728.22 292.99 728.22C292.52 728.22 292.06 728.3 291.61 728.46C291.16 728.61 290.78 728.815 290.47 729.075L289.87 727.995C290.28 727.665 290.77 727.415 291.34 727.245C291.91 727.065 292.515 726.975 293.155 726.975ZM292.825 733.98C293.375 733.98 293.85 733.86 294.25 733.62C294.65 733.37 294.94 733.02 295.12 732.57V731.46H292.9C291.68 731.46 291.07 731.87 291.07 732.69C291.07 733.09 291.225 733.405 291.535 733.635C291.845 733.865 292.275 733.98 292.825 733.98ZM303.694 734.535C303.484 734.715 303.224 734.855 302.914 734.955C302.604 735.045 302.284 735.09 301.954 735.09C301.154 735.09 300.534 734.875 300.094 734.445C299.654 734.015 299.434 733.4 299.434 732.6V728.235H298.084V727.05H299.434V725.31H300.874V727.05H303.154V728.235H300.874V732.54C300.874 732.97 300.979 733.3 301.189 733.53C301.409 733.76 301.719 733.875 302.119 733.875C302.559 733.875 302.934 733.75 303.244 733.5L303.694 734.535ZM305.435 727.05H306.875V735H305.435V727.05ZM306.155 725.52C305.875 725.52 305.64 725.43 305.45 725.25C305.27 725.07 305.18 724.85 305.18 724.59C305.18 724.33 305.27 724.11 305.45 723.93C305.64 723.74 305.875 723.645 306.155 723.645C306.435 723.645 306.665 723.735 306.845 723.915C307.035 724.085 307.13 724.3 307.13 724.56C307.13 724.83 307.035 725.06 306.845 725.25C306.665 725.43 306.435 725.52 306.155 725.52ZM313.03 735.09C312.24 735.09 311.53 734.915 310.9 734.565C310.27 734.215 309.775 733.735 309.415 733.125C309.065 732.505 308.89 731.805 308.89 731.025C308.89 730.245 309.065 729.55 309.415 728.94C309.775 728.32 310.27 727.84 310.9 727.5C311.53 727.15 312.24 726.975 313.03 726.975C313.82 726.975 314.525 727.15 315.145 727.5C315.775 727.84 316.265 728.32 316.615 728.94C316.975 729.55 317.155 730.245 317.155 731.025C317.155 731.805 316.975 732.505 316.615 733.125C316.265 733.735 315.775 734.215 315.145 734.565C314.525 734.915 313.82 735.09 313.03 735.09ZM313.03 733.83C313.54 733.83 313.995 733.715 314.395 733.485C314.805 733.245 315.125 732.915 315.355 732.495C315.585 732.065 315.7 731.575 315.7 731.025C315.7 730.475 315.585 729.99 315.355 729.57C315.125 729.14 314.805 728.81 314.395 728.58C313.995 728.35 313.54 728.235 313.03 728.235C312.52 728.235 312.06 728.35 311.65 728.58C311.25 728.81 310.93 729.14 310.69 729.57C310.46 729.99 310.345 730.475 310.345 731.025C310.345 731.575 310.46 732.065 310.69 732.495C310.93 732.915 311.25 733.245 311.65 733.485C312.06 733.715 312.52 733.83 313.03 733.83ZM323.391 726.975C324.401 726.975 325.201 727.27 325.791 727.86C326.391 728.44 326.691 729.295 326.691 730.425V735H325.251V730.59C325.251 729.82 325.066 729.24 324.696 728.85C324.326 728.46 323.796 728.265 323.106 728.265C322.326 728.265 321.711 728.495 321.261 728.955C320.811 729.405 320.586 730.055 320.586 730.905V735H319.146V727.05H320.526V728.25C320.816 727.84 321.206 727.525 321.696 727.305C322.196 727.085 322.761 726.975 323.391 726.975Z" fill="#50507F"/>
<path d="M218 742.334C217.116 742.334 216.268 741.982 215.643 741.357C215.018 740.732 214.667 739.884 214.667 739C214.667 738.116 215.018 737.268 215.643 736.643C216.268 736.018 217.116 735.667 218 735.667C218.884 735.667 219.732 736.018 220.357 736.643C220.982 737.268 221.333 738.116 221.333 739C221.333 739.438 221.247 739.872 221.08 740.276C220.912 740.68 220.667 741.048 220.357 741.357C220.047 741.667 219.68 741.912 219.276 742.08C218.871 742.247 218.438 742.334 218 742.334V742.334ZM218 729.667C215.525 729.667 213.151 730.65 211.4 732.401C209.65 734.151 208.667 736.525 208.667 739C208.667 746 218 756.334 218 756.334C218 756.334 227.333 746 227.333 739C227.333 736.525 226.35 734.151 224.6 732.401C222.849 730.65 220.475 729.667 218 729.667V729.667Z" fill="#50507F"/>
<line x1="261" y1="646.5" x2="636" y2="646.5" stroke="black" stroke-opacity="0.1"/>
<line x1="261" y1="710.5" x2="636" y2="710.5" stroke="black" stroke-opacity="0.1"/>
</g>
<defs>
<linearGradient id="paint0_linear_714_335" x1="431.091" y1="305.69" x2="426.407" y2="318.18" gradientUnits="userSpaceOnUse">
<stop stop-color="#391F0A"/>
<stop offset="1" stop-color="#C59178"/>
</linearGradient>
<linearGradient id="paint1_linear_714_335" x1="390.743" y1="269.858" x2="401.034" y2="251.905" gradientUnits="userSpaceOnUse">
<stop stop-color="#723F18"/>
<stop offset="1" stop-color="#AC6630"/>
</linearGradient>
<linearGradient id="paint2_linear_714_335" x1="396.441" y1="341.404" x2="394.803" y2="322.818" gradientUnits="userSpaceOnUse">
<stop stop-color="#391F0A"/>
<stop offset="1" stop-color="#C59178"/>
</linearGradient>
<clipPath id="clip0_714_335">
<rect width="552" height="745" fill="white" transform="translate(124 55)"/>
</clipPath>
</defs>
</svg>
