<svg width="801" height="800" viewBox="0 0 801 800" fill="none" xmlns="http://www.w3.org/2000/svg">
<rect width="800" height="800" fill="#EDEDED"/>
<g clip-path="url(#clip0_204_1425)">
<rect x="8.52294" y="142.819" width="783.954" height="417.204" fill="#1517A3" stroke="#414150" stroke-width="15.5383"/>
<rect x="324.751" y="567.793" width="151.499" height="70.6993" fill="#484859"/>
<rect x="271.144" y="638.492" width="258.713" height="8.54607" fill="#414150"/>
<g clip-path="url(#clip1_204_1425)">
<path d="M417.158 628.087C417.158 634.95 409.7 638.96 400.5 638.96C391.3 638.96 383.842 634.95 383.842 628.087C383.842 621.224 391.3 614.106 400.5 614.106C409.7 614.106 417.158 621.224 417.158 628.087Z" fill="#FFE500"/>
<path fill-rule="evenodd" clip-rule="evenodd" d="M415.14 633.984C416.427 632.221 417.158 630.2 417.158 628.051C417.158 626.151 416.586 624.351 415.565 622.741C414.433 623.955 413.679 626.137 413.679 628.626C413.679 630.789 414.248 632.719 415.14 633.984ZM385.435 622.741C384.414 624.351 383.842 626.151 383.842 628.051C383.842 630.2 384.573 632.221 385.86 633.984C386.752 632.719 387.321 630.789 387.321 628.626C387.321 626.136 386.567 623.955 385.435 622.741Z" fill="#FFCA00"/>
<ellipse cx="400.5" cy="610.129" rx="13.6505" ry="11.848" fill="#FFFF00"/>
<ellipse cx="391.855" cy="609.232" rx="2.27508" ry="1.82006" fill="black"/>
<ellipse rx="2.27508" ry="1.82006" transform="matrix(-1 -8.74228e-08 -8.74228e-08 1 408.629 609.232)" fill="black"/>
<path d="M408.235 616.061C404.223 616.061 407.636 613.003 400.5 612.88C393.364 613.003 396.777 616.061 392.765 616.061C397.486 617.897 399.656 618.269 400.5 618.162C401.344 618.269 403.514 617.897 408.235 616.061Z" fill="#FF8600"/>
<circle cx="392.408" cy="609.234" r="0.5533" fill="white"/>
<circle cx="408.076" cy="609.234" r="0.5533" fill="white"/>
</g>
<rect x="16.3153" y="150.588" width="768.37" height="401.665" fill="white"/>
<rect id="pcActive" x="185.5" y="431.5" width="177" height="51" rx="9.5" fill="white" stroke="#1517A3"/>
<path id="textActive" d="M249.882 450.52C250.987 450.52 251.944 450.704 252.752 451.073C253.572 451.441 254.202 451.964 254.642 452.642C255.082 453.319 255.302 454.121 255.302 455.048C255.302 455.964 255.082 456.766 254.642 457.455C254.202 458.133 253.572 458.656 252.752 459.024C251.944 459.381 250.987 459.559 249.882 459.559H247.368V463H244.48V450.52H249.882ZM249.721 457.206C250.589 457.206 251.249 457.021 251.7 456.653C252.152 456.273 252.378 455.738 252.378 455.048C252.378 454.347 252.152 453.812 251.7 453.444C251.249 453.064 250.589 452.873 249.721 452.873H247.368V457.206H249.721ZM267.005 453.408V463H264.366V461.859C263.998 462.275 263.558 462.596 263.047 462.822C262.536 463.036 261.983 463.143 261.389 463.143C260.129 463.143 259.13 462.78 258.394 462.055C257.657 461.33 257.288 460.254 257.288 458.828V453.408H260.069V458.418C260.069 459.963 260.717 460.736 262.013 460.736C262.678 460.736 263.213 460.522 263.617 460.094C264.021 459.654 264.224 459.006 264.224 458.151V453.408H267.005ZM277.479 460.861V463H268.922V461.324L273.807 455.548H269.047V453.408H277.319V455.084L272.434 460.861H277.479ZM287.16 460.861V463H278.602V461.324L283.487 455.548H278.727V453.408H286.999V455.084L282.114 460.861H287.16ZM288.942 449.771H291.723V463H288.942V449.771ZM303.7 458.24C303.7 458.275 303.682 458.525 303.647 458.989H296.391C296.521 459.583 296.83 460.052 297.318 460.397C297.805 460.742 298.411 460.914 299.136 460.914C299.635 460.914 300.075 460.843 300.455 460.7C300.848 460.546 301.21 460.308 301.543 459.987L303.023 461.592C302.119 462.626 300.8 463.143 299.065 463.143C297.983 463.143 297.026 462.935 296.194 462.519C295.362 462.091 294.721 461.502 294.269 460.754C293.817 460.005 293.591 459.155 293.591 458.204C293.591 457.265 293.811 456.421 294.251 455.672C294.703 454.912 295.315 454.323 296.087 453.907C296.872 453.48 297.746 453.266 298.708 453.266C299.647 453.266 300.497 453.468 301.258 453.872C302.018 454.276 302.613 454.858 303.041 455.619C303.48 456.368 303.7 457.241 303.7 458.24ZM298.726 455.369C298.096 455.369 297.567 455.548 297.139 455.904C296.711 456.261 296.45 456.748 296.355 457.366H301.079C300.984 456.76 300.723 456.279 300.295 455.922C299.867 455.554 299.344 455.369 298.726 455.369Z" fill="#1517A3"/>
<rect id='drinksActive' x="437.5" y="431.5" width="177" height="51" rx="9.5" fill="white" stroke="#1517A3"/>
<path id='drinksActiveText'  d="M466.452 463.214C465.181 463.214 464.028 462.941 462.994 462.394C461.971 461.835 461.163 461.069 460.569 460.094C459.987 459.107 459.695 457.996 459.695 456.76C459.695 455.524 459.987 454.419 460.569 453.444C461.163 452.457 461.971 451.691 462.994 451.144C464.028 450.585 465.187 450.306 466.47 450.306C467.552 450.306 468.526 450.496 469.394 450.877C470.274 451.257 471.011 451.804 471.605 452.517L469.751 454.228C468.907 453.254 467.861 452.766 466.613 452.766C465.84 452.766 465.151 452.939 464.545 453.283C463.939 453.616 463.463 454.086 463.118 454.692C462.786 455.298 462.619 455.987 462.619 456.76C462.619 457.533 462.786 458.222 463.118 458.828C463.463 459.434 463.939 459.91 464.545 460.254C465.151 460.587 465.84 460.754 466.613 460.754C467.861 460.754 468.907 460.26 469.751 459.274L471.605 460.985C471.011 461.71 470.274 462.263 469.394 462.643C468.515 463.024 467.534 463.214 466.452 463.214ZM477.453 463.143C476.443 463.143 475.534 462.935 474.725 462.519C473.929 462.091 473.305 461.502 472.853 460.754C472.402 460.005 472.176 459.155 472.176 458.204C472.176 457.253 472.402 456.403 472.853 455.655C473.305 454.906 473.929 454.323 474.725 453.907C475.534 453.48 476.443 453.266 477.453 453.266C478.463 453.266 479.367 453.48 480.163 453.907C480.959 454.323 481.583 454.906 482.035 455.655C482.487 456.403 482.713 457.253 482.713 458.204C482.713 459.155 482.487 460.005 482.035 460.754C481.583 461.502 480.959 462.091 480.163 462.519C479.367 462.935 478.463 463.143 477.453 463.143ZM477.453 460.861C478.166 460.861 478.749 460.623 479.2 460.147C479.664 459.66 479.896 459.012 479.896 458.204C479.896 457.396 479.664 456.754 479.2 456.279C478.749 455.791 478.166 455.548 477.453 455.548C476.74 455.548 476.152 455.791 475.688 456.279C475.225 456.754 474.993 457.396 474.993 458.204C474.993 459.012 475.225 459.66 475.688 460.147C476.152 460.623 476.74 460.861 477.453 460.861ZM487.62 453.622H490.081V455.762H487.692V463H484.91V455.762H483.431V453.622H484.91V453.194C484.91 452.101 485.231 451.233 485.873 450.591C486.527 449.949 487.442 449.629 488.619 449.629C489.035 449.629 489.427 449.676 489.795 449.771C490.176 449.854 490.491 449.979 490.74 450.146L490.009 452.16C489.688 451.934 489.314 451.821 488.886 451.821C488.042 451.821 487.62 452.285 487.62 453.212V453.622ZM494.515 453.622H496.975V455.762H494.586V463H491.805V455.762H490.325V453.622H491.805V453.194C491.805 452.101 492.126 451.233 492.768 450.591C493.421 449.949 494.337 449.629 495.513 449.629C495.929 449.629 496.322 449.676 496.69 449.771C497.07 449.854 497.385 449.979 497.635 450.146L496.904 452.16C496.583 451.934 496.209 451.821 495.781 451.821C494.937 451.821 494.515 452.285 494.515 453.212V453.622ZM507.635 458.24C507.635 458.275 507.617 458.525 507.581 458.989H500.325C500.456 459.583 500.765 460.052 501.252 460.397C501.739 460.742 502.346 460.914 503.071 460.914C503.57 460.914 504.01 460.843 504.39 460.7C504.782 460.546 505.145 460.308 505.477 459.987L506.957 461.592C506.054 462.626 504.735 463.143 502.999 463.143C501.918 463.143 500.961 462.935 500.129 462.519C499.297 462.091 498.655 461.502 498.203 460.754C497.752 460.005 497.526 459.155 497.526 458.204C497.526 457.265 497.746 456.421 498.186 455.672C498.637 454.912 499.249 454.323 500.022 453.907C500.806 453.48 501.68 453.266 502.643 453.266C503.582 453.266 504.431 453.468 505.192 453.872C505.953 454.276 506.547 454.858 506.975 455.619C507.415 456.368 507.635 457.241 507.635 458.24ZM502.66 455.369C502.031 455.369 501.502 455.548 501.074 455.904C500.646 456.261 500.384 456.748 500.289 457.366H505.014C504.919 456.76 504.657 456.279 504.229 455.922C503.802 455.554 503.279 455.369 502.66 455.369ZM518.882 458.24C518.882 458.275 518.864 458.525 518.829 458.989H511.572C511.703 459.583 512.012 460.052 512.499 460.397C512.987 460.742 513.593 460.914 514.318 460.914C514.817 460.914 515.257 460.843 515.637 460.7C516.029 460.546 516.392 460.308 516.725 459.987L518.205 461.592C517.301 462.626 515.982 463.143 514.247 463.143C513.165 463.143 512.208 462.935 511.376 462.519C510.544 462.091 509.902 461.502 509.451 460.754C508.999 460.005 508.773 459.155 508.773 458.204C508.773 457.265 508.993 456.421 509.433 455.672C509.885 454.912 510.497 454.323 511.269 453.907C512.054 453.48 512.927 453.266 513.89 453.266C514.829 453.266 515.679 453.468 516.439 453.872C517.2 454.276 517.794 454.858 518.222 455.619C518.662 456.368 518.882 457.241 518.882 458.24ZM513.908 455.369C513.278 455.369 512.749 455.548 512.321 455.904C511.893 456.261 511.632 456.748 511.537 457.366H516.261C516.166 456.76 515.905 456.279 515.477 455.922C515.049 455.554 514.526 455.369 513.908 455.369ZM528.439 454.674C528.772 454.211 529.218 453.86 529.776 453.622C530.347 453.384 531.001 453.266 531.738 453.266V455.833C531.428 455.809 531.22 455.797 531.114 455.797C530.317 455.797 529.693 456.023 529.242 456.475C528.79 456.915 528.564 457.58 528.564 458.472V463H525.783V453.408H528.439V454.674ZM542.7 458.24C542.7 458.275 542.682 458.525 542.646 458.989H535.39C535.521 459.583 535.83 460.052 536.317 460.397C536.805 460.742 537.411 460.914 538.136 460.914C538.635 460.914 539.075 460.843 539.455 460.7C539.847 460.546 540.21 460.308 540.543 459.987L542.022 461.592C541.119 462.626 539.8 463.143 538.064 463.143C536.983 463.143 536.026 462.935 535.194 462.519C534.362 462.091 533.72 461.502 533.269 460.754C532.817 460.005 532.591 459.155 532.591 458.204C532.591 457.265 532.811 456.421 533.251 455.672C533.702 454.912 534.314 454.323 535.087 453.907C535.872 453.48 536.745 453.266 537.708 453.266C538.647 453.266 539.497 453.468 540.257 453.872C541.018 454.276 541.612 454.858 542.04 455.619C542.48 456.368 542.7 457.241 542.7 458.24ZM537.726 455.369C537.096 455.369 536.567 455.548 536.139 455.904C535.711 456.261 535.45 456.748 535.354 457.366H540.079C539.984 456.76 539.722 456.279 539.295 455.922C538.867 455.554 538.344 455.369 537.726 455.369ZM549.187 463.143C548.165 463.143 547.244 462.935 546.424 462.519C545.615 462.091 544.979 461.502 544.516 460.754C544.064 460.005 543.838 459.155 543.838 458.204C543.838 457.253 544.064 456.403 544.516 455.655C544.979 454.906 545.615 454.323 546.424 453.907C547.244 453.48 548.165 453.266 549.187 453.266C550.197 453.266 551.077 453.48 551.826 453.907C552.586 454.323 553.139 454.924 553.484 455.708L551.326 456.867C550.827 455.987 550.108 455.548 549.169 455.548C548.444 455.548 547.844 455.785 547.368 456.261C546.893 456.736 546.655 457.384 546.655 458.204C546.655 459.024 546.893 459.672 547.368 460.147C547.844 460.623 548.444 460.861 549.169 460.861C550.12 460.861 550.839 460.421 551.326 459.541L553.484 460.718C553.139 461.479 552.586 462.073 551.826 462.501C551.077 462.929 550.197 463.143 549.187 463.143ZM555.085 453.408H557.866V463H555.085V453.408ZM556.476 452.071C555.965 452.071 555.549 451.923 555.228 451.625C554.907 451.328 554.746 450.96 554.746 450.52C554.746 450.08 554.907 449.712 555.228 449.415C555.549 449.117 555.965 448.969 556.476 448.969C556.987 448.969 557.403 449.112 557.724 449.397C558.045 449.682 558.205 450.039 558.205 450.467C558.205 450.93 558.045 451.316 557.724 451.625C557.403 451.923 556.987 452.071 556.476 452.071ZM566.117 453.266C567.008 453.266 567.817 453.474 568.542 453.89C569.279 454.294 569.855 454.87 570.271 455.619C570.687 456.356 570.895 457.218 570.895 458.204C570.895 459.191 570.687 460.058 570.271 460.807C569.855 461.544 569.279 462.12 568.542 462.536C567.817 462.941 567.008 463.143 566.117 463.143C564.893 463.143 563.93 462.756 563.229 461.984V466.459H560.447V453.408H563.104V454.514C563.793 453.682 564.798 453.266 566.117 453.266ZM565.636 460.861C566.349 460.861 566.931 460.623 567.383 460.147C567.846 459.66 568.078 459.012 568.078 458.204C568.078 457.396 567.846 456.754 567.383 456.279C566.931 455.791 566.349 455.548 565.636 455.548C564.922 455.548 564.334 455.791 563.871 456.279C563.419 456.754 563.193 457.396 563.193 458.204C563.193 459.012 563.419 459.66 563.871 460.147C564.334 460.623 564.922 460.861 565.636 460.861ZM582.153 458.24C582.153 458.275 582.135 458.525 582.099 458.989H574.843C574.974 459.583 575.283 460.052 575.77 460.397C576.257 460.742 576.863 460.914 577.588 460.914C578.088 460.914 578.527 460.843 578.908 460.7C579.3 460.546 579.662 460.308 579.995 459.987L581.475 461.592C580.572 462.626 579.252 463.143 577.517 463.143C576.435 463.143 575.479 462.935 574.647 462.519C573.815 462.091 573.173 461.502 572.721 460.754C572.27 460.005 572.044 459.155 572.044 458.204C572.044 457.265 572.264 456.421 572.703 455.672C573.155 454.912 573.767 454.323 574.54 453.907C575.324 453.48 576.198 453.266 577.161 453.266C578.099 453.266 578.949 453.468 579.71 453.872C580.471 454.276 581.065 454.858 581.493 455.619C581.933 456.368 582.153 457.241 582.153 458.24ZM577.178 455.369C576.548 455.369 576.019 455.548 575.592 455.904C575.164 456.261 574.902 456.748 574.807 457.366H579.532C579.437 456.76 579.175 456.279 578.747 455.922C578.319 455.554 577.796 455.369 577.178 455.369ZM587.231 463.143C586.435 463.143 585.656 463.048 584.896 462.857C584.135 462.655 583.529 462.406 583.077 462.109L584.004 460.112C584.432 460.385 584.949 460.611 585.555 460.789C586.161 460.956 586.756 461.039 587.338 461.039C588.515 461.039 589.103 460.748 589.103 460.165C589.103 459.892 588.943 459.696 588.622 459.577C588.301 459.458 587.808 459.357 587.142 459.274C586.358 459.155 585.71 459.018 585.199 458.864C584.688 458.709 584.242 458.436 583.862 458.044C583.493 457.651 583.309 457.093 583.309 456.368C583.309 455.762 583.481 455.227 583.826 454.763C584.182 454.288 584.694 453.919 585.359 453.658C586.037 453.396 586.833 453.266 587.748 453.266C588.426 453.266 589.097 453.343 589.763 453.497C590.44 453.64 590.999 453.842 591.439 454.104L590.512 456.083C589.668 455.607 588.747 455.369 587.748 455.369C587.154 455.369 586.708 455.453 586.411 455.619C586.114 455.785 585.965 455.999 585.965 456.261C585.965 456.558 586.126 456.766 586.447 456.885C586.768 457.004 587.279 457.117 587.98 457.224C588.764 457.354 589.406 457.497 589.905 457.651C590.405 457.794 590.838 458.061 591.207 458.454C591.575 458.846 591.76 459.393 591.76 460.094C591.76 460.688 591.581 461.217 591.225 461.681C590.868 462.144 590.345 462.507 589.656 462.768C588.978 463.018 588.17 463.143 587.231 463.143Z" fill="#1517A3"/>
<path d="M269.6 273.193L389.633 204.493C392.963 202.588 396.719 201.585 400.518 201.585C404.402 201.585 408.238 202.636 411.621 204.626L531.383 269.939C538.463 274.106 542.822 281.928 542.747 290.358C542.673 298.799 538.191 306.546 531.025 310.579L410.943 378.266C407.662 380.123 403.938 381.099 400.192 381.099C396.377 381.099 392.595 380.08 389.254 378.159L269.541 313.877C262.402 309.752 257.984 301.952 258 293.506C258.011 285.06 262.455 277.275 269.6 273.193Z" fill="white"/>
<path d="M389.974 205.133C392.151 203.89 394.52 203.063 396.948 202.69C398.169 202.466 399.525 202.423 400.773 202.423C404.487 202.423 408.536 203.634 411.764 205.533L530.763 270.43C533.1 271.806 535.4 273.748 537.048 275.835C540.367 279.906 542.133 285.214 541.904 290.603C541.834 298.676 536.824 306.487 529.973 310.345L411.033 377.386C407.896 379.163 404.007 380.278 400.426 380.278C399.338 380.278 398.148 380.251 397.081 380.075C394.477 379.718 391.927 378.853 389.606 377.519L270.234 313.429C267.475 311.839 264.797 309.48 262.993 306.935C260.15 303.062 258.65 298.19 258.842 293.26C258.853 285.182 263.89 277.291 270.725 273.386L389.974 205.133Z" fill="#FCFCFD"/>
<path d="M390.316 205.773C392.477 204.536 394.845 203.751 397.246 203.442C398.41 203.228 399.834 203.255 401.024 203.255C404.572 203.255 408.825 204.621 411.909 206.44L530.139 270.915C532.369 272.228 534.845 274.239 536.424 276.229C539.78 280.231 541.466 285.582 541.05 290.833C540.981 298.537 535.458 306.418 528.917 310.099L411.119 376.495C408.12 378.186 404.071 379.451 400.651 379.451C399.61 379.451 398.372 379.483 397.348 379.317C394.781 379.024 392.242 378.202 389.937 376.879L270.928 312.975C268.297 311.454 265.368 309.011 263.65 306.578C260.742 302.774 259.312 297.827 259.691 293.015C259.701 285.305 265.331 277.302 271.851 273.572L390.316 205.773Z" fill="#FAFAFA"/>
<path d="M390.659 206.413C392.809 205.186 395.172 204.434 397.547 204.194C398.657 203.991 400.14 204.082 401.271 204.082C404.648 204.082 409.109 205.608 412.049 207.342L529.516 271.4C531.64 272.649 534.297 274.724 535.801 276.624C539.2 280.551 540.806 285.956 540.203 291.067C540.139 298.403 534.089 306.353 527.862 309.859L411.211 375.609C408.357 377.22 404.136 378.629 400.881 378.629C399.889 378.629 398.598 378.719 397.627 378.565C395.087 378.335 392.563 377.551 390.285 376.238L271.623 312.521C269.12 311.075 265.946 308.536 264.308 306.225C261.33 302.485 259.97 297.475 260.535 292.774C260.546 285.433 266.762 277.317 272.973 273.769L390.659 206.413Z" fill="#F7F7F8"/>
<path d="M391.004 207.053C393.139 205.831 395.502 205.121 397.85 204.945C398.906 204.753 400.453 204.919 401.526 204.919C404.738 204.919 409.407 206.605 412.197 208.248L528.896 271.89C530.913 273.08 533.757 275.22 535.176 277.023C538.617 280.881 540.138 286.328 539.354 291.306C539.295 298.28 532.727 306.294 526.81 309.623L411.301 374.733C408.59 376.264 404.204 377.812 401.11 377.812C400.171 377.812 398.826 377.961 397.903 377.812C395.401 377.646 392.888 376.899 390.631 375.603L272.32 312.072C269.941 310.696 266.526 308.071 264.968 305.873C261.927 302.196 260.636 297.117 261.388 292.534C261.399 285.555 268.201 277.333 274.103 273.961L391.004 207.053Z" fill="#F4F4F5"/>
<path d="M391.347 207.693C393.471 206.477 395.829 205.804 398.155 205.698C399.158 205.516 400.764 205.751 401.783 205.751C404.825 205.751 409.701 207.597 412.342 209.155L528.278 272.381C530.189 273.507 533.208 275.716 534.558 277.423C538.042 281.206 539.478 286.702 538.512 291.547C538.453 298.152 531.368 306.23 525.76 309.389L411.393 373.853C408.826 375.304 404.275 376.995 401.346 376.995C400.455 376.995 399.062 377.209 398.187 377.07C395.717 376.969 393.22 376.259 390.979 374.973L273.021 311.63C270.769 310.322 267.104 307.612 265.631 305.526C262.526 301.914 261.304 296.77 262.238 292.299C262.248 285.688 269.643 277.359 275.23 274.163L391.347 207.693Z" fill="#F1F2F3"/>
<path d="M391.687 208.335C393.8 207.124 396.153 206.494 398.458 206.457C399.402 206.286 401.072 206.585 402.032 206.585C404.903 206.585 409.988 208.586 412.485 210.058L527.647 272.863C529.45 273.925 532.652 276.198 533.927 277.815C537.454 281.528 538.809 287.066 537.657 291.778C537.603 298.015 529.989 306.162 524.702 309.139L411.482 372.958C409.054 374.329 404.343 376.159 401.574 376.159C400.731 376.159 399.285 376.431 398.458 376.298C396.019 376.266 393.538 375.594 391.319 374.318L273.707 311.172C271.578 309.945 267.667 307.139 266.275 305.17C263.106 301.622 261.948 296.409 263.073 292.05C263.079 285.807 271.066 277.366 276.343 274.352L391.687 208.335Z" fill="#EFEFF0"/>
<path d="M392.029 208.975C394.126 207.774 396.479 207.182 398.757 207.209C399.648 207.049 401.377 207.422 402.284 207.422C404.989 207.422 410.282 209.583 412.629 210.97L527.029 273.359C528.731 274.362 532.108 276.699 533.309 278.22C536.873 281.864 538.148 287.445 536.814 292.023C536.761 297.892 528.629 306.103 523.651 308.91L411.573 372.082C409.289 373.374 404.407 375.342 401.803 375.342C401.014 375.342 399.514 375.679 398.735 375.556C396.334 375.583 393.859 374.953 391.666 373.688L274.407 310.724C272.4 309.566 268.249 306.674 266.937 304.823C263.709 301.338 262.615 296.062 263.928 291.814C263.933 285.94 272.507 277.387 277.48 274.549L392.029 208.975Z" fill="#ECECEE"/>
<path d="M392.37 209.615C394.456 208.42 396.804 207.865 399.056 207.961C399.888 207.812 401.686 208.255 402.529 208.255C405.063 208.255 410.564 210.576 412.768 211.872L526.404 273.845C527.999 274.784 531.553 277.19 532.679 278.615C536.286 282.184 537.475 287.818 535.955 292.258C535.907 297.759 527.258 306.039 522.584 308.67L411.653 371.197C409.513 372.408 404.466 374.521 402.022 374.521C401.28 374.521 399.733 374.916 399.002 374.799C396.633 374.895 394.173 374.297 391.996 373.048L275.09 310.27C273.206 309.187 268.81 306.199 267.582 304.465C264.29 301.045 263.266 295.704 264.76 291.569C264.765 286.063 273.932 277.404 278.59 274.741L392.37 209.615Z" fill="#E9EAEC"/>
<path d="M392.717 210.256C394.787 209.071 397.135 208.554 399.36 208.714C400.139 208.575 401.996 209.082 402.791 209.082C405.154 209.082 410.863 211.563 412.923 212.774L525.791 274.33C527.279 275.205 531.014 277.681 532.065 279.01C535.715 282.51 536.819 288.187 535.117 292.487C535.075 297.625 525.897 305.97 521.544 308.424L411.754 370.306C409.753 371.432 404.546 373.694 402.268 373.694C401.574 373.694 399.973 374.148 399.296 374.041C396.959 374.196 394.515 373.641 392.36 372.403L275.805 309.817C274.049 308.803 269.407 305.73 268.26 304.108C264.899 300.752 263.949 295.342 265.624 291.319C265.63 286.181 275.383 277.409 279.732 274.923L392.717 210.256Z" fill="#E6E7E9"/>
<path d="M393.053 210.895C395.113 209.716 397.455 209.235 399.658 209.465C400.379 209.337 402.305 209.913 403.036 209.913C405.234 209.913 411.151 212.554 413.056 213.68L525.156 274.815C526.538 275.626 530.459 278.171 531.43 279.403C535.123 282.829 536.142 288.554 534.258 292.721C534.215 297.491 524.526 305.905 520.476 308.183L411.839 369.424C409.983 370.47 404.61 372.871 402.492 372.871C401.846 372.871 400.197 373.389 399.562 373.287C397.257 373.511 394.824 372.994 392.69 371.767L276.487 309.368C274.86 308.428 269.967 305.259 268.906 303.755C265.48 300.463 264.6 294.988 266.462 291.077C266.467 286.302 276.807 277.424 280.846 275.119L393.053 210.895Z" fill="#E4E4E7"/>
<path d="M393.395 211.535C395.444 210.361 397.781 209.919 399.958 210.217C400.625 210.1 402.609 210.751 403.287 210.751C405.315 210.751 411.44 213.547 413.2 214.587L524.537 275.306C525.812 276.058 529.91 278.667 530.812 279.803C534.547 283.16 535.48 288.927 533.416 292.961C533.378 297.363 523.166 305.841 519.426 307.948L411.925 368.539C410.213 369.51 404.674 372.05 402.716 372.05C402.124 372.05 400.417 372.626 399.835 372.535C397.567 372.818 395.145 372.343 393.032 371.127L277.182 308.914C275.677 308.044 270.544 304.79 269.562 303.403C266.073 300.175 265.262 294.631 267.311 290.837C267.316 286.43 278.249 277.44 281.973 275.311L393.395 211.535Z" fill="#E1E2E4"/>
<path d="M393.741 212.171C395.774 211.008 398.111 210.607 400.267 210.97C400.875 210.858 402.924 211.584 403.542 211.584C405.399 211.584 411.738 214.54 413.349 215.489L523.918 275.792C525.086 276.48 529.365 279.153 530.187 280.199C533.965 283.48 534.818 289.301 532.567 293.196C532.535 297.23 521.799 305.777 518.374 307.704L412.015 367.654C410.447 368.539 404.738 371.223 402.945 371.223C402.401 371.223 400.645 371.863 400.112 371.778C397.876 372.125 395.47 371.693 393.378 370.487L277.875 308.461C276.498 307.666 271.114 304.321 270.213 303.046C266.659 299.882 265.918 294.274 268.148 290.593C268.153 286.554 279.678 277.456 283.093 275.498L393.741 212.171Z" fill="#DEDFE2"/>
<path d="M394.083 212.815C396.106 211.658 398.437 211.295 400.566 211.727C401.121 211.626 403.228 212.421 403.794 212.421C405.48 212.421 412.027 215.531 413.494 216.401L523.3 276.287C524.361 276.911 528.817 279.654 529.569 280.604C533.384 283.815 534.157 289.679 531.724 293.441C531.692 297.112 520.44 305.718 517.324 307.473L412.107 366.778C410.677 367.584 404.808 370.411 403.181 370.411C402.684 370.411 400.881 371.11 400.395 371.036C398.192 371.446 395.801 371.052 393.731 369.856L278.58 308.023C277.326 307.297 271.702 303.861 270.88 302.703C267.263 299.603 266.591 293.926 269.002 290.357C269.008 286.686 281.119 277.477 284.225 275.7L394.083 212.815Z" fill="#DBDDDF"/>
<path d="M394.425 213.455C396.436 212.308 398.763 211.978 400.87 212.479C401.366 212.388 403.538 213.253 404.05 213.253C405.571 213.253 412.32 216.523 413.643 217.302L522.681 276.767C523.636 277.327 528.272 280.139 528.95 280.993C532.807 284.13 533.501 290.042 530.876 293.67C530.849 296.973 519.074 305.648 516.273 307.228L412.203 365.887C410.917 366.612 404.877 369.579 403.415 369.579C402.972 369.579 401.11 370.342 400.673 370.267C398.506 370.742 396.127 370.384 394.078 369.205L279.278 307.558C278.153 306.907 272.278 303.381 271.542 302.335C267.866 299.299 267.257 293.558 269.856 290.101C269.861 286.792 282.56 277.477 285.356 275.876L394.425 213.455Z" fill="#D9DADD"/>
<path d="M394.766 214.093C396.762 212.951 399.088 212.663 401.169 213.228C401.612 213.148 403.847 214.082 404.301 214.082C405.651 214.082 412.608 217.518 413.787 218.206L522.056 277.255C522.904 277.756 527.728 280.632 528.325 281.39C532.226 284.458 532.834 290.412 530.027 293.907C530.001 296.842 517.708 305.587 515.216 306.99L412.288 365.008C411.146 365.654 404.946 368.765 403.639 368.765C403.244 368.765 401.334 369.586 400.945 369.522C398.81 370.061 396.441 369.746 394.414 368.573L279.961 307.118C278.958 306.536 272.844 302.919 272.187 301.996C268.442 299.024 267.903 293.213 270.688 289.873C270.693 286.933 283.984 277.506 286.465 276.086L394.766 214.093Z" fill="#D6D7DA"/>
<path d="M395.108 214.731C397.093 213.6 399.414 213.344 401.468 213.979C401.857 213.909 404.152 214.912 404.552 214.912C405.731 214.912 412.897 218.503 413.926 219.112L521.432 277.738C522.174 278.176 527.173 281.121 527.696 281.788C531.639 284.781 532.162 290.789 529.174 294.14C529.153 296.706 516.337 305.521 514.16 306.748L412.379 364.116C411.376 364.681 405.011 367.93 403.869 367.93C403.522 367.93 401.564 368.811 401.222 368.757C399.12 369.36 396.767 369.083 394.761 367.925L280.661 306.657C279.786 306.15 273.426 302.442 272.849 301.631C269.04 298.728 268.57 292.849 271.542 289.621C271.547 287.049 285.425 277.509 287.597 276.271L395.108 214.731Z" fill="#D3D5D8"/>
<path d="M395.453 215.378C397.422 214.252 399.743 214.039 401.776 214.738C402.112 214.679 404.465 215.751 404.806 215.751C405.82 215.751 413.194 219.502 414.074 220.02L520.811 278.23C521.452 278.604 526.627 281.619 527.075 282.184C531.061 285.108 531.499 291.159 528.329 294.381C528.313 296.585 514.975 305.458 513.102 306.509L412.463 363.231C411.604 363.717 405.073 367.11 404.097 367.11C403.798 367.11 401.786 368.054 401.498 368.006C399.428 368.673 397.091 368.433 395.101 367.291L281.352 306.21C280.6 305.773 273.995 301.979 273.504 301.285C269.63 298.442 269.23 292.503 272.389 289.382C272.394 287.178 286.859 277.532 288.726 276.464L395.453 215.378Z" fill="#D0D2D6"/>
<path d="M395.796 216.017C397.754 214.897 400.07 214.721 402.076 215.495C402.354 215.441 404.776 216.588 405.059 216.588C405.902 216.588 413.489 220.494 414.22 220.926L520.189 278.721C520.723 279.035 526.08 282.109 526.453 282.589C530.476 285.438 530.834 291.537 527.478 294.621C527.462 296.456 513.605 305.398 512.047 306.273L412.555 362.355C411.84 362.761 405.139 366.293 404.328 366.293C404.082 366.293 402.018 367.296 401.772 367.259C399.739 367.995 397.413 367.792 395.444 366.656L282.048 305.761C281.418 305.404 274.567 301.514 274.157 300.933C270.219 298.153 269.888 292.145 273.228 289.141C273.228 287.306 288.29 277.547 289.843 276.661L395.796 216.017Z" fill="#CECFD3"/>
<path d="M396.138 216.652C398.086 215.543 400.396 215.404 402.381 216.242C402.605 216.199 405.086 217.415 405.31 217.415C405.982 217.415 413.778 221.481 414.365 221.828L519.571 279.201C519.997 279.452 525.531 282.594 525.835 282.979C529.9 285.758 530.172 291.9 526.635 294.855C526.624 296.323 512.245 305.329 510.996 306.033L412.646 361.47C412.076 361.795 405.209 365.471 404.558 365.471C404.36 365.471 402.242 366.538 402.05 366.506C400.049 367.301 397.734 367.141 395.791 366.021L282.747 305.318C282.246 305.03 275.15 301.055 274.819 300.591C270.817 297.875 270.556 291.804 274.082 288.906C274.082 287.439 289.732 277.568 290.975 276.864L396.138 216.652Z" fill="#CBCDD1"/>
<path d="M396.478 217.293C398.41 216.189 400.72 216.087 402.678 216.994C402.844 216.962 405.389 218.248 405.559 218.248C406.066 218.248 414.064 222.474 414.507 222.73L518.945 279.687C519.265 279.874 524.979 283.086 525.204 283.374C529.312 286.079 529.504 292.268 525.78 295.085C525.774 296.184 510.872 305.26 509.939 305.783L412.73 360.574C412.298 360.814 405.271 364.634 404.78 364.634C404.631 364.634 402.465 365.76 402.321 365.738C400.352 366.603 398.052 366.475 396.132 365.365L283.434 304.849C283.055 304.63 275.714 300.565 275.468 300.218C271.402 297.566 271.21 291.425 274.919 288.645C274.919 287.541 291.155 277.569 292.088 277.035L396.478 217.293Z" fill="#C8CACE"/>
<path d="M396.821 217.939C398.742 216.84 401.047 216.781 402.978 217.752C403.09 217.731 405.699 219.086 405.812 219.086C406.148 219.086 414.359 223.472 414.652 223.643L518.327 280.183C518.541 280.306 524.442 283.587 524.586 283.774C528.737 286.41 528.844 292.647 524.938 295.326C524.933 296.062 509.513 305.202 508.889 305.554L412.828 359.699C412.54 359.859 405.347 363.818 405.022 363.818C404.92 363.818 402.706 365.002 402.61 364.986C400.673 365.909 398.384 365.824 396.485 364.73L284.14 304.401C283.889 304.257 276.302 300.101 276.136 299.866C272.007 297.284 271.879 291.073 275.779 288.405C275.779 287.669 292.607 277.585 293.226 277.227L396.821 217.939Z" fill="#C5C7CC"/>
<path d="M397.162 218.574C399.067 217.485 401.372 217.464 403.277 218.504C403.33 218.494 406.003 219.918 406.056 219.918C406.227 219.918 414.641 224.464 414.791 224.549L517.697 280.674C517.804 280.738 523.881 284.083 523.956 284.179C528.15 286.74 528.176 293.026 524.084 295.571C524.084 295.939 508.141 305.148 507.832 305.324L412.913 358.824C412.769 358.904 405.405 363.007 405.245 363.007C405.197 363.007 402.924 364.25 402.876 364.245C400.977 365.237 398.699 365.189 396.821 364.101L284.828 303.964C284.705 303.889 276.867 299.642 276.787 299.524C272.593 297.006 272.534 290.726 276.616 288.176C276.616 287.808 294.031 277.611 294.341 277.435L397.162 218.574Z" fill="#C3C5C9"/>
<path d="M397.504 219.213C399.398 218.13 401.697 218.146 403.581 219.256L523.337 284.568C527.568 287.06 527.515 293.388 523.241 295.8L403.159 363.481C401.292 364.532 399.03 364.527 397.168 363.454L277.449 299.166C273.191 296.712 273.202 290.368 277.47 287.924L397.504 219.213Z" fill="#C0C2C7"/>
<path d="M522.008 282.402L408.223 220.515C401.254 216.727 392.824 216.769 385.899 220.632L275.085 282.439C269.242 285.699 269.242 294.108 275.085 297.373L385.899 359.18C392.824 363.049 401.254 363.086 408.223 359.298L522.008 297.411C527.963 294.177 527.963 285.635 522.008 282.402Z" fill="#CFCDEC"/>
<path d="M270.703 270.647L526.473 272.109V290.282H270.703V270.647Z" fill="#CFCDEC"/>
<path d="M275.083 278.56L315.986 301.375L385.892 340.367C392.823 344.236 401.248 344.278 408.221 340.485L481.532 300.623L513.486 283.24L522.012 278.608C527.967 275.359 527.967 266.817 522.012 263.573L408.221 201.697C401.253 197.908 392.828 197.951 385.892 201.814L313.825 242.012L275.083 263.632C269.246 266.886 269.246 275.3 275.083 278.56Z" fill="#F7F7F7"/>
<path d="M447.581 251.254C420.092 238.161 375.951 238.806 348.991 252.7C322.036 266.594 322.468 288.47 349.962 301.568C377.456 314.662 421.592 314.016 448.552 300.122C475.507 286.229 475.075 264.348 447.581 251.254Z" fill="white"/>
<path d="M447.304 251.393C419.97 238.374 376.074 239.014 349.274 252.828C322.473 266.642 322.9 288.4 350.239 301.419C377.579 314.438 421.469 313.797 448.274 299.984C475.075 286.175 474.643 264.417 447.304 251.393Z" fill="#FCFCFC"/>
<path d="M447.031 251.536C419.851 238.592 376.207 239.227 349.556 252.966C322.905 266.699 323.331 288.33 350.516 301.279C377.701 314.223 421.34 313.588 447.996 299.849C474.642 286.115 474.215 264.485 447.031 251.536Z" fill="#F9F9FA"/>
<path d="M446.754 251.675C419.729 238.801 376.335 239.436 349.834 253.095C323.337 266.754 323.764 288.261 350.789 301.136C377.818 314.01 421.207 313.37 447.714 299.717C474.21 286.063 473.783 264.55 446.754 251.675Z" fill="#F6F6F7"/>
<path d="M446.481 251.821C419.606 239.021 376.462 239.65 350.116 253.229C323.769 266.808 324.195 288.193 351.065 300.993C377.935 313.793 421.078 313.158 447.431 299.584C473.777 286.006 473.351 264.621 446.481 251.821Z" fill="#F3F3F4"/>
<path d="M446.205 251.964C419.49 239.238 376.592 239.863 350.394 253.367C324.197 266.866 324.618 288.128 351.339 300.853C378.059 313.578 420.952 312.949 447.149 299.45C473.347 285.951 472.925 264.689 446.205 251.964Z" fill="#F0F0F2"/>
<path d="M445.927 252.102C419.367 239.452 376.72 240.076 350.677 253.495C324.634 266.914 325.05 288.053 351.616 300.709C378.182 313.36 420.823 312.735 446.871 299.316C472.909 285.892 472.493 264.758 445.927 252.102Z" fill="#EDEEEF"/>
<path d="M445.655 252.247C419.25 239.671 376.848 240.29 350.955 253.634C325.067 266.978 325.483 287.99 351.889 300.571C378.294 313.147 420.691 312.528 446.589 299.184C472.477 285.84 472.066 264.828 445.655 252.247Z" fill="#EAEBEC"/>
<path d="M445.377 252.392C419.126 239.885 376.976 240.499 351.237 253.768C325.498 267.032 325.914 287.921 352.165 300.427C378.421 312.934 420.567 312.315 446.311 299.051C472.044 285.787 471.633 264.893 445.377 252.392Z" fill="#E7E8EA"/>
<path d="M445.099 252.53C419.003 240.098 377.103 240.711 351.514 253.901C325.925 267.09 326.341 287.856 352.437 300.288C378.538 312.72 420.433 312.106 446.022 298.917C471.611 285.727 471.201 264.961 445.099 252.53Z" fill="#E4E5E7"/>
<path d="M444.829 252.673C418.887 240.316 377.238 240.924 351.798 254.034C326.358 267.143 326.775 287.786 352.716 300.143C378.657 312.5 420.307 311.892 445.747 298.783C471.181 285.673 470.77 265.03 444.829 252.673Z" fill="#E1E2E4"/>
<path d="M444.549 252.812C418.763 240.53 377.359 241.138 352.074 254.167C326.794 267.197 327.199 287.717 352.986 300C378.773 312.282 420.177 311.674 445.462 298.644C470.747 285.62 470.341 265.094 444.549 252.812Z" fill="#DEDFE2"/>
<path d="M444.279 252.957C418.647 240.743 377.494 241.346 352.358 254.301C327.228 267.25 327.633 287.648 353.265 299.861C378.897 312.074 420.05 311.466 445.186 298.517C470.316 285.562 469.911 265.164 444.279 252.957Z" fill="#DBDCDF"/>
<path d="M444.001 253.095C418.524 240.962 377.621 241.56 352.64 254.429C327.659 267.304 328.065 287.579 353.542 299.712C379.019 311.845 419.922 311.247 444.903 298.378C469.884 285.508 469.483 265.233 444.001 253.095Z" fill="#D8D9DC"/>
<path d="M443.729 253.24C418.407 241.176 377.75 241.774 352.923 254.568C328.097 267.363 328.497 287.515 353.815 299.574C379.142 311.637 419.794 311.04 444.62 298.245C469.452 285.451 469.052 265.304 443.729 253.24Z" fill="#D5D6DA"/>
<path d="M443.45 253.383C418.283 241.394 377.876 241.986 353.2 254.706C328.523 267.421 328.923 287.45 354.091 299.439C379.259 311.428 419.664 310.836 444.341 298.116C469.018 285.396 468.618 265.366 443.45 253.383Z" fill="#D2D3D7"/>
<path d="M443.178 253.521C418.165 241.607 378.01 242.194 353.482 254.834C328.96 267.474 329.355 287.375 354.368 299.29C379.381 311.204 419.536 310.617 444.064 297.977C468.58 285.337 468.191 265.436 443.178 253.521Z" fill="#CFD1D4"/>
<path d="M442.903 253.666C418.05 241.827 378.135 242.408 353.768 254.973C329.4 267.533 329.789 287.312 354.648 299.152C379.506 310.991 419.416 310.41 443.789 297.844C468.151 285.285 467.761 265.506 442.903 253.666Z" fill="#CCCED2"/>
<path d="M442.625 253.81C417.921 242.04 378.262 242.621 354.044 255.106C329.826 267.591 330.216 287.242 354.919 299.012C379.623 310.783 419.282 310.201 443.5 297.716C467.718 285.231 467.328 265.575 442.625 253.81Z" fill="#C9CBCF"/>
<path d="M442.353 253.948C417.804 242.253 378.395 242.834 354.327 255.234C330.263 267.639 330.648 287.173 355.197 298.863C379.745 310.558 419.154 309.977 443.222 297.577C467.286 285.177 466.896 265.639 442.353 253.948Z" fill="#C6C8CC"/>
<path d="M442.074 254.093C417.68 242.472 378.517 243.049 354.604 255.374C330.69 267.699 331.074 287.11 355.468 298.725C379.862 310.346 419.02 309.77 442.939 297.444C466.853 285.119 466.469 265.709 442.074 254.093Z" fill="#C3C5CA"/>
<path d="M441.802 254.232C417.568 242.686 378.65 243.257 354.886 255.502C331.121 267.747 331.505 287.035 355.745 298.581C379.984 310.127 418.891 309.556 442.661 297.311C466.42 285.066 466.036 265.778 441.802 254.232Z" fill="#C0C2C7"/>
<path d="M334.755 270.015C334.718 279.47 340.939 288.94 353.441 296.154C378.352 310.539 418.748 310.539 443.659 296.154C456.118 288.962 462.344 279.534 462.344 270.106V259.051H334.755V270.015Z" fill="#2D1080"/>
<path d="M443.66 231.225C418.749 216.84 378.353 216.84 353.436 231.225C328.525 245.61 328.525 268.926 353.436 283.316C378.348 297.701 418.743 297.701 443.66 283.316C468.577 268.931 468.572 245.615 443.66 231.225Z" fill="#1517A3"/>
<path d="M411.152 236.972C409.578 233.899 402.876 232.917 398.949 235.185L364.215 255.236C360.288 257.503 361.99 261.372 367.315 262.284L416.653 270.719C422.223 271.669 427.404 268.681 425.755 265.464L411.152 236.972Z" fill="white"/>
<path d="M411.15 236.972C409.576 233.899 402.875 232.917 398.948 235.185L364.214 255.236C361.498 256.804 361.476 259.136 363.483 260.731C363.701 260.561 363.936 260.395 364.214 260.24L398.948 240.184C402.875 237.916 409.576 238.898 411.15 241.971L424.948 268.884C425.994 267.918 426.394 266.707 425.754 265.453L411.15 236.972Z" fill="#4D4C7B"/>
</g>
<rect y="645" width="798" height="44" fill="#383851"/>
<defs>
<clipPath id="clip0_204_1425">
<rect width="801" height="511.987" fill="white" transform="translate(0 135.051)"/>
</clipPath>
<clipPath id="clip1_204_1425">
<rect width="34.5812" height="41.8615" fill="white" transform="translate(383.209 597.407)"/>
</clipPath>
</defs>
</svg>
