<svg width="801" height="800" viewBox="0 0 801 800" fill="none" xmlns="http://www.w3.org/2000/svg">
  <rect width="800" height="800" fill="#EDEDED"/>
  <g clip-path="url(#clip0_106_8)">
  <rect x="8.52294" y="142.819" width="783.954" height="417.204" stroke="#414150" stroke-width="15.5383"/>
  <rect x="324.751" y="567.793" width="151.499" height="70.6993" fill="#484859"/>
  <rect x="271.144" y="638.492" width="258.713" height="8.54607" fill="#414150"/>
  <g clip-path="url(#clip1_106_8)">
  <path d="M417.158 628.087C417.158 634.95 409.7 638.96 400.5 638.96C391.3 638.96 383.843 634.95 383.843 628.087C383.843 621.224 391.3 614.106 400.5 614.106C409.7 614.106 417.158 621.224 417.158 628.087Z" fill="#FFE500"/>
  <path fill-rule="evenodd" clip-rule="evenodd" d="M415.14 633.984C416.427 632.221 417.158 630.2 417.158 628.051C417.158 626.151 416.586 624.351 415.565 622.741C414.433 623.955 413.679 626.137 413.679 628.626C413.679 630.789 414.248 632.719 415.14 633.984ZM385.435 622.741C384.414 624.351 383.843 626.151 383.843 628.051C383.843 630.2 384.574 632.221 385.86 633.984C386.752 632.719 387.321 630.789 387.321 628.626C387.321 626.136 386.567 623.955 385.435 622.741Z" fill="#FFCA00"/>
  <ellipse cx="400.501" cy="610.129" rx="13.6505" ry="11.848" fill="#FFFF00"/>
  <ellipse cx="391.855" cy="609.232" rx="2.27508" ry="1.82006" fill="black"/>
  <ellipse rx="2.27508" ry="1.82006" transform="matrix(-1 -8.74228e-08 -8.74228e-08 1 408.629 609.232)" fill="black"/>
  <path d="M408.235 616.061C404.223 616.061 407.637 613.003 400.5 612.88C393.364 613.003 396.777 616.061 392.765 616.061C397.487 617.897 399.656 618.269 400.5 618.162C401.344 618.269 403.514 617.897 408.235 616.061Z" fill="#FF8600"/>
  <circle cx="392.408" cy="609.234" r="0.5533" fill="white"/>
  <circle cx="408.076" cy="609.234" r="0.5533" fill="white"/>
  </g>
  <rect id='pcActive' class='pc-popup-active' x="16.3153" y="150.588" width="768.37" height="401.665" fill="white"/>
  </g>
  <rect y="645" width="798" height="44" fill="#383851"/>
  <defs>
  <clipPath id="clip0_106_8">
  <rect width="801" height="511.987" fill="blue" transform="translate(0 135.051)"/>
  </clipPath>
  <clipPath id="clip1_106_8">
  
  <rect width="34.5812" height="41.8615" fill="white" transform="translate(383.209 597.407)"/>
  </clipPath>
  </defs>
  <text id='screenText' x="280" y="500">
    <tspan id='screenTextItem' font-family="Montserrat" font-size='30' font-weight="bold" fill="black">please, click here...</tspan>
  </text>
</svg>
