<svg width="801" height="800" viewBox="0 0 801 800" fill="none" xmlns="http://www.w3.org/2000/svg">
<rect width="800" height="800" fill="#EDEDED"/>
<g clip-path="url(#clip0_604_454)">
<rect x="8.52294" y="142.819" width="783.954" height="417.204" fill="#1517A3" stroke="#414150" stroke-width="15.5383"/>
<rect x="324.751" y="567.793" width="151.499" height="70.6993" fill="#484859"/>
<rect x="271.144" y="638.492" width="258.713" height="8.54607" fill="#414150"/>
<g clip-path="url(#clip1_604_454)">
<path d="M417.158 628.087C417.158 634.95 409.7 638.96 400.5 638.96C391.3 638.96 383.843 634.95 383.843 628.087C383.843 621.224 391.3 614.106 400.5 614.106C409.7 614.106 417.158 621.224 417.158 628.087Z" fill="#FFE500"/>
<path fill-rule="evenodd" clip-rule="evenodd" d="M415.14 633.984C416.427 632.221 417.158 630.2 417.158 628.051C417.158 626.151 416.586 624.351 415.565 622.741C414.433 623.955 413.679 626.137 413.679 628.626C413.679 630.789 414.248 632.719 415.14 633.984ZM385.435 622.741C384.414 624.351 383.843 626.151 383.843 628.051C383.843 630.2 384.574 632.221 385.86 633.984C386.752 632.719 387.321 630.789 387.321 628.626C387.321 626.136 386.567 623.955 385.435 622.741Z" fill="#FFCA00"/>
<ellipse cx="400.501" cy="610.129" rx="13.6505" ry="11.848" fill="#FFFF00"/>
<ellipse cx="391.855" cy="609.232" rx="2.27508" ry="1.82006" fill="black"/>
<ellipse rx="2.27508" ry="1.82006" transform="matrix(-1 -8.74228e-08 -8.74228e-08 1 408.629 609.232)" fill="black"/>
<path d="M408.235 616.061C404.223 616.061 407.637 613.003 400.5 612.88C393.364 613.003 396.777 616.061 392.765 616.061C397.487 617.897 399.656 618.269 400.5 618.162C401.344 618.269 403.514 617.897 408.235 616.061Z" fill="#FF8600"/>
<circle cx="392.408" cy="609.234" r="0.5533" fill="white"/>
<circle cx="408.076" cy="609.234" r="0.5533" fill="white"/>
</g>
<rect x="16" y="151" width="768.37" height="401.665" fill="#575761"/>
<path d="M230.071 368.838C239.732 368.838 247.564 361.006 247.564 351.344C247.564 341.683 239.732 333.851 230.071 333.851C220.409 333.851 212.577 341.683 212.577 351.344C212.577 361.006 220.409 368.838 230.071 368.838Z" fill="#00D8FF"/>
<path fill-rule="evenodd" clip-rule="evenodd" d="M230.07 315.775C253.558 315.775 275.377 319.146 291.829 324.809C311.651 331.634 323.839 341.977 323.839 351.344C323.839 361.104 310.922 372.093 289.636 379.146C273.543 384.477 252.366 387.261 230.07 387.261C207.211 387.261 185.565 384.648 169.29 379.087C148.7 372.049 136.299 360.918 136.299 351.344C136.299 342.053 147.935 331.79 167.479 324.976C183.992 319.219 206.35 315.775 230.067 315.775H230.07Z" stroke="#00D8FF" stroke-width="8.36902"/>
<path fill-rule="evenodd" clip-rule="evenodd" d="M199.107 333.66C210.842 313.314 224.661 296.096 237.786 284.674C253.6 270.911 268.649 265.522 276.763 270.2C285.218 275.076 288.285 291.755 283.76 313.718C280.343 330.323 272.171 350.058 261.033 369.372C249.613 389.174 236.536 406.621 223.59 417.937C207.207 432.258 191.369 437.441 183.075 432.657C175.027 428.02 171.949 412.809 175.81 392.475C179.072 375.294 187.259 354.205 199.104 333.66L199.107 333.66Z" stroke="#00D8FF" stroke-width="8.36902"/>
<path fill-rule="evenodd" clip-rule="evenodd" d="M199.137 369.425C187.37 349.102 179.358 328.526 176.014 311.451C171.989 290.877 174.835 275.147 182.941 270.454C191.388 265.564 207.37 271.237 224.137 286.125C236.815 297.382 249.833 314.314 261.004 333.61C272.457 353.393 281.041 373.436 284.38 390.304C288.605 411.65 285.186 427.959 276.899 432.756C268.859 437.41 254.146 432.483 238.458 418.982C225.202 407.576 211.02 389.951 199.137 369.425V369.425Z" stroke="#00D8FF" stroke-width="8.36902"/>
<path fill-rule="evenodd" clip-rule="evenodd" d="M424.254 396.033L402.812 363.639C413.649 362.682 423.413 354.83 423.413 340.485C423.413 325.889 413.055 316.547 398.523 316.547H366.612V395.973H376.498V364.414H392.337L412.581 395.973L424.254 396.033ZM397.341 355.782H376.503V325.416H397.341C406.753 325.416 413.18 331.607 413.18 340.541C413.18 349.475 406.748 355.792 397.341 355.792V355.782ZM461.052 397.458C470.465 397.458 478.201 394.362 483.919 388.649L479.631 382.811C475.101 387.456 468.436 390.074 461.888 390.074C449.506 390.074 441.881 381.024 441.166 370.192H487.724V367.927C487.724 350.663 477.481 337.083 460.091 337.083C443.657 337.083 431.753 350.542 431.753 367.212C431.753 385.197 444.02 397.412 461.047 397.412L461.052 397.458ZM478.921 363.634H441.171C441.649 354.825 447.714 344.457 459.985 344.457C473.087 344.457 478.8 355.057 478.921 363.634ZM547.042 396.028V356.491C547.042 342.559 536.925 337.078 524.775 337.078C515.362 337.078 507.983 340.173 501.792 346.606L505.96 352.797C511.079 347.321 516.681 344.819 523.587 344.819C531.922 344.819 538.118 349.223 538.118 356.965V367.323C533.472 361.963 526.924 359.461 519.062 359.461C509.297 359.461 498.928 365.536 498.928 378.396C498.928 390.899 509.287 397.453 519.062 397.453C526.803 397.453 533.356 394.715 538.118 389.475V396.018L547.042 396.028ZM522.278 391.025C513.943 391.025 508.104 385.79 508.104 378.522C508.104 371.138 513.943 365.899 522.278 365.899C528.59 365.899 534.66 368.279 538.118 373.046V383.883C534.665 388.644 528.59 391.03 522.278 391.03V391.025ZM590.228 397.458C600.707 397.458 606.898 393.169 611.308 387.456L605.353 381.98C601.543 387.099 596.661 389.48 590.756 389.48C578.49 389.48 570.875 379.952 570.875 367.212C570.875 354.473 578.495 345.066 590.756 345.066C596.711 345.066 601.593 347.331 605.353 352.565L611.308 347.089C606.903 341.371 600.707 337.088 590.228 337.088C573.079 337.088 561.528 350.19 561.528 367.217C561.528 384.366 573.079 397.417 590.228 397.417V397.458ZM638.347 397.458C643.581 397.458 646.803 395.907 649.068 393.768L646.45 387.099C645.257 388.408 642.927 389.48 640.375 389.48C636.449 389.48 634.536 386.384 634.536 382.096V346.369H646.214V338.512H634.536V322.793H625.602V338.512H616.074V346.374H625.602V384.009C625.602 392.585 629.891 397.468 638.347 397.468V397.458Z" fill="#00D8FF"/>
</g>
<rect y="645" width="798" height="44" fill="#383851"/>
<defs>
<clipPath id="clip0_604_454">
<rect width="801" height="511.987" fill="white" transform="translate(0 135.051)"/>
</clipPath>
<clipPath id="clip1_604_454">
<rect width="34.5812" height="41.8615" fill="white" transform="translate(383.209 597.407)"/>
</clipPath>
</defs>
</svg>
