<svg width="129" height="92" viewBox="0 0 129 92" fill="none" xmlns="http://www.w3.org/2000/svg">
<g filter="url(#filter0_d_20_203)">
<path d="M8.93671 56.0609C7.03111 56.0609 5.48096 54.5108 5.48096 52.6052V34.8327C5.48096 32.9271 7.03111 31.377 8.93671 31.377H38.5575C40.4631 31.377 42.0132 32.9271 42.0132 34.8327V52.6052C42.0132 54.5108 40.4631 56.0609 38.5575 56.0609H8.93671Z" fill="#B0C1D4"/>
<path d="M38.5575 31.8711C40.1906 31.8711 41.5196 33.2001 41.5196 34.8332V52.6057C41.5196 54.2388 40.1906 55.5677 38.5575 55.5677H8.93674C7.30365 55.5677 5.97466 54.2388 5.97466 52.6057V34.8332C5.97466 33.2001 7.30365 31.8711 8.93674 31.8711H38.5575ZM38.5575 30.8838H8.93674C6.75566 30.8838 4.9873 32.6521 4.9873 34.8332V52.6057C4.9873 54.7867 6.75566 56.5551 8.93674 56.5551H38.5575C40.7386 56.5551 42.5069 54.7867 42.5069 52.6057V34.8332C42.5069 32.6521 40.7386 30.8838 38.5575 30.8838Z" fill="#66798F"/>
<path d="M38.5574 53.5939H8.93668C7.30063 53.5939 5.97461 52.2679 5.97461 50.6319V34.8341C5.97461 33.1981 7.30063 31.8721 8.93668 31.8721H38.5574C40.1935 31.8721 41.5195 33.1981 41.5195 34.8341V50.6319C41.5195 52.2679 40.1935 53.5939 38.5574 53.5939Z" fill="#D8E2ED"/>
<path d="M18.3872 44.3906H35.8072V41.71H18.3872V36.3506L11.688 43.0498L18.3872 49.75V44.3906Z" fill="#36404D"/>
<path d="M120.063 56.0609C121.969 56.0609 123.519 54.5108 123.519 52.6052V34.8327C123.519 32.9271 121.969 31.377 120.063 31.377H90.4425C88.5369 31.377 86.9868 32.9271 86.9868 34.8327V52.6052C86.9868 54.5108 88.5369 56.0609 90.4425 56.0609H120.063Z" fill="#B0C1D4"/>
<path d="M90.4425 31.8711C88.8094 31.8711 87.4804 33.2001 87.4804 34.8332V52.6057C87.4804 54.2388 88.8094 55.5677 90.4425 55.5677H120.063C121.696 55.5677 123.025 54.2388 123.025 52.6057V34.8332C123.025 33.2001 121.696 31.8711 120.063 31.8711H90.4425ZM90.4425 30.8838H120.063C122.244 30.8838 124.013 32.6521 124.013 34.8332V52.6057C124.013 54.7867 122.244 56.5551 120.063 56.5551H90.4425C88.2614 56.5551 86.4931 54.7867 86.4931 52.6057V34.8332C86.4931 32.6521 88.2614 30.8838 90.4425 30.8838Z" fill="#66798F"/>
<path d="M90.4426 53.5939H120.063C121.699 53.5939 123.025 52.2679 123.025 50.6319V34.8341C123.025 33.1981 121.699 31.8721 120.063 31.8721H90.4426C88.8065 31.8721 87.4805 33.1981 87.4805 34.8341V50.6319C87.4805 52.2679 88.8065 53.5939 90.4426 53.5939Z" fill="#D8E2ED"/>
<path d="M110.613 44.3906H93.1928V41.71H110.613V36.3506L117.312 43.0498L110.613 49.75V44.3906Z" fill="#36404D"/>
<path d="M78.0409 4.93622C78.0409 3.03062 76.4907 1.48047 74.5851 1.48047L56.8127 1.48047C54.9071 1.48047 53.3569 3.03062 53.3569 4.93622L53.3569 34.557C53.3569 36.4626 54.9071 38.0127 56.8127 38.0127L74.5851 38.0127C76.4907 38.0127 78.0409 36.4626 78.0409 34.557L78.0409 4.93622Z" fill="#B0C1D4"/>
<path d="M53.8506 34.5575C53.8506 36.1906 55.1796 37.5196 56.8127 37.5196L74.5852 37.5196C76.2183 37.5196 77.5472 36.1906 77.5472 34.5575L77.5472 4.93673C77.5472 3.30364 76.2182 1.97466 74.5852 1.97466L56.8127 1.97466C55.1796 1.97466 53.8506 3.30365 53.8506 4.93674L53.8506 34.5575ZM52.8633 34.5575L52.8633 4.93674C52.8633 2.75566 54.6316 0.987304 56.8127 0.987304L74.5852 0.987302C76.7662 0.987301 78.5346 2.75566 78.5346 4.93673L78.5346 34.5575C78.5346 36.7386 76.7662 38.5069 74.5852 38.5069L56.8127 38.5069C54.6316 38.5069 52.8633 36.7386 52.8633 34.5575Z" fill="#66798F"/>
<path d="M77.7149 33.661L77.7149 4.6945C77.7149 3.09458 76.2515 1.79785 74.446 1.79785L57.0116 1.79785C55.2061 1.79785 53.7427 3.09459 53.7427 4.6945L53.7427 33.661C53.7427 35.2609 55.2061 36.5577 57.0116 36.5577L74.446 36.5576C76.2516 36.5576 77.7149 35.2609 77.7149 33.661Z" fill="#D8E2ED"/>
<path d="M66.3692 14.3867L66.3692 31.8067L63.6885 31.8067L63.6885 14.3867L58.3291 14.3867L65.0283 7.6875L71.7285 14.3867L66.3692 14.3867Z" fill="#36404D"/>
<path d="M78.0409 48.6862C78.0409 46.7806 76.4907 45.2305 74.5851 45.2305L56.8127 45.2305C54.9071 45.2305 53.3569 46.7806 53.3569 48.6862L53.3569 78.307C53.3569 80.2126 54.9071 81.7627 56.8127 81.7627L74.5851 81.7627C76.4907 81.7627 78.0409 80.2126 78.0409 78.307L78.0409 48.6862Z" fill="#B0C1D4"/>
<path d="M53.8506 78.3065C53.8506 79.9396 55.1796 81.2686 56.8127 81.2686L74.5852 81.2686C76.2183 81.2686 77.5472 79.9396 77.5472 78.3065L77.5472 48.6858C77.5472 47.0527 76.2182 45.7237 74.5852 45.7237L56.8127 45.7237C55.1796 45.7237 53.8506 47.0527 53.8506 48.6858L53.8506 78.3065ZM52.8633 78.3065L52.8633 48.6858C52.8633 46.5047 54.6316 44.7363 56.8127 44.7363L74.5852 44.7363C76.7662 44.7363 78.5346 46.5047 78.5346 48.6858L78.5346 78.3065C78.5346 80.4876 76.7662 82.2559 74.5852 82.2559L56.8127 82.2559C54.6316 82.2559 52.8633 80.4876 52.8633 78.3065Z" fill="#66798F"/>
<path d="M77.7149 77.411L77.7149 48.4445C77.7149 46.8446 76.2515 45.5478 74.446 45.5478L57.0116 45.5479C55.2061 45.5479 53.7427 46.8446 53.7427 48.4445L53.7427 77.411C53.7427 79.0109 55.2061 80.3077 57.0116 80.3077L74.446 80.3076C76.2516 80.3076 77.7149 79.0109 77.7149 77.411Z" fill="#D8E2ED"/>
<path d="M66.3692 68.8574L66.3692 51.4375L63.6885 51.4375L63.6885 68.8574L58.3291 68.8574L65.0283 75.5566L71.7285 68.8574L66.3692 68.8574Z" fill="#36404D"/>
</g>
<defs>
<filter id="filter0_d_20_203" x="0" y="0" width="129" height="91.2441" filterUnits="userSpaceOnUse" color-interpolation-filters="sRGB">
<feFlood flood-opacity="0" result="BackgroundImageFix"/>
<feColorMatrix in="SourceAlpha" type="matrix" values="0 0 0 0 0 0 0 0 0 0 0 0 0 0 0 0 0 0 127 0" result="hardAlpha"/>
<feOffset dy="4"/>
<feGaussianBlur stdDeviation="2"/>
<feComposite in2="hardAlpha" operator="out"/>
<feColorMatrix type="matrix" values="0 0 0 0 0 0 0 0 0 0 0 0 0 0 0 0 0 0 0.25 0"/>
<feBlend mode="normal" in2="BackgroundImageFix" result="effect1_dropShadow_20_203"/>
<feBlend mode="normal" in="SourceGraphic" in2="effect1_dropShadow_20_203" result="shape"/>
</filter>
</defs>
</svg>
