<svg width="66" height="66" viewBox="0 0 66 66" fill="none" xmlns="http://www.w3.org/2000/svg">
<path d="M9.88539 61.7816C8.35609 61.7816 6.88942 61.1741 5.80804 60.0927C4.72665 59.0114 4.11914 57.5447 4.11914 56.0154V29.6554C4.11914 28.1261 4.72665 26.6594 5.80804 25.578C6.88942 24.4967 8.35609 23.8891 9.88539 23.8891H25.5366V9.88539C25.5366 8.35609 26.1442 6.88942 27.2255 5.80804C28.3069 4.72665 29.7736 4.11914 31.3029 4.11914H56.0154C57.5447 4.11914 59.0114 4.72665 60.0927 5.80804C61.1741 6.88942 61.7816 8.35609 61.7816 9.88539V56.0154C61.7816 57.5447 61.1741 59.0114 60.0927 60.0927C59.0114 61.1741 57.5447 61.7816 56.0154 61.7816H9.88539Z" fill="#B0C1D4"/>
<path d="M56.0154 4.94242C57.3262 4.94242 58.5834 5.46315 59.5103 6.39005C60.4372 7.31695 60.9579 8.57409 60.9579 9.88492V56.0149C60.9579 57.3258 60.4372 58.5829 59.5103 59.5098C58.5834 60.4367 57.3262 60.9574 56.0154 60.9574H9.88541C8.57458 60.9574 7.31743 60.4367 6.39054 59.5098C5.46364 58.5829 4.94291 57.3258 4.94291 56.0149V29.6549C4.94291 28.3441 5.46364 27.0869 6.39054 26.16C7.31743 25.2331 8.57458 24.7124 9.88541 24.7124H26.3604V9.88492C26.3604 8.57409 26.8811 7.31695 27.808 6.39005C28.7349 5.46315 29.9921 4.94242 31.3029 4.94242H56.0154ZM56.0154 3.29492H31.3029C29.5551 3.29492 27.8789 3.98922 26.6431 5.22509C25.4072 6.46095 24.7129 8.13715 24.7129 9.88492V23.0649H9.88541C8.13763 23.0649 6.46144 23.7592 5.22558 24.9951C3.98971 26.231 3.29541 27.9071 3.29541 29.6549V56.0149C3.29541 57.7627 3.98971 59.4389 5.22558 60.6748C6.46144 61.9106 8.13763 62.6049 9.88541 62.6049H56.0154C57.7632 62.6049 59.4394 61.9106 60.6752 60.6748C61.9111 59.4389 62.6054 57.7627 62.6054 56.0149V9.88492C62.6054 8.13715 61.9111 6.46095 60.6752 5.22509C59.4394 3.98922 57.7632 3.29492 56.0154 3.29492Z" fill="#66798F"/>
<path d="M56.0154 4.94336H31.3029C29.992 4.94336 28.7349 5.46409 27.808 6.39098C26.8811 7.31788 26.3604 8.57503 26.3604 9.88586V24.7134H9.88537C8.57454 24.7134 7.31739 25.2341 6.3905 26.161C5.4636 27.0879 4.94287 28.345 4.94287 29.6559V51.0734C4.94287 52.3842 5.4636 53.6413 6.3905 54.5682C7.31739 55.4951 8.57454 56.0159 9.88537 56.0159H56.0154C57.3262 56.0159 58.5833 55.4951 59.5102 54.5682C60.4371 53.6413 60.9579 52.3842 60.9579 51.0734V9.88586C60.9579 8.57503 60.4371 7.31788 59.5102 6.39098C58.5833 5.46409 57.3262 4.94336 56.0154 4.94336Z" fill="#D8E2ED"/>
<path d="M42.8352 16.4756V37.8931H24.7127V29.6556L14.0039 40.3643L24.7127 51.0731V42.8356H47.7777V16.4756H42.8352Z" fill="#36404D"/>
</svg>
