<svg width="85" height="85" viewBox="0 0 85 85" fill="none" xmlns="http://www.w3.org/2000/svg">
<path d="M18.062 41.4385V27.626C18.0676 22.2736 20.1963 17.1421 23.981 13.3575C27.7657 9.5728 32.8972 7.4441 38.2495 7.43848H46.7495C52.1018 7.4441 57.2333 9.5728 61.018 13.3575C64.8027 17.1421 66.9314 22.2736 66.937 27.626V41.4385H18.062Z" fill="#E1EBF2"/>
<path d="M46.7495 8.50098C51.8218 8.50098 56.6863 10.5159 60.2729 14.1026C63.8596 17.6892 65.8745 22.5537 65.8745 27.626V40.376H19.1245V27.626C19.1245 22.5537 21.1395 17.6892 24.7261 14.1026C28.3127 10.5159 33.1772 8.50098 38.2495 8.50098H46.7495ZM46.7495 6.37598H38.2495C32.6137 6.37598 27.2086 8.61481 23.2235 12.6C19.2383 16.5851 16.9995 21.9901 16.9995 27.626V42.501H67.9995V27.626C67.9995 21.9901 65.7607 16.5851 61.7755 12.6C57.7904 8.61481 52.3854 6.37598 46.7495 6.37598V6.37598Z" fill="#A3B7CC"/>
<path d="M41.437 7.43848H43.562V41.4385H41.437V7.43848Z" fill="#E1EBF2"/>
<path d="M44.6245 6.37598H40.3745V42.501H44.6245V6.37598Z" fill="#A3B7CC"/>
<path d="M38.2495 79.6885C32.8972 79.6829 27.7657 77.5542 23.981 73.7695C20.1963 69.9848 18.0676 64.8533 18.062 59.501V39.3135H66.937V59.501C66.9314 64.8533 64.8027 69.9848 61.018 73.7695C57.2333 77.5542 52.1018 79.6829 46.7495 79.6885H38.2495Z" fill="#B0C1D4"/>
<path d="M65.8745 40.375V59.5C65.8745 64.5723 63.8596 69.4368 60.2729 73.0234C56.6863 76.61 51.8218 78.625 46.7495 78.625H38.2495C33.1772 78.625 28.3127 76.61 24.7261 73.0234C21.1395 69.4368 19.1245 64.5723 19.1245 59.5V40.375H65.8745ZM67.9995 38.25H16.9995V59.5C16.9995 65.1359 19.2383 70.5409 23.2235 74.526C27.2086 78.5112 32.6137 80.75 38.2495 80.75H46.7495C52.3854 80.75 57.7904 78.5112 61.7755 74.526C65.7607 70.5409 67.9995 65.1359 67.9995 59.5V38.25Z" fill="#66798F"/>
<path d="M43.562 12.751H41.437C39.6766 12.751 38.2495 14.1781 38.2495 15.9385V30.8135C38.2495 32.5739 39.6766 34.001 41.437 34.001H43.562C45.3224 34.001 46.7495 32.5739 46.7495 30.8135V15.9385C46.7495 14.1781 45.3224 12.751 43.562 12.751Z" fill="#66798F"/>
</svg>
