<svg width="85" height="85" viewBox="0 0 85 85" fill="none" xmlns="http://www.w3.org/2000/svg">
<path d="M20.187 43.5625V29.75C20.1926 24.3977 22.3213 19.2662 26.106 15.4815C29.8907 11.6968 35.0222 9.56813 40.3745 9.5625H48.8745C54.2268 9.56813 59.3583 11.6968 63.143 15.4815C66.9277 19.2662 69.0564 24.3977 69.062 29.75V43.5625H20.187Z" fill="#E1EBF2"/>
<path d="M48.8745 10.625C53.9468 10.625 58.8113 12.6399 62.3979 16.2266C65.9846 19.8132 67.9995 24.6777 67.9995 29.75V42.5H21.2495V29.75C21.2495 24.6777 23.2645 19.8132 26.8511 16.2266C30.4377 12.6399 35.3022 10.625 40.3745 10.625H48.8745ZM48.8745 8.5H40.3745C34.7387 8.5 29.3336 10.7388 25.3485 14.724C21.3633 18.7091 19.1245 24.1141 19.1245 29.75V44.625H70.1245V29.75C70.1245 24.1141 67.8857 18.7091 63.9005 14.724C59.9154 10.7388 54.5104 8.5 48.8745 8.5V8.5Z" fill="#A3B7CC"/>
<path d="M42.4995 8.5H46.7495V44.625H42.4995V8.5Z" fill="#5E9C76"/>
<path d="M20.187 43.5625V29.75C20.1926 24.3977 22.3213 19.2662 26.106 15.4815C29.8907 11.6968 35.0222 9.56813 40.3745 9.5625H43.562V43.5625H20.187Z" fill="#BAE0BD"/>
<path d="M42.4995 10.625V42.5H21.2495V29.75C21.2495 24.6777 23.2645 19.8132 26.8511 16.2266C30.4377 12.6399 35.3022 10.625 40.3745 10.625H42.4995ZM44.6245 8.5H40.3745C34.7387 8.5 29.3336 10.7388 25.3485 14.724C21.3633 18.7091 19.1245 24.1141 19.1245 29.75V44.625H44.6245V8.5Z" fill="#5E9C76"/>
<path d="M40.3745 81.8125C35.0222 81.8069 29.8907 79.6782 26.106 75.8935C22.3213 72.1088 20.1926 66.9773 20.187 61.625V41.4375H69.062V61.625C69.0564 66.9773 66.9277 72.1088 63.143 75.8935C59.3583 79.6782 54.2268 81.8069 48.8745 81.8125H40.3745Z" fill="#B0C1D4"/>
<path d="M67.9995 42.5V61.625C67.9995 64.1365 67.5048 66.6235 66.5437 68.9438C65.5826 71.2642 64.1738 73.3725 62.3979 75.1484C60.622 76.9243 58.5137 78.3331 56.1933 79.2942C53.873 80.2553 51.386 80.75 48.8745 80.75H40.3745C35.3022 80.75 30.4377 78.735 26.8511 75.1484C23.2645 71.5618 21.2495 66.6973 21.2495 61.625V42.5H67.9995ZM70.1245 40.375H19.1245V61.625C19.1245 67.2609 21.3633 72.6659 25.3485 76.651C29.3336 80.6362 34.7387 82.875 40.3745 82.875H48.8745C54.5104 82.875 59.9154 80.6362 63.9005 76.651C67.8857 72.6659 70.1245 67.2609 70.1245 61.625V40.375Z" fill="#66798F"/>
<path d="M45.687 14.875H43.562C41.8016 14.875 40.3745 16.3021 40.3745 18.0625V32.9375C40.3745 34.6979 41.8016 36.125 43.562 36.125H45.687C47.4474 36.125 48.8745 34.6979 48.8745 32.9375V18.0625C48.8745 16.3021 47.4474 14.875 45.687 14.875Z" fill="#66798F"/>
<path d="M31.8745 2.125C20.3995 2.125 10.6245 11.22 10.6245 25.5" stroke="#5E9C76" stroke-width="3.295" stroke-miterlimit="10"/>
</svg>
