<svg width="329" height="329" viewBox="0 0 329 329" fill="none" xmlns="http://www.w3.org/2000/svg">
<mask id="mask0_17_75" style="mask-type:alpha" maskUnits="userSpaceOnUse" x="0" y="0" width="329" height="329">
<circle cx="164.5" cy="164.5" r="164.5" fill="#DBDBE5"/>
</mask>
<g mask="url(#mask0_17_75)">
<circle cx="164.5" cy="164.5" r="164.5" fill="#DBDBE5"/>
<path fill-rule="evenodd" clip-rule="evenodd" d="M272.703 104.141C270.359 107.65 267.886 111.295 265.253 115.094C254.442 124.733 238.075 132.325 216.164 137.875C205.708 140.491 197.602 142.094 191.838 142.698H191.619C192.489 149.118 194.838 156.426 198.637 164.603C200.685 168.402 203.608 173.656 207.401 180.373C207.614 180.343 207.826 180.343 208.057 180.373C234.371 176.071 257.969 160.739 278.839 134.372C280.301 132.325 281.614 130.579 282.786 129.112V128.68C280.738 119.916 277.377 111.733 272.703 104.141ZM151.294 65.5906C158.891 67.9279 168.388 72.0166 179.779 77.8569C195.85 85.7446 207.684 92.4665 215.282 98.0168H213.531C209.146 98.5967 206.803 101.958 206.513 108.094C206.217 114.81 214.697 116.999 231.933 114.668C241.283 112.041 249.318 107.508 256.04 101.088C259.253 97.579 262.028 94.5198 264.365 91.8866C247.123 70.8569 222.868 59.9041 191.608 59.0284C177.59 58.7207 164.152 60.916 151.294 65.5906ZM111.631 188.041C113.595 185.722 115.566 182.733 117.548 179.059C114.921 178.769 112.873 178.325 111.411 177.745C109.95 176.58 108.34 175.556 106.589 174.674C106.003 177.012 105.565 180.515 105.275 185.189H105.713C106.299 184.899 107.027 184.751 107.903 184.751C109.364 184.751 110.684 185.627 111.85 187.378C111.85 187.597 111.773 187.816 111.631 188.041Z" fill="#6D411A"/>
<path fill-rule="evenodd" clip-rule="evenodd" d="M169.265 193.965H206.957C206.656 193.533 206.366 193.095 206.082 192.651C194.389 175.414 185.484 166.071 179.342 164.615C178.176 164.029 166.046 163.006 142.969 161.544C122.519 160.379 109.951 157.597 105.276 153.219C100.897 150.302 97.0927 147.668 93.8796 145.331C92.4654 151.266 91.2878 157.331 90.3706 163.515C98.631 167.455 103.897 171.183 106.152 174.686H106.584C108.341 175.562 109.945 176.586 111.406 177.757C112.868 178.343 114.915 178.781 117.542 179.071C117.832 179.071 118.128 179.213 118.418 179.509C120.164 178.633 122.359 178.195 124.986 178.195C129.371 178.195 137.844 180.533 150.407 185.207C159.17 188.385 165.454 191.308 169.265 193.965ZM88.3944 222.438C89.6902 223.154 91.2225 224.32 92.9977 225.947C99.7196 231.787 106.584 233.977 113.596 232.515C120.613 231.054 126.158 231.639 130.253 234.267C134.335 236.894 138.14 241.421 141.643 247.847C145.442 254.267 147.927 258.504 149.099 260.551C151.146 263.184 153.632 265.515 156.549 267.563C159.768 269.024 163.998 269.024 169.259 267.563C181.525 265.515 191.318 260.113 198.626 251.35C208.265 240.255 213.235 232.657 213.531 228.568L214.401 229.006C216.815 223.148 217.839 216.941 217.472 210.385C215.975 208.018 214.437 205.61 212.875 203.16H173.425C170.472 219.764 162.217 227.349 148.661 225.947C135.507 224.19 126.312 220.835 121.046 215.864C115.495 210.314 112.424 204.621 111.844 198.781C111.548 194.107 111.406 190.598 111.406 188.266L111.625 188.047C111.767 187.823 111.844 187.604 111.844 187.391C110.678 185.639 109.359 184.763 107.897 184.763C107.021 184.763 106.294 184.905 105.708 185.201C105.122 186.953 104.389 188.858 103.513 190.899C100.596 198.497 95.4829 202.58 88.1751 203.166H87.5186C87.6369 209.468 87.9328 215.894 88.3944 222.438ZM92.56 254.427C96.6487 256.178 98.9918 257.054 99.5776 257.054C99.8557 257.018 100.152 257.018 100.448 257.054C101.856 256.302 103.903 256.012 106.584 256.178C110.85 256.178 114.069 258.438 116.229 262.965C120.288 265.74 123.939 267.131 127.187 267.131C129.815 267.131 131.43 266.107 132.004 264.06C132.3 262.894 132.88 262.166 133.762 261.87C132.004 257.486 130.549 255.006 129.383 254.427C125.874 252.083 116.525 248.876 101.329 244.787C98.7138 243.971 96.4536 243.166 94.5423 242.379C93.3057 241.864 92.2108 241.355 91.2522 240.841C90.9386 240.705 90.6427 240.563 90.3764 240.403C90.4592 240.971 90.5302 241.557 90.5953 242.154C90.826 243.598 91.0392 245.06 91.2522 246.533C91.5362 248.876 91.9801 251.509 92.56 254.427Z" fill="#FFD6C4"/>
<path fill-rule="evenodd" clip-rule="evenodd" d="M147.791 142.261C146.915 142.261 146.033 142.261 145.158 142.261C142.24 141.675 139.318 141.09 136.395 140.51L122.371 135.249C120.909 134.663 119.448 133.936 117.986 133.06H117.554C116.962 132.474 116.234 131.888 115.359 131.308C113.021 130.137 110.542 128.533 107.909 126.492C105.779 124.628 103.95 122.51 102.429 120.137C101.246 123.107 100.146 126.107 99.1397 129.119C97.3882 134.379 95.7786 139.634 94.3229 144.894C94.033 144.894 93.8852 145.042 93.8852 145.332C97.0983 147.669 100.903 150.303 105.282 153.22C109.957 157.599 122.525 160.374 142.974 161.545C166.052 163.007 178.182 164.025 179.347 164.616C185.484 166.078 194.395 175.421 206.087 192.652C206.377 193.096 206.667 193.534 206.963 193.966H213.75C212.596 190.96 211.206 187.895 209.59 184.764C208.999 183.303 208.271 181.841 207.401 180.38C203.602 173.664 200.679 168.409 198.638 164.61C194.839 156.433 192.495 149.125 191.62 142.705H191.182C188.844 142.705 186.945 142.705 185.483 142.705C181.98 142.705 180.081 142.705 179.785 142.705H178.91C177.744 142.705 176.72 142.705 175.838 142.705C172.921 142.705 170.436 142.705 168.389 142.705C164.59 142.705 161.087 142.705 157.874 142.705H155.241C152.62 142.705 150.134 142.705 147.797 142.705V142.261H147.791ZM116.229 262.966C116.524 263.7 116.82 264.505 117.104 265.38C119.442 271.511 123.24 275.31 128.501 276.771C134.051 278.233 137.122 276.037 137.702 270.197C138.004 268.736 137.85 266.404 137.27 263.191C136.678 259.682 135.371 256.179 133.323 252.676C131.572 248.877 129.087 245.96 125.874 243.913C122.661 241.286 117.98 240.262 111.85 240.842C105.418 241.428 97.9681 238.942 89.4946 233.392L91.252 240.842C90.9502 240.664 90.6543 240.445 90.3762 240.191V240.41C90.6484 240.564 90.9443 240.706 91.252 240.842C92.2106 241.357 93.3055 241.871 94.5422 242.386C96.4534 243.173 98.7136 243.978 101.329 244.794C116.524 248.883 125.874 252.09 129.383 254.434C130.548 255.014 132.004 257.499 133.761 261.877C132.886 262.173 132.3 262.901 132.004 264.067C131.424 266.114 129.814 267.138 127.187 267.138C123.939 267.126 120.288 265.741 116.229 262.966ZM216.377 203.161H212.874C214.442 205.611 215.975 208.019 217.472 210.386C217.3 208.019 216.939 205.611 216.377 203.161ZM94.536 265.156L98.2581 259.238C98.6309 258.244 99.3646 257.516 100.447 257.049C100.146 257.014 99.8496 257.014 99.5774 257.049C98.9916 257.049 96.6545 256.173 92.5598 254.422C93.0805 257.777 93.7313 261.351 94.536 265.156Z" fill="#E7BCA9"/>
<path fill-rule="evenodd" clip-rule="evenodd" d="M111.41 302.388C111.221 304.003 111.073 305.541 110.972 306.991C110.38 312.246 109.51 318.234 108.345 324.95C116.818 348.317 137.706 354.163 171.02 342.477C200.239 331.962 216.896 322.175 220.985 313.121C221.535 301.683 222.997 291.092 225.363 281.358C228.162 270.441 232.109 260.582 237.198 251.784L245.085 245.653C248.233 243.292 251.157 239.86 253.849 235.357C249.222 240.144 244.109 244.6 238.512 248.719C239.382 244.63 241.867 239.807 245.961 234.263C248.009 231.346 251.512 227.109 256.482 221.559C264.956 211.044 266.127 201.257 259.985 192.203C252.967 188.795 246.902 189.381 241.796 193.955H242.896L236.322 203.156H235.228C229.79 218.967 225.334 228.896 221.855 232.949L222.731 233.387V233.831L223.168 233.387C225.796 254.127 217.032 271.068 196.872 284.21C176.422 297.062 149.979 303.482 117.546 303.482C115.321 303.163 113.274 302.796 111.41 302.388Z" fill="#C59178"/>
<path fill-rule="evenodd" clip-rule="evenodd" d="M207.394 180.381C208.263 181.843 208.997 183.304 209.583 184.766C211.198 187.89 212.589 190.955 213.743 193.967H241.79C246.897 189.393 252.968 188.807 259.98 192.216C266.122 201.269 264.95 211.056 256.477 221.571C251.506 227.121 247.998 231.358 245.956 234.275C241.867 239.825 239.382 244.642 238.506 248.731C244.098 244.607 249.217 240.157 253.844 235.37C268.465 219.914 278.104 200.855 282.779 178.192C283.069 177.026 283.507 175.855 284.093 174.689C284.383 169.724 284.968 164.612 285.85 159.357C286.14 148.263 285.116 138.032 282.779 128.688V129.126C281.607 130.594 280.294 132.339 278.832 134.387C257.962 160.76 234.364 176.091 208.051 180.387C207.826 180.346 207.612 180.346 207.394 180.381ZM214.405 229.009L221.855 232.956C225.335 228.902 229.79 218.973 235.228 203.162H216.376C216.938 205.612 217.299 208.02 217.477 210.387C217.844 216.944 216.82 223.151 214.405 229.009Z" fill="url(#paint0_linear_17_75)"/>
<path fill-rule="evenodd" clip-rule="evenodd" d="M191.612 142.692H191.831C197.6 142.088 205.707 140.485 216.157 137.87C238.068 132.319 254.435 124.727 265.246 115.088C267.873 111.289 270.352 107.644 272.696 104.136C271.234 101.508 269.624 99.023 267.879 96.6917C266.707 94.9402 265.536 93.3366 264.37 91.8691C262.027 94.5023 259.257 97.5615 256.044 101.07C249.322 107.491 241.287 112.023 231.938 114.65C214.701 116.988 206.222 114.792 206.517 108.076C206.807 101.94 209.145 98.5852 213.535 97.9994H215.287C207.399 96.242 201.405 95.6621 197.316 96.242C192.937 96.8278 188.991 98.7213 185.482 101.934C181.683 104.857 179.642 109.674 179.346 116.396C179.346 116.686 179.346 117.124 179.346 117.71C179.346 125.195 182.636 132.716 189.21 140.272L189.429 140.497C190.014 141.367 190.594 142.1 191.18 142.686H191.612V142.692Z" fill="#36200B"/>
<path fill-rule="evenodd" clip-rule="evenodd" d="M215.283 98.011C207.685 92.4607 195.851 85.7446 179.78 77.8511C168.383 72.0108 158.892 67.922 151.295 65.5847C145.158 63.5373 140.052 62.5137 135.951 62.5137C124.265 62.5137 114.625 66.4604 107.022 74.3481C100.596 81.36 97.3828 89.6796 97.3828 99.3187C97.3828 107.65 99.0573 114.591 102.424 120.13C103.945 122.496 105.768 124.615 107.904 126.485C110.531 128.532 113.016 130.136 115.353 131.301C116.229 131.887 116.957 132.467 117.549 133.053C116.927 132.177 116.348 131.301 115.791 130.42C111.993 124.65 110.093 119.982 110.093 116.402C110.093 95.366 118.714 81.786 135.951 75.6499L137.271 76.0937C123.537 85.147 116.673 96.8276 116.673 111.141C116.673 117.905 122.294 126.81 133.549 137.863C134.472 138.71 135.425 139.591 136.395 140.497C139.318 141.076 142.241 141.662 145.158 142.248C146.034 142.248 146.916 142.248 147.791 142.248C147.176 141.479 146.59 140.674 146.034 139.84C141.359 133.313 139.016 126.526 139.016 119.467C139.016 98.437 146.466 86.4606 161.365 83.5434H161.803C153.33 90.8393 148.076 96.3897 146.028 100.189C144.863 102.816 144.271 108.076 144.271 115.958C144.271 124.266 148.076 132.443 155.673 140.497C156.383 141.236 157.111 141.964 157.863 142.686C161.076 142.686 164.584 142.686 168.377 142.686C170.425 142.686 172.91 142.686 175.827 142.686C175.212 142 174.62 141.337 174.076 140.715C166.774 132.124 163.117 124.313 163.117 117.277C163.117 112.023 165.164 106.621 169.253 101.07C173.342 94.934 178.306 91.1411 184.159 89.6796C174.224 99.0288 169.253 108.082 169.253 116.845C169.253 123.863 173.851 131.751 183.058 140.508C183.845 141.236 184.656 141.97 185.466 142.698C186.928 142.698 188.827 142.698 191.165 142.698C190.579 142.112 189.999 141.378 189.413 140.508L189.194 140.284C182.62 132.727 179.33 125.206 179.33 117.721C179.33 117.135 179.33 116.698 179.33 116.408C179.626 109.686 181.673 104.869 185.466 101.946C188.975 98.7329 192.922 96.8394 197.301 96.2536C201.407 95.6737 207.395 96.2536 215.283 98.011Z" fill="url(#paint1_linear_17_75)"/>
<path fill-rule="evenodd" clip-rule="evenodd" d="M185.478 142.701C184.662 141.967 183.857 141.24 183.07 140.512C173.863 131.754 169.265 123.867 169.265 116.849C169.265 108.085 174.235 99.0321 184.17 89.6829C178.324 91.1445 173.36 94.9433 169.265 101.074C165.176 106.624 163.129 112.026 163.129 117.281C163.129 124.316 166.78 132.133 174.088 140.719C174.632 141.346 175.218 142.003 175.839 142.689C176.715 142.689 177.739 142.689 178.91 142.689H179.786C180.076 142.701 181.981 142.701 185.478 142.701ZM147.791 142.263V142.701C150.129 142.701 152.608 142.701 155.235 142.701H157.868C157.117 141.979 156.389 141.245 155.679 140.512C148.081 132.458 144.277 124.281 144.277 115.973C144.277 108.085 144.868 102.831 146.034 100.204C148.081 96.4048 153.336 90.8545 161.809 83.5586H161.371C146.466 86.4758 139.022 98.4522 139.022 119.482C139.022 126.541 141.366 133.334 146.04 139.855C146.59 140.695 147.176 141.494 147.791 142.263ZM117.549 133.062H117.981C119.442 133.938 120.904 134.666 122.365 135.251L136.389 140.512C135.419 139.606 134.466 138.725 133.543 137.879C122.294 126.825 116.667 117.914 116.667 111.156C116.667 96.8427 123.531 85.1562 137.265 76.1088L135.945 75.665C118.708 81.8012 110.087 95.3812 110.087 116.417C110.087 119.991 111.986 124.665 115.785 130.435C116.347 131.31 116.922 132.186 117.549 133.062Z" fill="#AC6630"/>
<path fill-rule="evenodd" clip-rule="evenodd" d="M105.926 301.298C107.595 301.706 109.423 302.067 111.412 302.392C113.276 302.801 115.323 303.162 117.548 303.487C149.98 303.487 176.424 297.067 196.874 284.215C217.034 271.073 225.803 254.132 223.17 233.392L222.732 233.836V233.392L221.856 232.954L214.407 229.007L213.537 228.569C213.241 232.658 208.271 240.256 198.632 251.351C191.324 260.114 181.531 265.516 169.264 267.564C163.998 269.025 159.773 269.025 156.554 267.564C153.637 265.516 151.152 263.185 149.104 260.552C147.938 258.505 145.448 254.268 141.649 247.848C138.146 241.422 134.347 236.895 130.258 234.268C126.163 231.64 120.613 231.055 113.601 232.516C106.583 233.978 99.7194 231.782 93.0034 225.948C91.2223 224.321 89.6897 223.149 88.3997 222.439C84.9027 220.421 83.3702 221.883 83.8022 226.824C84.3466 233.078 86.5357 237.534 90.376 240.191C90.66 240.445 90.9559 240.664 91.2518 240.842L89.4944 233.392C97.9738 238.942 105.418 241.427 111.85 240.842C117.98 240.262 122.66 241.285 125.873 243.913C129.086 245.96 131.572 248.877 133.323 252.676C135.37 256.179 136.678 259.682 137.27 263.191C137.856 266.404 138.003 268.741 137.702 270.197C137.122 276.037 134.057 278.227 128.501 276.771C123.24 275.309 119.441 271.511 117.104 265.38C116.814 264.51 116.518 263.7 116.228 262.966C114.069 258.439 110.85 256.179 106.583 256.179C103.903 256.013 101.856 256.303 100.447 257.055C99.3585 257.522 98.6307 258.25 98.2579 259.244L94.5358 265.161L94.3169 265.386L92.1276 253.552C88.6187 263.777 86.8612 271.369 86.8612 276.339C86.8612 283.351 87.4529 288.315 88.6186 291.233C89.7843 293.866 91.8317 296.055 94.7489 297.801C96.7607 299.073 100.483 300.239 105.926 301.298Z" fill="url(#paint2_linear_17_75)"/>
<path fill-rule="evenodd" clip-rule="evenodd" d="M235.229 203.165H236.324L242.898 193.964H241.797H213.75H206.963H169.27C172.453 196.189 173.915 198.236 173.649 200.1C173.649 200.39 173.649 200.834 173.649 201.414C173.56 202.011 173.495 202.597 173.43 203.165H212.88H216.383H235.229Z" fill="#99765D"/>
<path fill-rule="evenodd" clip-rule="evenodd" d="M105.714 185.201H105.276C105.566 180.527 106.004 177.024 106.589 174.686H106.157C103.903 171.184 98.6368 167.456 90.3763 163.515C88.9976 162.864 87.5422 162.207 85.9919 161.544C78.696 158.331 73.1336 157.746 69.3407 159.793C64.672 161.84 63.0569 166.657 64.5243 174.249C65.9859 186.225 68.465 193.675 71.9739 196.592C75.4651 198.917 80.6486 201.107 87.5362 203.166H88.1931C95.495 202.58 100.613 198.491 103.53 190.9C104.394 188.858 105.128 186.953 105.714 185.201ZM99.3587 188.272C96.548 197.764 92.6072 202.148 87.5243 201.415H87.3054C80.8793 199.663 76.1989 197.616 73.2817 195.284C70.9385 193.237 68.903 186.959 67.1456 176.438C66.8557 174.397 66.7137 172.645 66.7137 171.184C67.0036 170.012 67.5834 169.136 68.4591 168.55C70.8023 165.633 75.6247 165.775 82.9206 168.988C85.2461 169.947 87.3587 170.899 89.2759 171.834C97.0807 175.692 101.092 179.272 101.329 182.568L100.897 183.006C100.601 184.758 100.163 186.361 99.5776 187.829V188.266H99.3587V188.272ZM173.425 203.166C173.49 202.592 173.555 202.006 173.643 201.415C173.643 200.829 173.643 200.391 173.643 200.101C173.91 198.243 172.448 196.196 169.265 193.965C165.448 191.308 159.17 188.385 150.412 185.201C137.85 180.527 129.377 178.189 124.992 178.189C122.365 178.189 120.169 178.627 118.424 179.503C118.128 179.213 117.832 179.065 117.548 179.065C115.566 182.734 113.596 185.728 111.631 188.048L111.412 188.266C111.412 190.604 111.554 194.107 111.85 198.781C112.43 204.622 115.501 210.314 121.051 215.864C126.318 220.829 135.513 224.19 148.667 225.947C162.223 227.361 170.472 219.77 173.425 203.166ZM164.88 216.308C161.667 221.858 156.259 224.338 148.667 223.758C137.27 222.592 129.235 219.669 124.56 215C119.886 210.616 117.258 206.237 116.673 201.852C116.673 200.391 116.53 199.225 116.235 198.343C116.235 195.13 116.53 192.941 117.11 191.769C118.276 187.687 121.051 185.639 125.436 185.639C129.235 185.639 137.27 187.977 149.536 192.651C158.519 195.917 164.365 198.622 167.069 200.758C168.241 201.663 168.827 202.462 168.827 203.166C168.827 203.456 168.685 203.746 168.389 204.042C167.803 209.006 166.637 213.095 164.88 216.308Z" fill="#95785E"/>
<path fill-rule="evenodd" clip-rule="evenodd" d="M66.7075 171.176C66.9975 172.342 67.1395 173.803 67.1395 175.555C72.9797 177.306 77.3706 178.768 80.2878 179.934C82.8203 180.673 85.4416 181.626 88.1812 182.78C90.8558 183.975 93.6309 185.36 96.5066 186.946C97.6191 187.502 98.5778 187.94 99.3529 188.259H99.5718V187.821C100.158 186.354 100.596 184.75 100.891 182.999L101.323 182.561C101.087 179.259 97.0746 175.685 89.2698 171.827C87.3526 170.892 85.2344 169.94 82.9148 168.981C75.6189 165.768 70.7907 165.626 68.4534 168.543C67.5835 169.135 66.9975 170.011 66.7075 171.176ZM116.229 198.336C127.915 199.804 135.661 201.111 139.46 202.283C144.134 203.745 152.614 208.419 164.88 216.307C166.637 213.094 167.803 209.005 168.389 204.04C168.685 203.745 168.827 203.455 168.827 203.165C168.827 202.46 168.241 201.662 167.069 200.756C164.365 198.62 158.519 195.916 149.536 192.65C137.27 187.975 129.229 185.638 125.436 185.638C121.051 185.638 118.276 187.685 117.11 191.768C116.525 192.934 116.229 195.123 116.229 198.336Z" fill="#C7E0E5"/>
<path fill-rule="evenodd" clip-rule="evenodd" d="M99.3579 188.267C98.5769 187.947 97.6241 187.509 96.5116 186.953C93.6359 185.367 90.8608 183.983 88.1862 182.787C85.4466 181.633 82.8253 180.687 80.2928 179.941C77.3756 178.775 72.991 177.314 67.1448 175.562C67.1448 173.811 67.0028 172.349 66.7129 171.184C66.7129 172.645 66.8549 174.397 67.1448 176.438C68.9022 186.953 70.9436 193.237 73.2809 195.284C76.1981 197.622 80.8786 199.663 87.3047 201.415H87.5235C92.6064 202.136 96.5473 197.758 99.3579 188.267ZM116.228 198.338C116.524 199.213 116.666 200.385 116.666 201.847C117.251 206.231 119.879 210.61 124.553 214.995C129.228 219.669 137.264 222.586 148.66 223.752C156.252 224.338 161.66 221.853 164.873 216.302C152.607 208.415 144.128 203.74 139.453 202.279C135.66 201.113 127.914 199.805 116.228 198.338Z" fill="#EEFCFF"/>
</g>
<defs>
<linearGradient id="paint0_linear_17_75" x1="238.213" y1="199.946" x2="227.285" y2="229.089" gradientUnits="userSpaceOnUse">
<stop stop-color="#391F0A"/>
<stop offset="1" stop-color="#C59178"/>
</linearGradient>
<linearGradient id="paint1_linear_17_75" x1="144.069" y1="116.337" x2="168.079" y2="74.4461" gradientUnits="userSpaceOnUse">
<stop stop-color="#723F18"/>
<stop offset="1" stop-color="#AC6630"/>
</linearGradient>
<linearGradient id="paint2_linear_17_75" x1="157.362" y1="283.277" x2="153.541" y2="239.909" gradientUnits="userSpaceOnUse">
<stop stop-color="#391F0A"/>
<stop offset="1" stop-color="#C59178"/>
</linearGradient>
</defs>
</svg>
