<svg width="190" height="181" viewBox="0 0 190 181" fill="none" xmlns="http://www.w3.org/2000/svg">
<mask id="mask0_125_476" style="mask-type:alpha" maskUnits="userSpaceOnUse" x="0" y="0" width="181" height="181">
<circle cx="90.5" cy="90.5" r="90.5" fill="#DBDBE5"/>
</mask>
<g mask="url(#mask0_125_476)">
<circle cx="90.5" cy="90.5" r="90.5" fill="#DBDBE5"/>
<path fill-rule="evenodd" clip-rule="evenodd" d="M150.028 57.2935C148.738 59.2239 147.378 61.2292 145.929 63.3192C139.982 68.6221 130.977 72.7988 118.923 75.8523C113.17 77.2912 108.711 78.1734 105.54 78.5054H105.419C105.898 82.0375 107.19 86.0579 109.28 90.5568C110.407 92.6467 112.015 95.5375 114.102 99.2323C114.219 99.216 114.336 99.216 114.463 99.2323C128.939 96.8657 141.922 88.431 153.404 73.9251C154.208 72.7988 154.93 71.8384 155.575 71.0311V70.7935C154.449 65.9723 152.599 61.4701 150.028 57.2935ZM83.2343 36.0848C87.4141 37.3707 92.6389 39.6201 98.9055 42.8332C107.747 47.1726 114.258 50.8706 118.438 53.9242H117.474C115.062 54.2432 113.773 56.0922 113.613 59.4681C113.45 63.1629 118.115 64.3674 127.598 63.0848C132.742 61.6394 137.162 59.1458 140.861 55.6137C142.628 53.6833 144.155 52.0003 145.441 50.5516C135.955 38.9821 122.611 32.9564 105.413 32.4746C97.701 32.3053 90.3082 33.5131 83.2343 36.0848Z" fill="#6D411A"/>
<path d="M64.6689 98.5094C63.5784 100.531 62.4943 102.175 61.4136 103.451C61.4917 103.327 61.534 103.207 61.534 103.086C60.8927 102.123 60.1667 101.641 59.3627 101.641C58.8809 101.641 58.4805 101.722 58.1582 101.882H57.9172C58.0767 99.3102 58.3175 97.383 58.6398 96.0972C59.6034 96.5822 60.4889 97.1454 61.2929 97.7867C62.097 98.1057 63.2235 98.3499 64.6689 98.5094Z" fill="#1F1F35"/>
<path fill-rule="evenodd" clip-rule="evenodd" d="M93.1211 106.71H113.858C113.692 106.473 113.532 106.232 113.376 105.988C106.943 96.5049 102.044 91.3646 98.665 90.5638C98.0237 90.2415 91.3501 89.6784 78.6542 88.8743C67.4036 88.233 60.4893 86.703 57.9175 84.294C55.5086 82.6891 53.4155 81.2405 51.6478 79.9546C50.8698 83.2197 50.2219 86.5565 49.7173 89.9583C54.2618 92.1264 57.1591 94.1773 58.3993 96.1044H58.637C59.6038 96.5862 60.486 97.1494 61.2901 97.794C62.0942 98.1163 63.2205 98.3572 64.6659 98.5167C64.8254 98.5167 64.9882 98.5948 65.1477 98.7576C66.108 98.2758 67.3157 98.0349 68.7611 98.0349C71.1733 98.0349 75.8351 99.3207 82.7462 101.892C87.5674 103.641 91.0246 105.249 93.1211 106.71ZM48.6301 122.375C49.343 122.769 50.186 123.41 51.1626 124.306C54.8607 127.519 58.637 128.723 62.4946 127.919C66.3554 127.115 69.4057 127.437 71.6584 128.883C73.9046 130.328 75.9978 132.818 77.925 136.354C80.0149 139.886 81.3822 142.217 82.0268 143.343C83.1531 144.792 84.5205 146.074 86.1254 147.201C87.8963 148.005 90.2237 148.005 93.1177 147.201C99.8661 146.074 105.254 143.102 109.274 138.281C114.577 132.177 117.312 127.997 117.474 125.748L117.953 125.989C119.281 122.766 119.844 119.351 119.642 115.744C118.819 114.442 117.973 113.117 117.113 111.769H95.4096C93.7852 120.904 89.244 125.077 81.7859 124.306C74.5493 123.339 69.4905 121.493 66.5932 118.759C63.5397 115.705 61.85 112.573 61.5309 109.36C61.3682 106.789 61.2901 104.858 61.2901 103.576L61.4105 103.455C61.4886 103.331 61.5309 103.211 61.5309 103.094C60.8896 102.13 60.1637 101.648 59.3596 101.648C58.8778 101.648 58.4774 101.726 58.1552 101.889C57.8329 102.853 57.4293 103.901 56.9475 105.024C55.3426 109.204 52.5298 111.45 48.5095 111.773H48.1483C48.2134 115.239 48.3762 118.775 48.6301 122.375ZM50.9218 139.974C53.1712 140.937 54.4603 141.419 54.7826 141.419C54.9356 141.4 55.0984 141.4 55.2612 141.419C56.036 141.006 57.1623 140.846 58.637 140.937C60.9841 140.937 62.755 142.181 63.9432 144.671C66.1764 146.198 68.1849 146.963 69.9721 146.963C71.4175 146.963 72.3063 146.4 72.6221 145.273C72.7849 144.632 73.1039 144.232 73.5889 144.069C72.6221 141.657 71.8213 140.293 71.18 139.974C69.2496 138.685 64.106 136.92 55.7462 134.671C54.3073 134.221 53.0639 133.779 52.0124 133.346C51.332 133.063 50.7297 132.783 50.2023 132.499C50.0298 132.425 49.867 132.346 49.7205 132.258C49.7661 132.571 49.8051 132.893 49.8409 133.222C49.9679 134.016 50.0851 134.82 50.2023 135.631C50.3586 136.92 50.6028 138.369 50.9218 139.974Z" fill="#FFD6C4"/>
<path fill-rule="evenodd" clip-rule="evenodd" d="M81.3072 78.2651C80.8254 78.2651 80.3403 78.2651 79.8585 78.2651C78.2537 77.9428 76.6457 77.6205 75.0375 77.3015L67.3223 74.4075C66.5182 74.0852 65.7141 73.6848 64.91 73.203H64.6724C64.3468 72.8807 63.9463 72.5584 63.4645 72.2394C62.1786 71.5948 60.8147 70.7126 59.3661 69.5895C58.1942 68.5641 57.1882 67.3987 56.3516 66.0933C55.7005 67.7275 55.0951 69.3779 54.5417 71.0349C53.5781 73.9289 52.6925 76.8197 51.8917 79.7137C51.7322 79.7137 51.6509 79.7951 51.6509 79.9546C53.4186 81.2405 55.5118 82.6891 57.9208 84.294C60.4926 86.703 67.4069 88.2297 78.6575 88.8743C91.3534 89.6784 98.0268 90.2383 98.6681 90.5638C102.044 91.3679 106.946 96.5081 113.379 105.988C113.539 106.232 113.698 106.473 113.861 106.71H117.595C116.96 105.057 116.195 103.37 115.306 101.648C114.981 100.844 114.58 100.04 114.102 99.2361C112.012 95.5413 110.404 92.6505 109.281 90.5606C107.191 86.0617 105.901 82.0413 105.42 78.5092H105.179C103.893 78.5092 102.848 78.5092 102.044 78.5092C100.117 78.5092 99.0717 78.5092 98.9089 78.5092H98.4273C97.786 78.5092 97.2226 78.5092 96.7376 78.5092C95.1327 78.5092 93.7655 78.5092 92.6392 78.5092C90.5492 78.5092 88.6221 78.5092 86.8545 78.5092H85.4058C83.9637 78.5092 82.5965 78.5092 81.3106 78.5092V78.2651H81.3072ZM63.9432 144.671C64.1059 145.075 64.2687 145.518 64.425 145.999C65.7109 149.372 67.8007 151.462 70.6947 152.266C73.7482 153.07 75.4377 151.862 75.7568 148.649C75.9228 147.845 75.8382 146.563 75.5191 144.795C75.1936 142.864 74.4742 140.937 73.3478 139.01C72.3842 136.92 71.0171 135.315 69.2494 134.189C67.4818 132.744 64.9068 132.18 61.5342 132.499C57.9956 132.822 53.8971 131.454 49.2354 128.401L50.2022 132.499C50.0362 132.402 49.8734 132.281 49.7204 132.141V132.262C49.8702 132.346 50.033 132.425 50.2022 132.499C50.7296 132.783 51.332 133.066 52.0123 133.349C53.0638 133.782 54.3073 134.225 55.7461 134.674C64.1059 136.923 69.2495 138.688 71.1799 139.977C71.8212 140.296 72.622 141.663 73.5888 144.072C73.107 144.235 72.7848 144.635 72.622 145.277C72.303 146.403 71.4174 146.966 69.9721 146.966C68.1849 146.96 66.1763 146.198 63.9432 144.671ZM119.04 111.769H117.113C117.976 113.117 118.819 114.442 119.642 115.744C119.548 114.442 119.349 113.117 119.04 111.769ZM52.0089 145.876L54.0567 142.62C54.2618 142.073 54.6654 141.673 55.2611 141.416C55.0951 141.396 54.9322 141.396 54.7825 141.416C54.4602 141.416 53.1744 140.934 50.9217 139.97C51.2082 141.816 51.5662 143.782 52.0089 145.876Z" fill="#E7BCA9"/>
<path fill-rule="evenodd" clip-rule="evenodd" d="M61.2921 166.359C61.1879 167.248 61.1066 168.094 61.0513 168.892C60.7257 171.782 60.2471 175.077 59.6058 178.772C64.2675 191.627 75.759 194.843 94.0867 188.414C110.162 182.629 119.325 177.245 121.575 172.264C121.878 165.972 122.682 160.144 123.984 154.789C125.524 148.783 127.695 143.36 130.495 138.519L134.834 135.147C136.566 133.848 138.174 131.96 139.655 129.482C137.11 132.116 134.297 134.567 131.217 136.833C131.696 134.583 133.063 131.93 135.316 128.88C136.442 127.275 138.369 124.944 141.104 121.891C145.766 116.106 146.41 110.722 143.031 105.741C139.17 103.866 135.833 104.188 133.024 106.704H133.63L130.013 111.767H129.411C126.419 120.465 123.968 125.927 122.054 128.157L122.535 128.398V128.642L122.776 128.398C124.222 139.808 119.4 149.128 108.309 156.358C97.0587 163.429 82.5107 166.961 64.668 166.961C63.444 166.785 62.3175 166.584 61.2921 166.359Z" fill="#C59178"/>
<path fill-rule="evenodd" clip-rule="evenodd" d="M114.098 99.2362C114.576 100.04 114.98 100.844 115.302 101.648C116.191 103.367 116.956 105.054 117.591 106.711H133.021C135.83 104.194 139.17 103.872 143.028 105.747C146.407 110.728 145.762 116.112 141.101 121.897C138.366 124.95 136.436 127.281 135.313 128.886C133.063 131.94 131.696 134.589 131.214 136.839C134.291 134.57 137.107 132.122 139.652 129.488C147.696 120.985 152.999 110.5 155.571 98.0317C155.73 97.3904 155.971 96.7459 156.294 96.1046C156.453 93.3733 156.775 90.5607 157.26 87.6699C157.42 81.5661 156.857 75.9376 155.571 70.7974V71.0383C154.926 71.8456 154.204 72.8059 153.4 73.9323C141.918 88.4414 128.936 96.8761 114.459 99.2395C114.335 99.2167 114.218 99.2167 114.098 99.2362ZM117.955 125.989L122.054 128.16C123.968 125.93 126.419 120.468 129.411 111.769H119.039C119.348 113.117 119.547 114.442 119.645 115.744C119.847 119.351 119.283 122.766 117.955 125.989Z" fill="url(#paint0_linear_125_476)"/>
<path fill-rule="evenodd" clip-rule="evenodd" d="M105.415 78.5018H105.536C108.71 78.1698 113.17 77.2876 118.919 75.8487C130.973 72.7952 139.978 68.6185 145.925 63.3155C147.37 61.2256 148.734 59.2203 150.023 57.2899C149.219 55.8445 148.334 54.4772 147.374 53.1946C146.729 52.231 146.085 51.3488 145.443 50.5415C144.154 51.9901 142.63 53.6732 140.863 55.6036C137.165 59.1357 132.744 61.6293 127.601 63.0746C118.118 64.3605 113.453 63.1528 113.615 59.4579C113.775 56.0821 115.061 54.2363 117.476 53.9141H118.44C114.1 52.9472 110.803 52.6282 108.553 52.9472C106.144 53.2695 103.973 54.3112 102.043 56.0789C99.9527 57.687 98.8296 60.3369 98.6669 64.035C98.6669 64.1945 98.6669 64.4354 98.6669 64.7577C98.6669 68.8757 100.477 73.0133 104.094 77.1704L104.214 77.2941C104.536 77.7726 104.855 78.1763 105.178 78.4986H105.415V78.5018Z" fill="#36200B"/>
<path fill-rule="evenodd" clip-rule="evenodd" d="M118.438 53.9205C114.258 50.867 107.747 47.1722 98.9057 42.8295C92.6359 39.6165 87.4144 37.367 83.2345 36.0811C79.8587 34.9548 77.0493 34.3916 74.7933 34.3916C68.364 34.3916 63.0608 36.5629 58.8777 40.9023C55.3424 44.7599 53.5748 49.337 53.5748 54.64C53.5748 59.2235 54.4961 63.042 56.3484 66.0891C57.185 67.3912 58.1877 68.5566 59.3629 69.5853C60.8083 70.7117 62.1755 71.5939 63.4613 72.2352C63.9431 72.5575 64.3436 72.8765 64.6692 73.1988C64.3274 72.717 64.0083 72.2352 63.7023 71.7501C61.6124 68.5762 60.5674 66.0077 60.5674 64.0382C60.5674 52.4654 65.3104 44.9943 74.7933 41.6185L75.5191 41.8627C67.9634 46.8434 64.1873 53.2695 64.1873 61.1442C64.1873 64.8651 67.2799 69.7644 73.4716 75.8454C73.9794 76.3109 74.5036 76.796 75.0375 77.294C76.6456 77.613 78.2536 77.9353 79.8585 78.2576C80.3403 78.2576 80.8254 78.2576 81.3072 78.2576C80.9686 77.8344 80.6464 77.3917 80.3404 76.9327C77.7686 73.342 76.4796 69.6081 76.4796 65.7245C76.4796 54.1549 80.578 47.5661 88.775 45.9612H89.0158C84.3542 49.975 81.4635 53.0286 80.3372 55.1185C79.6959 56.5639 79.3704 59.4579 79.3704 63.794C79.3704 68.3646 81.4636 72.8635 85.6434 77.294C86.0341 77.7009 86.4345 78.1014 86.8479 78.4985C88.6156 78.4985 90.5459 78.4985 92.6326 78.4985C93.759 78.4985 95.1263 78.4985 96.7312 78.4985C96.3927 78.1209 96.0671 77.7563 95.7676 77.4145C91.7505 72.6877 89.7387 68.3906 89.7387 64.52C89.7387 61.6292 90.865 58.6571 93.1144 55.6035C95.3639 52.2277 98.0951 50.141 101.315 49.337C95.8489 54.4804 93.1144 59.4611 93.1144 64.2823C93.1144 68.1432 95.6439 72.4826 100.709 77.3005C101.142 77.7009 101.588 78.1046 102.034 78.505C102.838 78.505 103.883 78.505 105.169 78.505C104.847 78.1827 104.528 77.7791 104.205 77.3005L104.085 77.1768C100.468 73.0197 98.6583 68.8822 98.6583 64.7641C98.6583 64.4419 98.6583 64.201 98.6583 64.0414C98.8211 60.3434 99.9474 57.6935 102.034 56.0853C103.965 54.3177 106.136 53.276 108.545 52.9537C110.804 52.6347 114.098 52.9537 118.438 53.9205Z" fill="url(#paint1_linear_125_476)"/>
<path fill-rule="evenodd" clip-rule="evenodd" d="M102.041 78.5065C101.591 78.1028 101.149 77.7024 100.716 77.302C95.6505 72.484 93.121 68.1446 93.121 64.2838C93.121 59.4626 95.8555 54.4819 101.321 49.3384C98.1049 50.1425 95.3737 52.2324 93.121 55.605C90.8716 58.6585 89.7453 61.6307 89.7453 64.5214C89.7453 68.3921 91.7538 72.6924 95.7742 77.4159C96.0737 77.761 96.3958 78.1223 96.7376 78.5C97.2194 78.5 97.7827 78.5 98.4273 78.5H98.9089C99.0684 78.5065 100.117 78.5065 102.041 78.5065ZM81.3072 78.2656V78.5065C82.5931 78.5065 83.9571 78.5065 85.4025 78.5065H86.8511C86.4377 78.1093 86.0373 77.7057 85.6467 77.302C81.4668 72.8714 79.3736 68.3725 79.3736 63.802C79.3736 59.4626 79.6991 56.5718 80.3404 55.1265C81.4668 53.0365 84.3576 49.983 89.0192 45.9691H88.7782C80.578 47.574 76.4828 54.1629 76.4828 65.7324C76.4828 69.6161 77.772 73.3532 80.3438 76.9406C80.6465 77.4029 80.9687 77.8424 81.3072 78.2656ZM64.6692 73.2035H64.9068C65.7109 73.6853 66.5149 74.0857 67.3189 74.408L75.0341 77.302C74.5003 76.8039 73.9763 76.3189 73.4684 75.8533C67.28 69.7723 64.184 64.8698 64.184 61.1521C64.184 53.2774 67.9603 46.8481 75.516 41.8706L74.7899 41.6265C65.3071 45.0023 60.564 52.4733 60.564 64.0461C60.564 66.0124 61.609 68.5841 63.699 71.7581C64.0082 72.2399 64.3241 72.7217 64.6692 73.2035Z" fill="#AC6630"/>
<path fill-rule="evenodd" clip-rule="evenodd" d="M58.2751 165.76C59.1931 165.984 60.199 166.183 61.2928 166.362C62.3183 166.586 63.4448 166.785 64.6688 166.964C82.5114 166.964 97.0595 163.432 108.31 156.361C119.401 149.131 124.226 139.811 122.777 128.401L122.536 128.645V128.401L122.054 128.16L117.956 125.989L117.477 125.748C117.314 127.997 114.58 132.177 109.277 138.281C105.257 143.102 99.869 146.074 93.1206 147.201C90.2234 148.005 87.899 148.005 86.1281 147.201C84.5232 146.074 83.1558 144.792 82.0295 143.343C81.3882 142.217 80.0178 139.886 77.9279 136.354C76.0007 132.819 73.9106 130.328 71.6612 128.883C69.4084 127.437 66.3549 127.115 62.4973 127.919C58.6364 128.723 54.8604 127.516 51.1655 124.306C50.1857 123.411 49.3425 122.766 48.6328 122.375C46.7089 121.265 45.8658 122.069 46.1035 124.788C46.403 128.229 47.6073 130.68 49.72 132.141C49.8763 132.281 50.0391 132.402 50.2019 132.5L49.235 128.401C53.9 131.455 57.9953 132.822 61.5338 132.5C64.9064 132.181 67.4814 132.744 69.249 134.189C71.0167 135.315 72.3839 136.92 73.3475 139.01C74.4738 140.937 75.1932 142.865 75.5188 144.795C75.841 146.563 75.9224 147.849 75.7564 148.649C75.4374 151.862 73.7511 153.067 70.6943 152.266C67.8003 151.462 65.7105 149.372 64.4246 146C64.2651 145.521 64.1023 145.075 63.9428 144.671C62.7546 142.181 60.9836 140.937 58.6365 140.937C57.1618 140.846 56.0355 141.006 55.2608 141.419C54.6618 141.676 54.2614 142.077 54.0563 142.624L52.0086 145.879L51.8882 146.003L50.6837 139.492C48.7533 145.117 47.7864 149.294 47.7864 152.029C47.7864 155.886 48.1119 158.617 48.7532 160.222C49.3945 161.671 50.5209 162.875 52.1258 163.836C53.2326 164.536 55.2802 165.177 58.2751 165.76Z" fill="url(#paint2_linear_125_476)"/>
<path fill-rule="evenodd" clip-rule="evenodd" d="M129.411 111.772H130.014L133.63 106.71H133.025H117.594H113.86H93.1238C94.8752 107.934 95.6792 109.06 95.5327 110.086C95.5327 110.245 95.5327 110.489 95.5327 110.808C95.4839 111.137 95.4481 111.46 95.4123 111.772H117.116H119.043H129.411Z" fill="#323244"/>
<path fill-rule="evenodd" clip-rule="evenodd" d="M58.1583 101.888H57.9172C58.0768 99.3163 58.3176 97.3891 58.6399 96.1032H58.4023C57.162 94.176 54.2647 92.1252 49.7202 89.9571C48.9617 89.599 48.161 89.2376 47.3081 88.873C43.2942 87.1054 40.2341 86.7831 38.1474 87.9095C35.579 89.0358 34.6904 91.6857 35.4977 95.8623C36.3018 102.451 37.6657 106.55 39.5961 108.155C41.5168 109.434 44.3685 110.638 48.1577 111.771H48.5191C52.5363 111.449 55.3521 109.2 56.957 105.023C57.4323 103.9 57.836 102.852 58.1583 101.888ZM54.6619 103.578C53.1156 108.799 50.9475 111.211 48.1512 110.808H48.0308C44.4954 109.844 41.9205 108.718 40.3156 107.435C39.0264 106.309 37.9066 102.855 36.9398 97.0668C36.7803 95.9437 36.7022 94.9801 36.7022 94.176C36.8617 93.5315 37.1806 93.0497 37.6624 92.7274C38.9516 91.1225 41.6046 91.2006 45.6184 92.9683C46.8978 93.4957 48.0601 94.0198 49.1148 94.5341C53.4086 96.6566 55.6157 98.6261 55.7459 100.439L55.5083 100.68C55.3455 101.644 55.1046 102.526 54.7823 103.333V103.574H54.6619V103.578ZM95.4094 111.771C95.4452 111.455 95.4809 111.133 95.5298 110.808C95.5298 110.485 95.5298 110.245 95.5298 110.085C95.6763 109.063 94.8722 107.936 93.1208 106.709C91.0211 105.248 87.5671 103.639 82.7491 101.888C75.838 99.3163 71.1764 98.0304 68.7642 98.0304C67.3188 98.0304 66.1109 98.2713 65.1506 98.7531C64.9878 98.5936 64.8252 98.5122 64.669 98.5122C63.5784 100.531 62.4944 102.178 61.4136 103.454L61.293 103.574C61.293 104.86 61.3713 106.787 61.534 109.359C61.8531 112.572 63.5426 115.704 66.5961 118.757C69.4934 121.489 74.5522 123.338 81.7888 124.304C89.2469 125.082 93.7849 120.906 95.4094 111.771ZM90.7085 119.001C88.9408 122.055 85.9655 123.419 81.7888 123.1C75.519 122.459 71.0983 120.85 68.5266 118.282C65.9548 115.87 64.5094 113.461 64.1872 111.049C64.1872 110.245 64.1089 109.603 63.9461 109.118C63.9461 107.35 64.1089 106.146 64.428 105.501C65.0693 103.255 66.596 102.129 69.0082 102.129C71.0982 102.129 75.5189 103.415 82.2673 105.986C87.2089 107.783 90.4253 109.271 91.913 110.446C92.5575 110.944 92.8798 111.384 92.8798 111.771C92.8798 111.931 92.8018 112.09 92.639 112.253C92.3167 114.984 91.6754 117.234 90.7085 119.001Z" fill="#323244"/>
<path fill-rule="evenodd" clip-rule="evenodd" d="M36.6988 94.1719C36.8583 94.8132 36.9364 95.6173 36.9364 96.5809C40.1495 97.5445 42.5651 98.3485 44.17 98.9898C45.5633 99.3968 47.0054 99.9209 48.5126 100.556C49.984 101.213 51.5107 101.975 53.0928 102.847C53.7048 103.153 54.2323 103.394 54.6587 103.57H54.7791V103.329C55.1014 102.522 55.3424 101.64 55.5051 100.676L55.7428 100.435C55.6126 98.6187 53.4053 96.6525 49.1115 94.53C48.0567 94.0156 46.8914 93.4915 45.6153 92.9642C41.6014 91.1965 38.9451 91.1184 37.6593 92.7233C37.1807 93.0488 36.8583 93.5306 36.6988 94.1719ZM63.943 109.114C70.3723 109.921 74.6337 110.641 76.7236 111.285C79.2954 112.089 83.9602 114.661 90.7085 119.001C91.6754 117.233 92.3167 114.983 92.639 112.252C92.8018 112.089 92.8798 111.93 92.8798 111.77C92.8798 111.383 92.5576 110.944 91.913 110.445C90.4253 109.27 87.209 107.783 82.2673 105.986C75.5189 103.414 71.0949 102.128 69.0082 102.128C66.596 102.128 65.0693 103.254 64.428 105.501C64.1057 106.142 63.943 107.346 63.943 109.114Z" fill="#C7E0E5"/>
<path fill-rule="evenodd" clip-rule="evenodd" d="M54.6615 103.575C54.2317 103.399 53.7076 103.158 53.0956 102.852C51.5135 101.98 49.9867 101.218 48.5153 100.561C47.0081 99.9257 45.566 99.4049 44.1727 98.9947C42.5678 98.3534 40.1557 97.5493 36.9394 96.5857C36.9394 95.6221 36.8612 94.8181 36.7017 94.1768C36.7017 94.9808 36.7798 95.9444 36.9394 97.0675C37.9062 102.852 39.0293 106.309 40.3151 107.436C41.92 108.722 44.495 109.845 48.0303 110.808H48.1507C50.9471 111.206 53.1152 108.797 54.6615 103.575ZM63.9425 109.116C64.1053 109.597 64.1833 110.242 64.1833 111.046C64.5056 113.458 65.951 115.867 68.5228 118.279C71.0945 120.851 75.5154 122.456 81.7852 123.097C85.9619 123.42 88.9372 122.052 90.7049 118.999C83.9565 114.66 79.2915 112.088 76.7198 111.284C74.6331 110.642 70.3719 109.923 63.9425 109.116Z" fill="#EEFCFF"/>
</g>
<g clip-path="url(#clip0_125_476)">
<path d="M39.3164 56.4864C39.0349 57.5071 39.0805 58.5903 39.447 59.5837C39.8134 60.577 40.4821 61.4304 41.359 62.0238L54.8202 71.0699C56.7288 66.1504 58.0338 63.1734 58.0338 63.1734C150.316 80.8393 147.971 117.121 147.971 117.121C149.002 116.967 150.055 117.053 151.048 117.371L153.416 112.658C153.416 112.658 178.745 103.643 173.93 70.2422C171.426 52.8628 152.898 38.7663 131.948 29.9509C132.098 28.0866 129.501 25.611 125.761 24.1762C121.751 22.6277 117.907 22.8534 117.073 24.6595C102.419 20.3753 88.2108 18.8054 78.7301 20.5731C52.1895 25.5458 49.6945 43.4237 50.1432 54.1645L45.4874 52.917C44.1958 52.5731 42.8205 52.7558 41.6635 53.4251C40.5065 54.0943 39.6624 55.1953 39.3164 56.4864Z" fill="#323244"/>
<path d="M45.4951 52.9192L50.1509 54.1668C59.7428 55.2259 69.2587 56.8869 78.6424 59.1397C82.278 27.3207 106.903 25.9598 106.903 25.9598C88.7918 31.7524 87.2009 53.1161 87.3033 61.3938C101.352 65.2995 116.981 71.1589 129.603 79.7973C129.603 79.7973 162.988 54.5274 131.947 29.9841C152.898 38.7665 171.426 52.863 173.936 70.2522C178.749 103.628 153.422 112.668 153.422 112.668L151.054 117.348C150.061 117.03 149.008 116.944 147.977 117.098C147.977 117.098 150.322 80.8162 58.0482 63.1192C58.0482 63.1192 56.7432 66.0963 54.8346 71.0157L41.3734 61.9696C40.3831 61.3036 39.6605 60.3086 39.3335 59.1609C39.0066 58.0131 39.0965 56.7867 39.5872 55.6988C40.0779 54.611 40.9378 53.7319 42.0146 53.2174C43.0914 52.7028 44.3156 52.586 45.4703 52.8876L45.4951 52.9192Z" fill="#1F1F35"/>
</g>
<defs>
<linearGradient id="paint0_linear_125_476" x1="131.053" y1="110" x2="125.041" y2="126.033" gradientUnits="userSpaceOnUse">
<stop stop-color="#391F0A"/>
<stop offset="1" stop-color="#C59178"/>
</linearGradient>
<linearGradient id="paint1_linear_125_476" x1="79.2593" y1="64.0028" x2="92.4686" y2="40.9562" gradientUnits="userSpaceOnUse">
<stop stop-color="#723F18"/>
<stop offset="1" stop-color="#AC6630"/>
</linearGradient>
<linearGradient id="paint2_linear_125_476" x1="86.5728" y1="155.845" x2="84.4706" y2="131.986" gradientUnits="userSpaceOnUse">
<stop stop-color="#391F0A"/>
<stop offset="1" stop-color="#C59178"/>
</linearGradient>
<clipPath id="clip0_125_476">
<rect width="143.122" height="93.7494" fill="white" transform="matrix(-0.965926 -0.258819 -0.258819 0.965926 189.755 37.7437)"/>
</clipPath>
</defs>
</svg>
