<svg width="181" height="181" fill="none" xmlns="http://www.w3.org/2000/svg"><mask id="a" style="mask-type:alpha" maskUnits="userSpaceOnUse" x="0" y="0" width="181" height="181"><circle cx="90.5" cy="90.5" r="90.5" fill="#DBDBE5"/></mask><g mask="url(#a)"><circle cx="90.5" cy="90.5" r="90.5" fill="#DBDBE5"/><path fill-rule="evenodd" clip-rule="evenodd" d="M150.028 57.294a416.1 416.1 0 0 1-4.099 6.025c-5.947 5.303-14.951 9.48-27.006 12.533-5.752 1.44-10.212 2.321-13.383 2.653h-.12c.478 3.532 1.771 7.553 3.861 12.052 1.126 2.09 2.734 4.98 4.821 8.675.117-.016.234-.016.361 0 14.477-2.366 27.459-10.801 38.941-25.307a68.42 68.42 0 0 1 2.171-2.894v-.238a45.167 45.167 0 0 0-5.547-13.5Zm-66.793-21.21c4.18 1.287 9.404 3.536 15.67 6.75 8.842 4.339 15.353 8.037 19.533 11.09h-.964c-2.412.32-3.701 2.168-3.86 5.544-.163 3.695 4.502 4.9 13.985 3.617 5.143-1.446 9.564-3.94 13.262-7.471a451.13 451.13 0 0 0 4.58-5.062c-9.486-11.57-22.83-17.596-40.028-18.077-7.712-.17-15.105 1.038-22.178 3.61Zm-21.821 67.367c1.08-1.276 2.165-2.92 3.255-4.941-1.445-.16-2.572-.404-3.376-.723a15.196 15.196 0 0 0-2.653-1.69c-.322 1.286-.563 3.213-.723 5.785h.241c.323-.159.723-.241 1.205-.241.804 0 1.53.482 2.171 1.446 0 .12-.042.241-.12.364Z" fill="#6D411A"/><path fill-rule="evenodd" clip-rule="evenodd" d="M93.121 106.711h20.737a21.608 21.608 0 0 1-.482-.723c-6.432-9.483-11.332-14.623-14.71-15.424-.642-.322-7.316-.885-20.012-1.69-11.25-.64-18.165-2.17-20.736-4.58a188.018 188.018 0 0 1-6.27-4.339 117.6 117.6 0 0 0-1.93 10.004c4.544 2.168 7.441 4.219 8.681 6.146h.238a14.716 14.716 0 0 1 2.653 1.69c.804.322 1.93.563 3.376.722.16 0 .322.078.482.241.96-.482 2.168-.723 3.613-.723 2.413 0 7.074 1.286 13.985 3.858 4.822 1.748 8.279 3.356 10.375 4.818Zm-44.49 15.665c.712.394 1.555 1.035 2.532 1.93 3.698 3.213 7.474 4.418 11.332 3.614 3.86-.804 6.91-.482 9.164.963 2.246 1.446 4.339 3.936 6.266 7.471a691.795 691.795 0 0 1 4.102 6.99c1.126 1.448 2.494 2.731 4.099 3.857 1.77.804 4.098.804 6.992 0 6.748-1.126 12.136-4.098 16.156-8.92 5.303-6.103 8.038-10.283 8.201-12.533l.478.241c1.328-3.223 1.891-6.638 1.69-10.244-.824-1.303-1.67-2.628-2.53-3.975H95.41c-1.625 9.134-6.166 13.308-13.624 12.536-7.237-.967-12.295-2.812-15.193-5.547-3.053-3.054-4.743-6.185-5.062-9.398-.163-2.572-.24-4.502-.24-5.785l.12-.12a.686.686 0 0 0 .12-.362c-.641-.963-1.367-1.445-2.171-1.445-.482 0-.882.078-1.205.241a41.082 41.082 0 0 1-1.207 3.135c-1.605 4.18-4.418 6.426-8.438 6.748h-.362c.066 3.467.228 7.002.482 10.603Zm2.291 17.598c2.25.964 3.539 1.446 3.86 1.446.154-.02.317-.02.48 0 .774-.414 1.9-.573 3.375-.482 2.347 0 4.118 1.243 5.306 3.734 2.234 1.526 4.242 2.291 6.03 2.291 1.445 0 2.334-.563 2.65-1.689.162-.641.481-1.042.966-1.205-.967-2.412-1.767-3.776-2.409-4.095-1.93-1.289-7.074-3.053-15.434-5.303a45.502 45.502 0 0 1-3.733-1.325 20.498 20.498 0 0 1-1.81-.846 4.161 4.161 0 0 1-.482-.241c.045.312.084.635.12.964.127.794.244 1.598.361 2.409.157 1.289.4 2.737.72 4.342Z" fill="#FFD6C4"/><path fill-rule="evenodd" clip-rule="evenodd" d="M81.308 78.266h-1.449c-1.605-.323-3.213-.645-4.821-.964l-7.715-2.894a16.996 16.996 0 0 1-2.413-1.204h-.237a7.951 7.951 0 0 0-1.208-.964c-1.286-.645-2.65-1.527-4.099-2.65a16.345 16.345 0 0 1-3.014-3.496 92.691 92.691 0 0 0-1.81 4.941 176.419 176.419 0 0 0-2.65 8.68c-.16 0-.24.08-.24.24a188 188 0 0 0 6.27 4.34c2.571 2.408 9.485 3.935 20.736 4.58 12.696.804 19.37 1.364 20.01 1.69 3.376.803 8.279 5.944 14.711 15.423.16.244.32.485.482.723h3.734a50.8 50.8 0 0 0-2.288-5.062 17.751 17.751 0 0 0-1.205-2.412c-2.09-3.695-3.698-6.586-4.821-8.676-2.09-4.499-3.379-8.52-3.861-12.051H81.311v-.244h-.003Zm-17.364 66.406c.162.403.325.846.481 1.328 1.286 3.372 3.376 5.462 6.27 6.266 3.054.805 4.743-.403 5.062-3.616.166-.804.082-2.087-.237-3.855-.326-1.93-1.045-3.857-2.172-5.784-.963-2.09-2.33-3.695-4.098-4.822-1.768-1.445-4.343-2.008-7.715-1.689-3.539.322-7.637-1.045-12.3-4.099l.968 4.099a2.9 2.9 0 0 1-.482-.358v.12c.15.085.312.163.482.238.527.283 1.13.566 1.81.85 1.051.433 2.295.875 3.734 1.324 8.36 2.25 13.503 4.014 15.433 5.303.642.319 1.442 1.687 2.41 4.096-.483.162-.805.563-.968 1.204-.319 1.127-1.204 1.69-2.65 1.69-1.787-.007-3.795-.769-6.028-2.295Zm55.097-32.902h-1.928a797.785 797.785 0 0 1 2.53 3.975 26.315 26.315 0 0 0-.602-3.975Zm-67.032 34.106 2.048-3.255c.205-.547.609-.947 1.205-1.205a2.016 2.016 0 0 0-.48 0c-.321 0-1.607-.481-3.86-1.445.287 1.846.645 3.812 1.087 5.905Z" fill="#E7BCA9"/><path fill-rule="evenodd" clip-rule="evenodd" d="M61.292 166.359a54.09 54.09 0 0 0-.24 2.533c-.326 2.891-.805 6.185-1.446 9.88 4.662 12.856 16.153 16.072 34.48 9.643 16.076-5.785 25.24-11.17 27.489-16.15.303-6.293 1.107-12.12 2.409-17.475 1.54-6.006 3.711-11.43 6.511-16.27l4.339-3.373c1.732-1.299 3.34-3.187 4.821-5.664a66.542 66.542 0 0 1-8.437 7.35c.478-2.249 1.845-4.902 4.098-7.953 1.126-1.604 3.054-3.935 5.788-6.989 4.662-5.785 5.306-11.169 1.927-16.15-3.861-1.875-7.197-1.552-10.007.964h.606l-3.617 5.062h-.602c-2.992 8.698-5.443 14.161-7.357 16.391l.482.241v.244l.24-.244c1.446 11.41-3.376 20.73-14.467 27.96-11.25 7.071-25.798 10.603-43.64 10.603a47.078 47.078 0 0 1-3.377-.603Z" fill="#C59178"/><path fill-rule="evenodd" clip-rule="evenodd" d="M114.098 99.236c.478.804.882 1.608 1.204 2.412a49.982 49.982 0 0 1 2.289 5.062h15.43c2.809-2.516 6.15-2.839 10.007-.964 3.379 4.981 2.735 10.366-1.927 16.15-2.735 3.054-4.665 5.385-5.788 6.99-2.25 3.053-3.617 5.703-4.099 7.952a67.012 67.012 0 0 0 8.438-7.35c8.044-8.503 13.347-18.989 15.919-31.457a9.278 9.278 0 0 1 .723-1.927c.159-2.731.482-5.544.967-8.435.159-6.103-.404-11.732-1.69-16.872v.24a67.506 67.506 0 0 0-2.171 2.895c-11.482 14.509-24.464 22.944-38.941 25.307a1.036 1.036 0 0 0-.361-.003Zm3.857 26.752 4.099 2.172c1.914-2.23 4.365-7.693 7.357-16.391h-10.372c.31 1.348.508 2.673.606 3.975.202 3.607-.362 7.021-1.69 10.244Z" fill="url(#b)"/><path fill-rule="evenodd" clip-rule="evenodd" d="M105.415 78.501h.121c3.174-.332 7.634-1.214 13.383-2.653 12.054-3.053 21.059-7.23 27.006-12.533a451.194 451.194 0 0 0 4.099-6.026 36.186 36.186 0 0 0-2.65-4.095 40.063 40.063 0 0 0-1.931-2.653 482.492 482.492 0 0 1-4.58 5.062c-3.698 3.532-8.119 6.026-13.262 7.471-9.483 1.286-14.148.078-13.985-3.616.159-3.376 1.445-5.222 3.861-5.544h.963c-4.339-.967-7.637-1.286-9.887-.967-2.408.322-4.58 1.364-6.51 3.131-2.09 1.608-3.213 4.258-3.376 7.956v.723c0 4.118 1.81 8.256 5.427 12.413l.12.124c.322.478.641.882.964 1.204h.237v.003Z" fill="#36200B"/><path fill-rule="evenodd" clip-rule="evenodd" d="M118.438 53.92c-4.18-3.054-10.69-6.749-19.532-11.092-6.27-3.213-11.491-5.462-15.671-6.748-3.376-1.126-6.185-1.69-8.441-1.69-6.43 0-11.733 2.172-15.916 6.511-3.535 3.858-5.303 8.435-5.303 13.738 0 4.583.921 8.402 2.774 11.45a16.413 16.413 0 0 0 3.014 3.495c1.446 1.127 2.813 2.009 4.099 2.65.481.323.882.642 1.207.964-.341-.482-.66-.964-.966-1.449-2.09-3.174-3.135-5.742-3.135-7.712 0-11.573 4.743-19.044 14.226-22.42l.725.245c-7.555 4.98-11.331 11.407-11.331 19.281 0 3.721 3.092 8.62 9.284 14.701.508.466 1.032.951 1.566 1.449 1.608.32 3.216.641 4.82.964h1.45c-.339-.424-.661-.866-.967-1.325-2.572-3.591-3.861-7.325-3.861-11.209 0-11.57 4.098-18.158 12.295-19.763h.241c-4.662 4.014-7.552 7.068-8.678 9.157-.642 1.446-.967 4.34-.967 8.676 0 4.57 2.093 9.07 6.273 13.5.39.407.79.807 1.204 1.204h9.884c-.339-.377-.665-.742-.964-1.084-4.017-4.726-6.029-9.023-6.029-12.894 0-2.89 1.126-5.863 3.376-8.916 2.25-3.376 4.98-5.463 8.2-6.267-5.466 5.144-8.2 10.124-8.2 14.945 0 3.861 2.53 8.2 7.595 13.019.433.4.878.804 1.324 1.204h3.135a8.11 8.11 0 0 1-.963-1.204l-.121-.124c-3.616-4.157-5.426-8.295-5.426-12.413v-.723c.162-3.698 1.289-6.348 3.375-7.956 1.931-1.767 4.102-2.809 6.511-3.131 2.259-.32 5.554 0 9.893.966Z" fill="url(#c)"/><path fill-rule="evenodd" clip-rule="evenodd" d="M102.041 78.505a128.45 128.45 0 0 1-1.325-1.204c-5.065-4.818-7.594-9.158-7.594-13.019 0-4.82 2.734-9.802 8.2-14.945-3.217.804-5.948 2.894-8.2 6.266-2.25 3.054-3.376 6.026-3.376 8.917 0 3.87 2.008 8.17 6.029 12.895.3.344.621.706.963 1.084h2.171c.16.006 1.208.006 3.132.006Zm-20.733-.24v.24H86.85c-.413-.397-.813-.8-1.204-1.204-4.18-4.431-6.273-8.93-6.273-13.5 0-4.34.326-7.23.967-8.676 1.126-2.09 4.017-5.144 8.679-9.157h-.241c-8.2 1.604-12.296 8.193-12.296 19.763 0 3.884 1.29 7.62 3.861 11.208.303.462.625.902.964 1.325ZM64.67 73.201h.237c.804.482 1.608.882 2.412 1.204l7.716 2.894c-.534-.498-1.058-.983-1.566-1.448-6.189-6.081-9.285-10.984-9.285-14.701 0-7.875 3.777-14.304 11.332-19.282l-.726-.244c-9.483 3.376-14.226 10.847-14.226 22.42 0 1.966 1.045 4.538 3.135 7.712.31.481.626.963.97 1.445Z" fill="#AC6630"/><path fill-rule="evenodd" clip-rule="evenodd" d="M58.275 165.76c.918.224 1.924.423 3.018.602 1.026.224 2.152.423 3.376.602 17.843 0 32.39-3.532 43.641-10.603 11.091-7.23 15.916-16.55 14.467-27.96l-.241.244v-.244l-.482-.241-4.098-2.171-.479-.241c-.162 2.249-2.897 6.429-8.2 12.533-4.02 4.821-9.408 7.793-16.156 8.92-2.897.804-5.222.804-6.993 0-1.605-1.127-2.972-2.409-4.098-3.858-.642-1.126-2.012-3.457-4.102-6.989-1.927-3.535-4.017-6.026-6.267-7.471-2.252-1.446-5.306-1.768-9.163-.964-3.861.804-7.637-.403-11.332-3.613-.98-.895-1.823-1.54-2.533-1.931-1.924-1.11-2.767-.306-2.53 2.413.3 3.441 1.505 5.892 3.617 7.353.157.14.32.261.482.359l-.967-4.099c4.665 3.054 8.76 4.421 12.299 4.099 3.373-.319 5.948.244 7.715 1.689 1.768 1.126 3.135 2.731 4.099 4.821 1.126 1.927 1.845 3.855 2.17 5.785.323 1.768.405 3.054.239 3.854-.32 3.213-2.006 4.418-5.063 3.617-2.894-.804-4.983-2.894-6.27-6.266-.159-.479-.322-.925-.481-1.329-1.188-2.49-2.96-3.734-5.306-3.734-1.475-.091-2.601.069-3.376.482-.599.257-1 .658-1.205 1.205l-2.047 3.255-.12.124-1.205-6.511c-1.93 5.625-2.897 9.802-2.897 12.537 0 3.857.325 6.588.966 8.193.642 1.449 1.768 2.653 3.373 3.614 1.107.7 3.154 1.341 6.15 1.924Z" fill="url(#d)"/><path fill-rule="evenodd" clip-rule="evenodd" d="M129.412 111.771h.602l3.616-5.062H93.124c1.751 1.224 2.556 2.35 2.409 3.376v.722c-.049.329-.085.652-.12.964H129.412Z" fill="#99765D"/><path fill-rule="evenodd" clip-rule="evenodd" d="M58.158 101.888h-.24c.159-2.572.4-4.5.722-5.785h-.237c-1.24-1.927-4.138-3.978-8.682-6.146-.759-.358-1.56-.72-2.413-1.084-4.014-1.768-7.074-2.09-9.16-.964-2.569 1.126-3.457 3.776-2.65 7.953.804 6.589 2.168 10.687 4.098 12.292 1.921 1.279 4.773 2.484 8.562 3.617h.361c4.017-.323 6.833-2.572 8.438-6.749a43.793 43.793 0 0 0 1.201-3.134Zm-3.496 1.689c-1.546 5.222-3.714 7.634-6.51 7.23h-.121c-3.535-.963-6.11-2.09-7.715-3.372-1.29-1.127-2.41-4.581-3.376-10.369-.16-1.123-.238-2.086-.238-2.89.16-.645.479-1.127.96-1.45 1.29-1.604 3.943-1.526 7.957.242a61.216 61.216 0 0 1 3.496 1.566c4.294 2.122 6.501 4.092 6.631 5.905l-.237.241a12.956 12.956 0 0 1-.727 2.653v.241h-.12v.003Zm40.748 8.194c.035-.316.071-.638.12-.964v-.722c.147-1.023-.657-2.149-2.409-3.376-2.1-1.462-5.554-3.07-10.372-4.821-6.91-2.572-11.572-3.858-13.984-3.858-1.446 0-2.654.24-3.614.723-.163-.16-.325-.241-.482-.241-1.09 2.018-2.174 3.665-3.255 4.941l-.12.121c0 1.286.078 3.213.24 5.785.32 3.213 2.009 6.344 5.062 9.398 2.898 2.731 7.956 4.58 15.193 5.547 7.458.778 11.996-3.399 13.62-12.533Zm-4.701 7.23c-1.768 3.053-4.743 4.417-8.92 4.098-6.27-.641-10.69-2.249-13.262-4.817-2.572-2.413-4.017-4.822-4.34-7.234 0-.804-.078-1.445-.24-1.93 0-1.768.162-2.972.481-3.617.642-2.246 2.168-3.373 4.58-3.373 2.09 0 6.511 1.286 13.26 3.858 4.941 1.797 8.157 3.285 9.645 4.46.645.498.967.937.967 1.325 0 .159-.078.319-.24.482-.323 2.731-.964 4.98-1.931 6.748Z" fill="#95785E"/><path fill-rule="evenodd" clip-rule="evenodd" d="M36.7 94.172c.159.641.237 1.445.237 2.409 3.213.963 5.629 1.767 7.233 2.409 1.394.407 2.836.93 4.343 1.566a61.214 61.214 0 0 1 4.58 2.291c.612.306 1.14.547 1.566.723h.12v-.241c.323-.807.564-1.689.727-2.653l.237-.241c-.13-1.816-2.337-3.782-6.631-5.905a62.084 62.084 0 0 0-3.496-1.566c-4.014-1.767-6.67-1.846-7.956-.24-.479.325-.801.807-.96 1.448Zm27.243 14.942c6.43.807 10.691 1.527 12.781 2.171 2.572.804 7.237 3.376 13.985 7.716.967-1.768 1.608-4.018 1.93-6.749.163-.163.241-.322.241-.482 0-.387-.322-.826-.967-1.325-1.487-1.175-4.704-2.662-9.645-4.459-6.749-2.572-11.173-3.858-13.26-3.858-2.412 0-3.938 1.126-4.58 3.373-.322.641-.485 1.845-.485 3.613Z" fill="#C7E0E5"/><path fill-rule="evenodd" clip-rule="evenodd" d="M54.662 103.574c-.43-.176-.954-.417-1.566-.723a61.213 61.213 0 0 0-4.58-2.291 41.073 41.073 0 0 0-4.343-1.566c-1.605-.642-4.017-1.446-7.233-2.41 0-.963-.078-1.767-.238-2.408 0 .804.078 1.767.238 2.89.967 5.785 2.09 9.243 3.376 10.369 1.604 1.286 4.18 2.409 7.715 3.372h.12c2.796.398 4.965-2.011 6.51-7.233Zm9.281 5.541c.163.481.24 1.126.24 1.93.323 2.412 1.768 4.821 4.34 7.233 2.572 2.572 6.993 4.177 13.263 4.818 4.176.323 7.152-1.045 8.92-4.098-6.749-4.339-11.414-6.911-13.986-7.715-2.087-.642-6.348-1.361-12.777-2.168Z" fill="#EEFCFF"/></g><defs><linearGradient id="b" x1="131.053" y1="109.999" x2="125.041" y2="126.032" gradientUnits="userSpaceOnUse"><stop stop-color="#391F0A"/><stop offset="1" stop-color="#C59178"/></linearGradient><linearGradient id="c" x1="79.26" y1="64.002" x2="92.469" y2="40.955" gradientUnits="userSpaceOnUse"><stop stop-color="#723F18"/><stop offset="1" stop-color="#AC6630"/></linearGradient><linearGradient id="d" x1="86.573" y1="155.845" x2="84.471" y2="131.986" gradientUnits="userSpaceOnUse"><stop stop-color="#391F0A"/><stop offset="1" stop-color="#C59178"/></linearGradient></defs></svg>