<svg width="48" height="43" fill="none" xmlns="http://www.w3.org/2000/svg"><path d="m29.08 37.448-.158.095-.255.19-.222.224-.16.222-.127.286-.095.286-.032.35V40.755h.064l.127-.095 17.681-10.208V27.716l-16.822 9.732Z" fill="#FFDCA2"/><path d="m28.222 40.66-.127.096h-.064l.032.254.095.191.128.127.159.032h.222l.255-.127.159-.095 18.508-10.685-1.686-.986v.986L28.222 40.66ZM47.589 25.776 21.099 10.48 2.591 21.166l26.49 15.296 18.508-10.684ZM8.76 21.77l12.72-7.283L34.2 21.77l-12.72 7.282L8.76 21.77Z" fill="#FF5100"/><path d="m28.921 41.23-.254.127h-.223l-.159-.032-.127-.127-.095-.19-.032-.255V39.1l.032-.35.095-.286.127-.287.16-.222.222-.223.254-.19.16-.096 16.822-9.731 1.685-.954v-.986L29.08 36.46 2.59 21.164l-.222.127-.413.318-.414.445-.35.51-.254.54-.19.572-.064.54v1.75l.063.477.191.381.254.223 26.49 15.296.35.127.413-.063.414-.16.222-.127 18.508-10.684v-.986L29.08 41.135l-.159.095Z" fill="#D62200"/><path d="M21.384 14.486 8.664 21.77l12.72 7.282 12.72-7.282-12.72-7.283Zm-9.795 7.283 9.795-5.66 9.794 5.66-9.794 5.66-9.795-5.66Z" fill="#D62200"/><path d="m21.385 16.11-9.794 5.66 9.794 5.628 9.795-5.628-9.795-5.66Z" fill="#FF5100"/><path d="m29.366 27.495-.159.095-.254.19-.223.223-.159.255-.127.254-.095.286-.032.35V30.834l.064-.032.127-.096L46.188 20.5v-2.735l-16.822 9.73Z" fill="#FFDCA2"/><path d="m28.508 30.705-.127.095-.064.032.032.223.095.19.286.16h.223l.254-.128.16-.063 18.507-10.717-1.685-.954v.954L28.508 30.705ZM47.874 15.823 21.384.527 2.876 11.244l26.49 15.296 18.508-10.717ZM9.046 11.816l12.72-7.282 12.72 7.282-12.72 7.283-12.72-7.283Z" fill="#099"/><path d="m29.207 31.28-.254.127h-.223l-.159-.031-.127-.127-.096-.191-.031-.223V29.15l.031-.35.096-.286.127-.255.16-.254.222-.223.254-.19.159-.096 16.822-9.73 1.686-.955v-.986L29.366 26.542 2.876 11.246l-.222.095-.414.319-.413.445-.35.508-.286.541-.16.572-.063.541v1.75l.064.476.159.382.286.254 26.49 15.296.35.096.413-.032.413-.191.223-.127 18.508-10.685V20.5L29.366 31.217l-.159.063Z" fill="#007A84"/><path d="m21.671 4.533-12.72 7.282 12.72 7.283 12.72-7.282-12.72-7.283Zm-9.794 7.282 9.794-5.628 9.795 5.628-9.795 5.661-9.794-5.66Z" fill="#007A84"/><path d="m21.671 6.158-9.794 5.66 9.794 5.661 9.794-5.66-9.794-5.66Z" fill="#099"/></svg>