<svg width="63" height="57" viewBox="0 0 63 57" fill="none" xmlns="http://www.w3.org/2000/svg">
<g filter="url(#filter0_d_30_2268)">
<path d="M36.3306 44.4477L36.1717 44.5431L35.9172 44.7339L35.6946 44.9565L35.5356 45.1792L35.4084 45.4654L35.313 45.7515L35.2812 46.1014V47.7232V47.755H35.3448L35.472 47.6596L53.1531 37.4517V36.4659V34.7168L36.3306 44.4477Z" fill="#FFDCA2"/>
<path d="M35.472 47.6586L35.3448 47.7539H35.2812L35.313 48.0083L35.4084 48.1991L35.5356 48.3263L35.6946 48.3582H35.9172L36.1717 48.2309L36.3306 48.1355L54.8385 37.4506L53.1531 36.4648V37.4506L35.472 47.6586Z" fill="#FF5100"/>
<path d="M54.8384 32.7745L28.3486 17.4785L9.84082 28.1635L36.3305 43.4594L54.8384 32.7745ZM16.0101 28.7677L28.7303 21.4854L41.4504 28.7677L28.7303 36.0499L16.0101 28.7677Z" fill="#FF5100"/>
<path d="M36.1709 48.2282L35.9165 48.3554H35.6938L35.5349 48.3236L35.4076 48.1963L35.3122 48.0055L35.2805 47.7512V47.7193V46.0976L35.3122 45.7477L35.4076 45.4615L35.5349 45.1753L35.6938 44.9527L35.9165 44.7301L36.1709 44.5393L36.3299 44.4439L53.1523 34.713L54.8377 33.759V32.7732L36.3299 43.4581L9.84017 28.1621L9.61755 28.2893L9.20413 28.6074L8.79071 29.0525L8.44095 29.5613L8.18649 30.102L7.99569 30.6744L7.93213 31.2149V32.964L7.99569 33.441L8.18649 33.8226L8.44095 34.0452L34.9307 49.3412L35.2805 49.4684L35.6938 49.4048L36.1073 49.2458L36.3299 49.1186L54.8377 38.4337V37.4479L36.3299 48.1328L36.1709 48.2282Z" fill="#D62200"/>
<path d="M28.6333 21.4863L15.9131 28.7686L28.6333 36.0509L41.3534 28.7686L28.6333 21.4863ZM18.8388 28.7686L28.6333 23.1081L38.4278 28.7686L28.6333 34.4291L18.8388 28.7686Z" fill="#D62200"/>
<path d="M28.6353 23.1094L18.8408 28.7698L28.6353 34.3985L38.4299 28.7698L28.6353 23.1094Z" fill="#FF5100"/>
<path d="M36.6158 34.4926L36.4568 34.588L36.2024 34.7788L35.9798 35.0015L35.8208 35.2559L35.6935 35.5103L35.5981 35.7965L35.5664 36.1463V37.7681V37.8317L35.63 37.7999L35.7572 37.7045L53.4382 27.4966V26.5425V24.7617L36.6158 34.4926Z" fill="#FFDCA2"/>
<path d="M35.7572 37.7049L35.63 37.8003L35.5664 37.8322L35.5981 38.0548L35.6935 38.2456L35.9798 38.4046H36.2024L36.4568 38.2773L36.6158 38.2138L55.1236 27.497L53.4382 26.543V27.497L35.7572 37.7049Z" fill="#009999"/>
<path d="M55.1235 22.8233L28.6337 7.52734L10.126 18.2441L36.6157 33.5401L55.1235 22.8233ZM16.2953 18.8165L29.0154 11.5342L41.7356 18.8165L29.0154 26.0988L16.2953 18.8165Z" fill="#009999"/>
<path d="M36.4561 38.2803L36.2016 38.4075H35.9791L35.82 38.3757L35.6928 38.2486L35.5974 38.0578L35.5657 37.8352V37.7715V36.1497L35.5974 35.7999L35.6928 35.5137L35.82 35.2593L35.9791 35.0049L36.2016 34.7822L36.4561 34.5915L36.615 34.4961L53.4375 24.7651L55.1229 23.8112V22.8254L36.615 33.5421L10.1253 18.2461L9.9027 18.3415L9.48928 18.6595L9.07586 19.1047L8.7261 19.6135L8.43991 20.1541L8.28085 20.7265L8.21729 21.2671V23.0162L8.28085 23.4931L8.43991 23.8747L8.7261 24.1292L35.2158 39.4252L35.5657 39.5206L35.9791 39.4887L36.3924 39.298L36.615 39.1707L55.1229 28.4858V27.5L36.615 38.2167L36.4561 38.2803Z" fill="#007A84"/>
<path d="M28.9208 11.5332L16.2007 18.8155L28.9208 26.0978L41.641 18.8155L28.9208 11.5332ZM19.1263 18.8155L28.9208 13.1868L38.7153 18.8155L28.9208 24.476L19.1263 18.8155Z" fill="#007A84"/>
<path d="M28.921 13.1562L19.1265 18.8167L28.921 24.4772L38.7155 18.8167L28.921 13.1562Z" fill="#009999"/>
</g>
<defs>
<filter id="filter0_d_30_2268" x="0.932129" y="0.527344" width="61.1914" height="55.9414" filterUnits="userSpaceOnUse" color-interpolation-filters="sRGB">
<feFlood flood-opacity="0" result="BackgroundImageFix"/>
<feColorMatrix in="SourceAlpha" type="matrix" values="0 0 0 0 0 0 0 0 0 0 0 0 0 0 0 0 0 0 127 0" result="hardAlpha"/>
<feOffset/>
<feGaussianBlur stdDeviation="3.5"/>
<feComposite in2="hardAlpha" operator="out"/>
<feColorMatrix type="matrix" values="0 0 0 0 0 0 0 0 0 0.109927 0 0 0 0 0.325 0 0 0 0.5 0"/>
<feBlend mode="normal" in2="BackgroundImageFix" result="effect1_dropShadow_30_2268"/>
<feBlend mode="normal" in="SourceGraphic" in2="effect1_dropShadow_30_2268" result="shape"/>
</filter>
</defs>
</svg>
