<svg width="64" height="79" fill="none" xmlns="http://www.w3.org/2000/svg"><path d="M63.208 36.065v-.231L2.488.707h-.185L.498 1.748 61.38 36.875v41.907l1.828-1.064V36.065Z" fill="#053D96"/><path d="m44.905 69.301-.51-.276-3.933-2.278-.903-2.508L59.9 75.905l.047.023h.07l.023-.023.023-.046V38.077l-.023-.069-.023-.046-.024-.046-.046-.023-.046-.046-37.395-21.468-.902-2.508L61.52 36.766l.069.069.023.023.046.046.024.046.046.046.023.046v.046l.023.046.023.046v41.232l-.023.139-.023.069-.023.046-.046.046-.024.023-.046.023-.07.023h-.069l-.046-.023-.139-.046-16.383-9.41Z" fill="#629BD6"/><path d="M39.558 64.527 2.256 42.984l-.046-.023-.047-.047-.023-.046-.023-.046-.023-.047V4.757l.023-.046.023-.023h.07l.046.023 20.248 11.686-.903-2.523L.636 1.771l-.07-.046H.475l-.046.023-.023.023v.023l-.023.023-.024.046v41.445l.024.162.023.092.023.093.023.07.046.092.047.07.069.092.046.07.07.045.138.093L27.11 59.344 40.46 67.05l-.903-2.523Z" fill="#4D88C5"/><path d="m60.06 76.21-.023.047-.023.023h-.07l-.046-.023-20.34-11.732-17.054-48.132 37.394 21.59.047.046.046.023.046.093.023.07V76.21Z" fill="#fff"/><path d="m2.256 4.71-.047-.022H2.14l-.023.023-.023.046v38.02l.07.138.045.047.047.023 37.302 21.543-17.055-48.132L2.256 4.712Z" fill="#F8F8F8"/><path fill="#454553" d="m13.845 25.357 34.464 19.898V48.1L13.845 28.202z"/><path fill="#033E84" d="M19.465 33.975 42.69 47.383v2.845L19.465 36.82z"/><path fill="#454553" d="M13.845 40.553 48.309 60.45v2.845L13.845 43.398z"/><circle r="4.108" transform="matrix(.86603 .5 0 1 31.077 29.594)" fill="#033E84"/></svg>