<svg width="78" height="93" viewBox="0 0 78 93" fill="none" xmlns="http://www.w3.org/2000/svg">
<g filter="url(#filter0_d_30_2512)">
<path d="M70.4568 43.0713V42.8399L9.73665 7.71289H9.55152L7.74658 8.75422L68.6287 43.8812V85.7883L70.4568 84.7239V43.0713Z" fill="#053D96"/>
<path d="M52.1544 76.3069L51.6453 76.0308L47.7114 73.7529L46.809 71.2448L67.1493 82.9107L67.1956 82.9337H67.2418H67.265L67.2881 82.9107L67.3113 82.8647V82.8416V45.129V45.083L67.2881 45.0139L67.265 44.9679L67.2418 44.9219L67.1956 44.8989L67.1493 44.8529L29.7545 23.385L28.8521 20.877L68.7691 43.7714L68.8385 43.8405L68.8617 43.8635L68.9079 43.9095L68.9311 43.9555L68.9773 44.0015L69.0005 44.0475V44.0936L69.0236 44.1396L69.0468 44.1856V44.2777V85.4187L69.0236 85.5568L69.0005 85.6258L68.9773 85.6718L68.9311 85.7178L68.9079 85.7409L68.8617 85.7639L68.7923 85.7868H68.7228L68.6765 85.7639L68.5377 85.7178L52.1544 76.3069Z" fill="#629BD6"/>
<path d="M46.8081 71.5294L9.50589 49.9857L9.45963 49.9626L9.41334 49.9163L9.39018 49.87L9.36705 49.8237L9.34392 49.7775V49.7312V11.8042V11.7579L9.36705 11.7116L9.39018 11.6885H9.41334H9.45963L9.50589 11.7116L29.7537 23.3975L28.8512 20.8752L7.88607 8.77285L7.81665 8.72656H7.79353H7.74723H7.72411L7.67782 8.74969L7.65465 8.77285V8.79598L7.63153 8.81911L7.6084 8.8654V8.93482V50.3097L7.63153 50.4717L7.65465 50.5643L7.67782 50.6568L7.70094 50.7262L7.74723 50.8188L7.79353 50.8882L7.86294 50.9808L7.9092 51.0502L7.97865 51.0965L8.11749 51.189L34.3586 66.3459L47.7106 74.0517L46.8081 71.5294Z" fill="#4D88C5"/>
<path d="M67.3104 83.2148L67.2873 83.261L67.2641 83.2842H67.1947L67.1484 83.261L46.8081 71.5289L29.7537 23.3971L67.1484 44.987L67.1947 45.0333L67.241 45.0564L67.2873 45.1489L67.3104 45.2184V83.2148Z" fill="white"/>
<path d="M9.50571 11.7145L9.45946 11.6914H9.39001L9.36688 11.7145L9.34375 11.7608V49.7803L9.41317 49.9192L9.45946 49.9655L9.50571 49.9886L46.8079 71.5323L29.7535 23.4004L9.50571 11.7145Z" fill="#F8F8F8"/>
<rect width="39.7962" height="2.8455" transform="matrix(0.866025 0.5 -2.20305e-08 1 21.0938 32.3574)" fill="#454553"/>
<rect width="26.8161" height="2.8455" transform="matrix(0.866025 0.5 -2.20305e-08 1 26.7144 40.9746)" fill="#033E84"/>
<rect width="39.7962" height="2.8455" transform="matrix(0.866025 0.5 -2.20305e-08 1 21.0938 47.5527)" fill="#454553"/>
<circle r="4.10846" transform="matrix(0.866025 0.5 -2.20305e-08 1 38.3261 36.5943)" fill="#033E84"/>
</g>
<defs>
<filter id="filter0_d_30_2512" x="0.608398" y="0.712891" width="76.8486" height="92.0762" filterUnits="userSpaceOnUse" color-interpolation-filters="sRGB">
<feFlood flood-opacity="0" result="BackgroundImageFix"/>
<feColorMatrix in="SourceAlpha" type="matrix" values="0 0 0 0 0 0 0 0 0 0 0 0 0 0 0 0 0 0 127 0" result="hardAlpha"/>
<feOffset/>
<feGaussianBlur stdDeviation="3.5"/>
<feComposite in2="hardAlpha" operator="out"/>
<feColorMatrix type="matrix" values="0 0 0 0 0 0 0 0 0 0.109927 0 0 0 0 0.325 0 0 0 0.5 0"/>
<feBlend mode="normal" in2="BackgroundImageFix" result="effect1_dropShadow_30_2512"/>
<feBlend mode="normal" in="SourceGraphic" in2="effect1_dropShadow_30_2512" result="shape"/>
</filter>
</defs>
</svg>
