<svg width="29" height="32" viewBox="0 0 29 32" fill="none" xmlns="http://www.w3.org/2000/svg">
<g filter="url(#filter0_d_30_1945)">
<path d="M19.5866 10.9518C19.5706 11.263 19.4931 11.5679 19.3584 11.8489C19.2236 12.1299 19.0345 12.3813 18.8019 12.5886C17.3693 13.6638 15.6265 14.2451 13.8353 14.2451C12.0441 14.2451 10.3013 13.6638 8.86871 12.5886C8.62826 12.3831 8.43404 12.1289 8.29878 11.843C8.16352 11.557 8.09035 11.2456 8.08398 10.9293C8.08398 9.11313 10.6625 7.61083 13.8465 7.61083C14.8601 7.53283 15.8779 7.69527 16.8169 8.0849C17.7559 8.47453 18.5897 9.08035 19.2503 9.85308C19.4073 10.115 19.5138 10.404 19.5643 10.7051C19.5643 10.7051 19.5866 10.8621 19.5866 10.9518ZM19.0485 10.9518C19.0485 10.9518 19.0485 10.9518 19.0485 10.7724C18.8916 9.20283 16.6269 7.94716 13.8689 7.94716C11.111 7.94716 8.82388 9.20283 8.66692 10.7724V10.9518C8.66522 11.4206 8.83235 11.8742 9.13777 12.2298C10.4573 13.3457 12.1296 13.958 13.8577 13.958C15.5858 13.958 17.2581 13.3457 18.5777 12.2298C18.8797 11.8722 19.0463 11.4199 19.0485 10.9518Z" fill="#EAEAF1"/>
<path d="M18.5547 12.23C17.9757 11.6682 17.2913 11.2265 16.5409 10.9302C15.7905 10.6339 14.989 10.4889 14.1823 10.5034H13.4872C12.6806 10.4889 11.8791 10.6339 11.1287 10.9302C10.3784 11.2265 9.69398 11.6682 9.11491 12.23C8.80949 11.8743 8.64235 11.4207 8.64406 10.9519V10.7725C8.80101 9.20294 11.0656 7.94727 13.846 7.94727C16.6264 7.94727 18.8686 9.20294 19.0256 10.7725C19.0256 10.7725 19.0256 10.7725 19.0256 10.9519C19.0234 11.42 18.8567 11.8723 18.5547 12.23Z" fill="#BFBFD2"/>
<path d="M14.1827 10.5069C14.9893 10.4923 15.7909 10.6374 16.5412 10.9337C17.2916 11.23 17.976 11.6717 18.5551 12.2334C17.2355 13.3492 15.5632 13.9615 13.8351 13.9615C12.107 13.9615 10.4348 13.3492 9.11523 12.2334C9.69431 11.6717 10.3787 11.23 11.1291 10.9337C11.8794 10.6374 12.6809 10.4923 13.4876 10.5069H14.1827Z" fill="#7A3D00"/>
<path d="M19.7662 15.9505C20.2214 15.3674 20.5452 14.6929 20.7155 13.973C20.8857 13.2532 20.8985 12.5051 20.7528 11.7799C20.6766 11.5066 20.5245 11.2604 20.3142 11.07C20.1039 10.8795 19.8439 10.7525 19.5644 10.7036C19.5139 10.4025 19.4074 10.1135 19.2505 9.85156C19.645 9.96095 19.9969 10.1877 20.2595 10.5018C20.5998 10.875 20.8463 11.3239 20.9789 11.8112C21.1115 12.2985 21.1262 12.8104 21.0219 13.3046C20.8312 14.3525 20.4015 15.3423 19.7662 16.1971V15.9505Z" fill="#17C8FF"/>
<path d="M20.6625 11.7804C20.8082 12.5056 20.7954 13.2537 20.6252 13.9736C20.4549 14.6934 20.1311 15.3679 19.6759 15.951C19.6759 13.7087 19.4966 11.2199 19.4966 10.9732C19.4966 10.9732 19.4966 10.8163 19.4966 10.7266C19.7693 10.7774 20.0225 10.9028 20.2283 11.0889C20.4341 11.2749 20.5844 11.5142 20.6625 11.7804Z" fill="#0089CE"/>
<path d="M19.9001 20.5488C19.9001 21.3336 19.1825 24.7194 13.846 24.7194C12.9287 24.8043 12.0039 24.6878 11.1363 24.3779C10.2687 24.0681 9.47936 23.5724 8.82339 22.9256C8.24511 22.2548 7.87841 21.4278 7.76953 20.5488C7.94353 21.3926 8.43264 22.1383 9.13727 22.6341C10.5306 23.549 12.1821 23.9894 13.846 23.8897C18.4202 23.8897 19.7655 21.6251 19.9001 20.5488Z" fill="#0098DB"/>
<path d="M19.9001 20.3912V20.5258C19.7655 21.602 18.3977 23.8667 13.846 23.8667C12.1821 23.9664 10.5306 23.526 9.13727 22.6111C8.43264 22.1153 7.94353 21.3696 7.76953 20.5258C7.76953 19.5392 8.08348 11.0859 8.08348 11.0859C8.08984 11.4022 8.16302 11.7136 8.29827 11.9996C8.43353 12.2855 8.62775 12.5396 8.86821 12.7452C10.3008 13.8204 12.0436 14.4016 13.8348 14.4016C15.6259 14.4016 17.3688 13.8204 18.8014 12.7452C19.034 12.5379 19.2231 12.2864 19.3579 12.0054C19.4926 11.7245 19.5701 11.4195 19.5861 11.1083C19.5861 11.355 19.5862 13.7542 19.7655 16.0861V16.3328C19.8552 18.1266 19.9001 19.9652 19.9001 20.3912Z" fill="#00ADEF"/>
</g>
<defs>
<filter id="filter0_d_30_1945" x="0.769531" y="0.591797" width="27.3208" height="31.1543" filterUnits="userSpaceOnUse" color-interpolation-filters="sRGB">
<feFlood flood-opacity="0" result="BackgroundImageFix"/>
<feColorMatrix in="SourceAlpha" type="matrix" values="0 0 0 0 0 0 0 0 0 0 0 0 0 0 0 0 0 0 127 0" result="hardAlpha"/>
<feOffset/>
<feGaussianBlur stdDeviation="3.5"/>
<feComposite in2="hardAlpha" operator="out"/>
<feColorMatrix type="matrix" values="0 0 0 0 0 0 0 0 0 0.109927 0 0 0 0 0.325 0 0 0 0.5 0"/>
<feBlend mode="normal" in2="BackgroundImageFix" result="effect1_dropShadow_30_1945"/>
<feBlend mode="normal" in="SourceGraphic" in2="effect1_dropShadow_30_1945" result="shape"/>
</filter>
</defs>
</svg>
