<svg width="14" height="18" fill="none" xmlns="http://www.w3.org/2000/svg"><path d="M12.337 3.954a2.353 2.353 0 0 1-.785 1.637 8.274 8.274 0 0 1-9.933 0 2.242 2.242 0 0 1-.785-1.66C.834 2.115 3.413.613 6.597.613a6.458 6.458 0 0 1 5.404 2.242c.157.262.263.551.314.852 0 0 .022.157.022.247Zm-.538 0v-.18C11.642 2.204 9.377.95 6.619.95c-2.758 0-5.045 1.256-5.202 2.825v.18a1.95 1.95 0 0 0 .471 1.278 7.31 7.31 0 0 0 9.44 0c.302-.358.469-.81.471-1.278Z" fill="#EAEAF1"/><path d="M11.306 5.232a6.122 6.122 0 0 0-4.373-1.727h-.695a6.121 6.121 0 0 0-4.372 1.727 1.95 1.95 0 0 1-.471-1.278v-.18C1.552 2.204 3.817.95 6.597.95s5.023 1.256 5.18 2.825v.18c-.003.468-.17.92-.471 1.278Z" fill="#BFBFD2"/><path d="M6.933 3.507a6.121 6.121 0 0 1 4.373 1.726 7.31 7.31 0 0 1-9.44 0 6.121 6.121 0 0 1 4.372-1.726h.695Z" fill="#7A3D00"/><path d="M12.516 8.952a5.134 5.134 0 0 0 .987-4.17 1.502 1.502 0 0 0-1.189-1.076 2.445 2.445 0 0 0-.313-.852c.394.109.746.336 1.008.65a3.184 3.184 0 0 1 .763 2.803 6.93 6.93 0 0 1-1.256 2.892v-.247Z" fill="#17C8FF"/><path d="M13.413 4.784a5.135 5.135 0 0 1-.987 4.17c0-2.241-.179-4.73-.179-4.977V3.73a1.502 1.502 0 0 1 1.166 1.054Z" fill="#0089CE"/><path d="M12.65 13.55c0 .786-.717 4.171-6.054 4.171a6.324 6.324 0 0 1-5.022-1.793A4.485 4.485 0 0 1 .52 13.55c.174.844.663 1.59 1.368 2.085a7.736 7.736 0 0 0 4.708 1.256c4.575 0 5.92-2.265 6.055-3.341Z" fill="#0098DB"/><path d="M12.65 13.393v.135c-.134 1.076-1.502 3.34-6.054 3.34a7.737 7.737 0 0 1-4.708-1.255A3.386 3.386 0 0 1 .52 13.528c0-.987.314-9.44.314-9.44a2.242 2.242 0 0 0 .785 1.66 8.274 8.274 0 0 0 9.933 0 2.354 2.354 0 0 0 .785-1.638c0 .247 0 2.646.179 4.978v.247c.09 1.793.135 3.632.135 4.058Z" fill="#00ADEF"/></svg>