<svg width="156" height="127" viewBox="0 0 156 127" fill="none" xmlns="http://www.w3.org/2000/svg">
<g filter="url(#filter0_d_30_2588)">
<rect width="132.642" height="5.07495" transform="matrix(0.866025 0.5 -2.20305e-08 1 7.38867 48.3926)" fill="#EDEDED"/>
<rect width="132.642" height="30.361" transform="matrix(0.866025 0.5 -0.866025 0.5 33.6816 33.2109)" fill="#F6F6F6"/>
<path d="M122.26 114.723L148.464 99.4823L148.464 104.546L122.26 119.787L122.26 114.723Z" fill="#E3E3E3"/>
<g filter="url(#filter1_d_30_2588)">
<path d="M120.898 93.1107C120.606 91.0627 119.915 89.092 118.864 87.3102C117.008 84.3309 117.062 82.1131 117.062 82.1131C117.062 81.2809 116.5 80.4487 115.398 79.7913C113.176 78.5097 109.572 78.5097 107.383 79.7913C106.281 80.4321 105.719 81.2726 105.719 82.1131C105.719 82.1131 105.773 84.3309 103.921 87.3102C102.883 89.067 102.197 91.0087 101.899 93.0275C101.512 94.6919 102.419 96.4354 104.633 97.7128C108.378 99.8807 114.457 99.8807 118.19 97.7128C120.337 96.4562 121.231 94.7501 120.898 93.1107Z" fill="#2F2F2F"/>
</g>
<circle r="4.67209" transform="matrix(0.866025 -0.5 0.866025 0.5 111.39 82.1992)" fill="black"/>
<path d="M103.547 74.5199L101.802 51.1562L120.975 62.2259L119.228 83.5698L111.377 81.5233L103.547 74.5199Z" fill="#E44F26"/>
<path d="M111.39 79.6312L117.734 81.2843L119.227 63.0445L111.39 58.5195L111.39 79.6312Z" fill="#F1672A"/>
<path d="M111.389 66.8131L108.213 64.9793L107.994 62.0455L111.389 64.0055L111.389 61.2635L111.38 61.2585L105.371 57.7891L105.429 58.5578L106.018 66.4541L111.389 69.5551L111.389 66.8131Z" fill="#EBEBEB"/>
<path d="M111.389 73.9315L111.379 73.929L108.706 71.5613L108.535 69.2755L107.236 68.5254L106.126 67.8848L106.462 72.384L111.378 76.7818L111.389 76.7852L111.389 73.9315Z" fill="#EBEBEB"/>
<path d="M111.38 66.8066L111.38 69.5486L114.337 71.2556L114.058 74.651L111.38 73.9309L111.38 76.7829L116.302 78.066L116.338 77.6237L116.901 70.7312L116.96 70.028L116.313 69.6545L111.38 66.8066Z" fill="white"/>
<path d="M111.38 61.2559L111.38 62.9585L111.38 63.9913L111.38 63.9979L117.171 67.3411L117.178 67.3453L117.226 66.757L117.336 65.4302L117.394 64.7278L111.38 61.2559Z" fill="white"/>
<path d="M120.857 62.1785L122.193 61.4071L120.564 82.7984L119.228 83.5698L120.857 62.1785Z" fill="#C43812"/>
<path d="M103.285 50.4154L122.194 61.408L120.858 62.1795L101.805 51.1577L103.285 50.4154Z" fill="#F1672A"/>
<path d="M101.844 38.6191L120.897 49.6311L120.897 58.0156L101.87 47.0326L101.844 38.6191Z" fill="#F1F1F1"/>
<path d="M120.896 49.6348L122.073 48.9558L122.073 57.3393L120.896 58.0183L120.896 49.6348Z" fill="#C4C4C4"/>
<path d="M103.168 37.9565L122.084 48.9449L120.896 49.6307L101.842 38.6101L103.168 37.9565Z" fill="#FEFEFE"/>
<path d="M103.561 41.752L104.781 42.4565L104.781 43.8324L105.902 44.4796L105.902 43.1037L107.123 43.8082L107.123 47.977L105.902 47.2725L105.902 45.8769L104.781 45.2297L104.781 46.6253L103.561 45.9208L103.561 41.752Z" fill="#010101"/>
<path d="M108.721 46.1137L107.647 45.4938L107.647 44.1113L111.015 46.0556L111.015 47.4381L109.941 46.8182L109.941 49.6094L108.721 48.9049L108.721 46.1137Z" fill="#010101"/>
<path d="M111.55 46.363L112.822 47.0974L113.604 49.0134L114.383 47.9985L115.655 48.7329L115.655 52.9017L114.44 52.2005L114.44 50.1334L113.601 51.1265L113.581 51.1149L112.74 49.1517L112.74 51.2189L111.547 50.5301L111.55 46.363Z" fill="#010101"/>
<path d="M116.265 49.0859L117.485 49.7904L117.485 52.5817L119.2 53.5717L119.2 54.9492L116.265 53.2548L116.265 49.0859Z" fill="#010101"/>
<g filter="url(#filter2_d_30_2588)">
<path d="M83.7682 72.2993C83.4851 70.3151 82.8152 68.4056 81.7968 66.6793C79.9987 63.7927 80.0511 61.6438 80.0511 61.6438C80.0511 60.8375 79.5068 60.0312 78.4385 59.3942C76.2856 58.1525 72.7942 58.1525 70.6736 59.3942C69.6052 60.0151 69.061 60.8294 69.061 61.6438C69.061 61.6438 69.1133 63.7927 67.3193 66.6793C66.3135 68.3814 65.648 70.2627 65.3599 72.2187C64.985 73.8314 65.8639 75.5206 68.0087 76.7583C71.6372 78.8588 77.5273 78.8588 81.1437 76.7583C83.224 75.5408 84.0908 73.8878 83.7682 72.2993Z" fill="#2F2F2F"/>
</g>
<circle r="4.52677" transform="matrix(0.866025 -0.5 0.866025 0.5 74.5545 61.7266)" fill="black"/>
<path d="M84.2324 29.5293L85.3765 28.8688L85.3765 37.024L84.2324 37.6845L84.2324 29.5293Z" fill="#C4C4C4"/>
<path d="M65.6987 18.8125L84.2327 29.5245L84.2327 37.6806L65.7245 26.9968L65.6987 18.8125Z" fill="#F1F1F1"/>
<path d="M66.9866 18.1678L85.3873 28.8569L84.2319 29.5241L65.6964 18.8036L66.9866 18.1678Z" fill="#FEFEFE"/>
<path d="M70.0726 26.0965L70.0726 24.7662L71.7642 25.7428L71.7642 24.2742L68.8027 22.5645L68.8027 26.6974L71.7642 28.4072L71.7642 27.0731L70.0726 26.0965ZM74.8083 27.5004L75.9907 28.183L75.9907 26.7144L73.0357 25.0084L73.0357 26.4769C73.4314 27.1613 73.639 27.4997 74.2115 28.4898L73.0357 27.811L73.0357 29.145L75.9971 30.8548L75.9971 29.517L74.8083 27.5004ZM79.0056 29.9237L80.1879 30.6063L80.1879 29.1377L77.2265 27.4279L77.2265 28.8965C77.6222 29.5808 77.8298 29.9193 78.4023 30.9094L77.2265 30.2305L77.2265 31.5646L80.1879 33.2744L80.1879 31.9366L79.0056 29.9237Z" fill="#010101"/>
<path d="M82.3485 63.2065L74.554 61.1241L66.7595 54.2062L64.9609 30.7188L84.1471 41.7959L82.3485 63.2065Z" fill="#2363AF"/>
<path d="M74.5547 38.0723L74.5547 59.1854L74.5725 59.1957L80.8798 60.8921L82.3394 42.5668L74.5547 38.0723Z" fill="#3D9CD6"/>
<path d="M74.5547 43.6868L68.9756 43.1432L69.1605 45.8994L74.5547 46.3568L80.291 46.8437L80.5295 44.2702L74.5547 43.6868Z" fill="white"/>
<path d="M68.9692 43.1403L69.1541 45.8965L74.5548 46.3577L74.5548 43.6877L68.9692 43.1403Z" fill="url(#paint0_linear_30_2588)"/>
<path d="M80.523 44.2661L74.5547 43.6865L74.5547 46.3564L80.2911 46.8433L80.523 44.2661Z" fill="url(#paint1_linear_30_2588)"/>
<path d="M68.9766 43.1445L69.1615 45.9007L77.4327 50.706L77.2479 54.1343L74.5248 53.4441L71.9072 51.1723L71.745 48.8852L69.3123 47.4806L69.6366 51.9017L74.554 56.4224L79.4454 57.6022L80.0796 49.5605L68.9766 43.1445Z" fill="url(#paint2_linear_30_2588)"/>
<path opacity="0.05" d="M74.5547 46.3617L68.9756 43.1406L69.1605 45.8968L74.5547 49.0317L74.5547 46.3617ZM74.5547 53.4505L74.5271 53.4346L71.9111 51.1638L71.7489 48.8766L69.3162 47.4721L69.6405 51.8932L74.5579 56.4138L74.5547 53.4505Z" fill="#010101"/>
<path d="M68.4658 37.3047L80.5225 44.2656L80.284 46.839L68.7577 40.1843L68.4658 37.3047Z" fill="url(#paint3_linear_30_2588)"/>
<path opacity="0.05" d="M74.5545 40.8219L68.4727 37.3105L68.7646 40.1902L74.5545 43.533L74.5545 40.8219Z" fill="#010101"/>
<path d="M84.1269 41.8018L85.4215 41.0544L83.6066 62.4894L82.312 63.2368L84.1269 41.8018Z" fill="#0C4D9B"/>
<path d="M66.347 29.9577L85.422 41.0566L84.1274 41.804L64.9614 30.7173L66.347 29.9577Z" fill="#3D9CD6"/>
<g filter="url(#filter3_d_30_2588)">
<path d="M48.4132 52.1136C48.1384 50.1882 47.4885 48.3354 46.5002 46.6603C44.7555 43.8592 44.8063 41.7741 44.8063 41.7741C44.8063 40.9917 44.2782 40.2093 43.2415 39.5912C41.1525 38.3863 37.7646 38.3863 35.7069 39.5912C34.6702 40.1936 34.1421 40.9839 34.1421 41.7741C34.1421 41.7741 34.1929 43.8592 32.452 46.6603C31.4761 48.3119 30.8304 50.1374 30.5508 52.0354C30.187 53.6002 31.0398 55.2394 33.121 56.4404C36.6419 58.4786 42.3574 58.4786 45.8665 56.4404C47.8851 55.2589 48.7262 53.655 48.4132 52.1136Z" fill="#2F2F2F"/>
</g>
<circle r="4.39254" transform="matrix(0.866025 -0.5 0.866025 0.5 39.4733 41.8555)" fill="black"/>
<path d="M31.5863 34.5874L30.1191 13.0352L47.6414 23.1932L46.09 42.9611L38.9464 41.2252L31.5863 34.5874Z" fill="#E9CA32"/>
<path d="M38.9453 39.2275L38.9453 20.1055L46.1611 24.2992L44.8743 40.6647L38.9453 39.2275Z" fill="#FFDE25"/>
<path d="M38.1729 21.929L36.2652 20.8276L36.2652 33.5548L34.7815 32.3718L34.7815 30.6585L33.0151 29.3124L33.0151 33.1469L38.1729 37.6748L38.1729 21.929ZM39.6039 22.7552L44.885 25.8043L44.5318 28.0397L41.62 26.3585L41.62 30.3616L44.5318 32.0427L44.1785 39.9184L39.6039 38.501L39.6039 35.9719L42.6948 36.5326L42.8732 33.2907L39.6039 31.9498L39.6039 22.7552Z" fill="white"/>
<path d="M47.5951 23.1951L48.83 22.4822L47.3242 42.2524L46.0894 42.9654L47.5951 23.1951Z" fill="#D5B51A"/>
<path d="M31.354 12.3223L48.8298 22.4819L47.595 23.1948L30.1191 13.0352L31.354 12.3223Z" fill="#FFDE25"/>
</g>
<defs>
<filter id="filter0_d_30_2588" x="0.388184" y="0.369141" width="155.165" height="126.42" filterUnits="userSpaceOnUse" color-interpolation-filters="sRGB">
<feFlood flood-opacity="0" result="BackgroundImageFix"/>
<feColorMatrix in="SourceAlpha" type="matrix" values="0 0 0 0 0 0 0 0 0 0 0 0 0 0 0 0 0 0 127 0" result="hardAlpha"/>
<feOffset/>
<feGaussianBlur stdDeviation="3.5"/>
<feComposite in2="hardAlpha" operator="out"/>
<feColorMatrix type="matrix" values="0 0 0 0 0 0 0 0 0 0.109927 0 0 0 0 0.325 0 0 0 0.5 0"/>
<feBlend mode="normal" in2="BackgroundImageFix" result="effect1_dropShadow_30_2588"/>
<feBlend mode="normal" in="SourceGraphic" in2="effect1_dropShadow_30_2588" result="shape"/>
</filter>
<filter id="filter1_d_30_2588" x="100.986" y="78.0034" width="20.8071" height="22.1612" filterUnits="userSpaceOnUse" color-interpolation-filters="sRGB">
<feFlood flood-opacity="0" result="BackgroundImageFix"/>
<feColorMatrix in="SourceAlpha" type="matrix" values="0 0 0 0 0 0 0 0 0 0 0 0 0 0 0 0 0 0 127 0" result="hardAlpha"/>
<feOffset/>
<feGaussianBlur stdDeviation="0.413335"/>
<feComposite in2="hardAlpha" operator="out"/>
<feColorMatrix type="matrix" values="0 0 0 0 0 0 0 0 0 0.180392 0 0 0 0 0.533333 0 0 0 1 0"/>
<feBlend mode="normal" in2="BackgroundImageFix" result="effect1_dropShadow_30_2588"/>
<feBlend mode="normal" in="SourceGraphic" in2="effect1_dropShadow_30_2588" result="shape"/>
</filter>
<filter id="filter2_d_30_2588" x="64.4492" y="57.6362" width="20.2114" height="21.5244" filterUnits="userSpaceOnUse" color-interpolation-filters="sRGB">
<feFlood flood-opacity="0" result="BackgroundImageFix"/>
<feColorMatrix in="SourceAlpha" type="matrix" values="0 0 0 0 0 0 0 0 0 0 0 0 0 0 0 0 0 0 127 0" result="hardAlpha"/>
<feOffset/>
<feGaussianBlur stdDeviation="0.413335"/>
<feComposite in2="hardAlpha" operator="out"/>
<feColorMatrix type="matrix" values="0 0 0 0 0 0 0 0 0 0.180392 0 0 0 0 0.533333 0 0 0 1 0"/>
<feBlend mode="normal" in2="BackgroundImageFix" result="effect1_dropShadow_30_2588"/>
<feBlend mode="normal" in="SourceGraphic" in2="effect1_dropShadow_30_2588" result="shape"/>
</filter>
<filter id="filter3_d_30_2588" x="29.6426" y="37.8608" width="19.6612" height="20.9346" filterUnits="userSpaceOnUse" color-interpolation-filters="sRGB">
<feFlood flood-opacity="0" result="BackgroundImageFix"/>
<feColorMatrix in="SourceAlpha" type="matrix" values="0 0 0 0 0 0 0 0 0 0 0 0 0 0 0 0 0 0 127 0" result="hardAlpha"/>
<feOffset/>
<feGaussianBlur stdDeviation="0.413335"/>
<feComposite in2="hardAlpha" operator="out"/>
<feColorMatrix type="matrix" values="0 0 0 0 0 0 0 0 0 0.180392 0 0 0 0 0.533333 0 0 0 1 0"/>
<feBlend mode="normal" in2="BackgroundImageFix" result="effect1_dropShadow_30_2588"/>
<feBlend mode="normal" in="SourceGraphic" in2="effect1_dropShadow_30_2588" result="shape"/>
</filter>
<linearGradient id="paint0_linear_30_2588" x1="72.0559" y1="48.0179" x2="74.3608" y2="44.0256" gradientUnits="userSpaceOnUse">
<stop offset="0.39" stop-color="#D2D3D4" stop-opacity="0"/>
<stop offset="1" stop-color="#D2D3D4"/>
</linearGradient>
<linearGradient id="paint1_linear_30_2588" x1="-5959.59" y1="-10777.4" x2="-5944.27" y2="-10803.9" gradientUnits="userSpaceOnUse">
<stop offset="0.39" stop-color="#D2D3D4" stop-opacity="0"/>
<stop offset="1" stop-color="#D2D3D4"/>
</linearGradient>
<linearGradient id="paint2_linear_30_2588" x1="69.2783" y1="48.7896" x2="80.378" y2="48.7896" gradientUnits="userSpaceOnUse">
<stop stop-color="#E8E7E5"/>
<stop offset="1" stop-color="white"/>
</linearGradient>
<linearGradient id="paint3_linear_30_2588" x1="-12266.3" y1="-10689" x2="-12073.3" y2="-10689" gradientUnits="userSpaceOnUse">
<stop stop-color="#E8E7E5"/>
<stop offset="1" stop-color="white"/>
</linearGradient>
</defs>
</svg>
