<svg width="142" height="113" fill="none" xmlns="http://www.w3.org/2000/svg"><path fill="#EDEDED" d="m.107 41.23 114.871 66.322v5.074L.107 46.306z"/><path fill="#F6F6F6" d="m26.4 26.049 114.87 66.32-26.293 15.181L.106 41.23z"/><path d="m114.978 107.561 26.204-15.24v5.063l-26.204 15.241v-5.064Z" fill="#E3E3E3"/><g clip-path="url(#a)"><path d="M113.618 85.947a15.828 15.828 0 0 0-2.035-5.8c-1.856-2.98-1.802-5.198-1.802-5.198 0-.832-.561-1.664-1.664-2.322-2.222-1.281-5.826-1.281-8.014 0-1.103.641-1.665 1.482-1.665 2.322 0 0 .054 2.218-1.797 5.197a15.748 15.748 0 0 0-2.023 5.717c-.386 1.665.52 3.408 2.734 4.686 3.745 2.168 9.824 2.168 13.557 0 2.147-1.257 3.042-2.963 2.709-4.602Z" fill="#2F2F2F"/><circle r="4.672" transform="matrix(.86603 -.5 .86603 .5 104.108 75.037)" fill="#000"/><path d="m96.267 67.358-1.745-23.364 19.173 11.07-1.748 21.344-7.85-2.047-7.83-7.003Z" fill="#E44F26"/><path d="m104.108 72.47 6.345 1.652 1.493-18.24-7.838-4.525V72.47Z" fill="#F1672A"/><path d="m104.108 59.65-3.176-1.835-.219-2.934 3.395 1.96V54.1l-.008-.005-6.01-3.469.058.769.59 7.896 5.37 3.101V59.65ZM104.108 66.77l-.01-.003-2.673-2.368-.171-2.286-1.3-.75-1.109-.64.337 4.499 4.915 4.398.011.003v-2.854Z" fill="#EBEBEB"/><path d="M104.1 59.645v2.741l2.956 1.707-.279 3.396-2.677-.72v2.852l4.921 1.283.036-.442.563-6.893.059-.703-.647-.374-4.932-2.847ZM104.1 54.096v2.742l5.79 3.343.008.004.047-.588.111-1.327.057-.702-6.013-3.472Z" fill="#fff"/><path d="m113.576 55.016 1.337-.771-1.63 21.391-1.336.772 1.629-21.392Z" fill="#C43812"/><path d="m96.004 43.253 18.909 10.993-1.337.771-19.052-11.022 1.48-.742Z" fill="#F1672A"/><path d="m94.561 31.46 19.053 11.013v8.384L94.588 39.874l-.026-8.413Z" fill="#F1F1F1"/><path d="m113.615 42.475 1.176-.68v8.384l-1.176.68v-8.384Z" fill="#C4C4C4"/><path d="m95.887 30.798 18.916 10.989-1.188.685-19.055-11.02 1.327-.654Z" fill="#FEFEFE"/><path d="m96.28 34.592 1.22.704v1.376l1.121.648v-1.376l1.22.704v4.169l-1.22-.705v-1.395l-1.121-.648v1.396l-1.22-.704v-4.17ZM101.439 38.952l-1.073-.62v-1.383l3.367 1.945v1.382l-1.073-.62v2.791l-1.221-.704v-2.791ZM104.268 39.203l1.272.734.782 1.916.779-1.015 1.272.735v4.169l-1.215-.702v-2.067l-.839.993-.02-.011-.841-1.963v2.067l-1.193-.689.003-4.167ZM108.984 41.926l1.22.704v2.791l1.715.99v1.378l-2.935-1.694v-4.17Z" fill="#010101"/></g><g clip-path="url(#b)"><path d="M76.487 65.131a15.32 15.32 0 0 0-1.972-5.62c-1.798-2.886-1.746-5.035-1.746-5.035 0-.806-.544-1.613-1.612-2.25-2.153-1.242-5.644-1.242-7.765 0-1.069.621-1.613 1.435-1.613 2.25 0 0 .053 2.149-1.742 5.035a15.26 15.26 0 0 0-1.959 5.54c-.375 1.612.504 3.302 2.649 4.54 3.628 2.1 9.519 2.1 13.135 0 2.08-1.218 2.947-2.871 2.625-4.46Z" fill="#2F2F2F"/><circle r="4.527" transform="matrix(.86603 -.5 .86603 .5 67.273 54.56)" fill="#000"/><path d="m75.067 56.04-7.794-2.082-7.795-6.918-1.798-23.487L76.866 34.63l-1.799 21.41Z" fill="#2363AF"/><path d="M67.273 30.908v21.113l.018.01 6.307 1.697 1.46-18.325-7.785-4.495Z" fill="#3D9CD6"/><path d="m67.273 36.52-5.58-.543.186 2.756 5.394.458 5.736.487.239-2.574-5.975-.583Z" fill="#fff"/><path d="m61.688 35.974.184 2.757 5.401.46v-2.67l-5.585-.547Z" fill="url(#c)"/><path d="m73.241 37.1-5.968-.58v2.67l5.736.487.232-2.577Z" fill="url(#d)"/><path d="m61.695 35.978.185 2.757 8.271 4.805-.184 3.428-2.723-.69-2.618-2.272-.162-2.287-2.433-1.404.324 4.42 4.918 4.521 4.891 1.18.634-8.042-11.103-6.416Z" fill="url(#e)"/><path opacity=".05" d="m67.273 39.198-5.58-3.221.186 2.756 5.394 3.135v-2.67Zm0 7.088-.028-.016L64.63 44l-.162-2.288-2.433-1.404.325 4.421 4.917 4.52-.003-2.963Z" fill="#010101"/><path d="m61.185 30.139 12.056 6.96-.238 2.574-11.526-6.655-.292-2.88Z" fill="url(#f)"/><path opacity=".05" d="m67.273 33.654-6.082-3.511.292 2.88 5.79 3.342v-2.711Z" fill="#010101"/><path d="M58.416 11.645 76.95 22.357v8.156L58.442 19.829l-.026-8.184Z" fill="#F1F1F1"/><path d="m76.95 22.36 1.144-.661v8.155l-1.144.66V22.36Z" fill="#C4C4C4"/><path d="m59.705 11 18.4 10.689-1.155.667-18.535-10.72 1.29-.636Z" fill="#FEFEFE"/><path d="M62.79 18.93V17.6l1.691.977v-1.469l-2.961-1.71v4.133l2.961 1.71v-1.334l-1.691-.977Zm4.736 1.404 1.182.683v-1.469l-2.955-1.706v1.469c.396.684.603 1.023 1.176 2.013l-1.176-.679v1.334l2.961 1.71V22.35l-1.188-2.017Zm4.197 2.424 1.182.682v-1.468l-2.961-1.71v1.468c.395.685.603 1.023 1.176 2.013l-1.176-.678v1.334l2.961 1.71V24.77l-1.182-2.013Z" fill="#010101"/><path d="m76.846 34.638 1.294-.748-1.815 21.435-1.294.748 1.815-21.435Z" fill="#0C4D9B"/><path d="M59.065 22.792 78.14 33.89l-1.294.747L57.68 23.551l1.385-.76Z" fill="#3D9CD6"/></g><g clip-path="url(#g)"><path d="M41.132 44.948a14.868 14.868 0 0 0-1.913-5.454c-1.745-2.8-1.694-4.886-1.694-4.886 0-.782-.528-1.565-1.565-2.183-2.089-1.205-5.477-1.205-7.534 0-1.037.603-1.565 1.393-1.565 2.183 0 0 .05 2.085-1.69 4.886a14.808 14.808 0 0 0-1.901 5.375c-.364 1.565.489 3.204 2.57 4.405 3.52 2.038 9.236 2.038 12.745 0 2.019-1.181 2.86-2.785 2.547-4.326Z" fill="#2F2F2F"/><circle r="4.393" transform="matrix(.86603 -.5 .86603 .5 32.192 34.69)" fill="#000"/><path d="M24.304 27.423 22.836 5.871 40.36 16.03l-1.552 19.768-7.143-1.736-7.36-6.638Z" fill="#E9CA32"/><path d="M31.664 32.062V12.94l7.215 4.193L37.593 33.5l-5.93-1.438Z" fill="#FFDE25"/><path d="m30.89 14.763-1.907-1.101v12.727l-1.484-1.183v-1.713l-1.766-1.347v3.835l5.158 4.528V14.763Zm1.432.826 5.28 3.05-.352 2.235-2.912-1.681v4.003l2.911 1.68-.353 7.876-4.574-1.417v-2.53l3.09.562.179-3.242-3.27-1.341v-9.195Z" fill="#fff"/><path d="m40.312 16.027 1.235-.713-1.505 19.77-1.235.713 1.505-19.77Z" fill="#D5B51A"/><path d="m24.071 5.156 17.476 10.16-1.235.713-17.476-10.16 1.235-.713Z" fill="#FFDE25"/></g><defs><linearGradient id="c" x1="64.774" y1="40.852" x2="67.079" y2="36.86" gradientUnits="userSpaceOnUse"><stop offset=".39" stop-color="#D2D3D4" stop-opacity="0"/><stop offset="1" stop-color="#D2D3D4"/></linearGradient><linearGradient id="d" x1="-5966.87" y1="-10784.6" x2="-5951.55" y2="-10811.1" gradientUnits="userSpaceOnUse"><stop offset=".39" stop-color="#D2D3D4" stop-opacity="0"/><stop offset="1" stop-color="#D2D3D4"/></linearGradient><linearGradient id="e" x1="61.997" y1="41.624" x2="73.097" y2="41.624" gradientUnits="userSpaceOnUse"><stop stop-color="#E8E7E5"/><stop offset="1" stop-color="#fff"/></linearGradient><linearGradient id="f" x1="-12273.6" y1="-10696.2" x2="-12080.6" y2="-10696.2" gradientUnits="userSpaceOnUse"><stop stop-color="#E8E7E5"/><stop offset="1" stop-color="#fff"/></linearGradient><clipPath id="a"><path fill="#fff" transform="matrix(.86603 .5 0 1 94.477 18.768)" d="M0 0h23.673v73.552H0z"/></clipPath><clipPath id="b"><path fill="#fff" transform="matrix(.86603 .5 0 1 57.542 .207)" d="M0 0h24.018v71.166H0z"/></clipPath><clipPath id="g"><path fill="#fff" transform="translate(22.625 4.297)" d="M0 0h29.817v46.56H0z"/></clipPath></defs></svg>