<svg width="181" height="181" viewBox="0 0 181 181" fill="none" xmlns="http://www.w3.org/2000/svg">
<mask id="mask0_33_881" style="mask-type:alpha" maskUnits="userSpaceOnUse" x="0" y="0" width="181" height="181">
<circle cx="90.5" cy="90.5" r="90.5" fill="#DBDBE5"/>
</mask>
<g mask="url(#mask0_33_881)">
<circle cx="90.5" cy="90.5" r="90.5" fill="#DBDBE5"/>
<path fill-rule="evenodd" clip-rule="evenodd" d="M150.028 57.2935C148.739 59.2239 147.378 61.2292 145.929 63.3192C139.982 68.6221 130.978 72.7988 118.923 75.8523C113.171 77.2912 108.711 78.1734 105.54 78.5054H105.42C105.898 82.0375 107.191 86.0579 109.281 90.5568C110.407 92.6467 112.015 95.5375 114.102 99.2323C114.219 99.216 114.336 99.216 114.463 99.2323C128.94 96.8657 141.922 88.431 153.404 73.9251C154.208 72.7988 154.931 71.8384 155.575 71.0311V70.7935C154.449 65.9723 152.6 61.4701 150.028 57.2935ZM83.2346 36.0848C87.4144 37.3707 92.6392 39.6201 98.9058 42.8332C107.747 47.1726 114.258 50.8706 118.438 53.9242H117.474C115.062 54.2432 113.773 56.0922 113.614 59.4681C113.451 63.1629 118.116 64.3674 127.599 63.0848C132.742 61.6394 137.163 59.1458 140.861 55.6137C142.629 53.6833 144.155 52.0003 145.441 50.5516C135.955 38.9821 122.611 32.9564 105.413 32.4746C97.7014 32.3053 90.3085 33.5131 83.2346 36.0848ZM61.4139 103.451C62.4946 102.175 63.5787 100.531 64.6692 98.5096C63.2238 98.3501 62.0973 98.1059 61.2932 97.7869C60.4892 97.1456 59.6037 96.5824 58.6401 96.0974C58.3178 97.3833 58.077 99.3104 57.9175 101.882H58.1585C58.4808 101.723 58.8812 101.641 59.363 101.641C60.167 101.641 60.893 102.123 61.5343 103.087C61.5343 103.207 61.492 103.328 61.4139 103.451Z" fill="#6D411A"/>
<path fill-rule="evenodd" clip-rule="evenodd" d="M93.1213 106.711H113.858C113.692 106.473 113.532 106.232 113.376 105.988C106.944 96.5053 102.044 91.3651 98.6652 90.5643C98.0239 90.242 91.3503 89.6788 78.6543 88.8748C67.4038 88.2335 60.4894 86.7034 57.9177 84.2945C55.5087 82.6896 53.4157 81.2409 51.648 79.9551C50.87 83.2202 50.2221 86.557 49.7175 89.9588C54.262 92.1269 57.1592 94.1778 58.3995 96.1049H58.6372C59.604 96.5867 60.4862 97.1499 61.2903 97.7945C62.0944 98.1168 63.2207 98.3576 64.6661 98.5172C64.8256 98.5172 64.9884 98.5953 65.1479 98.7581C66.1082 98.2763 67.3159 98.0354 68.7613 98.0354C71.1735 98.0354 75.8353 99.3212 82.7464 101.893C87.5676 103.641 91.0248 105.249 93.1213 106.711ZM48.6303 122.376C49.3432 122.77 50.1862 123.411 51.1628 124.306C54.8609 127.519 58.6372 128.724 62.4948 127.92C66.3556 127.116 69.4059 127.438 71.6586 128.883C73.9048 130.329 75.998 132.819 77.9251 136.354C80.0151 139.886 81.3824 142.217 82.0269 143.344C83.1533 144.792 84.5207 146.075 86.1255 147.201C87.8965 148.005 90.2239 148.005 93.1179 147.201C99.8663 146.075 105.254 143.103 109.274 138.281C114.577 132.178 117.312 127.998 117.475 125.748L117.953 125.989C119.281 122.766 119.844 119.351 119.643 115.745C118.819 114.442 117.973 113.117 117.113 111.77H95.4098C93.7854 120.904 89.2442 125.078 81.7861 124.306C74.5495 123.339 69.4906 121.494 66.5934 118.759C63.5398 115.705 61.8501 112.574 61.5311 109.361C61.3683 106.789 61.2903 104.859 61.2903 103.576L61.4107 103.456C61.4888 103.332 61.5311 103.211 61.5311 103.094C60.8898 102.131 60.1639 101.649 59.3598 101.649C58.878 101.649 58.4776 101.727 58.1553 101.89C57.8331 102.853 57.4295 103.902 56.9477 105.025C55.3428 109.205 52.53 111.451 48.5097 111.773H48.1484C48.2135 115.24 48.3763 118.775 48.6303 122.376ZM50.922 139.974C53.1714 140.938 54.4605 141.42 54.7827 141.42C54.9358 141.4 55.0986 141.4 55.2614 141.42C56.0362 141.006 57.1625 140.847 58.6372 140.938C60.9843 140.938 62.7552 142.181 63.9434 144.672C66.1766 146.198 68.1851 146.963 69.9723 146.963C71.4177 146.963 72.3065 146.4 72.6223 145.274C72.785 144.633 73.1041 144.232 73.5891 144.069C72.6223 141.657 71.8215 140.293 71.1802 139.974C69.2497 138.685 64.1062 136.921 55.7464 134.671C54.3075 134.222 53.0641 133.779 52.0126 133.346C51.3322 133.063 50.7299 132.783 50.2025 132.5C50.03 132.425 49.8672 132.347 49.7207 132.259C49.7663 132.571 49.8053 132.894 49.8411 133.223C49.9681 134.017 50.0853 134.821 50.2025 135.632C50.3588 136.921 50.6029 138.369 50.922 139.974Z" fill="#FFD6C4"/>
<path fill-rule="evenodd" clip-rule="evenodd" d="M81.3076 78.2656C80.8258 78.2656 80.3408 78.2656 79.859 78.2656C78.2541 77.9433 76.6461 77.621 75.0379 77.302L67.3227 74.4079C66.5187 74.0857 65.7145 73.6853 64.9104 73.2035H64.6728C64.3472 72.8812 63.9467 72.5589 63.4649 72.2399C62.1791 71.5953 60.8152 70.7131 59.3665 69.59C58.1946 68.5646 57.1886 67.3992 56.352 66.0938C55.7009 67.7279 55.0955 69.3784 54.5421 71.0354C53.5785 73.9294 52.693 76.8202 51.8921 79.7142C51.7326 79.7142 51.6513 79.7956 51.6513 79.9551C53.419 81.241 55.5123 82.6896 57.9212 84.2945C60.493 86.7034 67.4074 88.2302 78.6579 88.8748C91.3538 89.6789 98.0272 90.2388 98.6685 90.5643C102.044 91.3684 106.947 96.5086 113.379 105.988C113.539 106.232 113.699 106.473 113.861 106.711H117.595C116.96 105.057 116.195 103.371 115.307 101.649C114.981 100.845 114.581 100.041 114.102 99.2366C112.012 95.5418 110.404 92.651 109.281 90.5611C107.191 86.0621 105.902 82.0418 105.42 78.5097H105.179C103.893 78.5097 102.848 78.5097 102.044 78.5097C100.117 78.5097 99.0721 78.5097 98.9093 78.5097H98.4277C97.7864 78.5097 97.2231 78.5097 96.738 78.5097C95.1331 78.5097 93.766 78.5097 92.6396 78.5097C90.5497 78.5097 88.6226 78.5097 86.8549 78.5097H85.4062C83.9641 78.5097 82.5969 78.5097 81.311 78.5097V78.2656H81.3076ZM63.9436 144.672C64.1064 145.075 64.2692 145.518 64.4254 146C65.7113 149.372 67.8011 151.462 70.6951 152.266C73.7487 153.071 75.4382 151.863 75.7572 148.65C75.9232 147.846 75.8386 146.563 75.5196 144.795C75.194 142.865 74.4746 140.938 73.3483 139.011C72.3847 136.921 71.0175 135.316 69.2498 134.189C67.4822 132.744 64.9072 132.181 61.5347 132.5C57.9961 132.822 53.8975 131.455 49.2358 128.401L50.2027 132.5C50.0366 132.402 49.8738 132.282 49.7208 132.142V132.262C49.8706 132.347 50.0334 132.425 50.2027 132.5C50.73 132.783 51.3324 133.066 52.0128 133.35C53.0642 133.783 54.3077 134.225 55.7466 134.674C64.1063 136.924 69.2499 138.688 71.1803 139.977C71.8216 140.296 72.6224 141.664 73.5893 144.073C73.1075 144.235 72.7852 144.636 72.6224 145.277C72.3034 146.404 71.4179 146.967 69.9725 146.967C68.1853 146.96 66.1768 146.198 63.9436 144.672ZM119.041 111.77H117.113C117.976 113.117 118.819 114.442 119.643 115.745C119.548 114.442 119.35 113.117 119.041 111.77ZM52.0094 145.876L54.0571 142.621C54.2622 142.074 54.6658 141.674 55.2616 141.416C55.0955 141.397 54.9327 141.397 54.7829 141.416C54.4606 141.416 53.1748 140.935 50.9221 139.971C51.2086 141.817 51.5666 143.783 52.0094 145.876Z" fill="#E7BCA9"/>
<path fill-rule="evenodd" clip-rule="evenodd" d="M61.2923 166.359C61.1881 167.248 61.1068 168.095 61.0514 168.892C60.7259 171.783 60.2473 175.077 59.606 178.772C64.2676 191.628 75.7592 194.844 94.0869 188.415C110.162 182.63 119.326 177.245 121.575 172.265C121.878 165.972 122.682 160.145 123.984 154.79C125.524 148.784 127.695 143.36 130.495 138.52L134.834 135.147C136.566 133.848 138.174 131.96 139.655 129.483C137.11 132.116 134.297 134.568 131.218 136.833C131.696 134.584 133.063 131.931 135.316 128.88C136.442 127.276 138.37 124.945 141.104 121.891C145.766 116.106 146.41 110.722 143.031 105.741C139.17 103.866 135.834 104.189 133.024 106.705H133.63L130.013 111.767H129.411C126.419 120.465 123.968 125.928 122.054 128.158L122.536 128.399V128.643L122.776 128.399C124.222 139.809 119.4 149.129 108.309 156.359C97.0589 163.43 82.5109 166.962 64.6682 166.962C63.4442 166.786 62.3177 166.584 61.2923 166.359Z" fill="#C59178"/>
<path fill-rule="evenodd" clip-rule="evenodd" d="M114.098 99.2357C114.576 100.04 114.98 100.844 115.302 101.648C116.191 103.367 116.956 105.053 117.591 106.71H133.021C135.83 104.194 139.171 103.871 143.028 105.746C146.407 110.727 145.763 116.112 141.101 121.896C138.366 124.95 136.436 127.281 135.313 128.886C133.063 131.939 131.696 134.589 131.214 136.838C134.291 134.569 137.107 132.121 139.652 129.488C147.696 120.985 152.999 110.499 155.571 98.0312C155.73 97.3899 155.972 96.7454 156.294 96.1041C156.453 93.3728 156.776 90.5602 157.261 87.6694C157.42 81.5656 156.857 75.9371 155.571 70.7969V71.0378C154.926 71.8451 154.204 72.8054 153.4 73.9318C141.918 88.4409 128.936 96.8756 114.459 99.239C114.335 99.2162 114.218 99.2162 114.098 99.2357ZM117.955 125.988L122.054 128.16C123.968 125.93 126.419 120.467 129.411 111.769H119.039C119.349 113.117 119.547 114.442 119.645 115.744C119.847 119.351 119.283 122.765 117.955 125.988Z" fill="url(#paint0_linear_33_881)"/>
<path fill-rule="evenodd" clip-rule="evenodd" d="M105.415 78.5013H105.536C108.71 78.1693 113.17 77.2871 118.919 75.8482C130.973 72.7947 139.978 68.618 145.925 63.3151C147.371 61.2251 148.734 59.2198 150.024 57.2894C149.22 55.844 148.334 54.4767 147.374 53.1941C146.729 52.2305 146.085 51.3483 145.443 50.541C144.154 51.9897 142.631 53.6727 140.863 55.6031C137.165 59.1352 132.744 61.6288 127.601 63.0742C118.118 64.36 113.453 63.1523 113.616 59.4575C113.775 56.0816 115.061 54.2359 117.477 53.9136H118.44C114.101 52.9467 110.803 52.6277 108.553 52.9467C106.145 53.269 103.973 54.3107 102.043 56.0784C99.9528 57.6865 98.8298 60.3364 98.667 64.0345C98.667 64.194 98.667 64.4349 98.667 64.7572C98.667 68.8752 100.477 73.0128 104.094 77.1699L104.214 77.2936C104.536 77.7721 104.855 78.1758 105.178 78.4981H105.415V78.5013Z" fill="#36200B"/>
<path fill-rule="evenodd" clip-rule="evenodd" d="M118.438 53.9195C114.258 50.866 107.748 47.1712 98.9061 42.8285C92.6362 39.6155 87.4148 37.366 83.2349 36.0802C79.8591 34.9538 77.0496 34.3906 74.7937 34.3906C68.3643 34.3906 63.0612 36.562 58.8781 40.9013C55.3428 44.759 53.5752 49.336 53.5752 54.639C53.5752 59.2225 54.4964 63.0411 56.3487 66.0881C57.1854 67.3902 58.1881 68.5557 59.3633 69.5843C60.8087 70.7107 62.1758 71.5929 63.4617 72.2342C63.9435 72.5565 64.344 72.8755 64.6695 73.1978C64.3277 72.716 64.0087 72.2342 63.7027 71.7492C61.6128 68.5752 60.5677 66.0067 60.5677 64.0372C60.5677 52.4644 65.3108 44.9933 74.7937 41.6175L75.5195 41.8617C67.9638 46.8424 64.1877 53.2685 64.1877 61.1432C64.1877 64.8641 67.2803 69.7634 73.472 75.8444C73.9798 76.3099 74.504 76.795 75.0379 77.293C76.646 77.6121 78.254 77.9344 79.8589 78.2566C80.3407 78.2566 80.8258 78.2566 81.3076 78.2566C80.969 77.8334 80.6467 77.3907 80.3407 76.9317C77.769 73.341 76.48 69.6071 76.48 65.7235C76.48 54.1539 80.5784 47.5651 88.7754 45.9602H89.0162C84.3545 49.974 81.4639 53.0276 80.3376 55.1175C79.6963 56.5629 79.3707 59.4569 79.3707 63.7931C79.3707 68.3636 81.4639 72.8625 85.6438 77.293C86.0345 77.7 86.4349 78.1004 86.8483 78.4975C88.6159 78.4975 90.5463 78.4975 92.633 78.4975C93.7593 78.4975 95.1267 78.4975 96.7316 78.4975C96.393 78.1199 96.0674 77.7553 95.7679 77.4135C91.7508 72.6867 89.739 68.3896 89.739 64.519C89.739 61.6282 90.8654 58.6561 93.1148 55.6026C95.3643 52.2268 98.0955 50.1401 101.315 49.336C95.8493 54.4795 93.1148 59.4602 93.1148 64.2814C93.1148 68.1422 95.6443 72.4816 100.71 77.2996C101.143 77.7 101.588 78.1036 102.034 78.504C102.839 78.504 103.884 78.504 105.169 78.504C104.847 78.1818 104.528 77.7781 104.206 77.2996L104.085 77.1759C100.469 73.0188 98.6587 68.8812 98.6587 64.7632C98.6587 64.4409 98.6587 64.2 98.6587 64.0405C98.8215 60.3424 99.9478 57.6925 102.034 56.0844C103.965 54.3167 106.136 53.275 108.545 52.9527C110.804 52.6337 114.099 52.9527 118.438 53.9195Z" fill="url(#paint1_linear_33_881)"/>
<path fill-rule="evenodd" clip-rule="evenodd" d="M102.041 78.505C101.592 78.1013 101.149 77.7009 100.716 77.3005C95.6509 72.4826 93.1215 68.1432 93.1215 64.2823C93.1215 59.4611 95.8559 54.4804 101.322 49.337C98.1054 50.141 95.3742 52.231 93.1215 55.6035C90.872 58.6571 89.7457 61.6292 89.7457 64.52C89.7457 68.3906 91.7542 72.6909 95.7746 77.4145C96.0741 77.7595 96.3962 78.1209 96.738 78.4985C97.2198 78.4985 97.7832 78.4985 98.4277 78.4985H98.9093C99.0689 78.505 100.117 78.505 102.041 78.505ZM81.3077 78.2641V78.505C82.5935 78.505 83.9575 78.505 85.4029 78.505H86.8515C86.4381 78.1078 86.0377 77.7042 85.6471 77.3005C81.4672 72.87 79.374 68.3711 79.374 63.8005C79.374 59.4611 79.6995 56.5704 80.3408 55.125C81.4672 53.035 84.358 49.9815 89.0197 45.9677H88.7787C80.5784 47.5725 76.4832 54.1614 76.4832 65.731C76.4832 69.6146 77.7725 73.3518 80.3442 76.9392C80.6469 77.4014 80.9691 77.8409 81.3077 78.2641ZM64.6696 73.202H64.9073C65.7113 73.6838 66.5153 74.0842 67.3194 74.4065L75.0346 77.3005C74.5007 76.8024 73.9767 76.3174 73.4689 75.8519C67.2804 69.7709 64.1844 64.8683 64.1844 61.1507C64.1844 53.2759 67.9607 46.8466 75.5164 41.8692L74.7904 41.625C65.3075 45.0008 60.5645 52.4719 60.5645 64.0447C60.5645 66.0109 61.6095 68.5827 63.6994 71.7566C64.0087 72.2384 64.3246 72.7202 64.6696 73.202Z" fill="#AC6630"/>
<path fill-rule="evenodd" clip-rule="evenodd" d="M58.2753 165.76C59.1933 165.984 60.1992 166.183 61.293 166.362C62.3185 166.586 63.445 166.785 64.669 166.964C82.5116 166.964 97.0597 163.432 108.31 156.361C119.401 149.131 124.226 139.811 122.777 128.401L122.536 128.645V128.401L122.054 128.16L117.956 125.989L117.477 125.748C117.315 127.997 114.58 132.177 109.277 138.281C105.257 143.102 99.8692 146.074 93.1208 147.201C90.2236 148.005 87.8992 148.005 86.1283 147.201C84.5234 146.074 83.156 144.792 82.0297 143.343C81.3884 142.217 80.018 139.886 77.9281 136.354C76.0009 132.819 73.9108 130.328 71.6613 128.883C69.4086 127.437 66.3551 127.115 62.4975 127.919C58.6366 128.723 54.8605 127.516 51.1657 124.306C50.1858 123.411 49.3427 122.766 48.633 122.375C46.7091 121.265 45.866 122.069 46.1036 124.788C46.4031 128.229 47.6075 130.68 49.7202 132.141C49.8765 132.281 50.0393 132.402 50.2021 132.5L49.2352 128.401C53.9002 131.455 57.9955 132.822 61.534 132.5C64.9066 132.181 67.4816 132.744 69.2492 134.189C71.0169 135.315 72.384 136.92 73.3476 139.01C74.474 140.937 75.1934 142.865 75.5189 144.795C75.8412 146.563 75.9226 147.849 75.7566 148.649C75.4375 151.862 73.7513 153.067 70.6945 152.266C67.8005 151.462 65.7107 149.372 64.4248 146C64.2653 145.521 64.1025 145.075 63.943 144.671C62.7548 142.181 60.9838 140.937 58.6367 140.937C57.162 140.846 56.0357 141.006 55.2609 141.419C54.662 141.676 54.2616 142.077 54.0565 142.624L52.0088 145.879L51.8884 146.003L50.6839 139.492C48.7535 145.117 47.7866 149.294 47.7866 152.029C47.7866 155.886 48.1121 158.617 48.7534 160.222C49.3947 161.671 50.5211 162.875 52.126 163.836C53.2328 164.536 55.2804 165.177 58.2753 165.76Z" fill="url(#paint2_linear_33_881)"/>
<path fill-rule="evenodd" clip-rule="evenodd" d="M129.412 111.771H130.014L133.63 106.709H133.025H117.595H113.861H93.124C94.8754 107.933 95.6795 109.059 95.533 110.085C95.533 110.244 95.533 110.488 95.533 110.807C95.4841 111.136 95.4484 111.459 95.4126 111.771H117.116H119.043H129.412Z" fill="#99765D"/>
<path fill-rule="evenodd" clip-rule="evenodd" d="M58.1585 101.888H57.9175C58.077 99.3158 58.3179 97.3886 58.6401 96.1027H58.4025C57.1622 94.1755 54.265 92.1247 49.7205 89.9566C48.962 89.5985 48.1613 89.2372 47.3084 88.8726C43.2945 87.1049 40.2344 86.7826 38.1477 87.909C35.5792 89.0353 34.6906 91.6852 35.4979 95.8618C36.302 102.451 37.6659 106.549 39.5963 108.154C41.517 109.433 44.3687 110.638 48.158 111.771H48.5194C52.5365 111.448 55.3523 109.199 56.9572 105.022C57.4325 103.899 57.8362 102.851 58.1585 101.888ZM54.6621 103.577C53.1158 108.799 50.9478 111.211 48.1514 110.807H48.031C44.4957 109.844 41.9207 108.717 40.3158 107.435C39.0267 106.308 37.9069 102.854 36.94 97.0663C36.7805 95.9432 36.7024 94.9796 36.7024 94.1756C36.8619 93.531 37.1809 93.0492 37.6627 92.7269C38.9518 91.122 41.6048 91.2001 45.6187 92.9678C46.898 93.4952 48.0603 94.0193 49.1151 94.5336C53.4089 96.6561 55.616 98.6256 55.7462 100.439L55.5086 100.68C55.3458 101.643 55.1048 102.526 54.7825 103.333V103.574H54.6621V103.577ZM95.4096 111.771C95.4454 111.455 95.4812 111.133 95.53 110.807C95.53 110.485 95.53 110.244 95.53 110.085C95.6765 109.062 94.8725 107.936 93.1211 106.709C91.0214 105.247 87.5673 103.639 82.7494 101.888C75.8382 99.3158 71.1767 98.0299 68.7645 98.0299C67.3191 98.0299 66.1112 98.2708 65.1509 98.7526C64.9881 98.5931 64.8255 98.5117 64.6692 98.5117C63.5787 100.53 62.4946 102.177 61.4139 103.453L61.2933 103.574C61.2933 104.86 61.3715 106.787 61.5343 109.359C61.8533 112.572 63.5428 115.703 66.5963 118.757C69.4936 121.488 74.5524 123.337 81.7891 124.304C89.2471 125.082 93.7852 120.905 95.4096 111.771ZM90.7088 119.001C88.9411 122.054 85.9657 123.418 81.7891 123.099C75.5193 122.458 71.0986 120.85 68.5268 118.282C65.9551 115.869 64.5097 113.46 64.1874 111.048C64.1874 110.244 64.1092 109.603 63.9464 109.118C63.9464 107.35 64.1092 106.146 64.4282 105.501C65.0695 103.255 66.5962 102.128 69.0085 102.128C71.0984 102.128 75.5192 103.414 82.2675 105.986C87.2092 107.783 90.4255 109.271 91.9132 110.446C92.5578 110.944 92.8801 111.383 92.8801 111.771C92.8801 111.93 92.802 112.09 92.6392 112.253C92.317 114.984 91.6756 117.233 90.7088 119.001Z" fill="#95785E"/>
<path fill-rule="evenodd" clip-rule="evenodd" d="M36.6992 94.1719C36.8587 94.8132 36.9369 95.6173 36.9369 96.5809C40.1499 97.5445 42.5655 98.3485 44.1704 98.9898C45.5637 99.3968 47.0058 99.9209 48.513 100.556C49.9844 101.213 51.5112 101.975 53.0933 102.847C53.7053 103.153 54.2327 103.394 54.6591 103.57H54.7796V103.329C55.1018 102.522 55.3428 101.64 55.5056 100.676L55.7432 100.435C55.613 98.6187 53.4057 96.6525 49.1119 94.53C48.0571 94.0156 46.8918 93.4915 45.6157 92.9642C41.6018 91.1965 38.9456 91.1184 37.6597 92.7233C37.1812 93.0488 36.8587 93.5306 36.6992 94.1719ZM63.9434 109.114C70.3728 109.921 74.6341 110.641 76.724 111.285C79.2958 112.089 83.9606 114.661 90.709 119.001C91.6758 117.233 92.3172 114.983 92.6394 112.252C92.8022 112.089 92.8803 111.93 92.8803 111.77C92.8803 111.383 92.558 110.944 91.9134 110.445C90.4257 109.27 87.2094 107.783 82.2677 105.986C75.5194 103.414 71.0953 102.128 69.0087 102.128C66.5964 102.128 65.0697 103.254 64.4284 105.501C64.1061 106.142 63.9434 107.346 63.9434 109.114Z" fill="#C7E0E5"/>
<path fill-rule="evenodd" clip-rule="evenodd" d="M54.6619 103.574C54.2322 103.398 53.708 103.157 53.096 102.851C51.5139 101.979 49.9872 101.217 48.5158 100.56C47.0085 99.9248 45.5664 99.4039 44.1732 98.9937C42.5683 98.3524 40.1561 97.5483 36.9398 96.5847C36.9398 95.6212 36.8617 94.8171 36.7021 94.1758C36.7021 94.9799 36.7803 95.9434 36.9398 97.0665C37.9066 102.851 39.0297 106.309 40.3156 107.435C41.9204 108.721 44.4954 109.844 48.0307 110.807H48.1512C50.9475 111.205 53.1156 108.796 54.6619 103.574ZM63.943 109.115C64.1057 109.596 64.1838 110.241 64.1838 111.045C64.5061 113.457 65.9515 115.866 68.5232 118.278C71.0949 120.85 75.5158 122.455 81.7857 123.096C85.9623 123.419 88.9377 122.051 90.7053 118.998C83.957 114.659 79.292 112.087 76.7202 111.283C74.6335 110.641 70.3723 109.922 63.943 109.115Z" fill="#EEFCFF"/>
</g>
<defs>
<linearGradient id="paint0_linear_33_881" x1="131.053" y1="109.999" x2="125.041" y2="126.032" gradientUnits="userSpaceOnUse">
<stop stop-color="#391F0A"/>
<stop offset="1" stop-color="#C59178"/>
</linearGradient>
<linearGradient id="paint1_linear_33_881" x1="79.2597" y1="64.0019" x2="92.469" y2="40.9552" gradientUnits="userSpaceOnUse">
<stop stop-color="#723F18"/>
<stop offset="1" stop-color="#AC6630"/>
</linearGradient>
<linearGradient id="paint2_linear_33_881" x1="86.5729" y1="155.845" x2="84.4708" y2="131.986" gradientUnits="userSpaceOnUse">
<stop stop-color="#391F0A"/>
<stop offset="1" stop-color="#C59178"/>
</linearGradient>
</defs>
</svg>
