<svg width="204" height="180" fill="none" xmlns="http://www.w3.org/2000/svg"><path d="M117.933 24.559c31.691 0 33.811 28.903 46.292 41.993 7.453 7.812 24.551 7.998 34.119 26.553 16.331 31.672-8.12 56.541-17.279 61.774-11.157 6.373-22.967 11.32-35.68 12.487-18.306 1.683-81.469-3.99-72.836-57.581 3.354-20.815 21.392-85.226 45.384-85.226Z" fill="#F1672A"/><path d="M72.545 109.786c3.354-20.815 20.067-75.345 37.637-83.161-1.589 1.797-8.139 5.596-11.094 17.56-1.71 6.932 4.921 12.129 8.111 18.52 1.598 3.19 5.951 7.915-3.19 11.174-15.76 5.62-35.131 41.517-11.18 52.692 12.773 6.391 28.028 16.013 40.8 23.997 25.55 19.163 52.248-31.214 69.963-31.214-2.147 18.515-16.109 31.859-22.527 35.522-11.156 6.372-22.966 11.32-35.68 12.486-18.305 1.689-81.473-3.985-72.84-57.576Z" fill="#E44F26"/><path d="M127.933 86.969c38.204-5.184 49.737 8.891 50.023 17.261.386 11.46-17.86 17.52-29.997 16.676-8.161-.568-10.34-4.961-16.122-10.739-11.965-11.965-33.692 2.219-33.692-5.206 0-6.033 18.94-16.522 29.788-17.992Z" fill="#E44F26"/><path fill-rule="evenodd" clip-rule="evenodd" d="M22.166 111.463c1.123-7.976 7.37-16.561 12.986-21.73 6.07-5.59 10.352-6.547 13.193-5.643 2.841.905 13.249 4.866 13.249 4.866l-15.846 86.353s-8.527-3.188-12.077-4.394c-6.22-2.165-9.394-11.217-8-24.292.767-7.184 1.93-13.056 1.693-16.594-.634-9.531-6.907-6.539-5.198-18.566Z" fill="url(#a)"/><path fill-rule="evenodd" clip-rule="evenodd" d="M35.044 116.211c1.123-7.975 7.37-16.565 12.989-21.735 12.245-11.27 17.21-3.662 17.775-.124.918 5.728-2.139 13.217.058 18.314 2.796 6.493 7.999 5.307 10.883 13.579 2.29 6.563 4.614 29.979-16.862 45.713-14.429 10.568-23.527-.043-21.335-20.592.765-7.196 1.926-13.073 1.704-16.605-.647-9.536-6.918-6.527-5.212-18.55Z" fill="#FFAC00"/><path fill-rule="evenodd" clip-rule="evenodd" d="M35.69 116.323c1.114-7.857 7.278-16.35 12.826-21.456 12.092-11.132 16.993-3.62 17.55-.124.906 5.657-2.111 13.049.06 18.08 2.762 6.413 7.898 5.243 10.746 13.409 2.26 6.482 4.554 29.605-16.65 45.141-14.248 10.437-23.233-.043-21.069-20.332.757-7.091 1.906-12.892 1.673-16.388-.623-9.393-6.817-6.441-5.135-18.33Z" fill="url(#b)"/><path fill-rule="evenodd" clip-rule="evenodd" d="m50.293 156.46-.292-6.386 16.417-15.239.026 3.523-16.15 18.102ZM29.402 30.564 35.94 24.3l8.17 74.174-1.964-.905-12.743-67.006Z" fill="#000"/><path fill-rule="evenodd" clip-rule="evenodd" d="m27.859 5.063 7.869 19.266-6.326 6.234-12.01-16.941c2.71-4.005 6.09-6.172 10.467-8.56Zm-4.843 5.411 6.087 12.693c1.218-.18 1.68-.29 1.641-1.533L25.302 8.695c-.912-.274-1.796.467-2.286 1.78Z" fill="url(#c)"/><path fill-rule="evenodd" clip-rule="evenodd" d="m21.706 11.646 4.088 1.662 7.521 13.01-2.35 1.359-9.259-16.03Z" fill="url(#d)"/><path fill-rule="evenodd" clip-rule="evenodd" d="m27.85 5.064 2.55 1.041-9.605 9.444-3.406-1.944c2.704-3.987 6.085-6.154 10.462-8.541Z" fill="url(#e)"/><path fill-rule="evenodd" clip-rule="evenodd" d="m30.4 6.104 7.276 19.737-6.644 5.472-11.098-16.667C22.638 10.66 26.02 8.492 30.4 6.104Zm-3.28 6.028 6.387 12.727c.755.237 1.68-.29 1.545-1.067l-5.659-13.437c-.912-.275-1.796.462-2.285 1.779l.012-.002Zm-3.435 3.378 7.223 11.316c.931.159 1.946-.544 1.825-1.245l-6.94-12.273c-.876-.043-1.86 1.264-2.108 2.202Z" fill="url(#f)"/><path fill-rule="evenodd" clip-rule="evenodd" d="m17.4 13.615 2.536 1.044L31.03 31.292l-1.627-.73L17.4 13.615Z" fill="#000"/><path fill-rule="evenodd" clip-rule="evenodd" d="m31.028 31.294 6.646-5.46 14.13 68.102-7.305 6.797-13.47-69.44Z" fill="url(#g)"/><path fill-rule="evenodd" clip-rule="evenodd" d="m32.23 31.14 4.439-4.075 15.986 74.654-5.901 5.993L32.23 31.14Z" fill="#000"/><path d="m31.834 9.994 2.433-2.453a.447.447 0 0 0-.637-.63l-2.139 2.152.343.93ZM28.86 11.85c-.473.41-1.292 1.196-1.292 1.196l.413.84 1.355-1.362a.316.316 0 0 0-.002-.385c-.056-.124-.247-.48-.473-.29ZM22.215 18.433l-3.052 3.07.555.708 3.059-3.08a6.786 6.786 0 0 1-.562-.698ZM24.831 17.063l1.545-1.564a.336.336 0 0 0 .04-.44l-.118-.182a.343.343 0 0 0-.527-.051l-1.412 1.407.472.83ZM33.679 15.008l2.472-2.477a.447.447 0 1 0-.633-.634l-2.178 2.18.339.931ZM31.038 16.407l-1.186 1.191.422.844 1.157-1.16a.61.61 0 0 0 .124-.657l-.047-.122a.286.286 0 0 0-.47-.096ZM27.404 21.34l1.303-1.342a.426.426 0 0 0 .026-.545l-.083-.106a.328.328 0 0 0-.485-.033l-1.259 1.247c.18.25.347.51.498.778ZM25.285 23.006a.498.498 0 0 1-.15-.316 1.768 1.768 0 0 1-.088-.257l-3.18 3.2.554.708 3.086-3.101-.222-.234ZM27.965 26.825a3.778 3.778 0 0 1-.149-.208l-3.135 3.167.555.708 3.152-3.165a2.238 2.238 0 0 1-.424-.502ZM31.372 23.834c-.009-.05-.105-.155-.105-.155a.336.336 0 0 0-.497-.026l-1.153 1.159c.03.05.058.106.084.158a.625.625 0 0 1 .116.149c.079.158.168.312.266.46l1.223-1.228a.426.426 0 0 0 .066-.517ZM35.564 20.108l2.617-2.614a.447.447 0 1 0-.636-.63l-2.32 2.33c.123.338.219.593.34.914ZM33.392 21.018l-1.212 1.217.419.844 1.13-1.134a.425.425 0 0 0 .088-.494s-.242-.62-.425-.433Z" fill="#000"/><path d="M21.264 22.28c.17.977-.45 1.495-1.383 1.15a3.445 3.445 0 0 1-1.998-2.377c-.17-.982.45-1.5 1.387-1.156a3.465 3.465 0 0 1 1.994 2.382ZM24.063 26.612c.17.983-.45 1.5-1.386 1.157a3.455 3.455 0 0 1-1.998-2.4c-.17-.982.45-1.5 1.382-1.155a3.454 3.454 0 0 1 2.002 2.398ZM27.239 30.752c.17.983-.454 1.501-1.386 1.157a3.455 3.455 0 0 1-2.003-2.403c-.169-.978.45-1.496 1.387-1.152a3.458 3.458 0 0 1 2.002 2.398ZM39.177 19.176c.54-.45.344-1.576-.438-2.513-.782-.938-1.853-1.333-2.394-.883-.54.45-.344 1.576.438 2.514.782.937 1.853 1.332 2.394.882ZM37.537 12.672c.17.982-.45 1.5-1.386 1.157a3.466 3.466 0 0 1-2.003-2.403c-.17-.978.454-1.497 1.387-1.152a3.446 3.446 0 0 1 2.002 2.398ZM35.216 8.233c.17.982-.454 1.5-1.386 1.156a3.447 3.447 0 0 1-2.002-2.398c-.17-.983.45-1.5 1.386-1.157a3.459 3.459 0 0 1 2.002 2.399ZM59.892 125.007c2.186-5.948 1.173-11.794-2.262-13.056-3.436-1.263-7.993 2.535-10.18 8.484-2.186 5.948-1.173 11.794 2.262 13.057 3.436 1.262 7.994-2.536 10.18-8.485Z" fill="#000"/><path d="m60.304 142.595-.261.339-23.95-115.897-7.62-14.879.289-.283 7.605 14.868 23.937 115.852Zm-1.542 1.906-.258.334L35.1 27.766l-7.288-15.031.29-.27 7.278 15.071 23.382 116.965Zm-1.52 2.536-.257.334L33.508 29.157l-8.135-13.934.258-.334 8.14 13.963 23.472 118.185Zm-1.312 1.555-.259.33-23.18-118.975-7.95-13.91.263-.33 7.97 14.01L55.93 148.591Z" fill="#fff"/><defs><linearGradient id="a" x1="51.114" y1="85.474" x2="42.541" y2="114.191" gradientUnits="userSpaceOnUse"><stop stop-color="#FFEB65"/><stop offset=".18" stop-color="#FFE14D"/><stop offset=".48" stop-color="#FFD124"/><stop offset="1" stop-color="#FFAC00"/></linearGradient><linearGradient id="b" x1="54.645" y1="32.998" x2="58.079" y2="181.513" gradientUnits="userSpaceOnUse"><stop stop-color="#FFEB65"/><stop offset=".18" stop-color="#FFE14D"/><stop offset=".48" stop-color="#FFD124"/><stop offset="1" stop-color="#FFAC00"/></linearGradient><linearGradient id="c" x1="26.288" y1="22.206" x2="38.288" y2="17.09" gradientUnits="userSpaceOnUse"><stop stop-color="#FFEB65"/><stop offset=".18" stop-color="#FFE14D"/><stop offset=".48" stop-color="#FFD124"/><stop offset="1" stop-color="#FFAC00"/></linearGradient><linearGradient id="d" x1="21.278" y1="21.758" x2="29.598" y2="18.304" gradientUnits="userSpaceOnUse"><stop stop-color="#FFEB65"/><stop offset=".18" stop-color="#FFE14D"/><stop offset=".48" stop-color="#FFD124"/><stop offset="1" stop-color="#FFAC00"/></linearGradient><linearGradient id="e" x1="22.814" y1="14.078" x2="36.593" y2="8.203" gradientUnits="userSpaceOnUse"><stop stop-color="#FFEB65"/><stop offset=".18" stop-color="#FFE14D"/><stop offset=".48" stop-color="#FFD124"/><stop offset="1" stop-color="#FFAC00"/></linearGradient><linearGradient id="f" x1="24.698" y1="25.86" x2="36.795" y2="9.29" gradientUnits="userSpaceOnUse"><stop stop-color="#FFEB65"/><stop offset=".18" stop-color="#FFE14D"/><stop offset=".48" stop-color="#FFD124"/><stop offset="1" stop-color="#FFAC00"/></linearGradient><linearGradient id="g" x1="40.738" y1="33.322" x2="44.176" y2="181.836" gradientUnits="userSpaceOnUse"><stop stop-color="#FFEB65"/><stop offset=".18" stop-color="#FFE14D"/><stop offset=".48" stop-color="#FFD124"/><stop offset="1" stop-color="#FFAC00"/></linearGradient></defs></svg>