<svg width="212" height="186" viewBox="0 0 212 186" fill="none" xmlns="http://www.w3.org/2000/svg">
<g filter="url(#filter0_d_30_2532)">
<path d="M118.182 26.5586C149.873 26.5586 151.993 55.4622 164.474 68.5524C171.927 76.3638 189.025 76.5498 198.593 95.1048C214.924 126.777 190.473 151.646 181.314 156.879C170.157 163.252 158.347 168.199 145.634 169.366C127.328 171.049 64.1651 165.376 72.798 111.785C76.1523 90.9699 94.1898 26.5586 118.182 26.5586Z" fill="#F1672A"/>
<path d="M72.7946 111.784C76.1488 90.9691 92.861 36.439 110.431 28.623C108.842 30.4204 102.293 34.2194 99.338 46.1839C97.6268 53.1148 104.258 58.3118 107.449 64.7026C109.047 67.8934 113.399 72.6184 104.258 75.8774C88.4991 81.4965 69.1272 117.395 93.0789 128.569C105.851 134.96 121.106 144.582 133.879 152.566C159.428 171.73 186.126 121.352 203.841 121.352C201.694 139.867 187.733 153.211 181.315 156.874C170.158 163.246 158.348 168.194 145.635 169.36C127.329 171.049 64.1616 165.375 72.7946 111.784Z" fill="#E44F26"/>
<path d="M128.183 88.9685C166.387 83.785 177.92 97.8601 178.206 106.23C178.592 117.69 160.346 123.75 148.209 122.906C140.048 122.338 137.869 117.945 132.087 112.167C120.122 100.202 98.3946 114.386 98.3946 106.961C98.3946 100.928 117.335 90.4391 128.183 88.9685Z" fill="#E44F26"/>
<path fill-rule="evenodd" clip-rule="evenodd" d="M22.4175 113.457C23.54 105.482 29.7875 96.896 35.4029 91.7267C41.4729 86.1372 45.7553 85.1799 48.5963 86.0844C51.4373 86.989 61.8447 90.9499 61.8447 90.9499L45.9995 177.303C45.9995 177.303 37.4722 174.115 33.922 172.909C27.7028 170.744 24.5282 161.692 25.9222 148.617C26.689 141.434 27.8513 135.561 27.615 132.023C26.9814 122.493 20.7082 125.485 22.4175 113.457Z" fill="url(#paint0_linear_30_2532)"/>
<path fill-rule="evenodd" clip-rule="evenodd" d="M35.2951 118.203C36.4177 110.228 42.6644 101.638 48.284 96.468C60.5292 85.1973 65.4945 92.8062 66.0593 96.3439C66.9773 102.073 63.9204 109.561 66.1167 114.658C68.9133 121.151 74.1159 119.965 77 128.237C79.2901 134.8 81.6138 158.216 60.1382 173.951C45.7094 184.519 36.6106 173.907 38.8033 153.358C39.5679 146.162 40.7295 140.285 40.5072 136.753C39.8595 127.217 33.5893 130.226 35.2951 118.203Z" fill="#FFAC00"/>
<path fill-rule="evenodd" clip-rule="evenodd" d="M35.9417 118.317C37.0545 110.46 43.2185 101.967 48.7671 96.8613C60.8591 85.7296 65.7601 93.2415 66.3176 96.7373C67.2233 102.395 64.2057 109.786 66.3777 114.818C69.1389 121.23 74.275 120.06 77.1234 128.226C79.3822 134.708 81.6768 157.831 60.4738 173.367C46.2255 183.804 37.2403 173.324 39.4044 153.035C40.1614 145.944 41.3101 140.143 41.0768 136.648C40.4539 127.254 34.2603 130.206 35.9417 118.317Z" fill="url(#paint1_linear_30_2532)"/>
<path fill-rule="evenodd" clip-rule="evenodd" d="M50.5439 158.456L50.2513 152.07L66.6685 136.831L66.6946 140.354L50.5439 158.456Z" fill="black"/>
<path fill-rule="evenodd" clip-rule="evenodd" d="M29.6528 32.5561L36.1899 26.2936L44.3591 100.467L42.3955 99.5623L29.6528 32.5561Z" fill="black"/>
<path fill-rule="evenodd" clip-rule="evenodd" d="M28.1099 7.05666L35.979 26.3229L29.6532 32.5575L17.6432 15.616C20.3521 11.6112 23.7334 9.4438 28.1099 7.05666ZM23.267 12.4683L29.3543 25.1611C30.5723 24.9806 31.0331 24.8706 30.9953 23.6278L25.5528 10.6894C24.6407 10.415 23.7574 11.1558 23.267 12.4683Z" fill="url(#paint2_linear_30_2532)"/>
<path fill-rule="evenodd" clip-rule="evenodd" d="M21.957 13.6426L26.0443 15.304L33.5656 28.3149L31.2156 29.6727L21.957 13.6426Z" fill="url(#paint3_linear_30_2532)"/>
<path fill-rule="evenodd" clip-rule="evenodd" d="M28.1015 7.05811L30.6506 8.09962L21.0459 17.5429L17.6403 15.5992C20.3437 11.6126 23.725 9.44525 28.1015 7.05811Z" fill="url(#paint4_linear_30_2532)"/>
<path fill-rule="evenodd" clip-rule="evenodd" d="M30.6501 8.10035L37.9262 27.8367L31.2827 33.3093L20.1847 16.6422C22.8881 12.6556 26.2695 10.4882 30.6501 8.10035ZM27.3705 14.1276L33.7578 26.855C34.512 27.0918 35.4366 26.5644 35.3022 25.7879L29.6437 12.3509C28.7317 12.0765 27.8476 12.8131 27.3579 14.1298L27.3705 14.1276ZM23.9351 17.5061L31.1588 28.8221C32.0897 28.9808 33.1049 28.2777 32.9836 27.5768L26.0439 15.3039C25.1676 15.2611 24.1835 16.5683 23.9351 17.5061Z" fill="url(#paint5_linear_30_2532)"/>
<path fill-rule="evenodd" clip-rule="evenodd" d="M17.6509 15.6113L20.1874 16.655L31.2795 33.2885L29.6532 32.5585L17.6509 15.6113Z" fill="black"/>
<path fill-rule="evenodd" clip-rule="evenodd" d="M31.2789 33.288L37.9247 27.8279L52.0545 95.9298L44.7497 102.727L31.2789 33.288Z" fill="url(#paint6_linear_30_2532)"/>
<path fill-rule="evenodd" clip-rule="evenodd" d="M32.4815 33.1346L36.9203 29.0594L52.9059 103.713L47.0051 109.706L32.4815 33.1346Z" fill="black"/>
<path d="M32.0848 11.9879L34.5176 9.53509C34.601 9.45072 34.6475 9.33666 34.6469 9.21801C34.6462 9.09937 34.5984 8.98585 34.514 8.90243C34.4297 8.81901 34.3156 8.77252 34.197 8.77319C34.0783 8.77387 33.9648 8.82165 33.8814 8.90602L31.7422 11.0572L32.0848 11.9879Z" fill="black"/>
<path d="M29.1111 13.8419C28.6375 14.2524 27.8181 15.0383 27.8181 15.0383L28.2316 15.8788L29.5865 14.5161C29.6287 14.4608 29.6514 14.3931 29.6511 14.3236C29.6508 14.254 29.6275 14.1865 29.5849 14.1316C29.5288 14.0073 29.3375 13.6514 29.1111 13.8419Z" fill="black"/>
<path d="M22.4662 20.4252L19.4139 23.4952L19.9688 24.2032L23.0279 21.1233C22.8255 20.9032 22.6378 20.67 22.4662 20.4252Z" fill="black"/>
<path d="M25.081 19.0554L26.6258 17.4912C26.6844 17.4351 26.7208 17.3598 26.7282 17.2791C26.7357 17.1984 26.7138 17.1177 26.6665 17.0519L26.5484 16.8691C26.52 16.8273 26.4827 16.7923 26.4392 16.7665C26.3956 16.7407 26.347 16.7248 26.2967 16.7199C26.2463 16.715 26.1955 16.7212 26.1478 16.7382C26.1002 16.7551 26.0568 16.7823 26.0208 16.8178L24.6088 18.225L25.081 19.0554Z" fill="black"/>
<path d="M33.9292 17.0021L36.4011 14.5253C36.4427 14.4837 36.4757 14.4344 36.4983 14.3801C36.5208 14.3258 36.5325 14.2675 36.5325 14.2087C36.5326 14.1499 36.5211 14.0917 36.4986 14.0373C36.4762 13.9829 36.4432 13.9335 36.4017 13.8919C36.3601 13.8503 36.3108 13.8172 36.2565 13.7947C36.2021 13.7721 36.1439 13.7605 36.0851 13.7604C36.0263 13.7604 35.968 13.7719 35.9137 13.7943C35.8593 13.8168 35.8099 13.8497 35.7683 13.8913L33.5907 16.0708L33.9292 17.0021Z" fill="black"/>
<path d="M31.288 18.4017L30.1021 19.5925L30.5247 20.4358L31.6813 19.2759C31.7638 19.1905 31.8195 19.0827 31.8416 18.966C31.8636 18.8493 31.851 18.7287 31.8054 18.619L31.7584 18.4975C31.7411 18.4529 31.7129 18.4134 31.6764 18.3826C31.6399 18.3518 31.5962 18.3307 31.5493 18.3211C31.5025 18.3116 31.454 18.314 31.4084 18.328C31.3627 18.3421 31.3213 18.3674 31.288 18.4017Z" fill="black"/>
<path d="M27.654 23.3313L28.9566 21.9905C29.0241 21.9172 29.0638 21.8225 29.0686 21.7229C29.0735 21.6233 29.0433 21.5252 28.9833 21.4456L28.9 21.339C28.8716 21.303 28.836 21.2733 28.7954 21.2519C28.7548 21.2305 28.7102 21.2179 28.6645 21.2148C28.6188 21.2117 28.5729 21.2183 28.5298 21.234C28.4867 21.2498 28.4475 21.2744 28.4145 21.3063L27.1562 22.5529C27.3364 22.8029 27.5026 23.0628 27.654 23.3313Z" fill="black"/>
<path d="M25.5356 24.9978C25.4492 24.9142 25.396 24.8021 25.3858 24.6823C25.35 24.5989 25.3207 24.513 25.2981 24.4251L22.1172 27.6255L22.672 28.3335L25.7576 25.2318L25.5356 24.9978Z" fill="black"/>
<path d="M28.2154 28.8193C28.1653 28.7545 28.1137 28.6813 28.0671 28.6116L24.9321 31.7781L25.487 32.4861L28.6394 29.3209C28.4742 29.1754 28.3314 29.0064 28.2154 28.8193Z" fill="black"/>
<path d="M31.6222 25.8278C31.6135 25.7774 31.5176 25.673 31.5176 25.673C31.488 25.6367 31.451 25.6069 31.4092 25.5857C31.3674 25.5645 31.3216 25.5523 31.2748 25.5498C31.2279 25.5473 31.1811 25.5547 31.1373 25.5713C31.0935 25.588 31.0536 25.6137 31.0203 25.6467L29.8679 26.8058C29.8983 26.8567 29.9253 26.9126 29.9515 26.9642C29.9976 27.0075 30.0368 27.0576 30.068 27.1127C30.1464 27.2715 30.2351 27.4251 30.3334 27.5725L31.5561 26.345C31.6229 26.2783 31.6656 26.1913 31.6776 26.0977C31.6895 26.0041 31.6701 25.9091 31.6222 25.8278Z" fill="black"/>
<path d="M35.8151 22.102L38.4318 19.4878C38.5152 19.4034 38.5617 19.2893 38.561 19.1707C38.5603 19.0521 38.5126 18.9385 38.4282 18.8551C38.3438 18.7717 38.2298 18.7252 38.1111 18.7259C37.9925 18.7266 37.8789 18.7743 37.7955 18.8587L35.4754 21.1882C35.5986 21.5257 35.6948 21.7814 35.8151 22.102Z" fill="black"/>
<path d="M33.6421 23.0125L32.4306 24.2294L32.849 25.0735L33.9798 23.9397C34.045 23.8771 34.0885 23.7954 34.1042 23.7065C34.1199 23.6175 34.1069 23.5258 34.0671 23.4448C34.0671 23.4448 33.8258 22.8251 33.6421 23.0125Z" fill="black"/>
<path d="M21.515 24.2753C21.6843 25.2532 21.065 25.771 20.1322 25.4267C19.6363 25.2145 19.1972 24.8887 18.8502 24.4758C18.5032 24.0629 18.2579 23.5742 18.1342 23.0492C17.9642 22.0671 18.5836 21.5492 19.5205 21.8928C20.0156 22.1072 20.4537 22.4342 20.8 22.8478C21.1463 23.2614 21.3911 23.7503 21.515 24.2753Z" fill="black"/>
<path d="M24.3138 28.6046C24.4838 29.5867 23.8645 30.1045 22.9275 29.7609C22.4296 29.5459 21.9893 29.2166 21.6423 28.7998C21.2953 28.383 21.0513 27.8903 20.9301 27.3617C20.7601 26.3796 21.3795 25.8617 22.3122 26.2061C22.8108 26.4205 23.2519 26.7494 23.5997 27.1661C23.9474 27.5828 24.1921 28.0756 24.3138 28.6046Z" fill="black"/>
<path d="M27.4899 32.7446C27.6599 33.7267 27.0364 34.2453 26.1036 33.9009C25.6044 33.6862 25.1629 33.3567 24.8149 32.9392C24.467 32.5217 24.2225 32.028 24.1013 31.4982C23.932 30.5203 24.5513 30.0025 25.4883 30.3461C25.9867 30.5608 26.4276 30.8898 26.7754 31.3065C27.1231 31.7231 27.3679 32.2158 27.4899 32.7446Z" fill="black"/>
<path d="M39.4266 21.1701C39.9669 20.7197 39.771 19.5944 38.9892 18.6567C38.2074 17.7189 37.1356 17.3239 36.5954 17.7743C36.0551 18.2247 36.251 19.35 37.0328 20.2878C37.8146 21.2255 38.8864 21.6206 39.4266 21.1701Z" fill="black"/>
<path d="M37.7868 14.6665C37.9568 15.6486 37.3375 16.1664 36.4005 15.8228C35.9018 15.6072 35.4608 15.2774 35.113 14.8601C34.7652 14.4427 34.5203 13.9495 34.3982 13.4201C34.2289 12.4422 34.8524 11.9236 35.7852 12.2679C36.2842 12.4818 36.7256 12.8105 37.0734 13.2273C37.4212 13.6442 37.6657 14.1373 37.7868 14.6665Z" fill="black"/>
<path d="M35.4669 10.2269C35.6369 11.209 35.0134 11.7276 34.0806 11.3833C33.5816 11.1694 33.1403 10.8407 32.7924 10.4239C32.4446 10.007 32.2002 9.51394 32.0791 8.98474C31.9091 8.00263 32.5284 7.48478 33.4654 7.82837C33.9638 8.0431 34.4047 8.3721 34.7524 8.78877C35.1001 9.20545 35.3449 9.6981 35.4669 10.2269Z" fill="black"/>
<path d="M60.1429 127C62.3292 121.051 61.3164 115.206 57.8807 113.943C54.4451 112.68 49.8876 116.478 47.7013 122.427C45.515 128.375 46.5278 134.221 49.9635 135.484C53.3991 136.746 57.9566 132.948 60.1429 127Z" fill="black"/>
<path d="M60.5546 144.589L60.2934 144.929L36.3437 29.0308L28.7239 14.1522L29.0121 13.8689L36.6171 28.7371L60.5546 144.589ZM59.0126 146.495L58.7549 146.829L35.3504 29.7603L28.063 14.7292L28.3533 14.4585L35.6304 29.5303L59.0126 146.495ZM57.4934 149.031L57.2357 149.366L33.7582 31.1512L25.6234 17.2177L25.8811 16.8835L34.021 30.8463L57.4934 149.031ZM56.1803 150.586L55.9219 150.916L32.7408 31.9411L24.7916 18.0317L25.0542 17.7009L33.0251 31.7104L56.1803 150.586Z" fill="white"/>
</g>
<defs>
<filter id="filter0_d_30_2532" x="10.6401" y="0.0566406" width="200.439" height="185.043" filterUnits="userSpaceOnUse" color-interpolation-filters="sRGB">
<feFlood flood-opacity="0" result="BackgroundImageFix"/>
<feColorMatrix in="SourceAlpha" type="matrix" values="0 0 0 0 0 0 0 0 0 0 0 0 0 0 0 0 0 0 127 0" result="hardAlpha"/>
<feOffset/>
<feGaussianBlur stdDeviation="3.5"/>
<feComposite in2="hardAlpha" operator="out"/>
<feColorMatrix type="matrix" values="0 0 0 0 0 0 0 0 0 0.109927 0 0 0 0 0.325 0 0 0 0.5 0"/>
<feBlend mode="normal" in2="BackgroundImageFix" result="effect1_dropShadow_30_2532"/>
<feBlend mode="normal" in="SourceGraphic" in2="effect1_dropShadow_30_2532" result="shape"/>
</filter>
<linearGradient id="paint0_linear_30_2532" x1="51.3647" y1="87.4684" x2="42.7917" y2="116.186" gradientUnits="userSpaceOnUse">
<stop stop-color="#FFEB65"/>
<stop offset="0.18" stop-color="#FFE14D"/>
<stop offset="0.48" stop-color="#FFD124"/>
<stop offset="1" stop-color="#FFAC00"/>
</linearGradient>
<linearGradient id="paint1_linear_30_2532" x1="54.8961" y1="34.9923" x2="58.3297" y2="183.507" gradientUnits="userSpaceOnUse">
<stop stop-color="#FFEB65"/>
<stop offset="0.18" stop-color="#FFE14D"/>
<stop offset="0.48" stop-color="#FFD124"/>
<stop offset="1" stop-color="#FFAC00"/>
</linearGradient>
<linearGradient id="paint2_linear_30_2532" x1="26.5386" y1="24.2002" x2="38.5394" y2="19.0839" gradientUnits="userSpaceOnUse">
<stop stop-color="#FFEB65"/>
<stop offset="0.18" stop-color="#FFE14D"/>
<stop offset="0.48" stop-color="#FFD124"/>
<stop offset="1" stop-color="#FFAC00"/>
</linearGradient>
<linearGradient id="paint3_linear_30_2532" x1="21.5284" y1="23.7542" x2="29.8484" y2="20.2998" gradientUnits="userSpaceOnUse">
<stop stop-color="#FFEB65"/>
<stop offset="0.18" stop-color="#FFE14D"/>
<stop offset="0.48" stop-color="#FFD124"/>
<stop offset="1" stop-color="#FFAC00"/>
</linearGradient>
<linearGradient id="paint4_linear_30_2532" x1="23.0648" y1="16.0718" x2="36.8443" y2="10.1972" gradientUnits="userSpaceOnUse">
<stop stop-color="#FFEB65"/>
<stop offset="0.18" stop-color="#FFE14D"/>
<stop offset="0.48" stop-color="#FFD124"/>
<stop offset="1" stop-color="#FFAC00"/>
</linearGradient>
<linearGradient id="paint5_linear_30_2532" x1="24.9484" y1="27.8566" x2="37.0458" y2="11.2859" gradientUnits="userSpaceOnUse">
<stop stop-color="#FFEB65"/>
<stop offset="0.18" stop-color="#FFE14D"/>
<stop offset="0.48" stop-color="#FFD124"/>
<stop offset="1" stop-color="#FFAC00"/>
</linearGradient>
<linearGradient id="paint6_linear_30_2532" x1="40.9887" y1="35.3163" x2="44.4266" y2="183.83" gradientUnits="userSpaceOnUse">
<stop stop-color="#FFEB65"/>
<stop offset="0.18" stop-color="#FFE14D"/>
<stop offset="0.48" stop-color="#FFD124"/>
<stop offset="1" stop-color="#FFAC00"/>
</linearGradient>
</defs>
</svg>
