<svg width="156" height="102" viewBox="0 0 156 102" fill="none" xmlns="http://www.w3.org/2000/svg">
<g filter="url(#filter0_d_30_2417)">
<path d="M122.67 89.4382L148.874 74.1971L148.874 79.2605L122.67 94.5016L122.67 89.4382Z" fill="#E3E3E3"/>
<rect width="132.642" height="5.07495" transform="matrix(0.866025 0.5 -2.20305e-08 1 7.79883 23.1074)" fill="#EDEDED"/>
<rect width="132.642" height="30.361" transform="matrix(0.866025 0.5 -0.866025 0.5 34.0918 7.92578)" fill="#F6F6F6"/>
<path d="M104.814 56.0476L87.1192 45.9381L86.6362 39.6172L108.565 51.9733C108.565 56.3686 106.136 56.4593 104.814 56.0476Z" fill="#D9C7AB"/>
<path d="M104.141 49.4799C103.046 52.275 102.797 54.8448 104.764 56.0203C104.616 55.934 104.136 55.6633 103.425 55.2544C99.9662 53.2662 91.0286 48.1417 87.8966 46.3428C87.5698 46.1535 87.3041 46.0059 87.1148 45.8986C86.9305 45.7914 86.8189 45.7252 86.7988 45.7144C86.3942 45.4998 86.0271 45.2292 85.7047 44.9175C83.7114 43.002 83.2672 39.4402 84.9481 36.8596C87.8714 32.3577 97.2833 21.0605 97.2833 10.8711L102.516 13.8656L103.069 14.1816L103.293 14.3098L104.198 14.8259L105.971 15.8373L107.096 16.4815L116.462 21.8364C116.462 33.1898 111.649 37.1504 110.228 39.302C109.485 40.4206 105.821 45.2133 104.141 49.4799Z" fill="#F7F1E8"/>
<path d="M100.6 17.7715L112.025 24.3041C112.195 25.0426 112.228 26.2822 111.574 26.686L99.5264 19.7978C100.047 19.3854 100.26 18.9736 100.6 17.7715Z" fill="#363D54"/>
<path d="M108.38 36.6931L108.124 37.0429L103.211 34.2089L103.412 33.8145L108.38 36.6931Z" fill="#363D54"/>
<path d="M107.817 37.4647L107.575 37.7966L105.273 36.4836L105.491 36.1309L107.817 37.4647Z" fill="#363D54"/>
<path d="M104.89 35.7857L104.68 36.1435L99.3613 33.105L99.5118 32.7012L104.89 35.7857Z" fill="#363D54"/>
<path d="M101.525 36.9179L101.366 37.2382L94.5713 33.4734L94.6569 33.0977L101.525 36.9179Z" fill="#363D54"/>
<path d="M106.284 39.5646L106.077 39.8489L102.678 37.9665L102.852 37.6562L106.284 39.5646Z" fill="#363D54"/>
<path d="M106.769 38.8984L106.551 39.1979L97.874 34.3238L97.9993 33.9531L106.769 38.8984Z" fill="#363D54"/>
<path d="M103.033 35.797L102.848 36.1468L92.2417 30.17L92.3036 29.7266L103.033 35.797Z" fill="#363D54"/>
<path d="M107.28 38.1983L107.05 38.5136L103.219 36.3548L103.409 36.0078L107.28 38.1983Z" fill="#363D54"/>
<path d="M94.1961 43.7185L94.0255 44.0691L89.0903 41.235L89.2026 40.8398L94.1961 43.7185Z" fill="#363D54"/>
<path d="M93.8203 44.4901L93.6591 44.822L91.3506 43.5075L91.4852 43.1562L93.8203 44.4901Z" fill="#363D54"/>
<path d="M90.883 42.8118L90.7541 43.1688L85.415 40.1311L85.4813 39.7266L90.883 42.8118Z" fill="#363D54"/>
<path d="M93.4627 45.2256L93.3101 45.5409L89.4697 43.3821L89.5806 43.0352L93.4627 45.2256Z" fill="#363D54"/>
<path d="M99.8619 43.3672C100.277 43.3672 100.679 43.4456 101.055 43.5997C101.79 43.8991 102.351 44.4549 102.637 45.1668C102.95 45.9435 102.892 46.8289 102.477 47.5955C101.908 48.6494 100.752 49.3311 99.5322 49.3311C99.1176 49.3311 98.7152 49.2526 98.3387 49.0986C97.6052 48.7991 97.043 48.2434 96.7572 47.5315C96.4441 46.7555 96.5024 45.8694 96.917 45.1027C97.4864 44.0489 98.6418 43.3672 99.8619 43.3672Z" fill="#D78383"/>
<path d="M100.849 44.2163C102.054 44.7087 102.515 46.0613 101.88 47.2397C101.243 48.4173 99.7519 48.9738 98.5462 48.4821C97.3412 47.9897 96.8805 46.6372 97.5161 45.4588C98.1517 44.2811 99.6439 43.724 100.849 44.2163Z" fill="#FFC939"/>
<path d="M99.5987 49.104C99.5987 49.104 97.2736 52.3807 97.6709 55.6387C97.6709 55.6387 96.589 54.0752 96.589 53.1063C96.589 53.1063 95.3912 53.5972 95.2242 54.0954C95.2242 54.0954 95.1774 51.1109 97.3362 48.1113L99.5987 49.104Z" fill="#D78383"/>
<path d="M44.8829 31.0688C44.8082 32.4485 45.2676 33.7744 46.1303 34.6663C48.6835 37.3069 52.8704 40.8013 57.4502 41.2211C61.7849 42.0443 66.488 39.6621 69.9794 37.2135C71.0648 36.4523 71.7587 35.0861 71.8387 33.5921L72.4841 21.6374L45.47 20.1777L44.8829 31.0688Z" fill="#363D54"/>
<path d="M59.3154 30.1661L59.3042 31.1163L78.7094 20.2424L78.7214 19.293L59.3154 30.1661Z" fill="#444D69"/>
<path d="M40.2002 18.7944L59.3163 30.1658L78.7223 19.2927L59.6062 7.92578L40.2002 18.7944Z" fill="#363D54"/>
<path d="M40.1997 18.793L40.1885 19.7439L59.3046 31.1145L59.3158 30.1644L40.1997 18.793Z" fill="#2E3447"/>
<path d="M61.1803 18.8426C61.1875 18.2911 60.4019 17.8336 59.4254 17.8208C58.449 17.808 57.6517 18.2447 57.6444 18.7963C57.6372 19.3478 58.4229 19.8053 59.3993 19.8181C60.3757 19.8309 61.1731 19.3941 61.1803 18.8426Z" fill="#FFC939"/>
<path d="M59.2949 19.2903L69.2545 25.5261L68.8608 42.3348L69.5653 42.6583L70.1031 24.9323L59.696 18.627L59.2949 19.2903Z" fill="#FFC939"/>
<path d="M69.7146 41.9956C69.7228 41.8044 69.4972 41.6401 69.2118 41.6296C68.9258 41.6176 68.6882 41.7633 68.6807 41.9545L68.2498 43.8138C68.2385 44.1312 68.6165 44.4017 69.0968 44.4211C69.5764 44.439 69.9753 44.1977 69.9872 43.881C69.9895 43.8362 69.9812 43.7936 69.9685 43.7518L69.7146 41.9956Z" fill="#FFC939"/>
</g>
<defs>
<filter id="filter0_d_30_2417" x="0.79834" y="0.925781" width="155.165" height="100.578" filterUnits="userSpaceOnUse" color-interpolation-filters="sRGB">
<feFlood flood-opacity="0" result="BackgroundImageFix"/>
<feColorMatrix in="SourceAlpha" type="matrix" values="0 0 0 0 0 0 0 0 0 0 0 0 0 0 0 0 0 0 127 0" result="hardAlpha"/>
<feOffset/>
<feGaussianBlur stdDeviation="3.5"/>
<feComposite in2="hardAlpha" operator="out"/>
<feColorMatrix type="matrix" values="0 0 0 0 0 0 0 0 0 0.109927 0 0 0 0 0.325 0 0 0 0.5 0"/>
<feBlend mode="normal" in2="BackgroundImageFix" result="effect1_dropShadow_30_2417"/>
<feBlend mode="normal" in="SourceGraphic" in2="effect1_dropShadow_30_2417" result="shape"/>
</filter>
</defs>
</svg>
