<svg width="142" height="88" fill="none" xmlns="http://www.w3.org/2000/svg"><path fill="#EDEDED" d="M.549 16.111 115.42 82.432v5.075L.55 21.187z"/><path fill="#F6F6F6" d="m26.841.93 114.872 66.32-26.294 15.181L.548 16.111z"/><path d="m115.419 82.442 26.205-15.241v5.063l-26.205 15.242v-5.064Z" fill="#E3E3E3"/><path d="M97.565 49.051 79.87 38.942l-.483-6.32 21.929 12.355c0 4.396-2.429 4.486-3.751 4.075Z" fill="#D9C7AB"/><path d="M96.891 42.482c-1.094 2.795-1.343 5.365.624 6.54-.148-.086-.629-.357-1.339-.766-3.459-1.988-12.396-7.112-15.529-8.911-.326-.19-.592-.337-.781-.444l-.316-.185a4.837 4.837 0 0 1-1.094-.797c-1.994-1.915-2.438-5.477-.757-8.057 2.923-4.502 12.335-15.8 12.335-25.989l5.233 2.995.553.316.224.128.905.516 1.773 1.011 1.125.644 9.366 5.355c0 11.354-4.814 15.314-6.234 17.466-.743 1.119-4.407 5.911-6.088 10.178Z" fill="#F7F1E8"/><path d="m93.352 10.775 11.425 6.533c.17.739.203 1.978-.451 2.382l-12.048-6.888c.52-.413.734-.825 1.074-2.027ZM101.13 29.693l-.256.35-4.912-2.834.2-.395 4.968 2.88ZM100.567 30.465l-.242.332-2.302-1.313.218-.353 2.326 1.334ZM97.64 28.786l-.21.357-5.319-3.038.15-.404 5.38 3.085ZM94.275 29.918l-.159.32-6.794-3.765.085-.375 6.868 3.82ZM99.035 32.565l-.207.284-3.399-1.882.174-.31 3.432 1.908ZM99.52 31.9l-.218.3-8.677-4.874.125-.37 8.77 4.944ZM95.783 28.797l-.185.35-10.606-5.977.062-.443 10.73 6.07ZM100.03 31.198l-.23.316-3.83-2.16.189-.346 3.871 2.19ZM86.947 36.718l-.171.351-4.935-2.834.112-.395 4.994 2.878ZM86.571 37.492l-.16.332-2.31-1.314.135-.352 2.335 1.334ZM83.633 35.814l-.128.357-5.34-3.038.067-.405 5.401 3.086ZM86.213 38.226l-.152.315-3.84-2.159.11-.347 3.882 2.19Z" fill="#363D54"/><path d="M92.612 36.371c.416 0 .817.079 1.194.233.734.3 1.296.855 1.581 1.567a2.853 2.853 0 0 1-.16 2.428c-.568 1.054-1.724 1.736-2.944 1.736a3.14 3.14 0 0 1-1.194-.233 2.831 2.831 0 0 1-1.581-1.567 2.853 2.853 0 0 1 .16-2.428c.569-1.054 1.724-1.736 2.944-1.736Z" fill="#D78383"/><path d="M93.6 37.22c1.205.493 1.666 1.845 1.03 3.024-.636 1.177-2.128 1.734-3.333 1.242s-1.666-1.845-1.03-3.023c.635-1.178 2.127-1.735 3.333-1.243Z" fill="#FFC939"/><path d="M92.35 42.108s-2.326 3.277-1.929 6.535c0 0-1.082-1.564-1.082-2.533 0 0-1.197.491-1.364.99 0 0-.047-2.985 2.112-5.985l2.262.993Z" fill="#D78383"/><path d="M37.633 24.07c-.074 1.38.385 2.706 1.248 3.598 2.553 2.64 6.74 6.135 11.32 6.555 4.334.823 9.038-1.559 12.529-4.008 1.085-.76 1.78-2.127 1.86-3.62l.645-11.956-27.014-1.46-.588 10.892Z" fill="#363D54"/><path d="m52.067 23.168-.011.95L71.46 13.244l.012-.95-19.406 10.874Z" fill="#444D69"/><path d="M32.95 11.798 52.068 23.17l19.406-10.873L52.357.93 32.95 11.798Z" fill="#363D54"/><path d="m32.95 11.799-.01.95L52.056 24.12l.01-.95L32.952 11.8Z" fill="#2E3447"/><path d="M53.93 11.847c.008-.552-.778-1.01-1.754-1.022-.977-.013-1.774.424-1.781.975-.007.552.778 1.01 1.755 1.022.976.013 1.774-.424 1.78-.975Z" fill="#FFC939"/><path d="m52.046 12.294 9.96 6.236-.394 16.809.704.323.538-17.726-10.407-6.305-.401.663Z" fill="#FFC939"/><path d="M62.465 35.002c.008-.192-.217-.356-.503-.367-.286-.011-.523.134-.53.325L61 36.82c-.011.317.367.587.847.607.48.018.879-.223.89-.54a.376.376 0 0 0-.018-.13l-.254-1.755Z" fill="#FFC939"/></svg>