<svg width="42" height="30" viewBox="0 0 42 30" fill="none" xmlns="http://www.w3.org/2000/svg">
<g filter="url(#filter0_d_30_2195)">
<path d="M33.4331 19.3194H33.5733L34.1343 18.9922L33.5733 19.3194H33.4331Z" fill="#B8BDD1"/>
<path d="M34.3234 18.6638H34.1597L33.5987 18.991H33.4585H33.5754L34.2766 18.5703L34.3234 18.6638Z" fill="#D6DBE4"/>
<path d="M8.23691 17.6838L15.506 21.8676C15.646 21.9433 15.8026 21.983 15.9618 21.983C16.1209 21.983 16.2776 21.9433 16.4176 21.8676C33.1997 12.1911 32.2413 12.7754 32.3582 12.5183V12.378C29.9807 10.7969 27.5148 9.35319 24.9723 8.05399V8.05399C24.8013 7.98333 24.6152 7.95699 24.4313 7.97742C24.2474 7.99785 24.0717 8.06436 23.9204 8.17083L8.5875 17.0294C8.2369 17.2397 8.26029 17.2163 8.1668 17.3332V17.4968C8.17643 17.5635 8.20034 17.6273 8.23691 17.6838V17.6838ZM8.23691 17.2631L8.51738 17.0995L23.8503 8.24095C23.9839 8.14742 24.143 8.09726 24.3061 8.09726C24.4692 8.09726 24.6282 8.14742 24.7618 8.24095C32.662 12.9156 32.031 12.4248 32.1245 12.5183V12.6819C32.1245 12.8455 33.0828 12.1911 16.2306 22.0313C16.1226 22.0886 16.0022 22.1185 15.88 22.1185C15.7577 22.1185 15.6374 22.0886 15.5294 22.0313L8.26024 17.824C8.1904 17.7989 8.13225 17.749 8.09668 17.6838V17.6838L8.23691 17.2631Z" fill="#B8BDD1"/>
<path d="M8.14406 18.4544L15.4131 22.6616C15.5554 22.7299 15.7111 22.7654 15.8689 22.7654C16.0267 22.7654 16.1825 22.7299 16.3247 22.6616L32.0784 13.5693C32.1614 13.5319 32.2279 13.4654 32.2654 13.3823C32.2654 13.3823 32.2654 13.3823 32.2654 12.4941C32.1485 12.7045 33.3405 11.9566 16.3247 21.8435C16.1847 21.9192 16.0281 21.9588 15.8689 21.9588C15.7098 21.9588 15.5531 21.9192 15.4131 21.8435L8.14406 17.6597C8.06503 17.6166 8.00006 17.5517 7.95703 17.4727V17.4727C7.95703 18.3842 7.95703 18.2673 7.95703 18.3608L8.14406 18.4544ZM28.1984 15.4626H28.3153L29.6476 14.6912H29.9047L28.4789 15.5327H28.2685L28.1984 15.4626ZM14.8288 21.8201C14.9457 21.8201 15.0392 22.0071 14.9924 22.1006C14.8522 22.1707 14.7821 21.9136 14.8288 21.8201V21.8201ZM14.4782 21.6331C14.5951 21.6331 14.6886 21.8201 14.6419 21.8902C14.5883 21.874 14.5424 21.8392 14.5124 21.792C14.4824 21.7448 14.4702 21.6885 14.4782 21.6331V21.6331ZM14.151 21.4461C14.151 21.4461 14.3614 21.6098 14.2913 21.7033C14.2391 21.687 14.1952 21.6511 14.169 21.6031C14.1428 21.5551 14.1364 21.4988 14.151 21.4461V21.4461ZM13.8238 21.2592C13.8778 21.2802 13.922 21.3206 13.9479 21.3724C13.9738 21.4242 13.9796 21.4838 13.964 21.5396V21.5396C13.9354 21.5318 13.9089 21.5181 13.886 21.4994C13.8631 21.4806 13.8444 21.4572 13.8312 21.4307C13.818 21.4043 13.8104 21.3753 13.8091 21.3457C13.8079 21.3162 13.8129 21.2867 13.8238 21.2592V21.2592ZM13.4732 21.0488C13.59 21.0488 13.6836 21.2358 13.6368 21.3293C13.5433 21.3059 13.5433 21.1423 13.5433 21.0488H13.4732ZM13.1459 20.8618C13.1459 20.8618 13.3563 21.0254 13.2862 21.1189C13.234 21.1027 13.1901 21.0668 13.164 21.0188C13.1378 20.9708 13.1313 20.9145 13.1459 20.8618V20.8618ZM11.1124 19.6697L12.4214 20.4411C12.4479 20.4742 12.4624 20.5155 12.4624 20.5579C12.4624 20.6004 12.4479 20.6417 12.4214 20.6748V20.6748L11.206 19.8334C11.1936 19.8079 11.1871 19.7799 11.1871 19.7516C11.1871 19.7232 11.1936 19.6952 11.206 19.6697H11.1124ZM9.1491 18.5478C9.18005 18.5513 9.20965 18.5625 9.23519 18.5804C9.26073 18.5982 9.28139 18.6221 9.29532 18.65C9.30926 18.6779 9.31606 18.7088 9.31501 18.7399C9.31396 18.7711 9.30511 18.8015 9.28933 18.8283V18.8283C9.26077 18.8206 9.23419 18.8068 9.2113 18.7881C9.1884 18.7693 9.16975 18.7459 9.15651 18.7195C9.14328 18.693 9.13575 18.664 9.13447 18.6344C9.1332 18.6049 9.13819 18.5753 9.1491 18.5478V18.5478ZM8.54137 18.1739C8.70498 18.1739 8.84523 18.4543 8.77511 18.5946C8.72914 18.5877 8.68541 18.5703 8.64722 18.5438C8.60902 18.5173 8.57742 18.4823 8.55485 18.4417C8.53227 18.4011 8.5193 18.3558 8.51697 18.3093C8.51464 18.2629 8.52296 18.2165 8.54137 18.1739V18.1739Z" fill="#9495B4"/>
<path d="M8.35445 17.4978L15.6236 21.705C15.7316 21.7623 15.8519 21.7922 15.9742 21.7922C16.0964 21.7922 16.2168 21.7623 16.3248 21.705C33.0601 12.0518 32.1251 12.6361 32.2186 12.3556V12.192C32.2186 12.192 32.7562 12.4725 24.856 7.91467C24.7238 7.81782 24.5641 7.76562 24.4002 7.76562C24.2363 7.76562 24.0767 7.81782 23.9445 7.91467L8.61159 16.7732L8.33105 16.9368V17.4978C8.33884 17.4981 8.34666 17.4981 8.35445 17.4978V17.4978ZM14.2913 19.3209L13.4031 19.8351H13.2863L11.58 18.8301L12.4682 18.3158H12.6084L14.338 19.3209H14.2913ZM29.2035 11.6544C29.2232 11.6339 29.2467 11.6176 29.2729 11.6065C29.299 11.5953 29.3271 11.5895 29.3555 11.5895C29.3838 11.5895 29.4119 11.5953 29.438 11.6065C29.4641 11.6176 29.4877 11.6339 29.5073 11.6544C29.4877 11.6749 29.4641 11.6912 29.438 11.7024C29.4119 11.7135 29.3838 11.7193 29.3555 11.7193C29.3271 11.7193 29.299 11.7135 29.2729 11.7024C29.2467 11.6912 29.2232 11.6749 29.2035 11.6544V11.6544ZM28.8061 11.4441C28.8061 11.4441 29.0399 11.4441 29.0866 11.4441C29.0721 11.4683 29.0516 11.4883 29.027 11.5022C29.0024 11.5161 28.9746 11.5234 28.9464 11.5234C28.9181 11.5234 28.8904 11.5161 28.8658 11.5022C28.8413 11.4883 28.8207 11.4683 28.8061 11.4441V11.4441ZM27.8478 10.3221C27.8654 10.3022 27.887 10.2863 27.9112 10.2754C27.9353 10.2645 27.9615 10.2588 27.9881 10.2588C28.0146 10.2588 28.0408 10.2645 28.065 10.2754C28.0892 10.2863 28.1108 10.3022 28.1283 10.3221C28.1087 10.3426 28.0851 10.3589 28.059 10.3701C28.0329 10.3812 28.0048 10.387 27.9764 10.387C27.948 10.387 27.9199 10.3812 27.8938 10.3701C27.8677 10.3589 27.8441 10.3426 27.8244 10.3221V10.3221H27.8478ZM26.4922 10.1118H26.6324L28.4556 11.1636H28.3153L26.4922 10.1118ZM10.1308 16.446L22.7758 9.13009H22.9161H23.0796L30.232 13.2672L17.47 20.6298H17.3298L10.1776 16.4927L10.1308 16.446Z" fill="#494760"/>
<path d="M28.1978 15.535L29.5067 14.7637H29.3432L28.0109 15.535H27.894H28.1978Z" fill="#B8BDD1"/>
<path d="M29.9056 14.4607L28.5967 15.2321H28.7135L30.1393 14.3906L29.9056 14.4607Z" fill="#D6DBE4"/>
<path d="M17.3771 20.5602V20.5836H17.4004H17.4238L30.022 13.3144L30.0921 13.2443H30.1155H30.0921V13.221L26.5628 11.1875L13.8477 18.5267L17.3771 20.5602Z" fill="#252431"/>
<path d="M10.2949 16.4954H10.3183L13.8477 18.5289L26.5628 11.1897L23.0334 9.15614H23.01V9.13281H22.9867V9.15614L22.9399 9.17953L10.3183 16.472H10.2949V16.4954Z" fill="#0B0B0E"/>
<path d="M10.1308 16.4954L17.2831 20.6325H17.4233L30.1851 13.2699L23.0329 9.13281H22.8927H22.7524L10.1074 16.4487L10.1308 16.4954ZM10.2944 16.4954L22.9161 9.20293L26.4454 11.2364L29.9748 13.2933L17.3766 20.5624L13.8472 18.5289L10.3178 16.4954H10.2944Z" fill="#262533"/>
<path d="M12.4913 18.3633H12.468L11.6499 18.8542L12.468 19.3216L13.3094 18.8542L12.4913 18.3633Z" fill="black"/>
<path d="M14.1282 19.3248L13.3102 18.8574L12.4688 19.3248L13.2868 19.8157H13.3102V19.7923L14.1282 19.3248Z" fill="#262533"/>
<path d="M14.2688 19.3214L12.5392 18.3164H12.3989L11.5107 18.8306L13.217 19.8357H13.3339L14.2221 19.3214H14.2688ZM14.1285 19.3214L13.3105 19.7889L12.4924 19.2981L11.6744 18.8306L12.4924 18.3398L13.3105 18.8306L14.1285 19.2981V19.3214Z" fill="#9495B4"/>
<path d="M28.1516 10.4852C28.134 10.4653 28.1124 10.4493 28.0882 10.4384C28.064 10.4275 28.0379 10.4219 28.0113 10.4219C27.9848 10.4219 27.9585 10.4275 27.9344 10.4384C27.9102 10.4493 27.8886 10.4653 27.8711 10.4852C27.9097 10.5197 27.9596 10.5387 28.0113 10.5387C28.0631 10.5387 28.113 10.5197 28.1516 10.4852V10.4852ZM27.9178 10.4852H28.058C28.058 10.4852 27.9179 10.4852 27.8945 10.4852H27.9178Z" fill="#262533"/>
<path d="M29.5089 11.725C29.4892 11.7045 29.4656 11.6882 29.4395 11.6771C29.4134 11.6659 29.3854 11.6602 29.357 11.6602C29.3286 11.6602 29.3005 11.6659 29.2744 11.6771C29.2483 11.6882 29.2247 11.7045 29.2051 11.725C29.2247 11.7455 29.2483 11.7619 29.2744 11.773C29.3005 11.7841 29.3286 11.7899 29.357 11.7899C29.3854 11.7899 29.4134 11.7841 29.4395 11.773C29.4656 11.7619 29.4892 11.7455 29.5089 11.725V11.725ZM29.2985 11.725H29.4388H29.2985Z" fill="#262533"/>
<path d="M29.1105 11.4902C29.1105 11.4902 28.8768 11.4902 28.8301 11.4902C28.8476 11.5101 28.8692 11.5261 28.8933 11.537C28.9175 11.5479 28.9438 11.5536 28.9703 11.5536C28.9968 11.5536 29.023 11.5479 29.0472 11.537C29.0714 11.5261 29.093 11.5101 29.1105 11.4902ZM28.9002 11.4902H29.0404H28.9002Z" fill="#262533"/>
<path d="M13.2861 21.1204C13.2971 21.0945 13.3021 21.0664 13.3007 21.0383C13.2993 21.0101 13.2916 20.9827 13.2781 20.958C13.2646 20.9333 13.2457 20.9119 13.2228 20.8955C13.1999 20.8791 13.1736 20.8681 13.1458 20.8633V20.8633C13.1312 20.916 13.1377 20.9723 13.1639 21.0202C13.1901 21.0682 13.2339 21.1042 13.2861 21.1204V21.1204Z" fill="black"/>
<path d="M9.28835 18.8059C9.30413 18.779 9.31298 18.7486 9.31403 18.7175C9.31508 18.6863 9.30828 18.6554 9.29434 18.6276C9.28041 18.5997 9.25975 18.5758 9.23421 18.5579C9.20867 18.5401 9.17908 18.5289 9.14812 18.5254C9.13721 18.5529 9.13222 18.5824 9.1335 18.612C9.13477 18.6416 9.1423 18.6705 9.15554 18.697C9.16877 18.7234 9.18743 18.7468 9.21032 18.7656C9.23321 18.7844 9.2598 18.7981 9.28835 18.8059V18.8059Z" fill="black"/>
<path d="M8.86888 18.575C8.86888 18.4348 8.86886 18.1543 8.63513 18.1543C8.61673 18.197 8.60841 18.2434 8.61073 18.2898C8.61306 18.3362 8.62596 18.3815 8.64854 18.4221C8.67112 18.4628 8.70272 18.4977 8.74091 18.5242C8.77911 18.5507 8.82291 18.5681 8.86888 18.575V18.575Z" fill="black"/>
<path d="M11.2058 19.8334L12.5381 20.6047C12.5647 20.5715 12.5791 20.5303 12.5791 20.4878C12.5791 20.4453 12.5647 20.4041 12.5381 20.3709L11.2292 19.5996C11.1992 19.63 11.1805 19.6698 11.1762 19.7123C11.172 19.7549 11.1824 19.7976 11.2058 19.8334Z" fill="black"/>
<path d="M13.543 21.3098C13.543 21.3098 13.543 21.0293 13.3794 21.0293L13.543 21.3098Z" fill="black"/>
<path d="M14.2915 21.7024C14.2915 21.7024 14.2915 21.4453 14.1512 21.4453C14.1366 21.498 14.143 21.5543 14.1692 21.6023C14.1954 21.6503 14.2393 21.6862 14.2915 21.7024V21.7024Z" fill="black"/>
<path d="M13.9643 21.5188C13.9798 21.4629 13.9741 21.4033 13.9482 21.3515C13.9223 21.2997 13.878 21.2593 13.8241 21.2383C13.8083 21.2651 13.7995 21.2955 13.7984 21.3267C13.7974 21.3578 13.8041 21.3887 13.8181 21.4166C13.832 21.4444 13.8527 21.4684 13.8782 21.4862C13.9037 21.5041 13.9333 21.5153 13.9643 21.5188Z" fill="black"/>
<path d="M14.9687 22.1711C14.9687 22.1711 14.9688 21.8906 14.8052 21.8906C14.8052 21.8906 14.8519 22.1711 14.9687 22.1711Z" fill="black"/>
<path d="M14.6416 21.8899C14.6485 21.8623 14.6496 21.8335 14.645 21.8054C14.6404 21.7772 14.6302 21.7503 14.6149 21.7263C14.5996 21.7022 14.5796 21.6816 14.5561 21.6655C14.5326 21.6494 14.5059 21.6383 14.478 21.6328V21.6328C14.47 21.6882 14.4821 21.7445 14.5121 21.7917C14.5422 21.8389 14.5881 21.8737 14.6416 21.8899V21.8899Z" fill="black"/>
<path d="M26.4932 10.1579L28.3163 11.2331H28.3396H28.363H28.3864H28.4097L28.55 11.1396V11.1162V11.0928L26.7269 10.041H26.7035H26.6801H26.6567H26.6334L26.4932 10.1345V10.1579Z" fill="black"/>
</g>
<defs>
<filter id="filter0_d_30_2195" x="0.957031" y="0.765625" width="40.3662" height="29" filterUnits="userSpaceOnUse" color-interpolation-filters="sRGB">
<feFlood flood-opacity="0" result="BackgroundImageFix"/>
<feColorMatrix in="SourceAlpha" type="matrix" values="0 0 0 0 0 0 0 0 0 0 0 0 0 0 0 0 0 0 127 0" result="hardAlpha"/>
<feOffset/>
<feGaussianBlur stdDeviation="3.5"/>
<feComposite in2="hardAlpha" operator="out"/>
<feColorMatrix type="matrix" values="0 0 0 0 0 0 0 0 0 0.109927 0 0 0 0 0.325 0 0 0 0.5 0"/>
<feBlend mode="normal" in2="BackgroundImageFix" result="effect1_dropShadow_30_2195"/>
<feBlend mode="normal" in="SourceGraphic" in2="effect1_dropShadow_30_2195" result="shape"/>
</filter>
</defs>
</svg>
