<svg width="28" height="16" fill="none" xmlns="http://www.w3.org/2000/svg"><path d="M26.433 12.32h.14l.561-.328-.56.327h-.14Z" fill="#B8BDD1"/><path d="M27.323 11.664h-.163l-.561.327h-.14.116l.702-.42.046.093Z" fill="#D6DBE4"/><path d="m1.237 10.684 7.269 4.184a.958.958 0 0 0 .912 0C26.2 5.19 25.24 5.775 25.358 5.518v-.14a74.8 74.8 0 0 0-7.386-4.324 1.099 1.099 0 0 0-1.052.117L1.587 10.029c-.35.21-.327.187-.42.304v.164c.01.066.033.13.07.187Zm0-.42.28-.164L16.85 1.24a.795.795 0 0 1 .912.001c7.9 4.675 7.269 4.184 7.363 4.277v.164c0 .164.958-.49-15.894 9.35a.748.748 0 0 1-.702 0L1.26 10.823a.303.303 0 0 1-.163-.14l.14-.42Z" fill="#B8BDD1"/><path d="m1.144 11.454 7.27 4.208a1.053 1.053 0 0 0 .91 0l15.754-9.093a.374.374 0 0 0 .187-.187v-.888c-.117.21 1.075-.537-15.94 9.35a.958.958 0 0 1-.912 0L1.144 10.66a.468.468 0 0 1-.187-.187v.888l.187.093Zm20.054-2.991h.117l1.333-.772h.257l-1.426.842h-.21l-.07-.07ZM7.828 14.82c.118 0 .211.187.164.28-.14.07-.21-.186-.163-.28Zm-.35-.187c.117 0 .21.187.164.257a.234.234 0 0 1-.164-.257Zm-.327-.187s.21.164.14.257a.21.21 0 0 1-.14-.257Zm-.327-.187a.234.234 0 0 1 .14.28.211.211 0 0 1-.155-.193.21.21 0 0 1 .015-.087Zm-.35-.21c.116 0 .21.187.163.28-.094-.023-.094-.187-.094-.28h-.07Zm-.328-.187s.21.163.14.257a.21.21 0 0 1-.14-.257ZM4.112 12.67l1.31.771a.187.187 0 0 1 0 .234l-1.216-.842a.187.187 0 0 1 0-.163h-.094ZM2.15 11.548a.187.187 0 0 1 .14.28.21.21 0 0 1-.14-.28Zm-.608-.374c.164 0 .304.28.234.42a.303.303 0 0 1-.234-.42Z" fill="#9495B4"/><path d="m1.354 10.498 7.27 4.207a.748.748 0 0 0 .7 0C26.06 5.052 25.126 5.636 25.22 5.355v-.163s.537.28-7.363-4.277a.771.771 0 0 0-.912 0L1.613 9.773l-.281.164v.56h.023Zm5.937 1.823-.888.514h-.117L4.58 11.83l.888-.514h.14l1.73 1.005h-.047Zm14.912-7.667a.21.21 0 0 1 .304 0 .21.21 0 0 1-.304 0Zm-.397-.21h.28a.163.163 0 0 1-.22.058.165.165 0 0 1-.06-.058Zm-.958-1.122a.188.188 0 0 1 .28 0 .21.21 0 0 1-.304 0h.024Zm-1.356-.21h.14l1.824 1.052h-.14l-1.824-1.052ZM3.131 9.446 15.776 2.13H16.08l7.152 4.137L10.47 13.63h-.14L3.178 9.493l-.047-.047Z" fill="#494760"/><path d="m21.198 8.535 1.309-.771h-.164l-1.332.771h-.117.304Z" fill="#B8BDD1"/><path d="m22.906 7.46-1.31.772h.117l1.426-.841-.233.07Z" fill="#D6DBE4"/><path d="M10.377 13.56v.024h.047l12.598-7.27.07-.07h.024-.024v-.023l-3.53-2.034-12.714 7.34 3.53 2.033Z" fill="#252431"/><path d="M3.295 9.495h.023l3.53 2.034 12.715-7.34-3.53-2.033h-.023v-.023h-.023v.023l-.047.024L3.318 9.472h-.023v.023Z" fill="#0B0B0E"/><path d="m3.13 9.495 7.153 4.138h.14L23.185 6.27l-7.152-4.137h-.28L3.106 9.449l.024.046Zm.164 0 12.622-7.292 3.53 2.033 3.529 2.057-12.598 7.27-3.53-2.034-3.53-2.034h-.023Z" fill="#262533"/><path d="M5.491 11.363h-.023l-.818.491.818.468.841-.468-.818-.49Z" fill="#000"/><path d="m7.128 12.325-.818-.468-.841.468.818.49h.023v-.023l.818-.467Z" fill="#262533"/><path d="m7.269 12.321-1.73-1.005H5.4l-.888.515 1.706 1.005h.117l.888-.515h.047Zm-.14 0-.819.468-.818-.49-.818-.468.818-.491.818.49.819.468v.023Z" fill="#9495B4"/><path d="M21.152 3.485a.188.188 0 0 0-.28 0 .21.21 0 0 0 .28 0Zm-.234 0h.14-.163.023ZM22.509 4.725a.212.212 0 0 0-.304 0 .21.21 0 0 0 .304 0Zm-.21 0h.14-.14ZM22.11 4.49h-.28a.187.187 0 0 0 .28 0Zm-.21 0h.14-.14Z" fill="#262533"/><path d="M6.286 14.12a.187.187 0 0 0-.14-.257.21.21 0 0 0 .14.257ZM2.288 11.806a.187.187 0 0 0-.14-.28.21.21 0 0 0 .14.28ZM1.869 11.575c0-.14 0-.42-.234-.42a.304.304 0 0 0 .234.42ZM4.206 12.833l1.332.772a.187.187 0 0 0 0-.234L4.23 12.6a.187.187 0 0 0-.023.233ZM6.543 14.31s0-.28-.164-.28l.164.28ZM7.291 14.702s0-.257-.14-.257a.21.21 0 0 0 .14.257ZM6.964 14.519a.234.234 0 0 0-.14-.28.187.187 0 0 0 .14.28ZM7.969 15.171s0-.28-.164-.28c0 0 .047.28.164.28ZM7.642 14.89a.21.21 0 0 0-.164-.257.234.234 0 0 0 .164.257ZM19.493 3.158l1.823 1.075h.094l.14-.093v-.047L19.727 3.04h-.094l-.14.094v.023Z" fill="#000"/></svg>