<svg width="77" height="95" viewBox="0 0 77 95" fill="none" xmlns="http://www.w3.org/2000/svg">
<path d="M54.0614 76.8083L53.9817 76.9221L53.8906 77.0473L53.7654 77.1498L53.6059 77.2523L35.2765 87.8401L35.1057 87.9198L34.9122 87.9995L34.7073 88.0564H34.491H34.2747H33.8192H33.6029H33.3866L33.1817 87.9995L32.9996 87.9198L32.8288 87.8401L23.8804 82.6714L44.6689 70.6719L53.6059 75.8406L53.7654 75.9316L53.8906 76.0455L53.9817 76.1593L54.0614 76.2846V76.4098V76.6716V76.8083Z" fill="#484859"/>
<path d="M0.957301 42.803V42.7461V42.6892V42.6323L1.0484 42.5639L74.1841 0.337891H74.2752H74.4346L76.6204 1.61298H76.4952H76.4041L3.26844 43.839L3.17734 43.9074V43.9643V44.0212V93.9092V94.0914V94.1597V94.228L0.900391 92.9529V92.896V92.839V92.7593V92.5886V42.8599L0.957301 42.803Z" fill="#444455"/>
<path d="M54.0614 76.7954L53.9817 76.9206L53.8906 77.0459L53.7654 77.1483L53.6173 77.2508L35.2765 87.8386L35.1057 87.9183L34.9122 87.998L34.7073 88.0549L34.5024 88.1004L34.2747 88.1232H34.047H33.8192L33.6029 88.1004L33.3866 88.0549L33.1817 87.998L32.9996 87.9183L32.8288 87.8386L23.8804 82.6699L23.2656 83.0229L32.8288 88.5445L32.9996 88.6242L33.1817 88.7038L33.3866 88.7608L33.6029 88.8063L33.8192 88.8291H33.9217H33.9786H34.047H34.1153H34.1836H34.2747L34.5024 88.8063L34.7073 88.7608L34.9122 88.7038L35.1057 88.6242L35.2765 88.5445L53.6173 77.9566L53.7654 77.8542L53.8906 77.7517L53.9817 77.6265L54.0614 77.5126L54.1069 77.376L54.1183 77.2508V76.5449L54.1069 76.6702L54.0614 76.7954Z" fill="#353542"/>
<path d="M76.6029 1.42969H76.6484L76.6826 1.44108L76.7167 1.45248L76.7395 1.47524L76.7737 1.50939L76.785 1.54354L76.8078 1.57769L76.8192 1.68015V51.3974L76.7964 51.591L76.7737 51.6934L76.7281 51.8072L76.6826 51.9097L76.637 52.0122L76.5687 52.1032L76.5118 52.1943L76.4321 52.274L76.3638 52.3537L76.2044 52.4676L51.1693 66.9262L50.0878 65.1274L74.5422 51.0103L74.5877 50.9762L74.6333 50.9306L74.6674 50.8737L74.6902 50.8168L74.713 50.7485V50.6915V5.11837V5.06143L74.6902 5.02727L74.6674 4.99312L74.6333 4.98176L74.5877 4.99312L74.5422 5.00452L29.5952 30.9617L28.5137 29.163L76.4663 1.47524L76.5574 1.44108L76.6029 1.42969Z" fill="#414150"/>
<path d="M74.7135 5.11708V50.6903V50.7472L74.6907 50.8155L74.6679 50.8724L74.6338 50.9293L74.5882 50.9749L74.5427 51.009L50.0883 65.1261L29.5957 30.9605L74.5427 5.00323L74.5882 4.99183L74.6338 4.98047L74.6679 4.99183L74.6907 5.02598L74.7135 5.06014V5.11708Z" fill="#44C7D9"/>
<path d="M50.0877 65.1267L5.2317 91.0042H5.152V45.2033V45.1464L5.60742 44.8846L29.5154 31.0976L28.4338 29.2988L3.25077 43.8372L3.15967 43.9055V43.9624V44.0193V93.9073V94.0895V94.1578V94.2261H3.21658H3.43289L3.59229 94.1578L23.2652 82.773L23.8799 82.4201L44.6685 70.4206L51.1578 66.675L50.0877 65.1267Z" fill="#353542"/>
<path d="M5.07275 45.3285L5.08415 45.2602L5.09555 45.2033L5.12966 45.1464L5.16385 45.0894L5.20937 45.0439L5.25495 45.0098L29.5956 30.9609L50.0881 65.1266L5.25495 91.0042L5.20937 91.0269H5.16385L5.12966 91.0155L5.09555 90.9928L5.08415 90.9472L5.07275 90.9017V45.3285Z" fill="#00B7CE"/>
<path d="M42.5838 77.434C42.5838 77.434 42.5838 77.5007 42.5838 77.5118C42.5838 77.5118 42.5838 77.4562 42.5838 77.4007C42.5838 77.3452 42.5838 77.3008 42.5838 77.3008C42.5709 77.3206 42.564 77.3438 42.564 77.3674C42.564 77.3911 42.5709 77.4142 42.5838 77.434Z" fill="white"/>
<path d="M40.9749 78.2653C40.9194 78.2653 40.886 78.2653 40.8971 78.3541C40.9083 78.443 40.8971 78.4208 40.9971 78.4097C41.0187 78.4069 41.0385 78.3964 41.0529 78.38C41.0672 78.3637 41.075 78.3426 41.0748 78.3208C41.0674 78.3013 41.0533 78.285 41.035 78.2749C41.0167 78.2647 40.9954 78.2613 40.9749 78.2653V78.2653Z" fill="white"/>
<path d="M42.6057 77.5334C42.6057 77.5334 42.6057 77.4779 42.6057 77.4224C42.6057 77.3668 42.6057 77.3224 42.6057 77.3224C42.5945 77.351 42.5945 77.3827 42.6057 77.4113C42.6057 77.4113 42.6057 77.4779 42.6057 77.489V77.5334ZM42.5391 77.4335C42.5391 77.1892 42.5391 77.1448 42.5391 77.1336C42.5391 77.1225 42.6057 77.1336 42.6279 77.3779C42.6651 77.4859 42.6651 77.6031 42.6279 77.7111C42.6279 77.7111 42.5613 77.6889 42.5391 77.4335Z" fill="black"/>
<path d="M40.8646 78.7006C40.8273 78.7052 40.7894 78.7021 40.7532 78.6916C40.7171 78.6812 40.6835 78.6634 40.6544 78.6396C40.6253 78.6157 40.6014 78.5861 40.5841 78.5527C40.5668 78.5193 40.5564 78.4827 40.5537 78.4451C40.5565 78.4072 40.5668 78.3702 40.584 78.3362C40.6011 78.3022 40.6249 78.272 40.6537 78.2472C40.6826 78.2225 40.7162 78.2037 40.7524 78.1919C40.7886 78.1801 40.8267 78.1756 40.8646 78.1787C40.9394 78.1756 41.0125 78.2016 41.0684 78.2513C41.1243 78.301 41.1588 78.3705 41.1645 78.4451C41.1617 78.4816 41.1517 78.5172 41.1351 78.5499C41.1184 78.5825 41.0956 78.6115 41.0677 78.6352C41.0398 78.659 41.0075 78.677 40.9727 78.6882C40.9379 78.6994 40.9011 78.7036 40.8646 78.7006ZM40.8646 78.3563C40.8646 78.3563 40.8646 78.4229 40.9646 78.4118C40.9862 78.4091 41.006 78.3986 41.0203 78.3822C41.0347 78.3658 41.0425 78.3448 41.0423 78.323C41.0276 78.313 41.0102 78.3076 40.9924 78.3076C40.9745 78.3076 40.9571 78.313 40.9424 78.323C40.898 78.2786 40.8646 78.3119 40.8757 78.3563H40.8646Z" fill="black"/>
<path d="M42.6168 78.6765C42.6075 78.5171 42.5739 78.3599 42.517 78.2107C42.517 78.2107 42.517 78.2107 42.4615 78.2107C42.4061 78.2107 42.4615 78.2107 42.3173 78.2107C42.287 78.1935 42.2535 78.1828 42.2188 78.1792C42.1842 78.1755 42.1491 78.1789 42.1159 78.1893C42.0826 78.1997 42.0518 78.2168 42.0254 78.2396C41.999 78.2623 41.9776 78.2902 41.9624 78.3216C41.8486 78.4859 41.7101 78.6318 41.552 78.7542C41.4632 78.7542 41.2969 78.8318 41.2969 78.8651C41.2969 78.8984 41.4743 78.976 41.6518 79.0093H41.8404C42.0015 79.0075 42.1618 78.9851 42.3173 78.9427C42.4134 78.9237 42.5019 78.8775 42.5724 78.8096C42.5962 78.7688 42.6113 78.7235 42.6168 78.6765V78.6765Z" fill="#FF8600"/>
<path d="M36.8933 79.1418C36.8442 79.2137 36.8179 79.2987 36.8179 79.3858C36.8179 79.4729 36.8442 79.5579 36.8933 79.6298C37.0174 79.9281 37.1816 80.2079 37.3813 80.4617C37.6521 80.7926 38.0091 81.0421 38.4129 81.1827C39.0451 81.3491 39.2891 81.1827 39.3557 80.8499C39.3572 80.6474 39.3032 80.4483 39.1995 80.2743C39.0959 80.1003 38.9466 79.958 38.7678 79.8628C38.3918 79.7884 38.0339 79.6414 37.7141 79.4302C37.3702 79.1418 37.3481 79.042 37.2039 78.9643C37.0597 78.8867 37.0042 78.9089 36.9709 78.9643C36.9377 79.0198 36.9266 79.1307 36.8933 79.1418Z" fill="#FFCA00"/>
<path d="M39.0895 76.5693C39.3508 76.1582 39.7586 75.8619 40.2303 75.7404C40.702 75.6189 41.2022 75.6812 41.6296 75.9149C42.0608 76.2083 42.3811 76.638 42.5391 77.135C42.5391 77.135 42.5391 77.1905 42.5391 77.4345C42.5391 77.6785 42.5391 77.7118 42.5391 77.7118C42.5308 77.8797 42.5086 78.0467 42.4726 78.2109C42.4726 78.2109 42.4726 78.2109 42.4171 78.2109C42.3616 78.2109 42.4171 78.2109 42.2729 78.2109C42.2426 78.1938 42.209 78.1831 42.1744 78.1794C42.1397 78.1758 42.1047 78.1792 42.0715 78.1896C42.0382 78.2 42.0074 78.2171 41.981 78.2398C41.9546 78.2626 41.9332 78.2905 41.918 78.3218C41.8041 78.4862 41.6657 78.6321 41.5076 78.7544C41.4189 78.7544 41.2525 78.8321 41.2525 78.8654C41.2525 78.8986 41.4299 78.9763 41.6074 79.0096H41.796C41.4968 79.2034 41.1419 79.293 40.7866 79.2647C40.4626 79.254 40.1453 79.1696 39.8589 79.0177C39.5725 78.8658 39.3245 78.6506 39.1339 78.3884C38.9562 78.1179 38.8524 77.8056 38.8329 77.4826C38.8135 77.1595 38.879 76.837 39.023 76.5472L39.0895 76.5693ZM40.8642 78.699C40.9007 78.702 40.9374 78.6978 40.9722 78.6866C41.007 78.6754 41.0392 78.6574 41.0671 78.6337C41.0949 78.61 41.1178 78.581 41.1344 78.5485C41.1509 78.5159 41.1609 78.4803 41.1637 78.4439C41.1581 78.3693 41.1236 78.2999 41.0678 78.2503C41.0119 78.2006 40.9389 78.1746 40.8642 78.1777C40.8263 78.1746 40.7882 78.1791 40.7521 78.1909C40.7159 78.2026 40.6825 78.2214 40.6536 78.2462C40.6247 78.2709 40.601 78.3011 40.5839 78.335C40.5667 78.369 40.5565 78.4059 40.5537 78.4439C40.5564 78.4814 40.5667 78.5179 40.584 78.5513C40.6013 78.5847 40.6252 78.6142 40.6542 78.6381C40.6833 78.6619 40.7169 78.6796 40.753 78.6901C40.7891 78.7006 40.8269 78.7036 40.8642 78.699V78.699Z" fill="#FFFF00"/>
<path d="M42.6278 80.1859C42.722 79.7484 42.7029 79.2941 42.5724 78.866C42.5019 78.9339 42.4133 78.9801 42.3172 78.9991C42.1617 79.0415 42.0015 79.0638 41.8403 79.0656C41.5411 79.2595 41.1863 79.3491 40.8309 79.3208C40.5069 79.3101 40.1896 79.2257 39.9032 79.0738C39.6168 78.9219 39.3689 78.7067 39.1782 78.4445C39.0005 78.174 38.8967 77.8617 38.8773 77.5387C38.8578 77.2156 38.9233 76.8931 39.0673 76.6032C38.5879 76.5178 38.1011 76.4807 37.6143 76.4923C37.4024 76.5186 37.2037 76.6092 37.045 76.7521C36.8863 76.8949 36.7753 77.083 36.7269 77.2909C36.5232 78.0528 36.5619 78.8593 36.8378 79.5981V79.5981C36.7887 79.5262 36.7624 79.4411 36.7624 79.354C36.7624 79.267 36.7887 79.1819 36.8378 79.11C36.8378 79.11 36.8379 79.0546 36.8933 78.9769C36.9488 78.8993 36.9931 78.8771 37.1262 78.9769C37.2593 79.0768 37.2926 79.1544 37.6365 79.4428C37.9563 79.6541 38.3142 79.801 38.6902 79.8754C38.869 79.9706 39.0183 80.1129 39.1219 80.2869C39.2255 80.4609 39.2795 80.66 39.2781 80.8625C39.2115 81.2175 38.9675 81.3617 38.3352 81.1953C37.9315 81.0547 37.5745 80.8052 37.3037 80.4743C37.6156 80.8509 37.991 81.17 38.4129 81.4171C38.8228 81.6601 39.2831 81.8054 39.7582 81.842C40.2332 81.8785 40.7104 81.8053 41.1526 81.6279C41.4931 81.5177 41.8035 81.3302 42.0594 81.08C42.3154 80.8299 42.5099 80.5239 42.6278 80.1859V80.1859Z" fill="#FFE500"/>
</svg>
