<svg width="91" height="109" viewBox="0 0 91 109" fill="none" xmlns="http://www.w3.org/2000/svg">
<g filter="url(#filter0_d_43_69)">
<path d="M61.0614 83.9626L60.9817 84.0764L60.8906 84.2016L60.7654 84.3041L60.6059 84.4066L42.2765 94.9944L42.1057 95.0741L41.9122 95.1538L41.7073 95.2107H41.491H41.2747H40.8192H40.6029H40.3866L40.1817 95.1538L39.9996 95.0741L39.8288 94.9944L30.8804 89.8257L51.6689 77.8262L60.6059 82.9949L60.7654 83.0859L60.8906 83.1998L60.9817 83.3136L61.0614 83.4389V83.5641V83.8259V83.9626Z" fill="#484859"/>
<path d="M7.9573 49.9573V49.9004V49.8435V49.7866L8.0484 49.7182L81.1841 7.49219H81.2752H81.4346L83.6204 8.76727H83.4952H83.4041L10.2684 50.9933L10.1773 51.0617V51.1186V51.1755V101.064V101.246V101.314V101.382L7.90039 100.107V100.05V99.9933V99.9136V99.7429V50.0142L7.9573 49.9573Z" fill="#444455"/>
<path d="M61.0614 83.9497L60.9817 84.0749L60.8906 84.2002L60.7654 84.3026L60.6173 84.4051L42.2765 94.9929L42.1057 95.0726L41.9122 95.1523L41.7073 95.2092L41.5024 95.2547L41.2747 95.2775H41.047H40.8192L40.6029 95.2547L40.3866 95.2092L40.1817 95.1523L39.9996 95.0726L39.8288 94.9929L30.8804 89.8242L30.2656 90.1771L39.8288 95.6988L39.9996 95.7785L40.1817 95.8581L40.3866 95.9151L40.6029 95.9606L40.8192 95.9834H40.9217H40.9786H41.047H41.1153H41.1836H41.2747L41.5024 95.9606L41.7073 95.9151L41.9122 95.8581L42.1057 95.7785L42.2765 95.6988L60.6173 85.1109L60.7654 85.0085L60.8906 84.906L60.9817 84.7808L61.0614 84.6669L61.1069 84.5303L61.1183 84.4051V83.6992L61.1069 83.8245L61.0614 83.9497Z" fill="#353542"/>
<path d="M83.6029 8.58398H83.6484L83.6826 8.59538L83.7167 8.60678L83.7395 8.62953L83.7737 8.66369L83.785 8.69784L83.8078 8.73199L83.8192 8.83445V58.5517L83.7964 58.7452L83.7737 58.8477L83.7281 58.9615L83.6826 59.064L83.637 59.1665L83.5687 59.2575L83.5118 59.3486L83.4321 59.4283L83.3638 59.508L83.2044 59.6219L58.1693 74.0805L57.0878 72.2817L81.5422 58.1646L81.5877 58.1305L81.6333 58.0849L81.6674 58.028L81.6902 57.9711L81.713 57.9028V57.8458V12.2727V12.2157L81.6902 12.1816L81.6674 12.1474L81.6333 12.1361L81.5877 12.1474L81.5422 12.1588L36.5952 38.116L35.5137 36.3173L83.4663 8.62953L83.5574 8.59538L83.6029 8.58398Z" fill="#414150"/>
<path d="M81.7135 12.2714V57.8446V57.9015L81.6907 57.9698L81.6679 58.0267L81.6338 58.0836L81.5882 58.1292L81.5427 58.1633L57.0883 72.2804L36.5957 38.1148L81.5427 12.1575L81.5882 12.1461L81.6338 12.1348L81.6679 12.1461L81.6907 12.1803L81.7135 12.2144V12.2714Z" fill="#44C7D9"/>
<path d="M57.0877 72.281L12.2317 98.1585H12.152V52.3576V52.3007L12.6074 52.0389L36.5154 38.2519L35.4338 36.4531L10.2508 50.9915L10.1597 51.0598V51.1167V51.1736V101.062V101.244V101.312V101.38H10.2166H10.4329L10.5923 101.312L30.2652 89.9273L30.8799 89.5744L51.6685 77.5749L58.1578 73.8293L57.0877 72.281Z" fill="#353542"/>
<path d="M12.0728 52.4828L12.0841 52.4145L12.0955 52.3576L12.1297 52.3007L12.1639 52.2437L12.2094 52.1982L12.2549 52.1641L36.5956 38.1152L57.0881 72.2809L12.2549 98.1585L12.2094 98.1812H12.1639L12.1297 98.1698L12.0955 98.1471L12.0841 98.1015L12.0728 98.056V52.4828Z" fill="#00B7CE"/>
<path d="M49.5838 84.5883C49.5838 84.5883 49.5838 84.655 49.5838 84.6661C49.5838 84.6661 49.5838 84.6105 49.5838 84.555C49.5838 84.4995 49.5838 84.4551 49.5838 84.4551C49.5709 84.4749 49.564 84.498 49.564 84.5217C49.564 84.5454 49.5709 84.5685 49.5838 84.5883Z" fill="white"/>
<path d="M47.9749 85.4196C47.9194 85.4196 47.886 85.4196 47.8971 85.5084C47.9083 85.5973 47.8971 85.5751 47.9971 85.564C48.0187 85.5612 48.0385 85.5507 48.0529 85.5343C48.0672 85.518 48.075 85.4969 48.0748 85.4751C48.0674 85.4556 48.0533 85.4393 48.035 85.4292C48.0167 85.419 47.9954 85.4156 47.9749 85.4196V85.4196Z" fill="white"/>
<path d="M49.6057 84.6877C49.6057 84.6877 49.6057 84.6322 49.6057 84.5767C49.6057 84.5211 49.6057 84.4767 49.6057 84.4767C49.5945 84.5053 49.5945 84.537 49.6057 84.5656C49.6057 84.5656 49.6057 84.6322 49.6057 84.6433V84.6877ZM49.5391 84.5877C49.5391 84.3435 49.5391 84.299 49.5391 84.2879C49.5391 84.2768 49.6057 84.2879 49.6279 84.5322C49.6651 84.6402 49.6651 84.7574 49.6279 84.8654C49.6279 84.8654 49.5613 84.8432 49.5391 84.5877Z" fill="black"/>
<path d="M47.8646 85.8549C47.8273 85.8595 47.7894 85.8564 47.7532 85.8459C47.7171 85.8355 47.6835 85.8177 47.6544 85.7939C47.6253 85.77 47.6014 85.7404 47.5841 85.707C47.5668 85.6736 47.5564 85.637 47.5537 85.5994C47.5565 85.5615 47.5668 85.5245 47.584 85.4905C47.6011 85.4565 47.6249 85.4263 47.6537 85.4015C47.6826 85.3768 47.7162 85.358 47.7524 85.3462C47.7886 85.3344 47.8267 85.3299 47.8646 85.3329C47.9394 85.3299 48.0125 85.3559 48.0684 85.4056C48.1243 85.4553 48.1588 85.5248 48.1645 85.5994C48.1617 85.6359 48.1517 85.6715 48.1351 85.7042C48.1184 85.7368 48.0956 85.7658 48.0677 85.7895C48.0398 85.8133 48.0075 85.8313 47.9727 85.8425C47.9379 85.8537 47.9011 85.8579 47.8646 85.8549ZM47.8646 85.5106C47.8646 85.5106 47.8646 85.5772 47.9646 85.5661C47.9862 85.5634 48.006 85.5529 48.0203 85.5365C48.0347 85.5201 48.0425 85.4991 48.0423 85.4773C48.0276 85.4673 48.0102 85.4619 47.9924 85.4619C47.9745 85.4619 47.9571 85.4673 47.9424 85.4773C47.898 85.4329 47.8646 85.4662 47.8757 85.5106H47.8646Z" fill="black"/>
<path d="M49.6168 85.8308C49.6075 85.6713 49.5739 85.5142 49.517 85.365C49.517 85.365 49.517 85.365 49.4615 85.365C49.4061 85.365 49.4615 85.365 49.3173 85.365C49.287 85.3478 49.2535 85.3371 49.2188 85.3334C49.1842 85.3298 49.1491 85.3332 49.1159 85.3436C49.0826 85.354 49.0518 85.3711 49.0254 85.3939C48.999 85.4166 48.9776 85.4445 48.9624 85.4759C48.8486 85.6402 48.7101 85.7861 48.552 85.9085C48.4632 85.9085 48.2969 85.9861 48.2969 86.0194C48.2969 86.0527 48.4743 86.1303 48.6518 86.1636H48.8404C49.0015 86.1618 49.1618 86.1394 49.3173 86.097C49.4134 86.078 49.5019 86.0318 49.5724 85.9639C49.5962 85.9231 49.6113 85.8778 49.6168 85.8308V85.8308Z" fill="#FF8600"/>
<path d="M43.8933 86.2961C43.8442 86.368 43.8179 86.453 43.8179 86.5401C43.8179 86.6272 43.8442 86.7122 43.8933 86.7841C44.0174 87.0823 44.1816 87.3622 44.3813 87.616C44.6521 87.9469 45.0091 88.1964 45.4129 88.337C46.0451 88.5034 46.2891 88.337 46.3557 88.0042C46.3572 87.8017 46.3032 87.6026 46.1995 87.4286C46.0959 87.2546 45.9466 87.1122 45.7678 87.0171C45.3918 86.9427 45.0339 86.7957 44.7141 86.5845C44.3702 86.2961 44.3481 86.1963 44.2039 86.1186C44.0597 86.041 44.0042 86.0632 43.9709 86.1186C43.9377 86.1741 43.9266 86.285 43.8933 86.2961Z" fill="#FFCA00"/>
<path d="M46.0895 83.7236C46.3508 83.3125 46.7586 83.0162 47.2303 82.8947C47.702 82.7731 48.2022 82.8355 48.6296 83.0692C49.0608 83.3626 49.3811 83.7923 49.5391 84.2893C49.5391 84.2893 49.5391 84.3448 49.5391 84.5888C49.5391 84.8328 49.5391 84.8661 49.5391 84.8661C49.5308 85.034 49.5086 85.201 49.4726 85.3652C49.4726 85.3652 49.4726 85.3652 49.4171 85.3652C49.3616 85.3652 49.4171 85.3652 49.2729 85.3652C49.2426 85.3481 49.209 85.3374 49.1744 85.3337C49.1397 85.3301 49.1047 85.3335 49.0715 85.3439C49.0382 85.3543 49.0074 85.3714 48.981 85.3941C48.9546 85.4169 48.9332 85.4448 48.918 85.4761C48.8041 85.6405 48.6657 85.7864 48.5076 85.9087C48.4189 85.9087 48.2525 85.9864 48.2525 86.0197C48.2525 86.0529 48.4299 86.1306 48.6074 86.1639H48.796C48.4968 86.3577 48.1419 86.4473 47.7866 86.419C47.4626 86.4083 47.1453 86.3239 46.8589 86.172C46.5725 86.0201 46.3245 85.8049 46.1339 85.5427C45.9562 85.2722 45.8524 84.9599 45.8329 84.6369C45.8135 84.3138 45.879 83.9913 46.023 83.7014L46.0895 83.7236ZM47.8642 85.8533C47.9007 85.8563 47.9374 85.8521 47.9722 85.8409C48.007 85.8297 48.0392 85.8117 48.0671 85.788C48.0949 85.7643 48.1178 85.7353 48.1344 85.7028C48.1509 85.6702 48.1609 85.6346 48.1637 85.5982C48.1581 85.5236 48.1236 85.4542 48.0678 85.4046C48.0119 85.3549 47.9389 85.3289 47.8642 85.332C47.8263 85.3289 47.7882 85.3334 47.7521 85.3452C47.7159 85.3569 47.6825 85.3757 47.6536 85.4005C47.6247 85.4252 47.601 85.4554 47.5839 85.4893C47.5667 85.5233 47.5565 85.5602 47.5537 85.5982C47.5564 85.6357 47.5667 85.6722 47.584 85.7056C47.6013 85.739 47.6252 85.7685 47.6542 85.7924C47.6833 85.8162 47.7169 85.8339 47.753 85.8444C47.7891 85.8549 47.8269 85.8579 47.8642 85.8533V85.8533Z" fill="#FFFF00"/>
<path d="M49.6278 87.3402C49.722 86.9027 49.7029 86.4484 49.5724 86.0203C49.5019 86.0882 49.4133 86.1344 49.3172 86.1534C49.1617 86.1958 49.0015 86.2181 48.8403 86.2199C48.5411 86.4138 48.1863 86.5034 47.8309 86.4751C47.5069 86.4644 47.1896 86.38 46.9032 86.2281C46.6168 86.0762 46.3689 85.861 46.1782 85.5988C46.0005 85.3283 45.8967 85.016 45.8773 84.693C45.8578 84.3699 45.9233 84.0474 46.0673 83.7575C45.5879 83.6721 45.1011 83.635 44.6143 83.6466C44.4024 83.6729 44.2037 83.7635 44.045 83.9064C43.8863 84.0492 43.7753 84.2373 43.7269 84.4452C43.5232 85.2071 43.5619 86.0136 43.8378 86.7524V86.7524C43.7887 86.6805 43.7624 86.5954 43.7624 86.5083C43.7624 86.4213 43.7887 86.3362 43.8378 86.2643C43.8378 86.2643 43.8379 86.2089 43.8933 86.1312C43.9488 86.0536 43.9931 86.0314 44.1262 86.1312C44.2593 86.231 44.2926 86.3087 44.6365 86.5971C44.9563 86.8083 45.3142 86.9553 45.6902 87.0297C45.869 87.1249 46.0183 87.2672 46.1219 87.4412C46.2255 87.6152 46.2795 87.8143 46.2781 88.0168C46.2115 88.3718 45.9675 88.516 45.3352 88.3496C44.9315 88.209 44.5745 87.9595 44.3037 87.6286C44.6156 88.0052 44.991 88.3242 45.4129 88.5714C45.8228 88.8144 46.2831 88.9597 46.7582 88.9963C47.2332 89.0328 47.7104 88.9596 48.1526 88.7822C48.4931 88.672 48.8035 88.4845 49.0594 88.2343C49.3154 87.9842 49.5099 87.6781 49.6278 87.3402V87.3402Z" fill="#FFE500"/>
</g>
<defs>
<filter id="filter0_d_43_69" x="0.900391" y="0.492188" width="89.9189" height="107.891" filterUnits="userSpaceOnUse" color-interpolation-filters="sRGB">
<feFlood flood-opacity="0" result="BackgroundImageFix"/>
<feColorMatrix in="SourceAlpha" type="matrix" values="0 0 0 0 0 0 0 0 0 0 0 0 0 0 0 0 0 0 127 0" result="hardAlpha"/>
<feOffset/>
<feGaussianBlur stdDeviation="3.5"/>
<feComposite in2="hardAlpha" operator="out"/>
<feColorMatrix type="matrix" values="0 0 0 0 0 0 0 0 0 0.109927 0 0 0 0 0.325 0 0 0 0.5 0"/>
<feBlend mode="normal" in2="BackgroundImageFix" result="effect1_dropShadow_43_69"/>
<feBlend mode="normal" in="SourceGraphic" in2="effect1_dropShadow_43_69" result="shape"/>
</filter>
</defs>
</svg>
