<svg width="72" height="129" viewBox="0 0 72 129" fill="none" xmlns="http://www.w3.org/2000/svg">
<g filter="url(#filter0_d_30_2574)">
<g filter="url(#filter1_d_30_2574)">
<rect width="64.7792" height="81.5882" transform="matrix(0.866025 -0.5 2.20305e-08 1 8.67334 40.375)" fill="#FFDE25"/>
<rect width="62.0715" height="78.1779" transform="matrix(0.866025 -0.5 2.20305e-08 1 9.84619 41.4023)" fill="white"/>
<path d="M37.1519 72.7524L27.565 101.331L23.8477 100.766M37.1519 72.7524L44.9779 91.2777L49.4779 85.9686M37.1519 72.7524L37.1519 48.8051M37.1519 48.8051L27.565 66.9915M37.1519 48.8051L44.9779 56.9382" stroke="black" stroke-width="1.05215" stroke-linecap="round"/>
<circle r="7.05497" transform="matrix(0.866025 -0.5 2.20305e-08 1 37.1738 41.1694)" stroke="black" stroke-width="1.05215"/>
<circle r="0.894329" transform="matrix(0.866025 -0.5 2.20305e-08 1 35.0108 40.8847)" fill="black"/>
<circle r="0.894329" transform="matrix(0.866025 -0.5 2.20305e-08 1 39.2931 38.414)" fill="black"/>
<path d="M33.3247 43.3867C33.3247 45.8273 35.0381 46.8165 37.1517 45.5962C38.263 44.9546 39.2636 43.83 39.9628 42.5529" stroke="black" stroke-width="1.05215" stroke-linecap="round"/>
<path d="M8.67402 40.3768L8.67402 121.961L7.125 121.066L7.125 39.4824L8.67402 40.3768Z" fill="#E9CA32"/>
<rect width="64.7814" height="1.78866" transform="matrix(0.866026 -0.5 0.866025 0.5 7.125 39.4824)" fill="#FFE867"/>
</g>
</g>
<defs>
<filter id="filter0_d_30_2574" x="0.0332031" y="-3.02734" width="71.7632" height="135.131" filterUnits="userSpaceOnUse" color-interpolation-filters="sRGB">
<feFlood flood-opacity="0" result="BackgroundImageFix"/>
<feColorMatrix in="SourceAlpha" type="matrix" values="0 0 0 0 0 0 0 0 0 0 0 0 0 0 0 0 0 0 127 0" result="hardAlpha"/>
<feOffset/>
<feGaussianBlur stdDeviation="3.5"/>
<feComposite in2="hardAlpha" operator="out"/>
<feColorMatrix type="matrix" values="0 0 0 0 0 0 0 0 0 0.109927 0 0 0 0 0.325 0 0 0 0.5 0"/>
<feBlend mode="normal" in2="BackgroundImageFix" result="effect1_dropShadow_30_2574"/>
<feBlend mode="normal" in="SourceGraphic" in2="effect1_dropShadow_30_2574" result="shape"/>
</filter>
<filter id="filter1_d_30_2574" x="6.29833" y="6.26513" width="59.3047" height="116.524" filterUnits="userSpaceOnUse" color-interpolation-filters="sRGB">
<feFlood flood-opacity="0" result="BackgroundImageFix"/>
<feColorMatrix in="SourceAlpha" type="matrix" values="0 0 0 0 0 0 0 0 0 0 0 0 0 0 0 0 0 0 127 0" result="hardAlpha"/>
<feOffset/>
<feGaussianBlur stdDeviation="0.413335"/>
<feComposite in2="hardAlpha" operator="out"/>
<feColorMatrix type="matrix" values="0 0 0 0 0 0 0 0 0 0.180392 0 0 0 0 0.533333 0 0 0 1 0"/>
<feBlend mode="normal" in2="BackgroundImageFix" result="effect1_dropShadow_30_2574"/>
<feBlend mode="normal" in="SourceGraphic" in2="effect1_dropShadow_30_2574" result="shape"/>
</filter>
</defs>
</svg>
