<svg width="81" height="199" viewBox="0 0 81 199" fill="none" xmlns="http://www.w3.org/2000/svg">
<g clip-path="url(#clip0_125_1221)">
<g style="mix-blend-mode:multiply" opacity="0.25">
<path d="M13.2942 156.71C13.2942 156.71 4.74439 165.791 10.0903 172.199C17.6141 181.198 13.6902 177.517 42.3995 195.418C46.1739 197.397 50.3554 198.476 54.6163 198.57C58.8773 198.664 63.1021 197.77 66.9599 195.958C77.1027 191.152 89.9184 182.071 69.0929 170.327C46.1794 157.421 13.2942 156.71 13.2942 156.71Z" fill="#231F20"/>
</g>
<path d="M3.75385 167.816C2.34989 166.241 1.51291 163.865 1.50391 160.778C1.50391 152.58 7.27276 142.563 14.4006 138.441C17.1005 136.875 19.6475 136.38 21.7354 136.83H21.9424C31.8422 139.314 34.5421 145.02 34.5421 145.02C34.5421 145.02 22.2934 174.089 19.5935 174.881C14.5176 176.402 10.0897 173.252 6.91278 170.66C5.90118 169.868 4.93375 169.02 4.01485 168.122L3.89785 167.996L3.71785 167.834L3.75385 167.816Z" fill="#040505"/>
<path d="M23.0947 143.705C30.2315 139.592 36.0544 142.904 36.0814 151.103C36.1084 159.302 30.3125 169.328 23.1757 173.45C20.5388 174.971 18.0818 175.484 16.0299 175.097C12.5289 174.44 10.207 171.218 10.189 166.052C10.171 157.853 15.9939 147.827 23.0947 143.705Z" fill="#1F2626"/>
<path d="M20.6202 167.519C18.1632 167.519 16.5612 165.548 16.5522 162.488C16.6742 160.218 17.3303 158.008 18.4672 156.039C19.6041 154.07 21.1897 152.398 23.0951 151.157C24.0342 150.592 25.1044 150.282 26.2 150.257C28.666 150.257 30.2589 152.228 30.2679 155.279C30.1457 157.552 29.4886 159.763 28.35 161.734C27.2115 163.704 25.6238 165.378 23.7161 166.619C22.7812 167.186 21.7133 167.496 20.6202 167.519Z" fill="#0E1111"/>
<path d="M23.0946 151.157C24.0336 150.592 25.1038 150.282 26.1995 150.257C26.4102 150.259 26.6207 150.274 26.8295 150.302C27.4067 151.292 27.6936 152.424 27.6575 153.569C27.5401 155.84 26.8869 158.05 25.7513 160.019C24.6156 161.989 23.0298 163.661 21.1236 164.9C20.1845 165.465 19.1143 165.775 18.0187 165.8C17.8075 165.8 17.5967 165.782 17.3887 165.746C16.8113 164.759 16.5214 163.631 16.5517 162.488C16.6736 160.218 17.3297 158.008 18.4667 156.039C19.6036 154.07 21.1892 152.398 23.0946 151.157Z" fill="#525252"/>
<path d="M22.3565 136.244C34.2542 135.938 36.4952 140.744 36.4952 140.744C36.4952 140.744 39.2671 146.288 18.0366 147.944C-3.97685 149.654 9.49583 136.586 22.3565 136.244Z" fill="#D5D5D5"/>
<path d="M11.656 141.402C11.827 142.581 15.7959 142.995 20.5298 142.302C25.2636 141.609 28.9716 140.133 28.7916 138.954C28.6116 137.775 24.5437 136.461 19.7918 137.154C15.0399 137.847 11.494 140.232 11.656 141.402Z" fill="#EDEDED"/>
<path d="M16.1472 135.579L16.8582 135.246L25.543 131.448C26.2609 131.143 27.0511 131.05 27.82 131.181C28.5889 131.312 29.3041 131.661 29.8809 132.186C31.0994 133.399 31.8215 135.022 31.9058 136.74L32.2118 153.191L16.3542 162.002L16.6422 142.329C16.5506 141.236 16.0941 140.206 15.3462 139.404C15.0685 139.025 14.9374 138.558 14.9772 138.09C14.9858 137.613 15.0943 137.143 15.2958 136.71C15.4974 136.278 15.7874 135.892 16.1472 135.579Z" fill="#BABABA"/>
<path d="M32.9226 152.858L32.6167 136.425C32.5406 134.703 31.8174 133.073 30.5917 131.862C30.0139 131.339 29.2987 130.991 28.5303 130.861C27.7619 130.73 26.9721 130.821 26.2538 131.124L16.723 135.201C16.3722 135.365 16.0664 135.612 15.8316 135.92C15.5968 136.229 15.44 136.589 15.3746 136.971C15.3092 137.353 15.3371 137.745 15.4559 138.114C15.5747 138.482 15.781 138.817 16.0571 139.089C16.8416 139.862 17.3045 140.904 17.353 142.005L17.074 161.687L32.9226 152.858Z" fill="white"/>
<path d="M20.8719 137.855C20.8995 137.925 20.9407 137.987 20.993 138.04C21.0452 138.093 21.1076 138.135 21.1764 138.164C21.2451 138.192 21.3189 138.207 21.3934 138.206C21.4678 138.206 21.5414 138.191 21.6099 138.161L29.7097 134.732C29.7871 134.71 29.8589 134.672 29.9204 134.62C29.9819 134.568 30.0316 134.504 30.0663 134.431C30.1009 134.359 30.1198 134.28 30.1215 134.199C30.1232 134.119 30.1078 134.039 30.0762 133.965C30.0447 133.891 29.9978 133.824 29.9386 133.77C29.8793 133.715 29.8092 133.674 29.7328 133.649C29.6564 133.624 29.5755 133.615 29.4955 133.623C29.4155 133.632 29.3382 133.657 29.2687 133.698L21.1689 137.117C21.1005 137.146 21.0385 137.188 20.9865 137.24C20.9345 137.293 20.8934 137.356 20.8658 137.424C20.8381 137.493 20.8244 137.566 20.8255 137.64C20.8265 137.714 20.8423 137.788 20.8719 137.855Z" fill="#DBDBDB"/>
<path d="M43.0208 182.513L63.4053 170.669L63.4863 166.799L43.1108 178.643L43.0208 182.513Z" fill="#0F1F1E"/>
<path d="M43.1108 178.643L63.4863 166.799L34.9929 150.356L14.6174 162.2L43.1108 178.643Z" fill="#919191"/>
<path d="M14.6173 162.2L14.5273 166.07L42.9127 182.702L43.1107 178.643L14.6173 162.2Z" fill="#B0B0B0"/>
<path d="M14.5273 166.07L16.4623 168.959L34.3989 179.57L34.6959 177.86L14.5273 166.07Z" fill="#9B9B9B"/>
<path d="M17.9285 160.274V161.831L37.98 172.919L38.97 170.975L17.9285 160.274Z" fill="#D5D5D5"/>
<path d="M51.6777 162.083L32.5891 151.256L17.9285 160.292L42.6869 173.639L58.0765 167.438L51.6777 162.083Z" fill="#B5B5B5"/>
<path d="M39.3124 168.707C39.3124 168.707 38.9074 169.049 41.6614 167.177C43.2813 166.088 48.0332 162.569 49.2392 162.542C53.7841 162.452 55.143 165.242 55.143 165.242L56.493 163.469L55.431 162.236L52.6501 160.859L50.0312 160.283L48.2312 160.949L39.3124 168.707Z" fill="#EEEEEE"/>
<path d="M56.7724 163.802L56.7274 165.188C56.7288 165.248 56.7166 165.308 56.6917 165.362C56.6667 165.417 56.6297 165.465 56.5834 165.503L47.2236 173.171L56.7724 163.802Z" fill="#EEEEEE"/>
<path d="M47.1781 173.09C47.193 173.103 47.2122 173.11 47.2321 173.11C47.252 173.11 47.2713 173.103 47.2861 173.09C49.4371 171.074 56.6279 164.828 56.7899 163.838C56.9519 162.848 55.6829 161.957 54.9179 161.507C53.037 160.4 49.671 159.41 48.0511 160.688C45.7291 162.488 39.9513 167.969 39.2133 168.662C39.2133 168.662 39.1503 168.752 39.2133 168.77C39.2763 168.788 39.3123 168.77 39.3483 168.77C40.1133 168.122 46.1521 163.046 48.4741 161.21C49.707 160.247 52.614 160.904 54.6029 162.11C55.7639 162.794 56.2229 163.433 56.1689 163.766C55.9799 164.414 50.859 169.094 47.2231 173.009C47.1691 173.009 47.1331 173.063 47.1781 173.09Z" fill="#929292"/>
<path d="M43.6325 163.451C43.6702 163.501 43.7259 163.535 43.788 163.545C43.8502 163.555 43.9137 163.541 43.9654 163.505C44.0554 163.442 44.1274 163.334 44.0554 163.262C43.2065 162.169 42.1667 161.239 40.9865 160.517C40.1432 160.057 39.1765 159.875 38.2236 159.995C38.1914 159.997 38.1599 160.006 38.1314 160.021C38.1029 160.036 38.078 160.057 38.0584 160.083C38.0388 160.108 38.0249 160.138 38.0177 160.169C38.0104 160.201 38.0101 160.234 38.0166 160.265C38.0334 160.323 38.0714 160.373 38.123 160.405C38.1746 160.436 38.2361 160.447 38.2956 160.436C39.1527 160.341 40.0184 160.508 40.7795 160.913C41.8675 161.591 42.8323 162.449 43.6325 163.451Z" fill="#D5DFEF"/>
<path d="M31.9058 162.902C31.6416 162.295 31.2832 161.733 30.8438 161.237C30.5068 160.834 30.1017 160.493 29.6469 160.229C29.369 160.024 29.0411 159.898 28.6975 159.863C28.3539 159.828 28.0073 159.886 27.6939 160.031L23.113 162.731C23.4265 162.589 23.772 162.531 24.1148 162.564C24.4576 162.597 24.7857 162.72 25.066 162.92C25.5185 163.194 25.9254 163.537 26.272 163.937C26.7113 164.433 27.0697 164.995 27.3339 165.602C27.6346 166.249 27.7971 166.95 27.8109 167.663C27.848 168.007 27.7934 168.355 27.6527 168.671C27.5121 168.987 27.2903 169.26 27.0099 169.463L31.5818 166.763C31.8672 166.565 32.0928 166.293 32.234 165.975C32.3752 165.658 32.4267 165.308 32.3828 164.963C32.369 164.251 32.2065 163.549 31.9058 162.902Z" fill="#D5D5D5"/>
<path d="M25.0657 162.884C25.8565 163.407 26.513 164.109 26.982 164.933C27.4511 165.757 27.7195 166.68 27.7657 167.627C27.7657 169.373 26.5237 170.075 25.0027 169.202C24.2129 168.678 23.5572 167.975 23.0883 167.152C22.6194 166.328 22.3503 165.406 22.3028 164.459C22.2938 162.713 23.5538 162.011 25.0657 162.884Z" fill="#A9A9A9"/>
<path d="M24.9939 163.964C25.5465 164.326 26.0063 164.812 26.3362 165.385C26.666 165.957 26.8567 166.599 26.8928 167.258C26.8928 168.473 25.9928 168.959 24.9759 168.347C24.4239 167.987 23.9645 167.502 23.6346 166.931C23.3047 166.36 23.1137 165.72 23.0769 165.062C23.0859 163.847 23.9499 163.379 24.9939 163.964Z" fill="#77200C"/>
<path d="M24.9936 163.964C24.7944 163.817 24.5575 163.729 24.3105 163.712C24.0635 163.694 23.8166 163.747 23.5986 163.865C23.469 164.121 23.407 164.406 23.4186 164.693C23.4511 165.353 23.6403 165.996 23.9705 166.569C24.3007 167.142 24.7624 167.628 25.3176 167.987C25.5162 168.131 25.7508 168.217 25.9953 168.236C26.2399 168.255 26.485 168.206 26.7035 168.095C26.8352 167.836 26.9001 167.548 26.8925 167.258C26.8564 166.598 26.6657 165.957 26.3359 165.384C26.006 164.812 25.5462 164.326 24.9936 163.964Z" fill="#9B3212"/>
<path d="M44.3884 162.227C44.4261 162.277 44.4819 162.311 44.544 162.321C44.6061 162.331 44.6697 162.317 44.7214 162.281C44.8114 162.218 44.8744 162.101 44.8114 162.02C43.9429 160.945 42.8919 160.031 41.7065 159.32C40.8582 158.866 39.8867 158.695 38.9345 158.834C38.9023 158.836 38.8709 158.845 38.8424 158.86C38.8139 158.875 38.789 158.896 38.7693 158.922C38.7497 158.947 38.7358 158.977 38.7286 159.008C38.7214 159.04 38.721 159.072 38.7275 159.104C38.7478 159.162 38.7878 159.211 38.8405 159.242C38.8931 159.273 38.9551 159.285 39.0155 159.275C39.8692 159.162 40.7367 159.316 41.4995 159.716C42.6012 160.379 43.5788 161.228 44.3884 162.227Z" fill="#D5DFEF"/>
<path d="M41.3369 171.965L40.0139 156.314C39.8943 154.674 40.1243 153.026 40.6889 151.481C40.9291 150.821 41.314 150.223 41.8155 149.731C42.3169 149.239 42.9222 148.865 43.5869 148.637L54.5666 144.812C54.7221 144.781 54.8825 144.783 55.0374 144.817C55.1924 144.851 55.3385 144.917 55.4666 145.01C55.6916 145.127 56.3665 145.496 56.2586 145.829L54.9716 146.243C54.5727 147.38 54.4164 148.588 54.5126 149.789L55.7186 163.379L41.3369 171.965Z" fill="#BABABA"/>
<path d="M42.3994 172.505L41.0674 156.863C40.9426 155.22 41.1728 153.568 41.7424 152.021C41.9854 151.363 42.3713 150.766 42.8723 150.274C43.3734 149.783 43.9772 149.408 44.6404 149.178L55.5931 145.38C55.6936 145.346 55.8014 145.341 55.9046 145.365C56.0078 145.389 56.1024 145.44 56.1781 145.515C56.2508 145.589 56.3011 145.683 56.3234 145.785C56.3456 145.886 56.3389 145.992 56.3041 146.091L56.0521 146.82C55.6476 147.952 55.4851 149.157 55.5751 150.356L56.7451 163.973L42.3994 172.505Z" fill="white"/>
<path d="M55.5927 150.329L55.6557 150.968L41.049 156.458C40.9841 155.146 41.1516 153.833 41.544 152.579L55.8897 147.404C55.6194 148.354 55.5189 149.344 55.5927 150.329Z" fill="#D7D7D7"/>
<path d="M31.4243 148.01C31.4243 148.01 30.8816 149.732 30.3806 151.026C30.0466 151.872 23.1474 156.005 18.6593 157.706C18.2626 157.863 18.1687 158.823 18.1687 159.794C18.9903 160.335 19.9199 160.691 20.8929 160.838C22.4084 161.063 23.949 161.063 25.4645 160.838C28.2983 160.235 31.0021 159.132 33.4492 157.581C33.4492 157.581 33.9084 157.372 33.9189 157.811C33.9189 158.009 33.9189 158.667 33.9189 158.855L38.6262 157.018C38.8565 156.272 39.0207 155.507 39.1168 154.732C39.2104 152.36 39.0881 149.984 38.7514 147.634L31.4243 148.01Z" fill="#172833"/>
<path d="M30.6836 69.0717C30.6836 69.0717 30.5375 101.428 30.6836 114.778C30.7671 124.933 30.1512 150.14 30.0677 150.516C29.3476 153.866 38.1568 151.653 39.7329 150.516C39.7329 150.516 41.1315 135.298 41.6847 124.505C41.7682 122.929 42.217 116.959 42.2796 115.853C43.0729 103.411 46.8826 65.9718 46.8826 65.9718C46.8826 65.9718 40.1817 65.1889 37.3114 65.0637C31.5186 64.8341 30.6836 69.0717 30.6836 69.0717Z" fill="#1B415B"/>
<g style="mix-blend-mode:multiply" opacity="0.18">
<path d="M41.6427 124.485C41.0895 135.277 39.6909 150.495 39.6909 150.495C38.5226 151.132 37.2618 151.583 35.9543 151.831C36.0586 151.131 36.1317 150.62 36.1526 150.495C36.2361 150.119 36.8623 124.912 36.7788 114.757C36.664 101.407 39.0647 69.4893 39.0647 69.4893C39.0647 69.4893 38.8142 69.8651 42.1959 68.9674C44.7218 69.1971 45.9951 65.8362 46.684 65.9302H46.8406C46.8406 65.9302 43.0309 103.369 42.2376 115.811C42.175 116.959 41.7262 122.929 41.6427 124.485Z" fill="#383736"/>
</g>
<path d="M18.148 159.846C18.1371 159.651 18.1371 159.456 18.148 159.262C18.6386 159.731 20.8513 160.211 23.0119 160.305C26.4667 160.504 31.6333 158.218 32.7292 157.592C33.5433 157.091 33.9504 157.383 33.9504 157.383L38.95 155.441C38.8515 155.962 38.7261 156.478 38.5742 156.986L33.8669 158.823C33.8669 158.667 33.8669 158.009 33.8669 157.779C33.8669 157.341 33.3972 157.55 33.3972 157.55C30.95 159.101 28.2463 160.203 25.4125 160.806C23.897 161.032 22.3564 161.032 20.8409 160.806C19.8852 160.681 18.9673 160.354 18.148 159.846Z" fill="#515151"/>
<path d="M29.6273 148.422L42.8983 129.296L45.5788 130.799L32.3039 149.94C30.6095 152.318 29.4189 154.865 28.7487 157.546L27.4571 163.061L24.8078 161.536L26.1398 156.031C26.785 153.35 27.953 150.801 29.6273 148.422Z" fill="#D9D9D9"/>
<path d="M45.205 130.964L31.8571 149.925C30.1516 152.282 28.9573 154.81 28.291 157.473L27.0087 162.953L29.0983 162.873L30.4217 157.404C31.0627 154.837 32.2116 152.4 33.8523 150.128L47.1581 131.161L45.205 130.964Z" fill="#EEEEEE"/>
<path d="M35.7304 128.004C36.737 128.877 40.0391 128.171 43.1045 126.424C46.1699 124.677 46.7575 120.83 45.7671 119.956C44.7767 119.083 43.4174 122.093 40.3521 123.84C37.2867 125.588 34.7238 127.13 35.7304 128.004Z" stroke="#171717" stroke-width="3"/>
<path d="M39.5592 131.652C40.5658 132.526 43.868 131.82 46.9334 130.072C49.9987 128.325 50.5864 124.479 49.596 123.605C48.6056 122.731 47.2463 125.741 44.1809 127.489C41.1155 129.236 38.5526 130.778 39.5592 131.652Z" stroke="#171717" stroke-width="3"/>
<g clip-path="url(#clip1_125_1221)">
<path d="M30.9757 157.978L33.8982 158.855L35.2446 156.809L33.5016 156.36L30.9757 157.978Z" fill="#141011"/>
<path d="M53.9491 152.039C53.9491 152.039 54.7423 159.679 54.8571 163.071C54.9406 165.576 52.0286 168.426 48.5946 168.645C47.9688 168.679 47.3417 168.679 46.7159 168.645C45.4738 168.645 44.9102 167.079 45.4738 163.792C45.9748 160.89 47.4256 151.267 47.5613 151.267L53.9491 152.039Z" fill="#515151"/>
<path d="M53.9491 150.87C53.9491 150.87 54.7423 158.51 54.8571 161.902C54.9406 164.397 52.0286 167.257 48.5946 167.466C47.969 167.505 47.3415 167.505 46.7159 167.466C45.4738 167.466 44.9102 165.9 45.4738 162.623C45.9748 159.721 47.4256 150.098 47.5613 150.098L53.9491 150.87Z" fill="#172833"/>
<path d="M39.2427 67.2766C40.0359 74.4055 43.5951 111.114 44.618 122.136C45.7139 133.951 45.4634 155.86 45.4634 155.86C45.3799 157.3 48.8556 159.231 48.8556 159.231C53.9073 159.033 55.7443 156.559 55.7548 156.1C55.7548 156.1 55.7548 154.315 56.3184 139.702C56.6315 130.987 55.6295 119.37 55.6504 118.827C55.9844 108.651 56.5376 84.3211 56.4958 81.9622C56.578 77.9647 55.9453 73.9846 54.6276 70.2096C52.9367 64.2185 47.3213 63.9471 44.6075 64.6047C42.7259 65.294 40.9265 66.1902 39.2427 67.2766Z" fill="#2B2A29"/>
<path d="M37.2384 65.0746C37.468 67.1621 37.0714 75.1155 37.6246 80.7308C37.7498 81.9416 40.7558 81.9103 40.8602 83.215C42.2171 96.9298 43.9914 114.987 44.6177 122.136C45.7136 133.952 45.4631 155.86 45.4631 155.86C45.3796 157.3 48.8553 159.231 48.8553 159.231C53.9071 159.033 55.7441 156.559 55.7545 156.1C55.7545 156.1 55.7545 154.315 56.3181 139.703C56.6313 130.987 55.6293 119.37 55.6501 118.828C55.9841 108.651 56.5373 84.3213 56.4956 81.9624C56.3808 74.8336 55.8067 72.5687 55.0448 70.2933C53.2182 64.8136 47.2897 64.0308 44.6073 64.6466C42.1616 64.9348 39.701 65.0777 37.2384 65.0746Z" fill="#1B415B"/>
<g style="mix-blend-mode:multiply" opacity="0.33">
<path d="M55.692 156.267C55.6633 156.336 55.6284 156.402 55.5876 156.465C55.525 156.549 55.4519 156.653 55.358 156.757C55.2592 156.87 55.1547 156.978 55.0449 157.081C54.742 157.352 54.4134 157.593 54.0637 157.801C53.6104 158.08 53.1273 158.308 52.6234 158.48C52.2476 147.458 53.3122 132.574 51.7466 123.524C51.5379 122.334 50.3062 117.314 50.2749 115.874C50.0035 104.288 51.423 85.1561 50.8803 72.4641C50.7446 69.4163 49.5756 65.7736 48.4797 64.375C50.0537 64.6544 51.5156 65.3759 52.6948 66.4553C53.874 67.5347 54.7217 68.9273 55.1388 70.4705C55.7964 72.7772 56.4748 74.6456 56.5896 81.7848C56.5896 84.1437 56.0782 108.473 55.7442 118.65C55.7442 119.245 56.7253 130.862 56.4122 139.525C55.9007 154.138 55.8485 155.922 55.8485 155.922C55.8602 155.974 55.8602 156.027 55.8485 156.079C55.8485 156.079 55.7024 156.246 55.692 156.267Z" fill="#141413"/>
</g>
<path d="M19.1831 80.0132C19.1831 80.0132 18.5255 81.9337 17.5653 84.3447C16.8611 85.6796 16.3983 87.1283 16.198 88.6241C16.1458 89.4591 17.0747 92.7991 17.6696 93.3419C18.5255 94.0829 18.4838 92.8722 19.0161 93.3419C20.1225 94.323 21.4271 93.1331 21.8446 92.9765C23.2433 92.4651 22.2204 90.7116 22.3979 89.1773C22.4918 88.3423 23.5355 87.3403 23.7443 85.8582C23.9843 84.136 22.6379 81.0778 22.6379 81.0778L19.1831 80.0132Z" fill="#E0A88C"/>
<path d="M17.6801 81.8605C17.6801 81.8605 24.7672 64.1168 25.9675 58.6684C26.9486 54.2638 25.3621 46.7488 26.051 40.7264C27.4705 28.4101 32.397 24.59 35.4447 25.9782C35.3717 27.8674 35.0586 31.9693 34.735 37.9082C34.4532 43.0435 37.574 55.652 36.645 59.6495C34.1922 70.2854 24.381 85.6598 24.381 85.6598C22.9905 85.6375 21.6289 85.2602 20.4252 84.5639C19.3369 83.8575 18.4031 82.9378 17.6801 81.8605Z" fill="#234968"/>
<g style="mix-blend-mode:multiply" opacity="0.31">
<path d="M34.6724 37.908C34.3905 43.0432 39.6197 56.0797 37.8871 59.8267C34.474 67.2165 24.3183 85.67 24.3183 85.67C22.9279 85.6476 21.5662 85.2704 20.3625 84.574C20.039 84.3235 19.7571 84.0835 19.4857 83.8538C25.7482 78.3115 29.3283 66.7155 30.5286 64.2418C31.1549 62.958 27.46 61.6324 27.5853 61.2984C27.7105 60.9644 29.464 60.9644 30.5286 60.1503C30.7478 59.9833 29.5371 59.284 28.4411 58.856C27.3452 58.4281 27.627 57.3113 27.9402 57.3008C29.0778 57.2382 30.4869 57.186 30.8522 55.5056C32.1986 49.4518 33.9104 38.3463 33.7956 32.4283C33.7956 31.8229 33.7956 31.1653 33.8582 30.5078C34.0356 28.1176 34.5888 25.7065 35.3821 25.9883C35.3299 27.3139 35.1629 29.725 34.9646 32.9397C34.8706 34.3697 34.7663 36.0605 34.6724 37.908Z" fill="#383736"/>
</g>
<g style="mix-blend-mode:multiply" opacity="0.33">
<path d="M37.0001 6.72125L39.2754 4.46676C47.114 4.25801 45.3918 4.19538 47.8864 4.59201C47.8864 4.59201 47.2184 7.1805 47.8864 7.55625C48.5544 7.932 49.8904 8.76701 49.7129 8.67308C49.2746 8.45389 46.9679 9.12188 45.9137 9.56025C42.3336 11.0528 40.2774 11.8148 38.2317 10.8649C37.8427 10.6235 37.515 10.2952 37.2741 9.9059C37.0333 9.51656 36.8859 9.07673 36.8435 8.62088C36.8644 6.77345 37.0001 6.72125 37.0001 6.72125Z" fill="#6D4827"/>
</g>
<path d="M60.9642 44.3376C60.9642 44.3376 61.3087 34.3698 51.0799 28.0446C44.5252 24.0158 39.5987 26.0093 39.5987 26.0093C39.2229 26.0093 28.5349 28.5143 29.276 40.6218C30.3823 59.0545 31.3635 73.4895 31.3635 73.4895C31.3414 74.0249 31.4518 74.5574 31.6849 75.0399C31.9179 75.5224 32.2664 75.9399 32.6995 76.2555C35.5812 78.3968 38.7416 80.135 42.0933 81.422C47.9069 83.5095 57.0293 81.1402 57.9165 79.585C58.8037 78.0298 54.7852 71.0471 55.6933 64.1584C56.6013 57.2696 60.9642 44.3376 60.9642 44.3376Z" fill="#CEE8F6"/>
<path d="M51.1949 28.1074C54.3512 30.2335 57.3896 32.5296 60.2964 34.9857C62.624 37.2089 64.7741 39.5782 64.4714 41.7597C63.8988 44.7686 63.0065 47.7077 61.8099 50.5272C60.2338 54.6291 58.1254 72.0597 58.2507 73.4062C59.0857 81.9858 59.5658 85.3675 59.5658 85.3675C59.5658 85.3675 52.0299 87.2463 44.9533 88.6971C44.1392 88.8641 44.0348 88.2274 44.0348 88.2274C44.0348 88.2274 42.991 72.7591 42.991 61.4239C42.991 56.7688 49.5458 38.1796 50.9861 34.4012C52.4265 30.6229 52.1238 28.7963 51.1949 28.1074Z" fill="#234968"/>
<g style="mix-blend-mode:multiply" opacity="0.3">
<path d="M44.5359 25.6855C44.5359 25.6855 33.5348 36.0604 33.4304 51.4975C33.3574 61.935 33.7122 85.0332 33.7122 85.0332C33.7122 85.0332 33.6183 85.5237 33.2321 85.1062C32.4493 84.2712 30.2366 81.2548 30.2366 81.2548C30.2366 81.2548 29.8712 68.6463 29.4329 58.9916C28.9945 49.3369 28.3891 35.1732 31.8439 29.37C33.7227 26.2387 40.1313 26.2387 39.0875 26.1239L44.5359 25.6855Z" fill="#383736"/>
</g>
<path d="M51.0276 17.4404C51.0276 18.7137 51.0276 29.3496 51.0276 29.3496C50.907 30.5972 50.3591 31.7649 49.4766 32.655C48.594 33.5451 47.4311 34.103 46.1846 34.2343C45.0363 34.3841 43.8696 34.1832 42.8377 33.6579C41.8057 33.1326 40.9567 32.3075 40.4022 31.2909V19.8097C40.4022 19.8097 51.0276 15.1128 51.0276 17.4404Z" fill="#DBB397"/>
<path d="M50.9861 26.8027C51.1817 26.8306 51.3639 26.918 51.508 27.0532C52.6665 28.2222 54.7749 30.4454 54.7749 30.4454L52.5309 43.3357C52.4369 43.6697 52.3952 43.962 52.0716 44.0872L48.502 45.7155L50.0363 48.3457C50.5477 49.1807 50.4538 49.0451 50.1198 49.5774C45.4856 57.1132 43.1684 61.8623 43.1684 61.8623C43.2473 56.0197 44.2151 50.2231 46.0387 44.6717C47.0825 41.6344 48.9821 35.4763 50.0363 31.9067C50.6045 30.262 50.9246 28.5418 50.9861 26.8027Z" fill="#183744"/>
<path d="M43.7739 25.6855C43.7739 25.6855 42.7302 25.9987 40.6427 28.7646C37.4071 32.9918 32.5849 41.2165 32.491 49.076C32.3553 59.5761 32.6267 83.9164 32.6267 83.9164C32.6267 83.9164 32.5432 84.4174 32.157 83.9999C31.3742 83.1649 29.1614 80.138 29.1614 80.138C29.1614 80.138 29.1614 66.1935 28.5769 56.5492C27.9089 46.3309 26.8026 35.3402 30.6644 28.5663C31.0758 27.8036 31.6752 27.1587 32.4059 26.6928C33.1367 26.227 33.9744 25.9557 34.8394 25.9047C38.4195 25.9047 43.7739 25.6855 43.7739 25.6855Z" fill="#234968"/>
<path d="M39.2024 23.0972C39.2024 23.0972 33.1278 32.7623 31.3743 35.5074C31.2729 35.6984 31.213 35.9088 31.1986 36.1247C31.1842 36.3405 31.2156 36.557 31.2908 36.7599L32.7103 39.4214L30.1218 41.9995L32.2928 57.9897C32.2928 57.9897 32.6268 45.997 33.8689 41.6759C35.111 37.3548 41.697 26.8442 41.697 26.8442L39.2024 23.0972Z" fill="#183744"/>
<g style="mix-blend-mode:multiply" opacity="0.36">
<path d="M40.3611 31.2905V27.9296L40.5698 19.8927C40.5698 19.8927 49.5043 18.4837 51.0073 19.6109V20.7173C50.9153 21.2022 50.7195 21.6616 50.4333 22.0637C50.1101 22.4194 49.7613 22.7508 49.3895 23.0553C49.1599 23.9425 49.1286 24.861 48.9094 25.6021C48.7887 26.1449 48.5453 26.6528 48.198 27.087C47.8506 27.5212 47.4085 27.8702 46.9054 28.107C45.9451 28.7437 44.0455 29.7457 42.5425 30.5494C42.3598 31.5192 42.2967 32.5077 42.3547 33.4928C41.5342 32.9166 40.853 32.1641 40.3611 31.2905Z" fill="#DBB397"/>
</g>
<path d="M36.1753 8.70371L38.2628 6.61621L51.3411 9.74746L49.3579 21.8445C49.1387 22.7108 48.9822 23.932 48.763 24.7148C48.4082 25.9673 48.0219 26.103 46.9156 26.7084C45.2714 27.5749 43.557 28.3011 41.7907 28.8794C40.58 29.3073 37.8349 28.4619 37.6157 27.4912C37.4174 26.2596 36.8851 24.1408 36.2276 19.4021C36.2309 18.5851 36.3361 17.7717 36.5407 16.9806C36.5407 16.6362 36.0188 14.8931 36.0188 14.6635C36.1232 12.4508 36.1753 8.70371 36.1753 8.70371Z" fill="#EFCAB1"/>
<g style="mix-blend-mode:multiply" opacity="0.25">
<path d="M54.2111 50.5484C56.4969 44.7973 63.6883 39.2655 63.4274 41.4469C63.3987 44.5443 62.8736 47.6171 61.8722 50.5484C60.2962 54.6503 58.1878 72.081 58.313 73.4274C59.148 82.007 59.6281 85.3888 59.6281 85.3888C59.6281 85.3888 54.4094 86.683 48.6374 87.9564C48.6374 83.5935 49.0758 70.3692 49.2115 67.1545C49.4098 61.9357 50.5266 59.7647 54.2111 50.5484Z" fill="#8E8E8E"/>
</g>
<g style="mix-blend-mode:multiply" opacity="0.17">
<path d="M52.1238 12.3572L51.3619 13.8289L49.3683 21.7092C49.1491 22.565 49.076 23.7967 48.8673 24.5377C48.502 25.7902 48.0323 26.0616 46.9259 26.6252C45.74 27.2967 44.5006 27.8692 43.2206 28.337C43.2206 28.2535 43.7633 26.1764 43.8781 25.2788C44.1182 23.2748 44.5044 20.9264 45.1515 20.06C45.9343 19.0163 46.1953 18.5884 46.1118 18.1813C45.9294 17.5046 45.6812 16.8474 45.3707 16.2191C45.3782 15.1083 45.4619 13.9993 45.6212 12.8999C45.7778 10.04 48.2828 10.3323 50.0572 9.95655C51.3827 9.67474 51.5184 11.8666 52.1238 12.3572Z" fill="#6D4827"/>
</g>
<path d="M36.6344 6.18848C35.2149 7.61842 36.3735 10.5931 37.8661 11.6682C38.9098 12.4614 40.0788 12.0857 41.3835 11.8143C43.304 11.4072 45.6315 10.8332 47.1032 10.5931C47.9173 10.4574 48.8776 11.0837 48.8776 12.6806L47.4894 19.0266C48.0331 18.8191 48.5458 18.5382 49.0133 18.1916C49.0133 18.1916 50.057 17.7741 50.3702 18.0246C51.4139 18.9535 51.1321 19.7572 51.0277 19.9138V24.5376C51.1112 24.4332 52.6768 19.799 52.9691 18.9431C53.8563 16.292 54.0128 15.9475 55.234 11.7308C55.9438 9.29886 51.2156 3.06768 44.3791 2.67105C40.9973 2.4623 36.6344 6.18848 36.6344 6.18848Z" fill="#492F15"/>
<path d="M54.7856 6.18855C52.8826 3.89325 50.2271 2.34733 47.2915 1.82568C42.7408 1.18899 38.5032 3.91318 36.6871 5.94849C36.3047 6.33355 36.016 6.80139 35.8433 7.31585C35.6707 7.8303 35.6186 8.37758 35.6913 8.91535C35.7639 9.45312 35.9593 9.96699 36.2623 10.4172C36.5652 10.8674 36.9677 11.2419 37.4385 11.5117C39.6304 12.8686 41.6135 11.1359 44.8074 9.69555C47.0417 8.70856 49.5141 8.38955 51.9258 8.77704C51.5105 8.41292 51.0424 8.11381 50.5376 7.88987C50.2766 7.76462 49.1807 7.45149 49.1807 7.45149C49.9526 6.82005 50.8611 6.37714 51.834 6.15792C52.8069 5.9387 53.8175 5.94919 54.7856 6.18855Z" fill="#6D4827"/>
<path d="M52.009 16.3757C50.0154 15.7181 49.17 18.004 48.2723 19.2773C47.573 23.4523 49.3161 22.7948 50.6208 21.8136C51.386 21.2567 52.026 20.5456 52.4995 19.7261C53.2615 18.2753 53.1676 16.7619 52.009 16.3757Z" fill="#DBB397"/>
<path d="M62.1417 89.2398C62.1417 89.2398 63.4777 88.3318 63.6238 88.9267C64.1216 91.6575 64.4286 94.4197 64.5423 97.1932C64.6885 98.0491 64.4588 102.736 63.7491 102.976C63.5715 103.396 63.2904 103.591 62.887 103.517C62.6088 103.901 62.2619 104.022 61.9132 103.99C61.5958 104.417 61.1532 104.449 60.9669 104.312C60.9669 104.312 60.6387 104.802 60.1273 104.938C58.9792 105.261 59.5895 103.205 59.7035 102.671C59.8665 101.907 59.8665 100.744 59.8665 100.218C59.8665 99.8251 59.7474 99.1498 59.7035 98.9865C59.6665 98.849 59.5883 98.5542 59.5102 98.4637C59.1375 98.0319 58.7664 98.6625 58.6112 98.9865C58.2295 100.841 57.5507 101.182 56.9925 100.99C56.5634 100.842 57.7643 97.2328 58.2903 95.9616C59.0418 94.1455 62.1417 89.2398 62.1417 89.2398Z" fill="#EFB797"/>
<path d="M59.4301 91.2542L58.6786 95.6796C58.6786 95.6796 59.1274 96.5981 62.3526 96.5981C63.353 96.5444 64.3169 96.2038 65.129 95.617L65.3481 91.1289L59.4301 91.2542Z" fill="#CEE8F6"/>
<path d="M58.2612 94.2604C58.2612 94.2604 59.8477 80.7751 60.4113 70.0245C60.6096 66.3192 55.704 49.5566 55.704 44.9745C55.704 38.0336 57.3427 36.6767 60.6096 36.9585C63.4486 37.1985 65.3482 40.883 66.9869 46.9367C67.8532 50.1515 70.5148 62.6765 70.1182 70.5151C69.8572 76.621 65.5048 94.9179 65.5048 94.9179C64.761 95.3448 63.9543 95.6513 63.1147 95.826C61.883 96.0661 58.7831 95.2311 58.2612 94.2604Z" fill="#234968"/>
<g style="mix-blend-mode:multiply" opacity="0.27">
<path d="M62.6238 95.8676C63.0622 93.3104 64.7113 86.5991 65.9743 80.7646C67.8959 71.3443 67.5704 61.6038 65.0244 52.3328C63.3857 46.4461 61.7784 39.4947 60.9329 38.7641C60.6837 38.1407 60.4014 37.531 60.0875 36.9375H60.6094C63.4484 37.1776 65.348 40.862 66.9867 46.9157C68.6419 53.5848 69.6899 60.39 70.1179 67.248C70.1179 67.3732 70.1179 67.4985 70.1179 67.6133C70.1179 67.9682 70.1179 68.3126 70.1179 68.6571C70.1179 69.0015 70.1179 69.0432 70.1179 69.2311C70.1179 69.659 70.1179 70.0974 70.1179 70.5045C69.857 76.6104 65.5046 94.9074 65.5046 94.9074C64.7607 95.3342 63.954 95.6407 63.1144 95.8154C62.9444 95.8327 62.773 95.8327 62.6029 95.8154L62.6238 95.8676Z" fill="#383736"/>
</g>
</g>
<path d="M36.1623 187.175C34.7584 185.609 33.9304 183.224 33.9214 180.146C33.9214 171.956 39.6723 161.921 46.8181 157.799C49.518 156.233 52.056 155.747 54.1529 156.197C54.2188 156.193 54.285 156.193 54.3509 156.197C64.2507 158.69 66.9506 164.387 66.9506 164.387C66.9506 164.387 54.6929 193.448 51.993 194.249C46.9171 195.76 42.4892 192.62 39.3213 190.028C38.3056 189.237 37.3351 188.389 36.4143 187.49L36.2973 187.364L36.1263 187.202L36.1623 187.175Z" fill="#040505"/>
<path d="M55.5026 163.073C62.6394 158.951 68.4623 162.272 68.4893 170.471C68.5163 178.67 62.7204 188.695 55.5926 192.808C52.9557 194.338 50.4897 194.842 48.4468 194.464C44.9459 193.807 42.6239 190.576 42.6149 185.465C42.5789 177.221 48.3928 167.195 55.5026 163.073Z" fill="#1F2626"/>
<path d="M53.0369 186.887C50.5619 186.887 48.969 184.907 48.96 181.856C49.0783 179.585 49.7329 177.374 50.8701 175.404C52.0074 173.435 53.5949 171.763 55.5028 170.525C56.4375 169.944 57.508 169.618 58.6077 169.58C61.0737 169.58 62.6576 171.56 62.6666 174.611C62.5493 176.881 61.8961 179.092 60.7604 181.061C59.6248 183.03 58.039 184.703 56.1328 185.942C55.2007 186.521 54.1335 186.847 53.0369 186.887Z" fill="#0E1111"/>
<path d="M55.503 170.525C56.4377 169.944 57.5082 169.618 58.6079 169.58C58.8159 169.584 59.0234 169.602 59.2289 169.634C59.8136 170.618 60.1041 171.748 60.0659 172.892C59.9489 175.165 59.295 177.377 58.1577 179.348C57.0204 181.32 55.4321 182.993 53.523 184.232C52.5881 184.799 51.5203 185.109 50.4271 185.132C50.2161 185.128 50.0056 185.11 49.7971 185.078C49.2166 184.092 48.9264 182.963 48.9602 181.82C49.0841 179.555 49.7413 177.351 50.8783 175.388C52.0153 173.426 53.5999 171.759 55.503 170.525Z" fill="#525252"/>
<path d="M52.8298 152.678C64.6286 151.373 67.2295 156.008 67.2295 156.008C67.2295 156.008 70.4334 161.282 49.4909 164.675C27.7744 168.185 40.0771 154.073 52.8298 152.678Z" fill="#D5D5D5"/>
<path d="M43.6505 157.799C43.8665 158.969 47.8444 159.212 52.5243 158.339C57.2042 157.466 60.8401 155.81 60.6241 154.64C60.4081 153.47 56.2862 152.345 51.6243 153.218C46.9624 154.091 43.4345 156.638 43.6505 157.799Z" fill="#EDEDED"/>
</g>
<defs>
<clipPath id="clip0_125_1221">
<rect width="80" height="198" fill="white" transform="translate(0.730469 0.864258)"/>
</clipPath>
<clipPath id="clip1_125_1221">
<rect width="54.275" height="167" fill="white" transform="matrix(-1 0 0 1 70.1582 1.73145)"/>
</clipPath>
</defs>
</svg>
