<svg width="64" height="163" viewBox="0 0 64 163" fill="none" xmlns="http://www.w3.org/2000/svg">
<path d="M35.1101 143.599C35.1101 143.599 35.6101 145.189 36.1101 146.379C36.4201 147.159 42.8201 151.609 46.9601 153.179C47.3201 153.319 47.3601 153.559 47.3601 154.499C46.6009 154.988 45.7444 155.306 44.8501 155.429C43.4539 155.631 42.0362 155.631 40.6401 155.429C38.0285 154.873 35.5365 153.857 33.2801 152.429C33.2801 152.429 32.8601 152.229 32.8501 152.629C32.8501 152.819 32.8501 153.419 32.8501 153.569L28.5101 151.879C28.3048 151.189 28.1544 150.484 28.0601 149.769C27.9744 147.584 28.0848 145.395 28.3901 143.229L35.1101 143.599Z" fill="#231F20"/>
<path d="M37.91 67.29C37.91 67.29 36 103.24 35.83 110C35.53 119.35 36.01 144.28 36.09 144.63C36.75 147.71 28.63 146.19 27.18 145.15C27.18 145.15 25.71 129.79 25.18 119.86C25.11 118.41 25.87 112.16 25.81 111.14C25.08 99.68 22.27 68.41 22.27 68.41L37.91 67.29Z" fill="#1B415B"/>
<path opacity="0.37" d="M29.6801 106.45C28.6801 96.6199 28.5101 71.9499 28.5101 71.9499L22.5701 71.6699C23.3001 79.9599 25.2301 101.96 25.8201 111.17C25.8801 112.17 25.1201 118.44 25.1901 119.89C25.7101 129.82 27.1901 145.18 27.1901 145.18C28.442 145.806 29.7974 146.199 31.1901 146.34C30.7501 139.88 30.0401 129.43 29.8201 125.62C29.4801 119.95 29.4801 119.95 30.3201 117.45C31.1601 114.95 30.6801 116.29 29.6801 106.45Z" fill="#161615"/>
<path d="M14.36 147.309C14.36 147.309 13.63 154.309 13.52 157.469C13.45 159.779 16.13 162.409 19.3 162.599C19.8761 162.637 20.454 162.637 21.03 162.599C22.17 162.599 22.69 161.159 22.17 158.139C21.71 155.469 20.37 146.649 20.22 146.569L14.36 147.309Z" fill="#231F20"/>
<path d="M31.35 61.79C31.68 66.62 30.71 73.93 29.85 80.79C29.69 81.98 26.5 84.36 26.35 85.62C24.66 99.14 23.06 113.53 22.48 119.73C21.48 130.62 22.17 150.83 22.17 150.83C22.25 152.16 19.05 153.31 19.05 153.31C14.4 153.13 12.71 150.85 12.69 150.39C12.69 150.39 12.42 142.39 11.93 128.95C11.7166 124.814 12.0054 120.667 12.79 116.6C12.79 107.93 12.7 89.26 12.59 87.09C12.35 82.88 12.91 78.71 12.79 74.59C12.65 69.52 18.63 64.89 18.63 64.89L31.35 61.79Z" fill="#1B415B"/>
<path opacity="0.37" d="M20.61 70.47L14.13 70C13.274 71.3795 12.8107 72.9666 12.79 74.59C12.91 78.71 12.35 82.88 12.59 87.09C12.7 89.26 12.79 107.93 12.79 116.6C12.0054 120.667 11.7166 124.814 11.93 128.95C12.42 142.41 12.69 150.39 12.69 150.39C12.69 150.77 13.84 151.94 16.81 152.45C16.65 144.81 16.17 110.78 16.7 96.26C17.114 87.5519 18.4242 78.9095 20.61 70.47V70.47Z" fill="#161615"/>
<path d="M56 44.4698C56 44.4698 46 50.6198 45.58 49.3698C44.47 46.3698 43.86 39.3698 42.77 34.0498C41.06 25.6698 37.72 21.4498 34.01 22.1698C31.85 22.5898 30.01 21.6598 29.91 25.5798C29.81 29.4998 37.55 51.6398 40.26 56.7698C40.7126 57.7335 41.5103 58.4922 42.4955 58.8959C43.4806 59.2996 44.5814 59.3189 45.58 58.9498C45.58 58.9498 54.85 55.5198 59.13 49.9498C60 48.9398 59 43.5298 56 44.4698Z" fill="#E3F4FC"/>
<g style="mix-blend-mode:multiply" opacity="0.16">
<path d="M53.5401 49C53.5401 49 44.7901 53.44 43.8101 54.34C42.6101 55.43 43.0001 53.29 42.8701 52.76C42.8101 52.54 41.5101 53.99 41.4601 53.76C41.4101 53.53 42.4601 51.37 42.3901 51.13C41.6901 47.66 41.1401 42.65 40.3101 38.58C38.6001 30.21 35.31 25.99 31.55 26.7C31.0607 26.7853 30.5663 26.8387 30.0701 26.86C31.0701 32.96 37.81 52.03 40.3 56.75C40.7526 57.7137 41.5504 58.4724 42.5355 58.8761C43.5206 59.2798 44.6214 59.299 45.6201 58.93C49.6938 57.3574 53.4913 55.1465 56.8701 52.38C56.6001 50.57 55.5101 48.4 53.5401 49Z" fill="#425159"/>
</g>
<path d="M10.19 39.3599C9.58634 39.0211 9.06251 38.5565 8.65407 37.9976C8.24563 37.4387 7.96212 36.7985 7.82271 36.1205C7.68331 35.4424 7.69127 34.7423 7.84609 34.0676C8.00091 33.3929 8.29895 32.7594 8.72002 32.2099C9.84002 30.4999 16.4 25.9899 19.5 24.0799C25.66 20.2899 30.3 22.1699 30.3 22.1699C30.65 22.1699 40.68 24.5099 39.99 35.9199C38.99 53.2199 38.11 58.9699 39.12 65.9999C39.3 67.2299 40.46 70.2599 36.91 70.9999C34.1 71.5599 34.38 71.3099 27.91 74.2399C22.65 76.6399 13.91 73.9799 13.07 72.5199C12.23 71.0599 13.87 64.7799 13.07 58.3199C12.27 51.8599 10.19 39.3599 10.19 39.3599Z" fill="#E3F4FC"/>
<g style="mix-blend-mode:multiply" opacity="0.2">
<path d="M7.70007 35.4097C7.77555 36.2242 8.03989 37.0098 8.47214 37.7041C8.90438 38.3985 9.4926 38.9825 10.1901 39.4097C10.1901 39.4097 12.2401 51.8897 13.0701 58.3497C13.9001 64.8097 12.2701 71.0897 13.0701 72.5497C13.7501 73.7397 19.6001 75.4398 24.7001 74.9498C22.0801 74.5098 20.0401 73.2898 19.7701 72.7298C18.6701 70.4598 19.3201 62.8197 18.6701 56.8797C17.5901 46.9597 12.3601 35.7997 12.0001 35.8797C10.6192 35.4067 9.15053 35.2462 7.70007 35.4097Z" fill="#425159"/>
</g>
<path d="M21.34 12.62C21.11 13.8 19.13 24.69 19.13 24.69C20.2541 27.1858 22.311 29.1422 24.86 30.14C28.36 31.39 28.79 27.24 28.79 27.24L30.79 16.68C30.79 16.68 21.73 10.47 21.34 12.62Z" fill="#EFB797"/>
<path d="M16.0799 78.4297C17.5533 79.3307 18.916 80.4013 20.14 81.6197C20.382 81.9103 20.5931 82.2253 20.7699 82.5597L16 86.1397C16 86.1397 13.1599 82.5997 13.0499 80.7197C12.9399 78.8397 16.0799 78.4297 16.0799 78.4297Z" fill="#EFCAB1"/>
<g style="mix-blend-mode:multiply" opacity="0.36">
<path d="M30 16.8896C30 16.8896 23.21 15.1996 20.83 15.5796C20.72 16.2796 20.59 17.0596 20.47 17.8596C20.47 17.9396 20.54 18.0196 20.59 18.0996C20.8653 18.4543 21.1661 18.7885 21.49 19.0996C21.63 19.9396 21.59 20.7996 21.73 21.5196C21.8005 22.0266 21.9846 22.5112 22.2686 22.9372C22.5526 23.3631 22.929 23.7195 23.37 23.9796C24.21 24.6496 25.91 25.7496 27.24 26.6296C27.2278 27.9045 26.9449 29.1623 26.41 30.3196C28.48 30.0396 28.77 27.2196 28.77 27.2196L29.4 23.8496L30 16.8896Z" fill="#C69A7B"/>
</g>
<path d="M18.0001 78.6997L19.8201 80.9297C18.8375 82.7292 17.2294 84.106 15.3 84.7997C14.53 85.0597 14.3 84.5297 14.3 84.5297L10.5601 79.5297L18.0001 78.6997Z" fill="#E3F4FC"/>
<path d="M18.19 79.4597C19.76 78.5697 10.09 67.4597 9.72003 61.5097C9.72003 61.1697 10.08 60.8397 10.12 60.5097C10.18 60.0197 9.95004 60.1197 10.04 59.6197C10.04 59.4497 10.76 57.1397 10.79 56.9897C11.8141 52.9889 13.0832 49.0548 14.59 45.2097C17.59 37.2597 14.17 31.2097 10.84 31.5297C7.93002 31.7997 6.43002 35.8297 4.74002 41.6097C3.28002 46.6097 0.290021 57.7897 0.680021 61.9297C1.45002 70.1297 6.84002 75.7897 12.9 82.9297C13.34 83.4497 14.22 83.5797 15.57 82.4797C16.5742 81.5945 17.4554 80.5788 18.19 79.4597V79.4597Z" fill="#E3F4FC"/>
<g style="mix-blend-mode:multiply" opacity="0.2">
<path d="M13.38 83.2399C13.4447 83.2659 13.5117 83.2859 13.58 83.2999H13.89C14.5031 83.193 15.0725 82.9118 15.53 82.4899V82.4899C15.3038 82.5928 15.0475 82.6078 14.8109 82.532C14.5742 82.4562 14.3743 82.2951 14.25 82.0799C11.25 77.1899 2.95 63.5699 4.03 62.0199C4.18 61.7999 6.82 62.0999 6.81 61.7299C6.81 61.5099 4.52 61.4799 3.81 60.3399C3.65 60.0999 4.89999 60.3399 6.08999 60.3399C7.27999 60.3399 6.96 59.4299 6.66 59.3399C5.59 58.8999 3.61001 58.16 3.82001 56.42C4.58001 50.2 6.20999 40.2099 8.29999 34.5999C9.29999 31.9799 11.66 31.6999 10.57 31.6899L10.29 31.7499C7.73001 32.4499 6.29001 36.3299 4.73001 41.7499C3.27001 46.7499 0.280012 57.9299 0.670012 62.0699C1.44001 70.2699 6.83001 75.9299 12.89 83.0699C12.9992 83.2054 13.14 83.3118 13.3 83.3799L13.38 83.2399Z" fill="#425159"/>
</g>
<path d="M63.83 33.86L63.3701 33.46L62.9301 33.6499L63.5201 34.22L63.83 33.86Z" fill="#E2E8E8"/>
<path d="M57.1201 50.9998C57.0701 51.3598 57.0401 51.4198 56.5901 51.5998L45.2501 54.5998C44.8801 54.5998 44.6201 54.4398 44.6601 54.0798L50.33 37.2998C50.3692 37.1076 50.4641 36.9312 50.6028 36.7925C50.7415 36.6538 50.9179 36.559 51.11 36.5198L63.0001 33.3898C63.3001 33.3298 63.5001 33.4998 63.4501 33.8598L57.1201 50.9998Z" fill="#2A3244"/>
<path d="M45.67 54.6698L45.2 54.2798L44.76 54.4698L45.25 54.8998L45.67 54.6698Z" fill="#2A3244"/>
<path d="M57.5701 51.4296C57.5701 51.7896 57.5 51.8396 57.05 52.0296L45.7001 55.0296C45.3301 55.0296 45.07 54.8596 45.12 54.5096L50.7801 37.7296C50.8362 37.5429 50.9378 37.3731 51.0756 37.2352C51.2135 37.0973 51.3834 36.9958 51.5701 36.9396L63.49 33.7996C63.78 33.7396 64.0701 33.9696 63.9401 34.2596L57.5701 51.4296Z" fill="#454C60"/>
<path d="M61.87 43.9999C61.9348 44.2067 61.9553 44.4248 61.93 44.6399C61.85 44.9899 61.68 45.0799 61.52 45.4699C61.44 45.6399 61.52 46.2599 61.42 46.4699C61.14 46.9199 60.87 46.9799 60.78 47.1699C60.69 47.3599 60.78 47.87 60.43 48.1C60.08 48.33 59.94 48.4199 59.85 48.6499C59.61 49.2599 58.93 49.2099 58.56 49.1899C57.882 49.1825 57.2085 49.0781 56.56 48.88C56.4599 48.8334 56.374 48.7611 56.3112 48.6702C56.2484 48.5794 56.211 48.4735 56.2029 48.3634C56.1947 48.2533 56.2161 48.1431 56.2648 48.044C56.3135 47.945 56.3878 47.8607 56.48 47.7999C56.71 47.6299 57.22 47.6799 57.56 47.6499C57.68 47.6499 56.27 47.7599 56.3 46.8599C56.3 46.5799 56.52 46.2499 56.76 46.2199C57.23 46.1499 58.38 46.1399 58.38 46.1399C58.38 46.1399 58.59 46.0699 58.33 46.0399C58.07 46.0099 56.85 45.8699 56.74 45.8299C56.35 45.6799 56.34 44.8299 56.91 44.5899C57.7708 44.4037 58.6576 44.3698 59.53 44.49C59.53 44.49 58.71 44.2299 57.88 44.0599C57.51 43.9799 57.44 43.0599 58.08 42.8999C58.32 42.8199 61 42.5099 61.87 43.9999Z" fill="#EFCAB1"/>
<g style="mix-blend-mode:multiply" opacity="0.2">
<path d="M29.31 36.4399L29.55 31.8399L27.75 30.3999L26.83 30.5799L26.14 32.7499L27.92 36.0699C28.1594 36.3928 28.3234 36.7653 28.4 37.1599C28.4 37.1599 27.12 51.9399 26.96 67.7399C26.96 68.4199 29.3 72.7399 29.3 72.7399C29.3 72.7399 31.51 67.1199 31.43 66.1699C29.57 44.4999 29.73 39.5299 29.31 36.4399Z" fill="#425159"/>
</g>
<g style="mix-blend-mode:multiply" opacity="0.2">
<path d="M27.4101 30.2498C27.354 30.3014 27.3092 30.364 27.2786 30.4337C27.248 30.5034 27.2322 30.5787 27.2322 30.6548C27.2322 30.731 27.248 30.8063 27.2786 30.876C27.3092 30.9457 27.354 31.0083 27.4101 31.0598L30.5301 33.7699C30.8101 33.9899 31.0501 34.2399 31.0201 33.4899L30.4201 26.9099C30.1501 24.0499 28.9001 23.8398 28.9001 23.8398C28.9458 24.3618 28.9625 24.886 28.9501 25.4099C28.9278 27.1402 28.3917 28.8248 27.4101 30.2498Z" fill="#425159"/>
</g>
<g style="mix-blend-mode:multiply" opacity="0.2">
<path d="M19.32 22.9097C19.2295 23.8733 19.4769 24.8385 20.02 25.6397C21.67 27.9797 26.96 30.3797 26.96 30.3797C27.35 30.5797 27.35 30.6997 27.27 31.3797L26.85 35.2897C26.85 36.2297 26.28 35.8197 25.85 35.4597C25.85 35.4597 20.26 31.4597 19.16 30.4597C16.54 28.0597 16.72 26.5997 17.22 25.6997C17.54 25.2197 19.32 22.9097 19.32 22.9097Z" fill="#425159"/>
</g>
<path d="M29.55 35.9096L29.79 31.3096L27.99 29.8696L27.07 30.0496L26.37 32.2196L28.16 35.5396C28.3952 35.8649 28.5589 36.2365 28.64 36.6296C28.64 36.6296 28.15 51.3996 27.99 67.1996C28.6244 69.3228 29.3756 71.4093 30.24 73.4496C30.24 73.4496 32.35 66.6196 32.24 65.6696C30.41 43.9996 30 38.9996 29.55 35.9096Z" fill="#AF3F3F"/>
<path d="M27.6401 29.7196C27.5853 29.7719 27.5417 29.8347 27.5119 29.9043C27.4822 29.9739 27.4668 30.0489 27.4668 30.1246C27.4668 30.2003 27.4822 30.2752 27.5119 30.3448C27.5417 30.4144 27.5853 30.4773 27.6401 30.5296L30.7701 33.2396C31.0501 33.4596 31.2801 33.7196 31.2501 32.9596L30.6601 26.3796C30.3801 23.5196 29.1401 23.3096 29.1401 23.3096C29.1858 23.8316 29.2025 24.3557 29.1901 24.8796C29.1648 26.6109 28.6253 28.2957 27.6401 29.7196V29.7196Z" fill="white"/>
<path d="M19.55 22.3799C19.4653 23.3431 19.7123 24.3063 20.2501 25.1099C21.9001 27.4599 27.2001 29.8499 27.2001 29.8499C27.5801 30.0499 27.5801 30.1699 27.5001 30.8499L27.08 34.7599C27.08 35.6999 26.51 35.2899 26.08 34.9299C26.08 34.9299 20.4901 30.9299 19.3801 29.9299C16.7601 27.5299 16.9501 26.0599 17.4401 25.1699C17.7701 24.6899 19.55 22.3799 19.55 22.3799Z" fill="white"/>
<path d="M36.5201 7.4597L35.0001 5.17969L22.5101 5.8597L22.3 17.2497C22.36 18.0797 22.3001 19.2497 22.3501 19.9797C22.4701 21.1997 22.8001 21.3897 23.7101 22.1397C25.0558 23.2138 26.491 24.1706 28.0001 24.9997C29.0001 25.5897 32.2101 25.3797 32.5201 24.5097C32.9101 23.4197 33.7701 20.6897 34.7401 16.8997C34.9701 15.9797 34.6801 15.5497 34.7401 14.9497C34.7901 14.6297 35.5701 13.1297 35.6001 12.9497C35.9301 10.9097 36.5201 7.4597 36.5201 7.4597Z" fill="#EFB797"/>
<g style="mix-blend-mode:multiply" opacity="0.36">
<path d="M36 5.99991L34.91 5.1499C28.32 3.7399 29.78 3.9599 27.61 3.8999C27.61 3.8999 28.24 5.81991 27.77 6.27991C27.2944 6.66352 26.7932 7.01434 26.27 7.32991C25.4175 6.86811 24.5194 6.49611 23.59 6.21991C23.3747 6.14159 23.139 6.13957 22.9224 6.2142C22.7058 6.28883 22.5214 6.43559 22.4 6.62991L22.25 16.9999V17.1099C22.25 17.5099 22.25 17.9799 22.25 18.4399C22.25 18.8999 22.25 19.5399 22.25 19.9399C22.37 21.1599 22.7 21.3499 23.61 22.0999C24.5874 22.8893 25.6201 23.6078 26.7 24.2499C26.7 23.9499 26.7 22.4399 26.75 21.6699C26.864 20.2667 26.7934 18.8547 26.54 17.4699C26.1001 16.5272 25.8455 15.5087 25.79 14.4699C26.0677 13.8818 26.4027 13.3224 26.79 12.7999C26.8597 11.6843 26.8597 10.5655 26.79 9.44991C26.8104 9.33201 26.868 9.22376 26.9543 9.14098C27.0407 9.0582 27.1513 9.00526 27.27 8.98991C28.6 9.05991 30.61 10.5499 32.97 10.7499C33.6681 10.8416 34.3766 10.6936 34.9796 10.3303C35.5827 9.96703 36.0447 9.40985 36.29 8.74991C36.4646 7.82462 36.3638 6.86843 36 5.99991Z" fill="#DBB397"/>
</g>
<path d="M37.29 5.55978C38.65 7.49978 36.48 7.55978 36.29 8.63978C36.1 9.71978 33.14 9.48977 31.87 9.25977C29.9744 8.95061 28.0953 8.54678 26.24 8.04978C25.48 7.97978 24.8 9.24978 24.53 10.7498L24.4 14.9998C23.9371 14.7245 23.5133 14.3882 23.1401 13.9998C23.1401 13.9998 22.24 13.4298 21.93 13.6198C20.82 14.2898 20.93 15.0798 21.01 15.2398L20.36 19.3098C20.3 19.1998 19.3601 15.0498 19.2001 14.2198C18.7974 11.8338 18.5867 9.41942 18.57 6.99978C18.5 4.62978 22.85 -0.460214 29.13 0.489786C33.42 1.09979 37.29 5.55978 37.29 5.55978Z" fill="#492F15"/>
<path d="M20.7501 11.8097C22.6801 11.5397 23.0601 13.8097 23.6701 15.1097C23.6101 19.0397 22.1301 18.1097 21.1001 17.0397C20.4923 16.4043 20.0255 15.6478 19.7301 14.8197C19.2801 13.3397 19.6401 11.9997 20.7501 11.8097Z" fill="#EFB797"/>
<g style="mix-blend-mode:multiply" opacity="0.36">
<path d="M20.7501 11.8097C22.6801 11.5397 23.0601 13.8097 23.6701 15.1097C23.6101 19.0397 22.1301 18.1097 21.1001 17.0397C20.4923 16.4043 20.0255 15.6478 19.7301 14.8197C19.2801 13.3397 19.6401 11.9997 20.7501 11.8097Z" fill="#DBB397"/>
</g>
<path d="M36.0001 4.27957C36.0001 4.27957 34.6901 8.04957 28.9001 4.72957C26.5301 3.36957 25.1801 4.29957 25.1801 4.29957C25.1801 4.29957 25.9801 3.99957 27.3801 5.29957C27.8201 5.70957 29.7001 7.47958 28.1401 6.95958C27.5469 6.7453 27.0076 6.40401 26.5601 5.95958C27.4506 7.19107 28.641 8.1746 30.0183 8.81689C31.3956 9.45918 32.9143 9.73893 34.4301 9.62958C35.178 9.55358 35.8903 9.27243 36.4885 8.81715C37.0867 8.36188 37.5475 7.75018 37.8201 7.04957C37.9201 6.37957 37.8301 5.37957 36.0001 4.27957Z" fill="#543A22"/>
</svg>
