<svg width="82" height="200" viewBox="0 0 82 200" fill="none" xmlns="http://www.w3.org/2000/svg">
<g clip-path="url(#clip0_125_1093)">
<path d="M52.5707 79.7842C52.5707 79.7842 50.5707 85.4542 51.2707 89.1342C51.6906 90.6963 52.437 92.1517 53.4607 93.4042C53.6079 93.5587 53.7871 93.679 53.9858 93.7567C54.1844 93.8345 54.3978 93.8677 54.6107 93.8542C55.321 93.7296 56.0003 93.4681 56.6107 93.0842C57.3907 92.4642 56.6607 91.4642 56.8107 90.0242C56.9107 89.0242 57.5007 87.9442 57.6607 86.1442C57.7333 84.9393 57.6323 83.7303 57.3607 82.5542L52.5707 79.7842Z" fill="#EFB797"/>
<path d="M53.5407 84.7344C53.5407 84.7344 51.8007 88.1944 52.5407 89.5044C53.2807 90.8144 54.1807 92.1844 54.1807 92.1844C54.3989 92.1258 54.5907 91.995 54.7251 91.8134C54.8595 91.6319 54.9284 91.4102 54.9207 91.1844C54.7875 90.3462 54.4081 89.5664 53.8307 88.9444C54.5629 88.7155 55.2059 88.2647 55.6707 87.6544C55.9477 87.2592 56.1102 86.7951 56.1402 86.3133C56.1702 85.8316 56.0666 85.3509 55.8407 84.9244L53.5407 84.7344Z" fill="#EFC4AC"/>
<path d="M50.7305 81.7741V84.8741C50.7305 84.8741 53.7905 87.1641 56.7305 85.6341C57.8605 85.0441 57.6605 84.8741 57.6605 84.8741L57.1405 81.7241L50.7305 81.7741Z" fill="#CEE8F6"/>
<path d="M26.0789 141.666L40.8248 120.415L43.8032 122.085L29.053 143.354C27.1703 145.996 25.8473 148.826 25.1026 151.805L23.6675 157.932L20.7237 156.238L22.2038 150.121C22.9207 147.142 24.2186 144.31 26.0789 141.666Z" fill="#D9D9D9"/>
<path d="M43.3877 122.268L28.5564 143.337C26.6613 145.956 25.3343 148.764 24.594 151.724L23.1692 157.812L25.491 157.723L26.9615 151.646C27.6737 148.794 28.9503 146.087 30.7733 143.562L45.5579 122.486L43.3877 122.268Z" fill="#EEEEEE"/>
<g style="mix-blend-mode:multiply" opacity="0.25">
<path d="M60.7341 156.905C65.8641 157.913 78.1401 163.259 75.7641 171.197C75.0441 173.618 72.1641 175.697 43.6251 193.499C43.6251 193.499 32.3391 201.005 19.2531 194.813C9.17313 190.034 -4.71388 182.501 15.9771 170.828C38.7111 158.012 49.6191 154.709 60.7341 156.905Z" fill="#231F20"/>
</g>
<path d="M75.3455 164.013C76.8305 162.312 77.7305 159.783 77.7305 156.516C77.7305 147.831 71.6195 137.202 64.0595 132.837C61.1795 131.172 58.4975 130.659 56.2835 131.127H56.0675C45.5375 133.773 42.6755 139.803 42.6755 139.803C42.6755 139.803 55.7255 170.592 58.5245 171.429C63.9245 173.04 68.6045 169.71 71.9615 166.929C73.0437 166.095 74.0718 165.193 75.0395 164.229L75.1745 164.094C75.2285 164.04 75.2915 163.986 75.3455 163.923V164.013Z" fill="#040505"/>
<path d="M53.8294 139.037C46.2604 134.672 40.0864 138.191 40.0594 146.876C40.0324 155.561 46.1704 166.199 53.7394 170.573C56.5294 172.184 59.1394 172.715 61.3174 172.319C65.0254 171.626 67.4824 168.206 67.5004 162.725C67.5274 154.031 61.4074 143.402 53.8294 139.037Z" fill="#1F2626"/>
<path d="M55.6993 165.257C58.3093 165.257 60.0013 163.16 60.0103 159.929C59.8822 157.521 59.1869 155.178 57.981 153.09C56.7751 151.002 55.0928 149.228 53.0713 147.914C52.0833 147.298 50.9501 146.953 49.7863 146.915C47.1763 146.915 45.4843 149.003 45.4753 152.243C45.4753 156.653 48.5713 162.044 52.4143 164.258C53.4004 164.878 54.5347 165.223 55.6993 165.257Z" fill="#0E1111"/>
<path d="M53.0719 147.914C52.0839 147.298 50.9507 146.953 49.7869 146.915C49.561 146.919 49.3356 146.937 49.1119 146.969C48.4998 148.016 48.1884 149.212 48.2119 150.425C48.2119 154.835 51.3169 160.226 55.1509 162.44C56.1404 163.052 57.2731 163.393 58.4359 163.43C58.6616 163.429 58.887 163.414 59.1109 163.385C59.7314 162.341 60.0434 161.143 60.0109 159.929C59.8828 157.521 59.1875 155.178 57.9816 153.09C56.7757 151.002 55.0934 149.228 53.0719 147.914Z" fill="#525252"/>
<path d="M60.8198 130.25C49.0388 125.75 45.0878 129.818 45.0878 129.818C45.0878 129.818 40.3718 134.381 61.0178 143.48C82.4468 152.93 73.5728 135.11 60.8198 130.25Z" fill="#D5D5D5"/>
<path d="M69.249 139.38C68.664 140.496 64.551 139.515 60.051 137.175C55.551 134.835 52.383 132.036 52.968 130.92C53.553 129.804 58.089 129.93 62.589 132.261C67.089 134.592 69.834 138.264 69.249 139.38Z" fill="#EDEDED"/>
<path d="M32.1865 181.167L10.5865 168.612L10.4965 164.508L32.0965 177.063L32.1865 181.167Z" fill="#0F1F1E"/>
<path d="M32.0965 177.063L10.4965 164.508L40.7005 147.075L62.3005 159.63L32.0965 177.063Z" fill="#919191"/>
<path d="M62.3006 159.63L62.3906 163.734L32.3036 181.365L32.0966 177.063L62.3006 159.63Z" fill="#B0B0B0"/>
<path d="M62.3906 163.739L60.1826 166.956L39.7199 178.739L39.3906 176.843L62.3906 163.739Z" fill="#9B9B9B"/>
<path d="M61.0455 129.487L60.2985 129.1L51.2985 124.69C50.5501 124.339 49.7171 124.21 48.8976 124.317C48.078 124.423 47.3061 124.762 46.6725 125.293C45.3103 126.521 44.4617 128.218 44.2965 130.045L43.2525 147.442L59.6685 157.468L60.2265 136.606C60.371 135.454 60.8969 134.383 61.7205 133.564C62.0287 133.176 62.1883 132.691 62.1705 132.196C62.1837 131.691 62.0903 131.188 61.8965 130.722C61.7026 130.255 61.4127 129.834 61.0455 129.487Z" fill="#BABABA"/>
<path d="M42.4732 147.023L43.5172 129.617C43.6775 127.797 44.516 126.104 45.8662 124.874C46.5007 124.344 47.2731 124.007 48.0926 123.902C48.9121 123.797 49.7447 123.928 50.4922 124.28L60.3922 129.023C60.7549 129.212 61.0666 129.486 61.3005 129.821C61.5345 130.157 61.684 130.544 61.7361 130.949C61.7883 131.355 61.7416 131.767 61.6001 132.151C61.4585 132.535 61.2263 132.879 60.9232 133.154C60.0657 133.949 59.5307 135.031 59.4202 136.196L58.8712 157.049L42.4732 147.023Z" fill="white"/>
<path d="M55.2569 131.978C55.2241 132.05 55.1771 132.115 55.1188 132.169C55.0604 132.223 54.9919 132.264 54.9172 132.291C54.8426 132.318 54.7633 132.329 54.684 132.325C54.6048 132.321 54.5273 132.301 54.4559 132.266L46.0499 128.288C45.9784 128.254 45.9144 128.206 45.8614 128.147C45.8085 128.088 45.7677 128.019 45.7414 127.944C45.715 127.869 45.7037 127.79 45.708 127.711C45.7123 127.632 45.7322 127.554 45.7664 127.482C45.8007 127.411 45.8487 127.347 45.9078 127.294C45.9668 127.241 46.0357 127.2 46.1105 127.174C46.1853 127.148 46.2645 127.136 46.3437 127.141C46.4229 127.145 46.5004 127.165 46.5719 127.199L54.9689 131.177C55.1131 131.245 55.2244 131.368 55.2784 131.518C55.3324 131.668 55.3247 131.834 55.2569 131.978Z" fill="#DBDBDB"/>
<path d="M43.1066 149.323L43.9076 135.535L46.4006 136.768C46.8664 136.998 47.2579 137.355 47.5301 137.798C47.8023 138.24 47.9443 138.751 47.9396 139.27V140.404C47.9397 140.661 48.0113 140.912 48.1465 141.13C48.2817 141.347 48.4749 141.523 48.7046 141.637L52.1156 143.302C52.1969 143.344 52.2876 143.364 52.379 143.361C52.4704 143.357 52.5593 143.33 52.6372 143.282C52.7151 143.234 52.7792 143.167 52.8234 143.087C52.8676 143.007 52.8904 142.917 52.8896 142.825V141.61C52.8896 141.429 52.9358 141.25 53.0238 141.091C53.1118 140.933 53.2386 140.799 53.3925 140.703C53.5463 140.606 53.7221 140.551 53.9034 140.541C54.0846 140.531 54.2653 140.568 54.4286 140.647L58.1006 142.447L57.5966 157.27L43.1066 149.323Z" fill="#D5D5D5"/>
<path d="M57.9604 159.565V161.221L36.7114 172.975L35.6585 170.905L57.9604 159.565Z" fill="#D5D5D5"/>
<path d="M22.2685 160.536C22.2685 160.536 25.5355 146.433 33.1855 154.686L41.7805 150.186L57.9805 158.628L31.8805 173.028L15.4555 166.179L22.2685 160.536Z" fill="#B5B5B5"/>
<path d="M26.5339 152.755C26.2729 152.755 26.2009 153.088 26.3719 153.286L37.0819 164.086C37.0819 164.14 37.2169 164.086 37.1809 164.023L31.4209 156.049C31.2386 155.699 31.005 155.377 30.7279 155.095C29.9359 154.285 28.1539 152.692 26.5339 152.755Z" fill="#DFDFDF"/>
<path d="M47.5705 147.334C47.5705 147.334 46.8105 148.694 44.3705 148.774C43.3705 148.774 39.3705 148.494 39.3705 148.494C37.5905 148.134 35.3705 148.154 34.9405 149.494C34.8435 149.761 34.7862 150.041 34.7705 150.324C34.8605 151.324 34.5305 150.494 35.8505 151.734C37.1378 152.764 38.5018 153.693 39.9305 154.514C41.0093 155.204 42.2708 155.552 43.5505 155.514C44.2317 155.38 44.9274 155.333 45.6205 155.374C46.5105 155.494 46.2705 156.654 46.2705 157.554L48.9805 158.744C51.7405 159.524 54.5305 157.044 54.5405 156.344L54.5905 149.084L47.5705 147.334Z" fill="#231F20"/>
<path d="M48.9805 157.914L46.2905 156.734C46.2905 157.034 46.2905 157.354 46.2905 157.634L49.0105 158.824C51.7705 159.604 54.5605 157.124 54.5705 156.424V155.514C54.5405 156.214 51.7305 158.684 48.9805 157.914Z" fill="#383736"/>
<path d="M39.2905 79.1342L42.2905 116.514C42.2905 116.514 45.9505 138.924 44.2205 147.864C43.9005 149.544 44.2205 151.624 49.9105 151.624C53.0605 151.624 54.9705 150.774 54.9905 149.894C55.3705 127.814 52.7905 117.214 52.8705 113.774C52.9705 109.404 53.2105 78.5742 53.2105 78.5742L39.2905 79.1342Z" fill="#1B415B"/>
<path opacity="0.37" d="M39.2905 79.1342L42.2905 116.514C42.2905 116.514 45.9505 138.924 44.2205 147.864C43.9105 149.474 44.2205 151.454 49.2205 151.604C49.2205 151.184 49.3005 150.754 49.3505 150.304C49.9605 144.414 47.5205 119.964 45.9005 113.874C44.6405 109.154 45.4205 86.3142 45.7405 77.0542L39.2905 79.1342Z" fill="#161615"/>
<path d="M44.6607 155.074C43.3249 154.954 42.0177 154.616 40.7907 154.074C39.1519 153.374 37.5646 152.559 36.0407 151.634C35.7286 151.442 35.4605 151.185 35.2537 150.882C35.047 150.579 34.9063 150.236 34.8407 149.875C34.8407 150.105 34.7807 150.335 34.7707 150.465C34.7107 151.395 35.9407 152.565 36.5707 153.025C37.6368 153.672 38.7618 154.218 39.9307 154.655C42.0507 155.395 42.1807 155.525 43.1407 155.565C43.8719 155.495 44.6063 155.465 45.3407 155.475C45.7007 155.475 46.2007 155.724 46.2007 155.824C46.1807 155.764 46.0707 155.114 44.6607 155.074Z" fill="#383736"/>
<path d="M37.031 165.062C37.0322 165.075 37.0309 165.088 37.0269 165.1C37.0229 165.112 37.0165 165.123 37.008 165.132C36.9995 165.141 36.9892 165.149 36.9776 165.154C36.9661 165.159 36.9536 165.161 36.941 165.161C36.095 165.161 29.48 165.08 21.002 161.066L21.299 160.445C26.2033 162.865 31.5005 164.389 36.941 164.945C36.9555 164.945 36.9699 164.947 36.983 164.954C36.9962 164.96 37.0077 164.969 37.0165 164.98C37.0253 164.992 37.0313 165.005 37.0338 165.02C37.0363 165.034 37.0353 165.048 37.031 165.062Z" fill="#D5D5D5"/>
<path d="M33.2027 167.698C33.2027 167.698 33.6257 168.058 30.7097 166.078C28.9997 164.926 23.9507 161.191 22.6727 161.164C17.8667 161.056 16.3727 163.99 16.3727 163.99L14.9147 162.19L16.0307 160.885L18.9827 159.418L21.7547 158.815L23.6807 159.508L33.2027 167.698Z" fill="#EEEEEE"/>
<path d="M13.7575 162.905V164.39C13.7602 164.45 13.7751 164.509 13.8014 164.564C13.8278 164.618 13.8649 164.666 13.9105 164.705L23.8105 172.859L13.7575 162.905Z" fill="#EEEEEE"/>
<path d="M24.8816 172.333C24.8641 172.344 24.8438 172.35 24.8231 172.35C24.8023 172.35 24.782 172.344 24.7646 172.333C22.4786 170.2 14.8646 163.576 14.6846 162.514C14.5046 161.452 15.8546 160.534 16.6736 160.057C18.6626 158.878 22.2356 157.834 23.9456 159.157C26.4206 161.11 32.5496 166.879 33.3236 167.608C33.3236 167.608 33.3866 167.698 33.3236 167.734C33.3038 167.751 33.2781 167.761 33.2516 167.761C33.225 167.761 33.1994 167.751 33.1796 167.734C32.3786 167.059 25.9796 161.677 23.5046 159.733C22.1906 158.707 19.1126 159.409 17.0066 160.633C15.7736 161.353 15.2876 162.037 15.3506 162.388C15.5486 163.072 20.9756 168.031 24.8366 172.189C24.8906 172.234 24.9266 172.297 24.8816 172.333Z" fill="#929292"/>
<path d="M31.3131 159.84C31.2749 159.856 31.2338 159.863 31.1925 159.862C31.1513 159.861 31.1107 159.851 31.0734 159.833C31.0362 159.815 31.003 159.79 30.9761 159.759C30.9492 159.727 30.9291 159.691 30.9171 159.651C30.7324 158.638 30.7754 157.595 31.0431 156.6C31.1596 156.138 31.4253 155.727 31.7991 155.43C31.8341 155.407 31.8738 155.393 31.9152 155.387C31.9566 155.382 31.9988 155.386 32.0385 155.399C32.0783 155.411 32.1146 155.433 32.1448 155.462C32.175 155.491 32.1984 155.526 32.2131 155.565C32.2427 155.655 32.2458 155.751 32.2218 155.842C32.1978 155.933 32.1479 156.015 32.0781 156.078C31.893 156.277 31.76 156.518 31.6911 156.78C31.4636 157.628 31.4176 158.515 31.5561 159.381C31.5797 159.474 31.568 159.573 31.5231 159.658C31.4782 159.743 31.4033 159.808 31.3131 159.84Z" fill="#D5DFEF"/>
<path d="M29.0009 159.76C28.8299 159.76 28.6589 159.643 28.6679 159.481C28.7267 158.489 29.0164 157.524 29.5139 156.664C29.7408 156.26 30.0954 155.944 30.5219 155.764C30.5609 155.752 30.6021 155.748 30.6427 155.753C30.6833 155.758 30.7223 155.772 30.7572 155.793C30.7921 155.814 30.8221 155.843 30.8451 155.877C30.8682 155.91 30.8838 155.949 30.8909 155.989C30.9036 156.08 30.8868 156.173 30.8431 156.254C30.7994 156.335 30.731 156.4 30.6479 156.439C30.418 156.572 30.2283 156.765 30.0989 156.997C29.678 157.734 29.4231 158.554 29.3519 159.4C29.3477 159.493 29.3096 159.58 29.2449 159.647C29.1802 159.713 29.0934 159.753 29.0009 159.76Z" fill="#D5DFEF"/>
<path d="M26.9362 159.774C26.7652 159.774 26.5942 159.666 26.6032 159.504C26.6502 158.551 26.9282 157.625 27.4132 156.804C27.632 156.394 27.9892 156.075 28.4212 155.904C28.459 155.89 28.4994 155.885 28.5395 155.888C28.5796 155.892 28.6183 155.905 28.6528 155.926C28.6873 155.946 28.7167 155.975 28.7389 156.008C28.7612 156.042 28.7756 156.08 28.7812 156.12C28.7965 156.207 28.7818 156.298 28.7393 156.376C28.6968 156.455 28.6292 156.516 28.5472 156.552C28.3225 156.677 28.1359 156.86 28.0072 157.083C27.5951 157.79 27.3461 158.58 27.2782 159.396C27.2806 159.443 27.2737 159.49 27.2578 159.535C27.2419 159.579 27.2174 159.62 27.1856 159.656C27.1539 159.691 27.1155 159.719 27.0727 159.739C27.0299 159.76 26.9835 159.771 26.9362 159.774Z" fill="#D5DFEF"/>
<path d="M24.9987 156.883C22.9917 157.126 20.5617 158.107 20.1747 160.078C20.1581 160.534 20.1732 160.991 20.2197 161.446C20.4267 162.346 21.1197 162.796 22.1727 163.183L22.8657 162.787C22.987 161.616 23.2499 160.465 23.6487 159.358C24.071 158.233 24.8995 157.309 25.9707 156.766L24.9987 156.883Z" fill="#B9B9B9"/>
<path d="M33.8914 169.955L35.3044 153.332C35.4352 151.591 35.1928 149.842 34.5934 148.202C34.3285 147.512 33.9156 146.889 33.3838 146.375C32.852 145.862 32.2143 145.472 31.5154 145.232L19.8784 141.182C19.7055 141.14 19.5256 141.138 19.3514 141.173C19.1772 141.209 19.013 141.283 18.8704 141.389C18.6364 141.515 17.8984 141.911 18.0334 142.289L19.4014 142.73C19.8223 143.933 19.9878 145.212 19.8874 146.483L18.6544 160.928L33.8914 169.955Z" fill="#BABABA"/>
<path d="M32.6503 170.594L34.0543 154.007C34.1887 152.265 33.9462 150.516 33.3433 148.877C33.0866 148.177 32.6772 147.543 32.1447 147.022C31.6123 146.5 30.9702 146.104 30.2653 145.862L18.6373 141.812C18.5315 141.774 18.4173 141.767 18.3075 141.791C18.1978 141.814 18.097 141.868 18.0163 141.947C17.9373 142.027 17.8826 142.128 17.8587 142.237C17.8348 142.347 17.8427 142.462 17.8813 142.568L18.1513 143.333C18.577 144.538 18.7456 145.82 18.6463 147.095L17.4043 161.495L32.6503 170.594Z" fill="white"/>
<path d="M18.6465 147.34L18.5835 148.015L34.0815 153.838C34.1354 152.447 33.9559 151.057 33.5505 149.725L18.3405 144.235C18.6225 145.245 18.726 146.295 18.6465 147.34Z" fill="#D7D7D7"/>
<path d="M37.1743 186.778C38.6683 185.122 39.5503 182.593 39.5503 179.326C39.5503 170.641 33.4483 160.012 25.8793 155.647C22.9993 153.982 20.3263 153.469 18.1123 153.937H17.8963C7.36629 156.583 4.4953 162.613 4.4953 162.613C4.4953 162.613 17.5543 193.402 20.3533 194.239C25.7533 195.85 30.4243 192.52 33.7813 189.739C34.8632 188.901 35.894 187.999 36.8683 187.039L37.0123 186.994L37.1923 186.823L37.1743 186.778Z" fill="#040505"/>
<path d="M48.4142 118.979C47.2957 119.949 43.6265 119.165 40.2205 117.224C36.8144 115.282 36.1614 111.008 37.2619 110.037C38.3624 109.066 39.8728 112.411 43.2788 114.353C46.6849 116.294 49.5326 118.008 48.4142 118.979Z" stroke="#171717" stroke-width="3"/>
<path d="M44.1598 123.033C43.0413 124.004 39.3721 123.22 35.9661 121.278C32.56 119.337 31.907 115.063 33.0075 114.092C34.108 113.121 35.6184 116.466 39.0244 118.407C42.4305 120.349 45.2782 122.063 44.1598 123.033Z" stroke="#171717" stroke-width="3"/>
<g style="mix-blend-mode:multiply" opacity="0.27">
<path d="M31.658 153.169C34.2035 151.681 26.6725 151.928 29.3558 148.361C30.5069 146.834 37.4623 146.559 41.3372 147.16C49.168 148.361 59.9821 152.864 58.6121 158.568C57.3718 163.681 49.5815 169.276 32.8659 167.542C25.7079 166.803 18.0067 162.429 18.7849 158.725C19.2551 156.479 30.5231 153.829 31.658 153.169Z" fill="#231F20"/>
</g>
<path d="M25.5585 89.5786C25.5585 89.5786 23.5585 95.2486 24.2585 98.9286C24.6784 100.491 25.4248 101.946 26.4485 103.199C26.5957 103.353 26.7749 103.473 26.9736 103.551C27.1722 103.629 27.3856 103.662 27.5985 103.649C28.3088 103.524 28.9881 103.263 29.5985 102.879C30.3785 102.259 29.6485 101.259 29.7985 99.8186C29.8985 98.8186 30.4885 97.7386 30.6485 95.9386C30.7211 94.7337 30.6201 93.5247 30.3485 92.3486L25.5585 89.5786Z" fill="#EFB797"/>
<path d="M50.9606 83.3941C50.9606 83.3941 51.8106 71.2041 51.4206 58.7341C51.2806 54.0141 48.6506 42.5641 47.6906 39.5941C46.9106 37.1841 49.8906 25.5341 53.2206 25.6741C56.1306 25.7841 57.5906 27.6741 58.9406 32.8241C60.5706 39.0741 61.7306 50.3341 61.7306 58.3341C61.7306 64.5641 58.3406 84.0541 58.3406 84.0541C57.5982 84.5116 56.7882 84.8491 55.9406 85.0541C54.7306 85.4041 51.7306 85.4341 50.9606 83.3941Z" fill="#1B415B"/>
<path d="M33.7304 154.034C33.7304 154.034 31.6804 156.434 29.9204 156.874C28.4832 157.155 27.0245 157.313 25.5604 157.344C23.7604 157.344 20.3904 157.254 19.8704 159.024C19.7727 159.418 19.7124 159.82 19.6904 160.224C19.8104 161.224 20.6904 161.754 21.8304 162.304C23.0579 162.902 24.3241 163.416 25.6204 163.844C26.8087 164.338 28.1137 164.481 29.3804 164.254C30.3785 164.178 31.3801 164.158 32.3804 164.194C33.3304 164.294 33.1004 164.994 33.1204 165.924L36.0404 167.064C39.0404 167.784 41.2804 165.194 41.2704 164.474L41.0404 151.524L33.7304 154.034Z" fill="#231F20"/>
<path d="M31.3207 163.934C29.4529 164.044 27.5788 163.923 25.7406 163.574C24.2254 163.166 22.796 162.489 21.5206 161.574C20.5206 161.094 19.7307 160.354 19.7207 159.734C19.6806 159.932 19.6604 160.133 19.6606 160.334C19.7806 161.334 20.6607 161.874 21.8007 162.424C23.0272 163.021 24.2935 163.532 25.5907 163.954C26.7789 164.448 28.0839 164.591 29.3506 164.364L31.9106 164.264C32.4706 164.264 33.0107 164.454 33.0107 164.554C33.0107 164.654 32.8207 163.944 31.3207 163.934Z" fill="#383736"/>
<path d="M35.9806 165.834L33.0806 164.704C33.0806 165.004 33.0806 165.704 33.0806 166.024L36.0106 167.164C39.0106 167.884 41.2406 165.304 41.2306 164.584V163.254C41.2206 163.964 38.9506 166.554 35.9806 165.834Z" fill="#383736"/>
<path d="M29.1807 85.9543C29.1807 85.9543 29.6207 113.574 30.2307 120.954C30.4207 123.164 31.1807 128.184 31.3007 129.794C31.7007 135.294 30.8407 156.794 30.8407 156.794C31.5007 158.164 30.9007 159.254 37.2407 158.924C39.1707 158.824 41.4907 157.164 41.5807 156.334C41.5807 156.334 42.8807 132.044 41.3507 121.684C40.8307 118.134 45.3507 84.4043 45.3507 84.4043L29.1807 85.9543Z" fill="#1B415B"/>
<path opacity="0.37" d="M29.1807 85.9541C29.1807 85.9541 29.6207 113.574 30.2307 120.954C30.4207 123.164 31.1807 128.184 31.3007 129.794C31.7007 135.294 30.8407 156.794 30.8407 156.794C31.4307 158.024 31.0107 159.024 35.4907 158.984C35.7707 157.494 36.0307 155.784 36.2207 153.984C36.3607 152.644 35.2807 133.374 33.9907 122.624C33.4607 118.194 33.8807 97.3041 34.1807 85.4941L29.1807 85.9541Z" fill="#161615"/>
<path d="M38.6607 3.88428L35.0307 4.36427L31.8807 6.14427C31.5727 7.76425 31.5457 9.42513 31.8007 11.0543C31.8707 11.5443 31.8707 12.8543 31.9307 13.1043C32.0407 13.6843 32.7007 14.4543 32.7507 15.0243C32.8107 15.7643 32.3507 16.1243 32.5707 17.1443C33.2307 20.1443 34.0607 23.0843 34.2707 24.1943C34.6407 26.0843 35.9307 25.8043 37.2707 25.5943C38.8849 25.4433 40.4238 24.8403 41.7107 23.8543C45.5907 21.0643 46.2707 15.7143 46.3207 15.3143L47.9607 5.31427L38.6607 3.88428Z" fill="#EFB797"/>
<path d="M46.8207 25.3341V16.7241L37.7307 18.0141C37.7524 21.2058 37.9829 24.3926 38.4207 27.5541C38.6707 28.8441 39.1807 36.7841 38.3607 37.7641L46.8207 25.3341Z" fill="#EFB797"/>
<path d="M28.0607 37.4843C25.4807 39.4843 28.7107 59.5743 28.7107 66.2343L27.3907 88.9843C27.4407 89.1343 29.1607 90.8143 35.1107 91.7243C36.9707 92.0143 37.9107 92.1643 42.1107 90.7243C43.8307 90.1543 54.9207 84.9443 54.9207 83.5743L54.7307 61.9743C54.6507 59.6743 56.5907 48.7043 57.4207 41.3743C58.0107 36.1843 58.4207 35.7843 57.7907 29.9743C57.4907 27.2943 54.2607 25.4543 52.4107 25.2243C50.6867 25.0894 48.9531 25.143 47.2407 25.3843C47.2407 25.3843 41.5407 27.9743 36.8507 30.6443C33.6228 32.5133 30.6654 34.8146 28.0607 37.4843Z" fill="#234968"/>
<g style="mix-blend-mode:multiply" opacity="0.27">
<path d="M33.5707 6.48438C33.5707 6.48438 32.6807 12.3944 33.1307 13.1444C33.4829 13.5681 33.7329 14.0672 33.8612 14.6031C33.9895 15.1389 33.9928 15.6971 33.8707 16.2344C33.7307 17.3044 36.3907 19.9944 36.1007 23.2344C36.0896 23.6692 35.9888 24.097 35.8047 24.491C35.6205 24.8851 35.3571 25.2369 35.0307 25.5244C35.7623 25.7979 36.5637 25.8225 37.3107 25.5944C37.6807 25.5944 38.0007 25.4744 38.3107 25.4144L40.3107 31.1944L41.0507 29.4544C41.0507 29.4544 39.9107 26.0144 41.3807 23.9444C42.1207 22.8844 45.4507 22.1544 46.1507 19.5244L45.9607 17.1044C45.9607 17.0144 46.0207 16.9144 46.0407 16.8244C44.3307 10.4844 33.5707 6.48438 33.5707 6.48438Z" fill="#CC9E7F"/>
</g>
<path d="M47.2507 22.3344C47.2507 22.2444 47.6807 22.5544 47.7207 22.7244C47.9423 23.4198 48.2805 24.0724 48.7207 24.6544C49.1007 25.0944 48.5007 25.8144 48.5007 25.8144C48.5007 25.8144 47.9107 27.0544 44.8807 28.9244C41.8507 30.7944 36.0107 31.2344 36.0107 31.2344C36.0107 31.2344 36.6507 29.9144 37.0107 29.0144C37.0939 28.7999 37.2287 28.6093 37.4031 28.4593C37.5775 28.3093 37.7862 28.2046 38.0107 28.1544C39.6786 27.7372 41.3078 27.1785 42.8807 26.4844C43.8533 26.1267 44.7426 25.5741 45.4941 24.8604C46.2455 24.1468 46.8433 23.2873 47.2507 22.3344Z" fill="#183744"/>
<path d="M31.0907 4.19426C29.0907 5.60426 31.6307 7.90427 31.6307 7.90427C31.6307 7.90427 32.0407 7.99426 32.7007 8.00426C33.0114 7.97226 33.3246 8.03191 33.6019 8.17584C33.8791 8.31978 34.1081 8.54171 34.2607 8.81425C34.7607 9.15425 34.9807 16.0343 34.9807 16.0343C34.9107 16.6143 35.8807 16.4143 36.3507 15.6043C36.8207 14.7943 38.0307 14.4243 39.7507 17.6043C39.7507 17.6043 40.8507 19.5043 41.6407 21.2543C42.1107 22.2543 42.5507 22.3243 42.6407 22.3043C42.7307 22.2843 46.2107 22.3043 46.7507 20.7743C46.8307 20.5343 47.1407 19.5843 49.3107 14.0143C49.9873 12.2399 50.1846 10.3185 49.8827 8.44363C49.5807 6.56875 48.7902 4.80649 47.5907 3.33426C46.0007 1.51426 41.6807 0.904258 39.1607 0.864258C36.1502 0.932325 33.2731 2.11954 31.0907 4.19426Z" fill="#492F15"/>
<path d="M36.5308 15.1543C36.9391 15.2208 37.3235 15.3908 37.6474 15.6481C37.9712 15.9055 38.2237 16.2416 38.3808 16.6243C38.5607 16.9491 38.6466 17.3176 38.629 17.6885C38.6113 18.0594 38.4907 18.418 38.2808 18.7243C38.0485 19.1156 37.6985 19.4236 37.2808 19.6043C37.2808 19.6043 37.1408 17.1943 37.0808 16.7543C36.9487 16.2047 36.7645 15.669 36.5308 15.1543Z" fill="#EFB797"/>
<path d="M36.1407 14.9744C36.1407 14.9744 35.4707 14.9744 36.0107 15.9744C36.4139 16.6245 36.6699 17.3549 36.7607 18.1144C36.8107 18.6244 36.7607 20.1944 36.7607 20.1944C36.7607 20.1944 37.2207 20.8044 37.5607 19.8244C37.7769 19.0131 37.8346 18.1676 37.7307 17.3344C37.7307 16.9244 36.8407 14.6944 36.1407 14.9744Z" fill="#F4C5AE"/>
<path d="M34.4507 9.27426C34.2628 8.38187 33.8804 7.54191 33.3307 6.81425C32.4607 5.75425 33.1007 4.50426 35.4707 4.71426C40.4707 5.16426 41.5507 10.0643 48.3407 9.46426C48.1607 9.21426 46.4707 9.07426 46.0007 6.99426C45.9307 6.67426 46.3807 6.75426 47.4007 7.63426C48.1404 8.40428 49.1445 8.86524 50.2107 8.92426C49.3707 7.48426 49.7407 5.60426 47.5907 3.33426C45.9307 1.58426 41.6807 0.904258 39.1607 0.864258C36.1502 0.932325 33.2731 2.11954 31.0907 4.19426C29.0907 5.60426 31.6307 7.90427 31.6307 7.90427C31.6307 7.90427 32.0407 7.99426 32.7007 8.00426C33.0968 7.96771 33.4927 8.07637 33.8146 8.31001C34.1365 8.54365 34.3626 8.88634 34.4507 9.27426Z" fill="#704B2C"/>
<g style="mix-blend-mode:multiply" opacity="0.27">
<path d="M48.1206 88.0143C48.1206 87.6943 48.0306 87.3643 47.9406 86.0143C47.6406 81.1743 47.2706 77.1743 47.2706 77.1743C47.2706 77.1743 47.1706 86.1743 47.1306 88.4843L48.1206 88.0143Z" fill="#383736"/>
</g>
<path opacity="0.55" d="M36.6306 66.7441C36.6306 64.3041 33.8906 48.6641 33.8906 48.6641L27.7806 53.4041C28.2106 58.5241 28.7106 63.5241 28.7106 66.2341L27.3906 88.9841C27.4406 89.1341 29.1606 90.8141 35.1106 91.7241L35.5406 91.7941C35.9606 86.4541 36.6306 73.7941 36.6306 66.7441Z" fill="#161615"/>
<path d="M25.6997 94.9384C25.4344 95.517 24.9834 96.9852 25.3017 98.2295C25.6997 99.7847 26.3885 101.747 26.9655 102.389C27.4367 102.913 27.9535 103.536 27.5551 103.656C27.1178 103.788 26.4368 103.573 25.5274 101.931C24.8352 100.681 24.5649 100.586 24.1797 98.5023C24.0571 97.8386 23.9617 97.6699 24.3581 94.4196C24.6752 91.8194 25.1881 93.6533 25.6997 94.9384Z" fill="#EFC4AC"/>
<path d="M24.9607 91.7142L24.2107 95.1442C24.2107 95.1442 24.9807 96.6142 28.2607 96.6142C29.1186 96.6275 29.9709 96.4747 30.7707 96.1642L30.9907 91.5942L24.9607 91.7142Z" fill="#CEE8F6"/>
<path d="M24.1807 94.274C24.1807 94.274 25.7907 80.544 26.3707 69.594C26.5707 65.814 25.3707 53.684 25.3707 49.014C25.3707 41.954 26.5307 36.604 29.8507 36.884C32.7407 37.134 35.2507 41.544 35.9107 46.824C36.4831 54.5669 36.6167 62.336 36.3107 70.094C36.0407 76.314 31.6107 94.944 31.6107 94.944C30.8536 95.3778 30.0339 95.6915 29.1807 95.874C27.8707 96.114 24.7307 95.274 24.1807 94.274Z" fill="#234968"/>
<g style="mix-blend-mode:multiply" opacity="0.27">
<path d="M28.6306 95.9143C28.8136 95.9307 28.9976 95.9307 29.1806 95.9143C30.0338 95.7318 30.8536 95.4181 31.6106 94.9843C31.6106 94.9843 36.0406 76.3543 36.3106 70.1343C36.6166 62.3763 36.4831 54.6072 35.9106 46.8643C35.2506 41.5843 32.7406 37.1743 29.8506 36.9243H29.7306C30.5906 37.6743 31.4306 40.1843 31.8106 44.7743C32.4206 52.1243 34.3906 69.3343 32.0106 80.5743C30.7306 86.4743 29.0706 93.3343 28.6306 95.9143Z" fill="#383736"/>
</g>
<path d="M16.4584 160.749C8.88939 156.384 2.72439 159.903 2.69739 168.597C2.67039 177.291 8.80839 187.911 16.3684 192.276C19.1674 193.896 21.7684 194.436 23.9554 194.022C27.6634 193.338 30.1204 189.909 30.1384 184.437C30.1564 175.716 24.0274 165.114 16.4584 160.749Z" fill="#1F2626"/>
<path d="M19.0772 185.994C21.6872 185.994 23.3882 183.897 23.3972 180.666C23.3972 176.256 20.2922 170.865 16.4582 168.651C15.4747 168.02 14.3408 167.662 13.1732 167.616C10.5542 167.616 8.89822 169.749 8.89822 173.016C8.89822 177.426 11.9942 182.817 15.8282 185.04C16.8108 185.633 17.93 185.961 19.0772 185.994Z" fill="#0E1111"/>
<path d="M16.458 168.651C15.4746 168.02 14.3406 167.662 13.173 167.616C12.9471 167.62 12.7217 167.638 12.498 167.67C11.8807 168.715 11.5689 169.912 11.598 171.126C11.7261 173.534 12.4214 175.877 13.6273 177.965C14.8332 180.053 16.5155 181.826 18.537 183.141C19.5256 183.755 20.6589 184.096 21.822 184.131C22.0481 184.131 22.2739 184.113 22.497 184.077C23.1105 183.033 23.4221 181.84 23.397 180.63C23.406 176.256 20.292 170.865 16.458 168.651Z" fill="#525252"/>
<path d="M24.6212 151.335C12.9662 146.583 8.89819 150.516 8.89819 150.516C8.89819 150.516 4.10119 154.962 24.4772 164.493C45.6722 174.42 37.2212 156.465 24.6212 151.335Z" fill="#D5D5D5"/>
<path d="M32.4962 159.228C31.9382 160.353 27.8162 159.444 23.2892 157.194C18.7622 154.944 15.5492 152.208 16.0892 151.083C16.6292 149.958 21.1832 150.003 25.7102 152.253C30.2372 154.503 33.0542 158.103 32.4962 159.228Z" fill="#EDEDED"/>
</g>
<defs>
<clipPath id="clip0_125_1093">
<rect width="81" height="199" fill="white" transform="matrix(-1 0 0 1 81.7305 0.864258)"/>
</clipPath>
</defs>
</svg>
