<svg width="81" height="199" viewBox="0 0 81 199" fill="none" xmlns="http://www.w3.org/2000/svg">
<g clip-path="url(#clip0_125_1223)">
<g style="mix-blend-mode:multiply" opacity="0.25">
<path d="M68.1668 156.71C68.1668 156.71 76.7166 165.791 71.3707 172.199C63.8469 181.198 67.7708 177.517 39.0615 195.418C35.287 197.397 31.1056 198.476 26.8446 198.57C22.5836 198.664 18.3588 197.77 14.501 195.958C4.35827 191.152 -8.45742 182.071 12.3681 170.327C35.2815 157.421 68.1668 156.71 68.1668 156.71Z" fill="#231F20"/>
</g>
<path d="M77.7071 167.816C79.1111 166.241 79.948 163.865 79.957 160.778C79.957 152.58 74.1882 142.563 67.0603 138.441C64.3604 136.875 61.8135 136.38 59.7255 136.83H59.5185C49.6188 139.314 46.9188 145.02 46.9188 145.02C46.9188 145.02 59.1675 174.089 61.8675 174.881C66.9433 176.402 71.3712 173.252 74.5482 170.66C75.5598 169.868 76.5272 169.02 77.4461 168.122L77.5631 167.996L77.7431 167.834L77.7071 167.816Z" fill="#040505"/>
<path d="M58.3662 143.705C51.2294 139.592 45.4065 142.904 45.3795 151.103C45.3525 159.302 51.1484 169.328 58.2852 173.45C60.9222 174.971 63.3791 175.484 65.4311 175.097C68.932 174.44 71.2539 171.218 71.2719 166.052C71.2899 157.853 65.4671 147.827 58.3662 143.705Z" fill="#1F2626"/>
<path d="M60.8408 167.519C63.2977 167.519 64.8997 165.548 64.9087 162.488C64.7868 160.218 64.1307 158.008 62.9938 156.039C61.8568 154.07 60.2712 152.398 58.3658 151.157C57.4268 150.592 56.3566 150.282 55.2609 150.257C52.795 150.257 51.202 152.228 51.193 155.279C51.3152 157.552 51.9724 159.763 53.1109 161.734C54.2494 163.704 55.8371 165.378 57.7449 166.619C58.6798 167.186 59.7476 167.496 60.8408 167.519Z" fill="#0E1111"/>
<path d="M58.3666 151.157C57.4275 150.592 56.3573 150.282 55.2617 150.257C55.0509 150.259 54.8405 150.274 54.6317 150.302C54.0545 151.292 53.7675 152.424 53.8037 153.569C53.9211 155.84 54.5743 158.05 55.7099 160.019C56.8456 161.989 58.4314 163.661 60.3376 164.9C61.2767 165.465 62.3469 165.775 63.4425 165.8C63.6537 165.8 63.8645 165.782 64.0725 165.746C64.6499 164.759 64.9398 163.631 64.9095 162.488C64.7876 160.218 64.1314 158.008 62.9945 156.039C61.8576 154.07 60.272 152.398 58.3666 151.157Z" fill="#525252"/>
<path d="M59.1047 136.244C47.2069 135.938 44.966 140.744 44.966 140.744C44.966 140.744 42.1941 146.288 63.4246 147.944C85.438 149.654 71.9654 136.586 59.1047 136.244Z" fill="#D5D5D5"/>
<path d="M69.8047 141.402C69.6337 142.581 65.6648 142.995 60.9309 142.302C56.197 141.609 52.4891 140.133 52.6691 138.954C52.8491 137.775 56.917 136.461 61.6689 137.154C66.4208 137.847 69.9667 140.232 69.8047 141.402Z" fill="#EDEDED"/>
<path d="M65.3137 135.579L64.6028 135.246L55.918 131.448C55.2001 131.143 54.4098 131.05 53.6409 131.181C52.872 131.312 52.1568 131.661 51.5801 132.186C50.3615 133.399 49.6395 135.022 49.5551 136.74L49.2491 153.191L65.1068 162.002L64.8188 142.329C64.9103 141.236 65.3668 140.206 66.1147 139.404C66.3925 139.025 66.5236 138.558 66.4837 138.09C66.4752 137.613 66.3666 137.143 66.1651 136.71C65.9636 136.278 65.6735 135.892 65.3137 135.579Z" fill="#BABABA"/>
<path d="M48.538 152.858L48.844 136.425C48.9201 134.703 49.6433 133.073 50.869 131.862C51.4468 131.339 52.162 130.991 52.9304 130.861C53.6988 130.73 54.4886 130.821 55.2069 131.124L64.7377 135.201C65.0885 135.365 65.3943 135.612 65.6291 135.92C65.8639 136.229 66.0207 136.589 66.0861 136.971C66.1515 137.353 66.1236 137.745 66.0048 138.114C65.886 138.482 65.6797 138.817 65.4036 139.089C64.6191 139.862 64.1562 140.904 64.1077 142.005L64.3867 161.687L48.538 152.858Z" fill="white"/>
<path d="M60.5893 137.855C60.5617 137.925 60.5205 137.987 60.4682 138.04C60.4159 138.093 60.3536 138.135 60.2848 138.164C60.216 138.192 60.1423 138.207 60.0678 138.206C59.9934 138.206 59.9197 138.191 59.8513 138.161L51.7515 134.732C51.6741 134.71 51.6023 134.672 51.5408 134.62C51.4793 134.568 51.4296 134.504 51.3949 134.431C51.3602 134.359 51.3414 134.28 51.3397 134.199C51.338 134.119 51.3534 134.039 51.3849 133.965C51.4165 133.891 51.4634 133.824 51.5226 133.77C51.5818 133.715 51.652 133.674 51.7283 133.649C51.8047 133.624 51.8856 133.615 51.9657 133.623C52.0457 133.632 52.123 133.657 52.1925 133.698L60.2923 137.117C60.3607 137.146 60.4226 137.188 60.4747 137.24C60.5267 137.293 60.5678 137.356 60.5954 137.424C60.623 137.493 60.6367 137.566 60.6357 137.64C60.6346 137.714 60.6189 137.788 60.5893 137.855Z" fill="#DBDBDB"/>
<path d="M38.4402 182.513L18.0557 170.669L17.9747 166.799L38.3502 178.643L38.4402 182.513Z" fill="#0F1F1E"/>
<path d="M38.3504 178.643L17.9749 166.799L46.4682 150.356L66.8438 162.2L38.3504 178.643Z" fill="#919191"/>
<path d="M66.8436 162.2L66.9336 166.07L38.5483 182.702L38.3503 178.643L66.8436 162.2Z" fill="#B0B0B0"/>
<path d="M66.9336 166.07L64.9986 168.959L47.0621 179.57L46.7651 177.86L66.9336 166.07Z" fill="#9B9B9B"/>
<path d="M63.5322 160.274V161.831L43.4807 172.919L42.4907 170.975L63.5322 160.274Z" fill="#D5D5D5"/>
<path d="M29.783 162.083L48.8716 151.256L63.5322 160.292L38.7738 173.639L23.3842 167.438L29.783 162.083Z" fill="#B5B5B5"/>
<path d="M42.1485 168.707C42.1485 168.707 42.5535 169.049 39.7996 167.177C38.1796 166.088 33.4277 162.569 32.2218 162.542C27.6769 162.452 26.3179 165.242 26.3179 165.242L24.9679 163.469L26.0299 162.236L28.8108 160.859L31.4298 160.283L33.2297 160.949L42.1485 168.707Z" fill="#EEEEEE"/>
<path d="M24.6885 163.802L24.7335 165.188C24.7321 165.248 24.7443 165.308 24.7693 165.362C24.7942 165.417 24.8312 165.465 24.8775 165.503L34.2373 173.171L24.6885 163.802Z" fill="#EEEEEE"/>
<path d="M34.2828 173.09C34.268 173.103 34.2487 173.11 34.2288 173.11C34.2089 173.11 34.1897 173.103 34.1748 173.09C32.0239 171.074 24.8331 164.828 24.6711 163.838C24.5091 162.848 25.778 161.957 26.543 161.507C28.424 160.4 31.7899 159.41 33.4099 160.688C35.7318 162.488 41.5097 167.969 42.2476 168.662C42.2476 168.662 42.3106 168.752 42.2476 168.77C42.1846 168.788 42.1486 168.77 42.1126 168.77C41.3477 168.122 35.3088 163.046 32.9869 161.21C31.7539 160.247 28.847 160.904 26.858 162.11C25.697 162.794 25.238 163.433 25.292 163.766C25.481 164.414 30.6019 169.094 34.2378 173.009C34.2918 173.009 34.3278 173.063 34.2828 173.09Z" fill="#929292"/>
<path d="M37.8285 163.451C37.7908 163.501 37.735 163.535 37.6729 163.545C37.6108 163.555 37.5472 163.541 37.4955 163.505C37.4055 163.442 37.3335 163.334 37.4055 163.262C38.2545 162.169 39.2942 161.239 40.4744 160.517C41.3177 160.057 42.2844 159.875 43.2374 159.995C43.2696 159.997 43.301 160.006 43.3295 160.021C43.358 160.036 43.3829 160.057 43.4025 160.083C43.4222 160.108 43.4361 160.138 43.4433 160.169C43.4505 160.201 43.4509 160.234 43.4443 160.265C43.4275 160.323 43.3896 160.373 43.3379 160.405C43.2863 160.436 43.2248 160.447 43.1654 160.436C42.3082 160.341 41.4425 160.508 40.6814 160.913C39.5934 161.591 38.6287 162.449 37.8285 163.451Z" fill="#D5DFEF"/>
<path d="M49.5549 162.902C49.8191 162.295 50.1775 161.733 50.6168 161.237C50.9539 160.834 51.359 160.493 51.8138 160.229C52.0917 160.024 52.4196 159.898 52.7632 159.863C53.1068 159.828 53.4534 159.886 53.7668 160.031L58.3477 162.731C58.0342 162.589 57.6887 162.531 57.3459 162.564C57.003 162.597 56.675 162.72 56.3947 162.92C55.9422 163.194 55.5353 163.537 55.1887 163.937C54.7494 164.433 54.391 164.995 54.1268 165.602C53.826 166.249 53.6636 166.95 53.6498 167.663C53.6127 168.007 53.6673 168.355 53.808 168.671C53.9486 168.987 54.1704 169.26 54.4507 169.463L49.8789 166.763C49.5935 166.565 49.3679 166.293 49.2267 165.975C49.0855 165.658 49.034 165.308 49.0779 164.963C49.0917 164.251 49.2542 163.549 49.5549 162.902Z" fill="#D5D5D5"/>
<path d="M56.3952 162.884C55.6044 163.407 54.948 164.109 54.4789 164.933C54.0098 165.757 53.7414 166.68 53.6953 167.627C53.6953 169.373 54.9373 170.075 56.4582 169.202C57.248 168.678 57.9037 167.975 58.3727 167.152C58.8416 166.328 59.1106 165.406 59.1582 164.459C59.1672 162.713 57.9072 162.011 56.3952 162.884Z" fill="#A9A9A9"/>
<path d="M56.4668 163.964C55.9142 164.326 55.4544 164.812 55.1245 165.385C54.7947 165.957 54.604 166.599 54.5679 167.258C54.5679 168.473 55.4679 168.959 56.4848 168.347C57.0368 167.987 57.4962 167.502 57.8261 166.931C58.156 166.36 58.347 165.72 58.3838 165.062C58.3748 163.847 57.5108 163.379 56.4668 163.964Z" fill="#77200C"/>
<path d="M56.4676 163.964C56.6668 163.817 56.9037 163.729 57.1507 163.712C57.3977 163.694 57.6446 163.747 57.8626 163.865C57.9922 164.121 58.0542 164.406 58.0426 164.693C58.01 165.353 57.8209 165.996 57.4907 166.569C57.1605 167.142 56.6987 167.628 56.1436 167.987C55.9449 168.131 55.7104 168.217 55.4658 168.236C55.2213 168.255 54.9762 168.206 54.7577 168.095C54.626 167.836 54.561 167.548 54.5687 167.258C54.6048 166.598 54.7954 165.957 55.1253 165.384C55.4552 164.812 55.915 164.326 56.4676 163.964Z" fill="#9B3212"/>
<path d="M37.0725 162.227C37.0348 162.277 36.9791 162.311 36.9169 162.321C36.8548 162.331 36.7912 162.317 36.7396 162.281C36.6496 162.218 36.5865 162.101 36.6495 162.02C37.518 160.945 38.569 160.031 39.7545 159.32C40.6027 158.866 41.5742 158.695 42.5264 158.834C42.5586 158.836 42.5901 158.845 42.6186 158.86C42.6471 158.875 42.672 158.896 42.6916 158.922C42.7112 158.947 42.7251 158.977 42.7323 159.008C42.7396 159.04 42.7399 159.072 42.7334 159.104C42.7131 159.162 42.6731 159.211 42.6205 159.242C42.5678 159.273 42.5058 159.285 42.4454 159.275C41.5918 159.162 40.7242 159.316 39.9615 159.716C38.8598 160.379 37.8821 161.228 37.0725 162.227Z" fill="#D5DFEF"/>
<path d="M40.124 171.965L41.447 156.314C41.5667 154.674 41.3366 153.026 40.772 151.481C40.5319 150.821 40.1469 150.223 39.6455 149.731C39.144 149.239 38.5388 148.865 37.8741 148.637L26.8944 144.812C26.7388 144.781 26.5785 144.783 26.4235 144.817C26.2686 144.851 26.1224 144.917 25.9944 145.01C25.7694 145.127 25.0944 145.496 25.2024 145.829L26.4894 146.243C26.8882 147.38 27.0445 148.588 26.9483 149.789L25.7424 163.379L40.124 171.965Z" fill="#BABABA"/>
<path d="M39.0615 172.505L40.3935 156.863C40.5184 155.22 40.2881 153.568 39.7185 152.021C39.4756 151.363 39.0897 150.766 38.5886 150.274C38.0875 149.783 37.4837 149.408 36.8206 149.178L25.8678 145.38C25.7674 145.346 25.6596 145.341 25.5564 145.365C25.4532 145.389 25.3585 145.44 25.2829 145.515C25.2102 145.589 25.1598 145.683 25.1376 145.785C25.1153 145.886 25.122 145.992 25.1569 146.091L25.4089 146.82C25.8133 147.952 25.9758 149.157 25.8859 150.356L24.7159 163.973L39.0615 172.505Z" fill="white"/>
<path d="M25.8682 150.329L25.8052 150.968L40.4119 156.458C40.4769 155.146 40.3093 153.833 39.9169 152.579L25.5713 147.404C25.8415 148.354 25.942 149.344 25.8682 150.329Z" fill="#D7D7D7"/>
<path d="M50.0366 148.01C50.0366 148.01 50.5794 149.732 51.0804 151.026C51.4144 151.872 58.3136 156.005 62.8017 157.706C63.1983 157.863 63.2922 158.823 63.2922 159.794C62.4706 160.335 61.541 160.691 60.568 160.838C59.0525 161.063 57.5119 161.063 55.9964 160.838C53.1626 160.235 50.4589 159.132 48.0117 157.581C48.0117 157.581 47.5525 157.372 47.5421 157.811C47.5421 158.009 47.5421 158.667 47.5421 158.855L42.8347 157.018C42.6044 156.272 42.4403 155.507 42.3442 154.732C42.2506 152.36 42.3729 149.984 42.7095 147.634L50.0366 148.01Z" fill="#172833"/>
<path d="M50.7774 69.0717C50.7774 69.0717 50.9235 101.428 50.7774 114.778C50.6939 124.933 51.3097 150.14 51.3932 150.516C52.1134 153.866 43.3041 151.653 41.7281 150.516C41.7281 150.516 40.3294 135.298 39.7763 124.505C39.6928 122.929 39.2439 116.959 39.1813 115.853C38.3881 103.411 34.5784 65.9718 34.5784 65.9718C34.5784 65.9718 41.2793 65.1889 44.1496 65.0637C49.9424 64.8341 50.7774 69.0717 50.7774 69.0717Z" fill="#1B415B"/>
<g style="mix-blend-mode:multiply" opacity="0.18">
<path d="M39.8182 124.485C40.3714 135.277 41.7701 150.495 41.7701 150.495C42.9383 151.132 44.1991 151.583 45.5067 151.831C45.4023 151.131 45.3292 150.62 45.3084 150.495C45.2249 150.119 44.5986 124.912 44.6821 114.757C44.7969 101.407 42.3963 69.4893 42.3963 69.4893C42.3963 69.4893 42.6468 69.8651 39.265 68.9674C36.7392 69.1971 35.4658 65.8362 34.7769 65.9302H34.6204C34.6204 65.9302 38.4301 103.369 39.2233 115.811C39.2859 116.959 39.7347 122.929 39.8182 124.485Z" fill="#383736"/>
</g>
<path d="M63.3129 159.846C63.3238 159.651 63.3238 159.456 63.3129 159.262C62.8224 159.731 60.6096 160.211 58.449 160.305C54.9942 160.504 49.8277 158.218 48.7317 157.592C47.9176 157.091 47.5106 157.383 47.5106 157.383L42.511 155.441C42.6094 155.962 42.7348 156.478 42.8867 156.986L47.594 158.823C47.594 158.667 47.594 158.009 47.594 157.779C47.594 157.341 48.0637 157.55 48.0637 157.55C50.5109 159.101 53.2147 160.203 56.0484 160.806C57.5639 161.032 59.1045 161.032 60.6201 160.806C61.5757 160.681 62.4937 160.354 63.3129 159.846Z" fill="#515151"/>
<path d="M51.8336 148.422L38.5627 129.296L35.8822 130.799L49.157 149.94C50.8514 152.318 52.0421 154.865 52.7123 157.546L54.0038 163.061L56.6532 161.536L55.3211 156.031C54.6759 153.35 53.5079 150.801 51.8336 148.422Z" fill="#D9D9D9"/>
<path d="M36.256 130.964L49.6038 149.925C51.3094 152.282 52.5036 154.81 53.1699 157.473L54.4522 162.953L52.3626 162.873L51.0392 157.404C50.3982 154.837 49.2494 152.4 47.6086 150.128L34.3029 131.161L36.256 130.964Z" fill="#EEEEEE"/>
<path d="M45.7306 128.004C44.724 128.877 41.4218 128.171 38.3564 126.424C35.2911 124.677 34.7034 120.83 35.6938 119.956C36.6842 119.083 38.0435 122.093 41.1089 123.84C44.1743 125.588 46.7372 127.13 45.7306 128.004Z" stroke="#171717" stroke-width="3"/>
<path d="M41.9015 131.652C40.8949 132.526 37.5927 131.82 34.5273 130.072C31.462 128.325 30.8743 124.479 31.8647 123.605C32.8551 122.731 34.2144 125.741 37.2798 127.489C40.3452 129.236 42.9081 130.778 41.9015 131.652Z" stroke="#171717" stroke-width="3"/>
<g clip-path="url(#clip1_125_1223)">
<path d="M50.4852 157.978L47.5628 158.855L46.2163 156.809L47.9594 156.36L50.4852 157.978Z" fill="#141011"/>
<path d="M27.5119 152.039C27.5119 152.039 26.7186 159.679 26.6038 163.071C26.5203 165.576 29.4324 168.426 32.8663 168.645C33.4921 168.679 34.1192 168.679 34.745 168.645C35.9871 168.645 36.5507 167.079 35.9871 163.792C35.4861 160.89 34.0353 151.267 33.8996 151.267L27.5119 152.039Z" fill="#515151"/>
<path d="M27.5119 150.87C27.5119 150.87 26.7186 158.51 26.6038 161.902C26.5203 164.397 29.4324 167.257 32.8663 167.466C33.4919 167.505 34.1194 167.505 34.745 167.466C35.9871 167.466 36.5507 165.9 35.9871 162.623C35.4861 159.721 34.0353 150.098 33.8996 150.098L27.5119 150.87Z" fill="#172833"/>
<path d="M42.2183 67.2766C41.425 74.4055 37.8659 111.114 36.843 122.136C35.747 133.951 35.9975 155.86 35.9975 155.86C36.081 157.3 32.6054 159.231 32.6054 159.231C27.5536 159.033 25.7166 156.559 25.7062 156.1C25.7062 156.1 25.7061 154.315 25.1425 139.702C24.8294 130.987 25.8314 119.37 25.8105 118.827C25.4765 108.651 24.9233 84.3211 24.9651 81.9622C24.8829 77.9647 25.5156 73.9846 26.8334 70.2096C28.5243 64.2185 34.1396 63.9471 36.8534 64.6047C38.7351 65.294 40.5344 66.1902 42.2183 67.2766Z" fill="#2B2A29"/>
<path d="M44.2225 65.0746C43.9929 67.1621 44.3895 75.1155 43.8364 80.7308C43.7111 81.9416 40.7051 81.9103 40.6007 83.215C39.2438 96.9298 37.4695 114.987 36.8432 122.136C35.7473 133.952 35.9978 155.86 35.9978 155.86C36.0813 157.3 32.6056 159.231 32.6056 159.231C27.5539 159.033 25.7169 156.559 25.7064 156.1C25.7064 156.1 25.7064 154.315 25.1428 139.703C24.8297 130.987 25.8317 119.37 25.8108 118.828C25.4768 108.651 24.9236 84.3213 24.9654 81.9624C25.0802 74.8336 25.6542 72.5687 26.4162 70.2933C28.2427 64.8136 34.1712 64.0308 36.8537 64.6466C39.2993 64.9348 41.7599 65.0777 44.2225 65.0746Z" fill="#1B415B"/>
<g style="mix-blend-mode:multiply" opacity="0.33">
<path d="M25.7689 156.267C25.7976 156.336 25.8326 156.402 25.8733 156.465C25.936 156.549 26.009 156.653 26.103 156.757C26.2018 156.87 26.3063 156.978 26.4161 157.081C26.719 157.352 27.0475 157.593 27.3972 157.801C27.8505 158.08 28.3337 158.308 28.8376 158.48C29.2133 147.458 28.1487 132.574 29.7143 123.524C29.9231 122.334 31.1547 117.314 31.186 115.874C31.4574 104.288 30.0379 85.1561 30.5807 72.4641C30.7163 69.4163 31.8853 65.7736 32.9813 64.375C31.4073 64.6544 29.9453 65.3759 28.7661 66.4553C27.587 67.5347 26.7393 68.9273 26.3221 70.4705C25.6646 72.7772 24.9862 74.6456 24.8713 81.7848C24.8713 84.1437 25.3828 108.473 25.7168 118.65C25.7168 119.245 24.7356 130.862 25.0488 139.525C25.5602 154.138 25.6124 155.922 25.6124 155.922C25.6007 155.974 25.6007 156.027 25.6124 156.079C25.6124 156.079 25.7585 156.246 25.7689 156.267Z" fill="#141413"/>
</g>
<path d="M62.2778 80.0132C62.2778 80.0132 62.9354 81.9337 63.8956 84.3447C64.5998 85.6796 65.0627 87.1283 65.263 88.6241C65.3151 89.4591 64.3862 92.7991 63.7913 93.3419C62.9354 94.0829 62.9771 92.8722 62.4448 93.3419C61.3384 94.323 60.0338 93.1331 59.6163 92.9765C58.2177 92.4651 59.2405 90.7116 59.0631 89.1773C58.9691 88.3423 57.9254 87.3403 57.7167 85.8582C57.4766 84.136 58.823 81.0778 58.823 81.0778L62.2778 80.0132Z" fill="#E0A88C"/>
<path d="M63.7808 81.8605C63.7808 81.8605 56.6938 64.1168 55.4935 58.6684C54.5123 54.2638 56.0988 46.7488 55.4099 40.7264C53.9904 28.4101 49.0639 24.59 46.0162 25.9782C46.0893 27.8674 46.4024 31.9693 46.7259 37.9082C47.0077 43.0435 43.887 55.652 44.8159 59.6495C47.2687 70.2854 57.08 85.6598 57.08 85.6598C58.4704 85.6375 59.8321 85.2602 61.0358 84.5639C62.124 83.8575 63.0578 82.9378 63.7808 81.8605Z" fill="#234968"/>
<g style="mix-blend-mode:multiply" opacity="0.31">
<path d="M46.7886 37.908C47.0704 43.0432 41.8413 56.0797 43.5739 59.8267C46.9869 67.2165 57.1426 85.67 57.1426 85.67C58.5331 85.6476 59.8947 85.2704 61.0984 84.574C61.422 84.3235 61.7038 84.0835 61.9752 83.8538C55.7127 78.3115 52.1326 66.7155 50.9323 64.2418C50.3061 62.958 54.0009 61.6324 53.8757 61.2984C53.7504 60.9644 51.9969 60.9644 50.9323 60.1503C50.7131 59.9833 51.9239 59.284 53.0198 58.856C54.1157 58.4281 53.8339 57.3113 53.5208 57.3008C52.3831 57.2382 50.9741 57.186 50.6087 55.5056C49.2623 49.4518 47.5505 38.3463 47.6654 32.4283C47.6654 31.8229 47.6654 31.1653 47.6027 30.5078C47.4253 28.1176 46.8721 25.7065 46.0788 25.9883C46.131 27.3139 46.2981 29.725 46.4964 32.9397C46.5903 34.3697 46.6946 36.0605 46.7886 37.908Z" fill="#383736"/>
</g>
<g style="mix-blend-mode:multiply" opacity="0.33">
<path d="M44.4609 6.72125L42.1855 4.46676C34.3469 4.25801 36.0691 4.19538 33.5746 4.59201C33.5746 4.59201 34.2426 7.1805 33.5746 7.55625C32.9066 7.932 31.5706 8.76701 31.748 8.67308C32.1864 8.45389 34.4931 9.12188 35.5473 9.56025C39.1273 11.0528 41.1835 11.8148 43.2293 10.8649C43.6182 10.6235 43.946 10.2952 44.1868 9.9059C44.4277 9.51656 44.5751 9.07673 44.6175 8.62088C44.5966 6.77345 44.4609 6.72125 44.4609 6.72125Z" fill="#6D4827"/>
</g>
<path d="M20.4967 44.3376C20.4967 44.3376 20.1523 34.3698 30.381 28.0446C36.9358 24.0158 41.8623 26.0093 41.8623 26.0093C42.238 26.0093 52.926 28.5143 52.185 40.6218C51.0786 59.0545 50.0975 73.4895 50.0975 73.4895C50.1195 74.0249 50.0091 74.5574 49.7761 75.0399C49.543 75.5224 49.1945 75.9399 48.7614 76.2555C45.8797 78.3968 42.7193 80.135 39.3677 81.422C33.554 83.5095 24.4317 81.1402 23.5445 79.585C22.6573 78.0298 26.6757 71.0471 25.7677 64.1584C24.8596 57.2696 20.4967 44.3376 20.4967 44.3376Z" fill="#CEE8F6"/>
<path d="M30.266 28.1074C27.1097 30.2335 24.0714 32.5296 21.1645 34.9857C18.8369 37.2089 16.6868 39.5782 16.9895 41.7597C17.5622 44.7686 18.4544 47.7077 19.6511 50.5272C21.2271 54.6291 23.3355 72.0597 23.2103 73.4062C22.3753 81.9858 21.8951 85.3675 21.8951 85.3675C21.8951 85.3675 29.431 87.2463 36.5076 88.6971C37.3218 88.8641 37.4262 88.2274 37.4262 88.2274C37.4262 88.2274 38.4699 72.7591 38.4699 61.4239C38.4699 56.7688 31.9152 38.1796 30.4748 34.4012C29.0344 30.6229 29.3371 28.7963 30.266 28.1074Z" fill="#234968"/>
<g style="mix-blend-mode:multiply" opacity="0.3">
<path d="M36.925 25.6855C36.925 25.6855 47.9261 36.0604 48.0305 51.4975C48.1036 61.935 47.7487 85.0332 47.7487 85.0332C47.7487 85.0332 47.8426 85.5237 48.2288 85.1062C49.0116 84.2712 51.2244 81.2548 51.2244 81.2548C51.2244 81.2548 51.5897 68.6463 52.0281 58.9916C52.4665 49.3369 53.0718 35.1732 49.617 29.37C47.7383 26.2387 41.3296 26.2387 42.3734 26.1239L36.925 25.6855Z" fill="#383736"/>
</g>
<path d="M30.4333 17.4404C30.4333 18.7137 30.4333 29.3496 30.4333 29.3496C30.554 30.5972 31.1019 31.7649 31.9844 32.655C32.8669 33.5451 34.0298 34.103 35.2764 34.2343C36.4246 34.3841 37.5913 34.1832 38.6233 33.6579C39.6552 33.1326 40.5042 32.3075 41.0587 31.2909V19.8097C41.0587 19.8097 30.4333 15.1128 30.4333 17.4404Z" fill="#DBB397"/>
<path d="M30.4749 26.8027C30.2793 26.8306 30.097 26.918 29.953 27.0532C28.7944 28.2222 26.686 30.4454 26.686 30.4454L28.9301 43.3357C29.024 43.6697 29.0657 43.962 29.3893 44.0872L32.9589 45.7155L31.4246 48.3457C30.9132 49.1807 31.0071 49.0451 31.3411 49.5774C35.9754 57.1132 38.2925 61.8623 38.2925 61.8623C38.2136 56.0197 37.2458 50.2231 35.4222 44.6717C34.3785 41.6344 32.4788 35.4763 31.4246 31.9067C30.8564 30.262 30.5363 28.5418 30.4749 26.8027Z" fill="#183744"/>
<path d="M37.687 25.6855C37.687 25.6855 38.7308 25.9987 40.8183 28.7646C44.0539 32.9918 48.876 41.2165 48.9699 49.076C49.1056 59.5761 48.8343 83.9164 48.8343 83.9164C48.8343 83.9164 48.9178 84.4174 49.304 83.9999C50.0868 83.1649 52.2995 80.138 52.2995 80.138C52.2995 80.138 52.2995 66.1935 52.884 56.5492C53.552 46.3309 54.6584 35.3402 50.7965 28.5663C50.3852 27.8036 49.7857 27.1587 49.055 26.6928C48.3243 26.227 47.4866 25.9557 46.6215 25.9047C43.0414 25.9047 37.687 25.6855 37.687 25.6855Z" fill="#234968"/>
<path d="M42.2585 23.0972C42.2585 23.0972 48.3331 32.7623 50.0866 35.5074C50.1881 35.6984 50.2479 35.9088 50.2623 36.1247C50.2767 36.3405 50.2453 36.557 50.1701 36.7599L48.7506 39.4214L51.3391 41.9995L49.1681 57.9897C49.1681 57.9897 48.8341 45.997 47.592 41.6759C46.35 37.3548 39.7639 26.8442 39.7639 26.8442L42.2585 23.0972Z" fill="#183744"/>
<g style="mix-blend-mode:multiply" opacity="0.36">
<path d="M41.0999 31.2905V27.9296L40.8911 19.8927C40.8911 19.8927 31.9566 18.4837 30.4536 19.6109V20.7173C30.5457 21.2022 30.7415 21.6616 31.0277 22.0637C31.3508 22.4194 31.6997 22.7508 32.0714 23.0553C32.301 23.9425 32.3324 24.861 32.5516 25.6021C32.6722 26.1449 32.9156 26.6528 33.263 27.087C33.6103 27.5212 34.0525 27.8702 34.5555 28.107C35.5158 28.7437 37.4154 29.7457 38.9184 30.5494C39.1012 31.5192 39.1643 32.5077 39.1063 33.4928C39.9267 32.9166 40.6079 32.1641 41.0999 31.2905Z" fill="#DBB397"/>
</g>
<path d="M45.2856 8.70371L43.1981 6.61621L30.1199 9.74746L32.103 21.8445C32.3222 22.7108 32.4787 23.932 32.6979 24.7148C33.0528 25.9673 33.439 26.103 34.5454 26.7084C36.1895 27.5749 37.9039 28.3011 39.6702 28.8794C40.881 29.3073 43.626 28.4619 43.8452 27.4912C44.0435 26.2596 44.5758 24.1408 45.2334 19.4021C45.23 18.5851 45.1248 17.7717 44.9202 16.9806C44.9202 16.6362 45.4421 14.8931 45.4421 14.6635C45.3377 12.4508 45.2856 8.70371 45.2856 8.70371Z" fill="#EFCAB1"/>
<g style="mix-blend-mode:multiply" opacity="0.25">
<path d="M27.2499 50.5484C24.964 44.7973 17.7726 39.2655 18.0335 41.4469C18.0623 44.5443 18.5873 47.6171 19.5887 50.5484C21.1648 54.6503 23.2732 72.081 23.1479 73.4274C22.3129 82.007 21.8328 85.3888 21.8328 85.3888C21.8328 85.3888 27.0516 86.683 32.8235 87.9564C32.8235 83.5935 32.3851 70.3692 32.2494 67.1545C32.0511 61.9357 30.9343 59.7647 27.2499 50.5484Z" fill="#8E8E8E"/>
</g>
<g style="mix-blend-mode:multiply" opacity="0.17">
<path d="M29.3372 12.3572L30.0991 13.8289L32.0927 21.7092C32.3119 22.565 32.3849 23.7967 32.5937 24.5377C32.959 25.7902 33.4286 26.0616 34.535 26.6252C35.721 27.2967 36.9603 27.8692 38.2404 28.337C38.2404 28.2535 37.6976 26.1764 37.5828 25.2788C37.3427 23.2748 36.9565 20.9264 36.3094 20.06C35.5266 19.0163 35.2657 18.5884 35.3492 18.1813C35.5316 17.5046 35.7797 16.8474 36.0902 16.2191C36.0827 15.1083 35.999 13.9993 35.8397 12.8999C35.6831 10.04 33.1781 10.3323 31.4038 9.95655C30.0782 9.67474 29.9425 11.8666 29.3372 12.3572Z" fill="#6D4827"/>
</g>
<path d="M44.8266 6.18848C46.2461 7.61842 45.0874 10.5931 43.5949 11.6682C42.5511 12.4614 41.3821 12.0857 40.0774 11.8143C38.1569 11.4072 35.8294 10.8332 34.3577 10.5931C33.5436 10.4574 32.5833 11.0837 32.5833 12.6806L33.9715 19.0266C33.4279 18.8191 32.9151 18.5382 32.4476 18.1916C32.4476 18.1916 31.4039 17.7741 31.0908 18.0246C30.047 18.9535 30.3288 19.7572 30.4332 19.9138V24.5376C30.3497 24.4332 28.7841 19.799 28.4918 18.9431C27.6047 16.292 27.4481 15.9475 26.2269 11.7308C25.5172 9.29886 30.2453 3.06768 37.0819 2.67105C40.4636 2.4623 44.8266 6.18848 44.8266 6.18848Z" fill="#492F15"/>
<path d="M26.6753 6.18855C28.5783 3.89325 31.2338 2.34733 34.1694 1.82568C38.7202 1.18899 42.9578 3.91318 44.7739 5.94849C45.1563 6.33355 45.4449 6.80139 45.6176 7.31585C45.7903 7.8303 45.8423 8.37758 45.7697 8.91535C45.697 9.45312 45.5016 9.96699 45.1987 10.4172C44.8957 10.8674 44.4932 11.2419 44.0224 11.5117C41.8305 12.8686 39.8474 11.1359 36.6535 9.69555C34.4192 8.70856 31.9469 8.38955 29.5352 8.77704C29.9504 8.41292 30.4185 8.11381 30.9234 7.88987C31.1843 7.76462 32.2802 7.45149 32.2802 7.45149C31.5083 6.82005 30.5999 6.37714 29.627 6.15792C28.6541 5.9387 27.6434 5.94919 26.6753 6.18855Z" fill="#6D4827"/>
<path d="M29.4519 16.3757C31.4455 15.7181 32.291 18.004 33.1886 19.2773C33.8879 23.4523 32.1448 22.7948 30.8402 21.8136C30.075 21.2567 29.435 20.5456 28.9614 19.7261C28.1995 18.2753 28.2934 16.7619 29.4519 16.3757Z" fill="#DBB397"/>
<path d="M19.3192 89.2398C19.3192 89.2398 17.9832 88.3318 17.8371 88.9267C17.3393 91.6575 17.0324 94.4197 16.9186 97.1932C16.7725 98.0491 17.0021 102.736 17.7119 102.976C17.8894 103.396 18.1706 103.591 18.5739 103.517C18.8522 103.901 19.199 104.022 19.5478 103.99C19.8652 104.417 20.3077 104.449 20.494 104.312C20.494 104.312 20.8222 104.802 21.3336 104.938C22.4818 105.261 21.8715 103.205 21.7575 102.671C21.5944 101.907 21.5944 100.744 21.5944 100.218C21.5944 99.8251 21.7135 99.1498 21.7575 98.9865C21.7945 98.849 21.8727 98.5542 21.9507 98.4637C22.3235 98.0319 22.6945 98.6625 22.8497 98.9865C23.2314 100.841 23.9102 101.182 24.4685 100.99C24.8976 100.842 23.6966 97.2328 23.1706 95.9616C22.4191 94.1455 19.3192 89.2398 19.3192 89.2398Z" fill="#EFB797"/>
<path d="M22.0308 91.2542L22.7823 95.6796C22.7823 95.6796 22.3335 96.5981 19.1084 96.5981C18.1079 96.5444 17.144 96.2038 16.3319 95.617L16.1128 91.1289L22.0308 91.2542Z" fill="#CEE8F6"/>
<path d="M23.1997 94.2604C23.1997 94.2604 21.6132 80.7751 21.0496 70.0245C20.8513 66.3192 25.7569 49.5566 25.7569 44.9745C25.7569 38.0336 24.1182 36.6767 20.8513 36.9585C18.0123 37.1985 16.1127 40.883 14.474 46.9367C13.6077 50.1515 10.9461 62.6765 11.3428 70.5151C11.6037 76.621 15.9561 94.9179 15.9561 94.9179C16.7 95.3448 17.5066 95.6513 18.3463 95.826C19.5779 96.0661 22.6779 95.2311 23.1997 94.2604Z" fill="#234968"/>
<g style="mix-blend-mode:multiply" opacity="0.27">
<path d="M18.8371 95.8676C18.3988 93.3104 16.7496 86.5991 15.4867 80.7646C13.5651 71.3443 13.8905 61.6038 16.4365 52.3328C18.0752 46.4461 19.6826 39.4947 20.528 38.7641C20.7773 38.1407 21.0595 37.531 21.3734 36.9375H20.8516C18.0126 37.1776 16.113 40.862 14.4743 46.9157C12.819 53.5848 11.771 60.39 11.343 67.248C11.343 67.3732 11.343 67.4985 11.343 67.6133C11.343 67.9682 11.343 68.3126 11.343 68.6571C11.343 69.0015 11.343 69.0432 11.343 69.2311C11.343 69.659 11.343 70.0974 11.343 70.5045C11.604 76.6104 15.9564 94.9074 15.9564 94.9074C16.7002 95.3342 17.5069 95.6407 18.3465 95.8154C18.5166 95.8327 18.688 95.8327 18.858 95.8154L18.8371 95.8676Z" fill="#383736"/>
</g>
</g>
<path d="M45.2986 187.175C46.7026 185.609 47.5306 183.224 47.5396 180.146C47.5396 171.956 41.7887 161.921 34.6429 157.799C31.9429 156.233 29.405 155.747 27.308 156.197C27.2421 156.193 27.176 156.193 27.11 156.197C17.2103 158.69 14.5103 164.387 14.5103 164.387C14.5103 164.387 26.768 193.448 29.468 194.249C34.5439 195.76 38.9718 192.62 42.1397 190.028C43.1554 189.237 44.1259 188.389 45.0466 187.49L45.1636 187.364L45.3346 187.202L45.2986 187.175Z" fill="#040505"/>
<path d="M25.9583 163.073C18.8215 158.951 12.9986 162.272 12.9716 170.471C12.9446 178.67 18.7405 188.695 25.8683 192.808C28.5053 194.338 30.9712 194.842 33.0142 194.464C36.5151 193.807 38.837 190.576 38.846 185.465C38.882 177.221 33.0682 167.195 25.9583 163.073Z" fill="#1F2626"/>
<path d="M28.4241 186.887C30.899 186.887 32.492 184.907 32.501 181.856C32.3826 179.585 31.728 177.374 30.5908 175.404C29.4536 173.435 27.866 171.763 25.9581 170.525C25.0235 169.944 23.9529 169.618 22.8532 169.58C20.3873 169.58 18.8033 171.56 18.7943 174.611C18.9116 176.881 19.5649 179.092 20.7005 181.061C21.8362 183.03 23.422 184.703 25.3281 185.942C26.2602 186.521 27.3274 186.847 28.4241 186.887Z" fill="#0E1111"/>
<path d="M25.9579 170.525C25.0233 169.944 23.9528 169.618 22.853 169.58C22.645 169.584 22.4376 169.602 22.232 169.634C21.6473 170.618 21.3569 171.748 21.395 172.892C21.512 175.165 22.1659 177.377 23.3032 179.348C24.4405 181.32 26.0288 182.993 27.9379 184.232C28.8728 184.799 29.9407 185.109 31.0338 185.132C31.2448 185.128 31.4553 185.11 31.6638 185.078C32.2443 184.092 32.5345 182.963 32.5008 181.82C32.3769 179.555 31.7197 177.351 30.5827 175.388C29.4457 173.426 27.8611 171.759 25.9579 170.525Z" fill="#525252"/>
<path d="M28.6311 152.678C16.8324 151.373 14.2314 156.008 14.2314 156.008C14.2314 156.008 11.0275 161.282 31.97 164.675C53.6865 168.185 41.3838 154.073 28.6311 152.678Z" fill="#D5D5D5"/>
<path d="M37.8104 157.799C37.5944 158.969 33.6165 159.212 28.9366 158.339C24.2567 157.466 20.6208 155.81 20.8368 154.64C21.0528 153.47 25.1747 152.345 29.8366 153.218C34.4985 154.091 38.0264 156.638 37.8104 157.799Z" fill="#EDEDED"/>
</g>
<defs>
<clipPath id="clip0_125_1223">
<rect width="80" height="198" fill="white" transform="matrix(-1 0 0 1 80.7305 0.864258)"/>
</clipPath>
<clipPath id="clip1_125_1223">
<rect width="54.275" height="167" fill="white" transform="translate(11.3027 1.73145)"/>
</clipPath>
</defs>
</svg>
