<svg width="82" height="200" viewBox="0 0 82 200" fill="none" xmlns="http://www.w3.org/2000/svg">
<g clip-path="url(#clip0_125_973)">
<path d="M29.547 79.7842C29.547 79.7842 31.547 85.4542 30.847 89.1342C30.4271 90.6963 29.6806 92.1517 28.657 93.4042C28.5098 93.5587 28.3306 93.679 28.1319 93.7567C27.9332 93.8345 27.7199 93.8677 27.507 93.8542C26.7967 93.7296 26.1174 93.4681 25.507 93.0842C24.727 92.4642 25.457 91.4642 25.307 90.0242C25.207 89.0242 24.617 87.9442 24.457 86.1442C24.3844 84.9393 24.4854 83.7303 24.757 82.5542L29.547 79.7842Z" fill="#EFB797"/>
<path d="M28.577 84.7344C28.577 84.7344 30.317 88.1944 29.577 89.5044C28.837 90.8144 27.937 92.1844 27.937 92.1844C27.7188 92.1258 27.5269 91.995 27.3926 91.8134C27.2582 91.6319 27.1892 91.4102 27.197 91.1844C27.3302 90.3462 27.7096 89.5664 28.287 88.9444C27.5547 88.7155 26.9117 88.2647 26.447 87.6544C26.1699 87.2592 26.0074 86.7951 25.9774 86.3133C25.9474 85.8316 26.0511 85.3509 26.277 84.9244L28.577 84.7344Z" fill="#EFC4AC"/>
<path d="M31.3872 81.7741V84.8741C31.3872 84.8741 28.3272 87.1641 25.3872 85.6341C24.2572 85.0441 24.4572 84.8741 24.4572 84.8741L24.9772 81.7241L31.3872 81.7741Z" fill="#CEE8F6"/>
<path d="M56.0387 141.666L41.2929 120.415L38.3145 122.085L53.0647 143.354C54.9474 145.996 56.2704 148.826 57.015 151.805L58.4501 157.932L61.3939 156.238L59.9138 150.121C59.1969 147.142 57.8991 144.31 56.0387 141.666Z" fill="#D9D9D9"/>
<path d="M38.73 122.268L53.5612 143.337C55.4563 145.956 56.7834 148.764 57.5237 151.724L58.9485 157.812L56.6266 157.723L55.1562 151.646C54.444 148.794 53.1674 146.087 51.3443 143.562L36.5598 122.486L38.73 122.268Z" fill="#EEEEEE"/>
<g style="mix-blend-mode:multiply" opacity="0.25">
<path d="M21.3835 156.905C16.2536 157.913 3.97755 163.259 6.35355 171.197C7.07355 173.618 9.95355 175.697 38.4925 193.499C38.4925 193.499 49.7786 201.005 62.8646 194.813C72.9445 190.034 86.8316 182.501 66.1406 170.828C43.4066 158.012 32.4986 154.709 21.3835 156.905Z" fill="#231F20"/>
</g>
<path d="M6.77221 164.013C5.28721 162.312 4.38721 159.783 4.38721 156.516C4.38721 147.831 10.4982 137.202 18.0582 132.837C20.9382 131.172 23.6202 130.659 25.8342 131.127H26.0502C36.5802 133.773 39.4422 139.803 39.4422 139.803C39.4422 139.803 26.3922 170.592 23.5932 171.429C18.1932 173.04 13.5132 169.71 10.1562 166.929C9.07399 166.095 8.04591 165.193 7.07821 164.229L6.94321 164.094C6.88921 164.04 6.82621 163.986 6.77221 163.923V164.013Z" fill="#040505"/>
<path d="M28.2883 139.037C35.8573 134.672 42.0313 138.191 42.0583 146.876C42.0853 155.561 35.9473 166.199 28.3783 170.573C25.5883 172.184 22.9783 172.715 20.8003 172.319C17.0923 171.626 14.6353 168.206 14.6173 162.725C14.5903 154.031 20.7103 143.402 28.2883 139.037Z" fill="#1F2626"/>
<path d="M26.4184 165.257C23.8084 165.257 22.1164 163.16 22.1074 159.929C22.2355 157.521 22.9308 155.178 24.1367 153.09C25.3426 151.002 27.0249 149.228 29.0464 147.914C30.0344 147.298 31.1676 146.953 32.3314 146.915C34.9414 146.915 36.6334 149.003 36.6424 152.243C36.6424 156.653 33.5464 162.044 29.7034 164.258C28.7172 164.878 27.583 165.223 26.4184 165.257Z" fill="#0E1111"/>
<path d="M29.0458 147.914C30.0338 147.298 31.167 146.953 32.3308 146.915C32.5567 146.919 32.7821 146.937 33.0058 146.969C33.6178 148.016 33.9293 149.212 33.9058 150.425C33.9058 154.835 30.8008 160.226 26.9668 162.44C25.9772 163.052 24.8445 163.393 23.6818 163.43C23.4561 163.429 23.2306 163.414 23.0068 163.385C22.3863 162.341 22.0742 161.143 22.1068 159.929C22.2348 157.521 22.9302 155.178 24.136 153.09C25.3419 151.002 27.0242 149.228 29.0458 147.914Z" fill="#525252"/>
<path d="M21.2979 130.25C33.0789 125.75 37.0299 129.818 37.0299 129.818C37.0299 129.818 41.7459 134.381 21.0999 143.48C-0.329095 152.93 8.54491 135.11 21.2979 130.25Z" fill="#D5D5D5"/>
<path d="M12.8687 139.38C13.4537 140.496 17.5667 139.515 22.0667 137.175C26.5667 134.835 29.7347 132.036 29.1497 130.92C28.5647 129.804 24.0287 129.93 19.5287 132.261C15.0287 134.592 12.2837 138.264 12.8687 139.38Z" fill="#EDEDED"/>
<path d="M49.9312 181.167L71.5312 168.612L71.6212 164.508L50.0212 177.063L49.9312 181.167Z" fill="#0F1F1E"/>
<path d="M50.0211 177.063L71.6211 164.508L41.4171 147.075L19.8171 159.63L50.0211 177.063Z" fill="#919191"/>
<path d="M19.8171 159.63L19.7271 163.734L49.8141 181.365L50.0211 177.063L19.8171 159.63Z" fill="#B0B0B0"/>
<path d="M19.7271 163.739L21.9351 166.956L42.3978 178.739L42.7271 176.843L19.7271 163.739Z" fill="#9B9B9B"/>
<path d="M21.0721 129.487L21.8191 129.1L30.8191 124.69C31.5676 124.339 32.4006 124.21 33.2201 124.317C34.0396 124.423 34.8116 124.762 35.4451 125.293C36.8074 126.521 37.656 128.218 37.8211 130.045L38.8651 147.442L22.4491 157.468L21.8911 136.606C21.7467 135.454 21.2207 134.383 20.3971 133.564C20.089 133.176 19.9294 132.691 19.9471 132.196C19.934 131.691 20.0274 131.188 20.2212 130.722C20.415 130.255 20.705 129.834 21.0721 129.487Z" fill="#BABABA"/>
<path d="M39.6444 147.023L38.6004 129.617C38.4401 127.797 37.6017 126.104 36.2514 124.874C35.617 124.344 34.8446 124.007 34.0251 123.902C33.2055 123.797 32.373 123.928 31.6254 124.28L21.7254 129.023C21.3627 129.212 21.0511 129.486 20.8171 129.821C20.5831 130.157 20.4337 130.544 20.3816 130.949C20.3294 131.355 20.3761 131.767 20.5176 132.151C20.6592 132.535 20.8914 132.879 21.1944 133.154C22.052 133.949 22.587 135.031 22.6974 136.196L23.2464 157.049L39.6444 147.023Z" fill="white"/>
<path d="M26.8607 131.978C26.8936 132.05 26.9406 132.115 26.9989 132.169C27.0573 132.223 27.1258 132.264 27.2005 132.291C27.2751 132.318 27.3544 132.329 27.4336 132.325C27.5129 132.321 27.5904 132.301 27.6617 132.266L36.0677 128.288C36.1392 128.254 36.2033 128.206 36.2562 128.147C36.3092 128.088 36.35 128.019 36.3763 127.944C36.4026 127.869 36.414 127.79 36.4097 127.711C36.4054 127.632 36.3855 127.554 36.3512 127.482C36.317 127.411 36.2689 127.347 36.2099 127.294C36.1509 127.241 36.082 127.2 36.0072 127.174C35.9324 127.148 35.8532 127.136 35.774 127.141C35.6948 127.145 35.6172 127.165 35.5457 127.199L27.1487 131.177C27.0045 131.245 26.8933 131.368 26.8393 131.518C26.7853 131.668 26.793 131.834 26.8607 131.978Z" fill="#DBDBDB"/>
<path d="M39.0111 149.323L38.2101 135.535L35.7171 136.768C35.2513 136.998 34.8598 137.355 34.5876 137.798C34.3153 138.24 34.1734 138.751 34.1781 139.27V140.404C34.178 140.661 34.1063 140.912 33.9712 141.13C33.836 141.347 33.6427 141.523 33.4131 141.637L30.0021 143.302C29.9208 143.344 29.83 143.364 29.7386 143.361C29.6473 143.357 29.5583 143.33 29.4805 143.282C29.4026 143.234 29.3385 143.167 29.2943 143.087C29.25 143.007 29.2273 142.917 29.2281 142.825V141.61C29.228 141.429 29.1819 141.25 29.0939 141.091C29.0059 140.933 28.8791 140.799 28.7252 140.703C28.5713 140.606 28.3955 140.551 28.2143 140.541C28.0331 140.531 27.8523 140.568 27.6891 140.647L24.0171 142.447L24.5211 157.27L39.0111 149.323Z" fill="#D5D5D5"/>
<path d="M24.1572 159.565V161.221L45.4062 172.975L46.4592 170.905L24.1572 159.565Z" fill="#D5D5D5"/>
<path d="M59.8492 160.536C59.8492 160.536 56.5822 146.433 48.9322 154.686L40.3372 150.186L24.1372 158.628L50.2372 173.028L66.6622 166.179L59.8492 160.536Z" fill="#B5B5B5"/>
<path d="M55.5838 152.755C55.8448 152.755 55.9168 153.088 55.7458 153.286L45.0358 164.086C45.0358 164.14 44.9008 164.086 44.9368 164.023L50.6968 156.049C50.8791 155.699 51.1127 155.377 51.3898 155.095C52.1818 154.285 53.9638 152.692 55.5838 152.755Z" fill="#DFDFDF"/>
<path d="M34.5472 147.334C34.5472 147.334 35.3072 148.694 37.7472 148.774C38.7472 148.774 42.7472 148.494 42.7472 148.494C44.5272 148.134 46.7472 148.154 47.1772 149.494C47.2741 149.761 47.3314 150.041 47.3472 150.324C47.2572 151.324 47.5872 150.494 46.2672 151.734C44.9799 152.764 43.6159 153.693 42.1872 154.514C41.1084 155.204 39.8469 155.552 38.5672 155.514C37.886 155.38 37.1903 155.333 36.4972 155.374C35.6072 155.494 35.8472 156.654 35.8472 157.554L33.1372 158.744C30.3772 159.524 27.5872 157.044 27.5772 156.344L27.5272 149.084L34.5472 147.334Z" fill="#231F20"/>
<path d="M33.1371 157.914L35.8271 156.734C35.8271 157.034 35.8271 157.354 35.8271 157.634L33.1071 158.824C30.3471 159.604 27.5571 157.124 27.5471 156.424V155.514C27.5771 156.214 30.3871 158.684 33.1371 157.914Z" fill="#383736"/>
<path d="M42.8271 79.1342L39.8271 116.514C39.8271 116.514 36.1671 138.924 37.8971 147.864C38.2171 149.544 37.8972 151.624 32.2072 151.624C29.0572 151.624 27.1471 150.774 27.1271 149.894C26.7471 127.814 29.3271 117.214 29.2471 113.774C29.1471 109.404 28.9071 78.5742 28.9071 78.5742L42.8271 79.1342Z" fill="#1B415B"/>
<path opacity="0.37" d="M42.8271 79.1342L39.8271 116.514C39.8271 116.514 36.1671 138.924 37.8971 147.864C38.2071 149.474 37.8971 151.454 32.8971 151.604C32.8971 151.184 32.8172 150.754 32.7672 150.304C32.1572 144.414 34.5971 119.964 36.2171 113.874C37.4771 109.154 36.6972 86.3142 36.3772 77.0542L42.8271 79.1342Z" fill="#161615"/>
<path d="M37.457 155.074C38.7928 154.954 40.1 154.616 41.327 154.074C42.9658 153.374 44.5531 152.559 46.077 151.634C46.3891 151.442 46.6572 151.185 46.8639 150.882C47.0707 150.579 47.2114 150.236 47.277 149.875C47.277 150.105 47.337 150.335 47.347 150.465C47.407 151.395 46.177 152.565 45.547 153.025C44.4809 153.672 43.3559 154.218 42.187 154.655C40.067 155.395 39.937 155.525 38.977 155.565C38.2458 155.495 37.5114 155.465 36.777 155.475C36.417 155.475 35.917 155.724 35.917 155.824C35.937 155.764 36.047 155.114 37.457 155.074Z" fill="#383736"/>
<path d="M45.0867 165.062C45.0854 165.075 45.0868 165.088 45.0908 165.1C45.0947 165.112 45.1012 165.123 45.1096 165.132C45.1181 165.141 45.1285 165.149 45.14 165.154C45.1516 165.159 45.1641 165.161 45.1767 165.161C46.0227 165.161 52.6377 165.08 61.1157 161.066L60.8187 160.445C55.9144 162.865 50.6171 164.389 45.1767 164.945C45.1622 164.945 45.1478 164.947 45.1346 164.954C45.1215 164.96 45.11 164.969 45.1012 164.98C45.0923 164.992 45.0864 165.005 45.0839 165.02C45.0814 165.034 45.0823 165.048 45.0867 165.062Z" fill="#D5D5D5"/>
<path d="M48.9149 167.698C48.9149 167.698 48.4919 168.058 51.4079 166.078C53.1179 164.926 58.1669 161.191 59.4449 161.164C64.2509 161.056 65.7449 163.99 65.7449 163.99L67.2029 162.19L66.0869 160.885L63.1349 159.418L60.3629 158.815L58.4369 159.508L48.9149 167.698Z" fill="#EEEEEE"/>
<path d="M68.3601 162.905V164.39C68.3575 164.45 68.3426 164.509 68.3162 164.564C68.2899 164.618 68.2528 164.666 68.2071 164.705L58.3071 172.859L68.3601 162.905Z" fill="#EEEEEE"/>
<path d="M57.2361 172.333C57.2536 172.344 57.2739 172.35 57.2946 172.35C57.3154 172.35 57.3357 172.344 57.3531 172.333C59.6391 170.2 67.2531 163.576 67.4331 162.514C67.6131 161.452 66.2631 160.534 65.4441 160.057C63.4551 158.878 59.8821 157.834 58.1721 159.157C55.6971 161.11 49.5681 166.879 48.7941 167.608C48.7941 167.608 48.7311 167.698 48.7941 167.734C48.8139 167.751 48.8395 167.761 48.8661 167.761C48.8927 167.761 48.9183 167.751 48.9381 167.734C49.7391 167.059 56.1381 161.677 58.6131 159.733C59.9271 158.707 63.0051 159.409 65.1111 160.633C66.3441 161.353 66.8301 162.037 66.7671 162.388C66.5691 163.072 61.1421 168.031 57.2811 172.189C57.2271 172.234 57.1911 172.297 57.2361 172.333Z" fill="#929292"/>
<path d="M50.8045 159.84C50.8428 159.856 50.8839 159.863 50.9251 159.862C50.9664 159.861 51.007 159.851 51.0442 159.833C51.0815 159.815 51.1147 159.79 51.1416 159.759C51.1685 159.727 51.1886 159.691 51.2005 159.651C51.3853 158.638 51.3423 157.595 51.0745 156.6C50.958 156.138 50.6923 155.727 50.3185 155.43C50.2836 155.407 50.2439 155.393 50.2025 155.387C50.161 155.382 50.1189 155.386 50.0791 155.399C50.0394 155.411 50.0031 155.433 49.9728 155.462C49.9426 155.491 49.9193 155.526 49.9045 155.565C49.8749 155.655 49.8719 155.751 49.8959 155.842C49.9199 155.933 49.9698 156.015 50.0395 156.078C50.2247 156.277 50.3577 156.518 50.4265 156.78C50.6541 157.628 50.7001 158.515 50.5615 159.381C50.5379 159.474 50.5497 159.573 50.5946 159.658C50.6395 159.743 50.7143 159.808 50.8045 159.84Z" fill="#D5DFEF"/>
<path d="M53.1168 159.76C53.2878 159.76 53.4588 159.643 53.4498 159.481C53.391 158.489 53.1013 157.524 52.6038 156.664C52.3768 156.26 52.0223 155.944 51.5958 155.764C51.5567 155.752 51.5156 155.748 51.475 155.753C51.4344 155.758 51.3954 155.772 51.3605 155.793C51.3256 155.814 51.2956 155.843 51.2725 155.877C51.2495 155.91 51.2339 155.949 51.2268 155.989C51.2141 156.08 51.2308 156.173 51.2745 156.254C51.3182 156.335 51.3866 156.4 51.4698 156.439C51.6997 156.572 51.8893 156.765 52.0188 156.997C52.4397 157.734 52.6946 158.554 52.7658 159.4C52.77 159.493 52.808 159.58 52.8728 159.647C52.9375 159.713 53.0243 159.753 53.1168 159.76Z" fill="#D5DFEF"/>
<path d="M55.1815 159.774C55.3525 159.774 55.5235 159.666 55.5145 159.504C55.4675 158.551 55.1895 157.625 54.7045 156.804C54.4856 156.394 54.1284 156.075 53.6965 155.904C53.6587 155.89 53.6182 155.885 53.5782 155.888C53.5381 155.892 53.4994 155.905 53.4649 155.926C53.4304 155.946 53.401 155.975 53.3787 156.008C53.3565 156.042 53.3421 156.08 53.3365 156.12C53.3211 156.207 53.3359 156.298 53.3784 156.376C53.4208 156.455 53.4885 156.516 53.5705 156.552C53.7952 156.677 53.9818 156.86 54.1105 157.083C54.5226 157.79 54.7716 158.58 54.8395 159.396C54.837 159.443 54.844 159.49 54.8599 159.535C54.8757 159.579 54.9003 159.62 54.932 159.656C54.9638 159.691 55.0022 159.719 55.045 159.739C55.0878 159.76 55.1342 159.771 55.1815 159.774Z" fill="#D5DFEF"/>
<path d="M57.119 156.883C59.126 157.126 61.556 158.107 61.943 160.078C61.9596 160.534 61.9445 160.991 61.898 161.446C61.691 162.346 60.998 162.796 59.945 163.183L59.252 162.787C59.1307 161.616 58.8677 160.465 58.469 159.358C58.0467 158.233 57.2181 157.309 56.147 156.766L57.119 156.883Z" fill="#B9B9B9"/>
<path d="M48.2263 169.955L46.8133 153.332C46.6825 151.591 46.9249 149.842 47.5243 148.202C47.7892 147.512 48.2021 146.889 48.7339 146.375C49.2657 145.862 49.9034 145.472 50.6023 145.232L62.2393 141.182C62.4122 141.14 62.5921 141.138 62.7663 141.173C62.9404 141.209 63.1046 141.283 63.2473 141.389C63.4813 141.515 64.2193 141.911 64.0843 142.289L62.7163 142.73C62.2954 143.933 62.1299 145.212 62.2303 146.483L63.4633 160.928L48.2263 169.955Z" fill="#BABABA"/>
<path d="M49.4674 170.594L48.0634 154.007C47.929 152.265 48.1715 150.516 48.7744 148.877C49.031 148.177 49.4405 147.543 49.973 147.022C50.5054 146.5 51.1475 146.104 51.8524 145.862L63.4804 141.812C63.5862 141.774 63.7004 141.767 63.8101 141.791C63.9198 141.814 64.0207 141.868 64.1014 141.947C64.1804 142.027 64.235 142.128 64.2589 142.237C64.2828 142.347 64.275 142.462 64.2364 142.568L63.9664 143.333C63.5407 144.538 63.3721 145.82 63.4714 147.095L64.7134 161.495L49.4674 170.594Z" fill="white"/>
<path d="M63.4712 147.34L63.5342 148.015L48.0362 153.838C47.9823 152.447 48.1618 151.057 48.5672 149.725L63.7772 144.235C63.4952 145.245 63.3917 146.295 63.4712 147.34Z" fill="#D7D7D7"/>
<path d="M44.9434 186.778C43.4494 185.122 42.5674 182.593 42.5674 179.326C42.5674 170.641 48.6694 160.012 56.2384 155.647C59.1184 153.982 61.7914 153.469 64.0054 153.937H64.2214C74.7514 156.583 77.6224 162.613 77.6224 162.613C77.6224 162.613 64.5634 193.402 61.7644 194.239C56.3644 195.85 51.6934 192.52 48.3364 189.739C47.2545 188.901 46.2237 187.999 45.2494 187.039L45.1054 186.994L44.9254 186.823L44.9434 186.778Z" fill="#040505"/>
<path d="M33.7035 118.979C34.822 119.949 38.4911 119.165 41.8972 117.224C45.3033 115.282 45.9562 111.008 44.8558 110.037C43.7553 109.066 42.2449 112.411 38.8388 114.353C35.4328 116.294 32.5851 118.008 33.7035 118.979Z" stroke="#171717" stroke-width="3"/>
<path d="M37.9579 123.033C39.0764 124.004 42.7455 123.22 46.1516 121.278C49.5576 119.337 50.2106 115.063 49.1102 114.092C48.0097 113.121 46.4993 116.466 43.0932 118.407C39.6872 120.349 36.8394 122.063 37.9579 123.033Z" stroke="#171717" stroke-width="3"/>
<g style="mix-blend-mode:multiply" opacity="0.27">
<path d="M50.4597 153.169C47.9142 151.681 55.4451 151.928 52.7619 148.361C51.6108 146.834 44.6554 146.559 40.7805 147.16C32.9496 148.361 22.1356 152.864 23.5056 158.568C24.7459 163.681 32.5362 169.276 49.2518 167.542C56.4098 166.803 64.111 162.429 63.3327 158.725C62.8626 156.479 51.5946 153.829 50.4597 153.169Z" fill="#231F20"/>
</g>
<path d="M56.5592 89.5786C56.5592 89.5786 58.5592 95.2486 57.8592 98.9286C57.4393 100.491 56.6929 101.946 55.6692 103.199C55.522 103.353 55.3428 103.473 55.1441 103.551C54.9454 103.629 54.7321 103.662 54.5192 103.649C53.8089 103.524 53.1296 103.263 52.5192 102.879C51.7392 102.259 52.4692 101.259 52.3192 99.8186C52.2192 98.8186 51.6292 97.7386 51.4692 95.9386C51.3966 94.7337 51.4976 93.5247 51.7692 92.3486L56.5592 89.5786Z" fill="#EFB797"/>
<path d="M31.157 83.3941C31.157 83.3941 30.307 71.2041 30.697 58.7341C30.837 54.0141 33.467 42.5641 34.427 39.5941C35.207 37.1841 32.227 25.5341 28.897 25.6741C25.987 25.7841 24.527 27.6741 23.177 32.8241C21.547 39.0741 20.387 50.3341 20.387 58.3341C20.387 64.5641 23.7771 84.0541 23.7771 84.0541C24.5195 84.5116 25.3294 84.8491 26.177 85.0541C27.387 85.4041 30.387 85.4341 31.157 83.3941Z" fill="#1B415B"/>
<path d="M48.3873 154.034C48.3873 154.034 50.4373 156.434 52.1973 156.874C53.6345 157.155 55.0932 157.313 56.5573 157.344C58.3573 157.344 61.7273 157.254 62.2473 159.024C62.345 159.418 62.4053 159.82 62.4272 160.224C62.3072 161.224 61.4272 161.754 60.2872 162.304C59.0598 162.902 57.7936 163.416 56.4973 163.844C55.309 164.338 54.004 164.481 52.7373 164.254C51.7392 164.178 50.7376 164.158 49.7373 164.194C48.7873 164.294 49.0173 164.994 48.9973 165.924L46.0773 167.064C43.0773 167.784 40.8373 165.194 40.8473 164.474L41.0773 151.524L48.3873 154.034Z" fill="#231F20"/>
<path d="M50.797 163.934C52.6648 164.044 54.5389 163.923 56.377 163.574C57.8923 163.166 59.3217 162.489 60.597 161.574C61.597 161.094 62.387 160.354 62.397 159.734C62.4371 159.932 62.4572 160.133 62.457 160.334C62.337 161.334 61.457 161.874 60.317 162.424C59.0905 163.021 57.8242 163.532 56.527 163.954C55.3388 164.448 54.0338 164.591 52.767 164.364L50.207 164.264C49.647 164.264 49.107 164.454 49.107 164.554C49.107 164.654 49.297 163.944 50.797 163.934Z" fill="#383736"/>
<path d="M46.1371 165.834L49.0371 164.704C49.0371 165.004 49.0371 165.704 49.0371 166.024L46.1071 167.164C43.1071 167.884 40.8771 165.304 40.8871 164.584V163.254C40.8971 163.964 43.1671 166.554 46.1371 165.834Z" fill="#383736"/>
<path d="M52.937 85.9543C52.937 85.9543 52.497 113.574 51.887 120.954C51.697 123.164 50.937 128.184 50.817 129.794C50.417 135.294 51.277 156.794 51.277 156.794C50.617 158.164 51.217 159.254 44.877 158.924C42.947 158.824 40.627 157.164 40.537 156.334C40.537 156.334 39.237 132.044 40.767 121.684C41.287 118.134 36.767 84.4043 36.767 84.4043L52.937 85.9543Z" fill="#1B415B"/>
<path opacity="0.37" d="M52.937 85.9541C52.937 85.9541 52.497 113.574 51.887 120.954C51.697 123.164 50.937 128.184 50.817 129.794C50.417 135.294 51.277 156.794 51.277 156.794C50.687 158.024 51.107 159.024 46.627 158.984C46.347 157.494 46.087 155.784 45.897 153.984C45.757 152.644 46.837 133.374 48.127 122.624C48.657 118.194 48.237 97.3041 47.937 85.4941L52.937 85.9541Z" fill="#161615"/>
<path d="M43.4569 3.88428L47.0869 4.36427L50.2369 6.14427C50.5449 7.76425 50.572 9.42513 50.3169 11.0543C50.2469 11.5443 50.2469 12.8543 50.1869 13.1043C50.0769 13.6843 49.4169 14.4543 49.3669 15.0243C49.3069 15.7643 49.7669 16.1243 49.5469 17.1443C48.8869 20.1443 48.0569 23.0843 47.8469 24.1943C47.4769 26.0843 46.1869 25.8043 44.8469 25.5943C43.2328 25.4433 41.6939 24.8403 40.4069 23.8543C36.5269 21.0643 35.8469 15.7143 35.7969 15.3143L34.1569 5.31427L43.4569 3.88428Z" fill="#EFB797"/>
<path d="M35.297 25.3341V16.7241L44.387 18.0141C44.3653 21.2058 44.1348 24.3926 43.697 27.5541C43.447 28.8441 42.937 36.7841 43.757 37.7641L35.297 25.3341Z" fill="#EFB797"/>
<path d="M54.057 37.4843C56.637 39.4843 53.407 59.5743 53.407 66.2343L54.727 88.9843C54.677 89.1343 52.957 90.8143 47.007 91.7243C45.147 92.0143 44.207 92.1643 40.007 90.7243C38.287 90.1543 27.197 84.9443 27.197 83.5743L27.387 61.9743C27.467 59.6743 25.527 48.7043 24.697 41.3743C24.107 36.1843 23.697 35.7843 24.327 29.9743C24.627 27.2943 27.857 25.4543 29.707 25.2243C31.431 25.0894 33.1646 25.143 34.877 25.3843C34.877 25.3843 40.577 27.9743 45.267 30.6443C48.4949 32.5133 51.4522 34.8146 54.057 37.4843Z" fill="#234968"/>
<g style="mix-blend-mode:multiply" opacity="0.27">
<path d="M48.547 6.48438C48.547 6.48438 49.437 12.3944 48.987 13.1444C48.6348 13.5681 48.3848 14.0672 48.2565 14.6031C48.1282 15.1389 48.1249 15.6971 48.247 16.2344C48.387 17.3044 45.727 19.9944 46.017 23.2344C46.0281 23.6692 46.1289 24.097 46.313 24.491C46.4971 24.8851 46.7606 25.2369 47.087 25.5244C46.3554 25.7979 45.554 25.8225 44.807 25.5944C44.437 25.5944 44.117 25.4744 43.807 25.4144L41.807 31.1944L41.067 29.4544C41.067 29.4544 42.207 26.0144 40.737 23.9444C39.997 22.8844 36.667 22.1544 35.967 19.5244L36.157 17.1044C36.157 17.0144 36.097 16.9144 36.077 16.8244C37.787 10.4844 48.547 6.48438 48.547 6.48438Z" fill="#CC9E7F"/>
</g>
<path d="M34.8669 22.3344C34.8669 22.2444 34.4369 22.5544 34.3969 22.7244C34.1754 23.4198 33.8372 24.0724 33.3969 24.6544C33.0169 25.0944 33.6169 25.8144 33.6169 25.8144C33.6169 25.8144 34.2069 27.0544 37.2369 28.9244C40.2669 30.7944 46.1069 31.2344 46.1069 31.2344C46.1069 31.2344 45.4669 29.9144 45.1069 29.0144C45.0237 28.7999 44.889 28.6093 44.7146 28.4593C44.5401 28.3093 44.3314 28.2046 44.1069 28.1544C42.4391 27.7372 40.8099 27.1785 39.2369 26.4844C38.2643 26.1267 37.3751 25.5741 36.6236 24.8604C35.8722 24.1468 35.2744 23.2873 34.8669 22.3344Z" fill="#183744"/>
<path d="M51.027 4.19426C53.027 5.60426 50.487 7.90427 50.487 7.90427C50.487 7.90427 50.077 7.99426 49.417 8.00426C49.1063 7.97226 48.793 8.03191 48.5158 8.17584C48.2386 8.31978 48.0096 8.54171 47.857 8.81425C47.357 9.15425 47.137 16.0343 47.137 16.0343C47.207 16.6143 46.237 16.4143 45.767 15.6043C45.297 14.7943 44.087 14.4243 42.367 17.6043C42.367 17.6043 41.267 19.5043 40.477 21.2543C40.007 22.2543 39.567 22.3243 39.477 22.3043C39.387 22.2843 35.907 22.3043 35.367 20.7743C35.287 20.5343 34.977 19.5843 32.807 14.0143C32.1303 12.2399 31.9331 10.3185 32.235 8.44363C32.537 6.56875 33.3275 4.80649 34.527 3.33426C36.117 1.51426 40.437 0.904258 42.957 0.864258C45.9675 0.932325 48.8446 2.11954 51.027 4.19426Z" fill="#492F15"/>
<path d="M45.5869 15.1543C45.1786 15.2208 44.7942 15.3908 44.4703 15.6481C44.1464 15.9055 43.8939 16.2416 43.7369 16.6243C43.557 16.9491 43.4711 17.3176 43.4887 17.6885C43.5064 18.0594 43.6269 18.418 43.8369 18.7243C44.0692 19.1156 44.4192 19.4236 44.8369 19.6043C44.8369 19.6043 44.9769 17.1943 45.0369 16.7543C45.169 16.2047 45.3532 15.669 45.5869 15.1543Z" fill="#EFB797"/>
<path d="M45.977 14.9744C45.977 14.9744 46.647 14.9744 46.107 15.9744C45.7038 16.6245 45.4478 17.3549 45.357 18.1144C45.307 18.6244 45.357 20.1944 45.357 20.1944C45.357 20.1944 44.897 20.8044 44.557 19.8244C44.3408 19.0131 44.283 18.1676 44.387 17.3344C44.387 16.9244 45.277 14.6944 45.977 14.9744Z" fill="#F4C5AE"/>
<path d="M47.667 9.27426C47.8549 8.38187 48.2373 7.54191 48.787 6.81425C49.657 5.75425 49.017 4.50426 46.647 4.71426C41.647 5.16426 40.567 10.0643 33.777 9.46426C33.957 9.21426 35.647 9.07426 36.117 6.99426C36.187 6.67426 35.737 6.75426 34.717 7.63426C33.9773 8.40428 32.9732 8.86524 31.907 8.92426C32.747 7.48426 32.377 5.60426 34.527 3.33426C36.187 1.58426 40.437 0.904258 42.957 0.864258C45.9675 0.932325 48.8446 2.11954 51.027 4.19426C53.027 5.60426 50.487 7.90427 50.487 7.90427C50.487 7.90427 50.077 7.99426 49.417 8.00426C49.0209 7.96771 48.625 8.07637 48.3031 8.31001C47.9811 8.54365 47.7551 8.88634 47.667 9.27426Z" fill="#704B2C"/>
<g style="mix-blend-mode:multiply" opacity="0.27">
<path d="M33.9971 88.0143C33.9971 87.6943 34.087 87.3643 34.177 86.0143C34.477 81.1743 34.8471 77.1743 34.8471 77.1743C34.8471 77.1743 34.9471 86.1743 34.9871 88.4843L33.9971 88.0143Z" fill="#383736"/>
</g>
<path opacity="0.55" d="M45.4871 66.7441C45.4871 64.3041 48.2271 48.6641 48.2271 48.6641L54.3371 53.4041C53.9071 58.5241 53.4071 63.5241 53.4071 66.2341L54.7271 88.9841C54.6771 89.1341 52.957 90.8141 47.007 91.7241L46.5771 91.7941C46.1571 86.4541 45.4871 73.7941 45.4871 66.7441Z" fill="#161615"/>
<path d="M56.418 94.9384C56.6833 95.517 57.1343 96.9852 56.816 98.2295C56.418 99.7847 55.7292 101.747 55.1522 102.389C54.6809 102.913 54.1642 103.536 54.5626 103.656C54.9999 103.788 55.6809 103.573 56.5903 101.931C57.2825 100.681 57.5528 100.586 57.9379 98.5023C58.0606 97.8386 58.156 97.6699 57.7596 94.4196C57.4425 91.8194 56.9296 93.6533 56.418 94.9384Z" fill="#EFC4AC"/>
<path d="M57.157 91.7142L57.907 95.1442C57.907 95.1442 57.137 96.6142 53.857 96.6142C52.9991 96.6275 52.1468 96.4747 51.347 96.1642L51.127 91.5942L57.157 91.7142Z" fill="#CEE8F6"/>
<path d="M57.937 94.274C57.937 94.274 56.327 80.544 55.747 69.594C55.547 65.814 56.747 53.684 56.747 49.014C56.747 41.954 55.587 36.604 52.267 36.884C49.377 37.134 46.867 41.544 46.207 46.824C45.6345 54.5669 45.501 62.336 45.807 70.094C46.077 76.314 50.507 94.944 50.507 94.944C51.2641 95.3778 52.0838 95.6915 52.937 95.874C54.247 96.114 57.387 95.274 57.937 94.274Z" fill="#234968"/>
<g style="mix-blend-mode:multiply" opacity="0.27">
<path d="M53.4871 95.9143C53.3041 95.9307 53.12 95.9307 52.9371 95.9143C52.0839 95.7318 51.2641 95.4181 50.507 94.9843C50.507 94.9843 46.0771 76.3543 45.8071 70.1343C45.501 62.3763 45.6346 54.6072 46.2071 46.8643C46.8671 41.5843 49.3771 37.1743 52.2671 36.9243H52.3871C51.5271 37.6743 50.6871 40.1843 50.3071 44.7743C49.6971 52.1243 47.7271 69.3343 50.1071 80.5743C51.3871 86.4743 53.0471 93.3343 53.4871 95.9143Z" fill="#383736"/>
</g>
<path d="M65.6593 160.749C73.2283 156.384 79.3933 159.903 79.4203 168.597C79.4473 177.291 73.3093 187.911 65.7493 192.276C62.9503 193.896 60.3493 194.436 58.1623 194.022C54.4543 193.338 51.9973 189.909 51.9793 184.437C51.9613 175.716 58.0903 165.114 65.6593 160.749Z" fill="#1F2626"/>
<path d="M63.0405 185.994C60.4305 185.994 58.7295 183.897 58.7205 180.666C58.7205 176.256 61.8255 170.865 65.6595 168.651C66.6429 168.02 67.7769 167.662 68.9445 167.616C71.5635 167.616 73.2195 169.749 73.2195 173.016C73.2195 177.426 70.1235 182.817 66.2895 185.04C65.3069 185.633 64.1876 185.961 63.0405 185.994Z" fill="#0E1111"/>
<path d="M65.6596 168.651C66.6431 168.02 67.7771 167.662 68.9446 167.616C69.1705 167.62 69.396 167.638 69.6196 167.67C70.237 168.715 70.5488 169.912 70.5196 171.126C70.3916 173.534 69.6963 175.877 68.4904 177.965C67.2845 180.053 65.6022 181.826 63.5806 183.141C62.5921 183.755 61.4588 184.096 60.2956 184.131C60.0695 184.131 59.8438 184.113 59.6206 184.077C59.0071 183.033 58.6956 181.84 58.7206 180.63C58.7116 176.256 61.8256 170.865 65.6596 168.651Z" fill="#525252"/>
<path d="M57.4965 151.335C69.1515 146.583 73.2195 150.516 73.2195 150.516C73.2195 150.516 78.0165 154.962 57.6405 164.493C36.4455 174.42 44.8965 156.465 57.4965 151.335Z" fill="#D5D5D5"/>
<path d="M49.6214 159.228C50.1794 160.353 54.3014 159.444 58.8284 157.194C63.3554 154.944 66.5684 152.208 66.0284 151.083C65.4884 149.958 60.9344 150.003 56.4074 152.253C51.8804 154.503 49.0634 158.103 49.6214 159.228Z" fill="#EDEDED"/>
</g>
<defs>
<clipPath id="clip0_125_973">
<rect width="81" height="199" fill="white" transform="translate(0.387207 0.864258)"/>
</clipPath>
</defs>
</svg>
