<svg width="46" height="34" viewBox="0 0 46 34" fill="none" xmlns="http://www.w3.org/2000/svg">
<path fill-rule="evenodd" clip-rule="evenodd" d="M28.8369 15.5574C33.2288 17.013 39.8024 17.5973 40.3902 20.5352C41.031 23.7381 36.7635 27.2989 31.3988 28.3624C26.5735 29.3189 23.0592 26.1059 18.5798 24.8586C15.305 23.9467 11.2652 23.9618 9.28883 22.2056C6.52441 19.7493 2.92071 16.2725 6.30682 13.9531C9.7099 11.6221 15.9518 13.7684 21.074 14.1331C23.9263 14.3362 26.3721 14.7405 28.8369 15.5574Z" fill="#7A3D00"/>
<path d="M29.6119 9.4202C29.9231 9.43619 30.2281 9.51376 30.509 9.64848C30.79 9.7832 31.0414 9.97231 31.2488 10.2049C32.324 11.6375 32.9052 13.3804 32.9052 15.1716C32.9052 16.9627 32.324 18.7055 31.2488 20.1381C31.0432 20.3786 30.7891 20.5728 30.5031 20.7081C30.2171 20.8433 29.9058 20.9165 29.5895 20.9229C27.7733 20.9229 26.271 18.3443 26.271 15.1603C26.193 14.1467 26.3554 13.129 26.7451 12.19C27.1347 11.2509 27.7405 10.4172 28.5132 9.75653V9.75653C28.7751 9.59958 29.0642 9.49308 29.3653 9.44258C29.3653 9.44258 29.5223 9.4202 29.6119 9.4202ZM29.6119 9.95832C29.6119 9.95832 29.6119 9.95832 29.4326 9.95832C27.863 10.1153 26.6073 12.3799 26.6073 15.1379C26.6073 17.8959 27.863 20.183 29.4326 20.3399L29.6119 20.3399C30.0807 20.3416 30.5344 20.1745 30.89 19.8691C32.0059 18.5495 32.6181 16.8772 32.6181 15.1491C32.6181 13.421 32.0059 11.7487 30.89 10.4292C30.5324 10.1272 30.08 9.96053 29.6119 9.95832V9.95832Z" fill="#EAEAF1"/>
<path d="M30.7212 10.4516C30.1595 11.0307 29.7177 11.7151 29.4214 12.4654C29.1252 13.2158 28.9801 14.0174 28.9946 14.824L28.9946 15.5191C28.9801 16.3257 29.1252 17.1272 29.4214 17.8776C29.7177 18.628 30.1595 19.3124 30.7212 19.8914C30.3656 20.1969 29.9119 20.364 29.4431 20.3623L29.2637 20.3623C27.6942 20.2053 26.4385 17.9407 26.4385 15.1603C26.4385 12.38 27.6942 10.1377 29.2637 9.98077C29.2637 9.98077 29.2637 9.98077 29.4431 9.98077C29.9112 9.98298 30.3635 10.1496 30.7212 10.4516V10.4516Z" fill="#BFBFD2"/>
<path d="M34.4427 9.2411C33.8596 8.78596 33.185 8.46215 32.4652 8.29187C31.7454 8.12159 30.9973 8.10885 30.2721 8.2545C29.9988 8.33073 29.7526 8.48281 29.5621 8.69313C29.3717 8.90344 29.2447 9.16338 29.1958 9.44289C28.8947 9.49338 28.6057 9.59989 28.3438 9.75684C28.4531 9.36233 28.6799 9.01039 28.994 8.7478C29.3672 8.40754 29.816 8.16098 30.3034 8.02842C30.7907 7.89586 31.3026 7.88112 31.7968 7.98545C32.8446 8.17611 33.8345 8.60579 34.6893 9.2411L34.4427 9.2411Z" fill="#17C8FF"/>
<path d="M30.2733 8.3448C30.9985 8.19915 31.7467 8.21188 32.4665 8.38216C33.1863 8.55244 33.8608 8.87625 34.4439 9.33139C32.2017 9.33139 29.7128 9.51074 29.4661 9.51074C29.4661 9.51074 29.3092 9.51074 29.2195 9.51074C29.2704 9.23804 29.3958 8.98478 29.5818 8.77898C29.7678 8.57317 30.0072 8.4229 30.2733 8.3448Z" fill="#0089CE"/>
<path d="M39.0396 9.10677C39.8243 9.10677 43.2101 9.82431 43.2101 15.1608C43.2951 16.0782 43.1785 17.0029 42.8687 17.8705C42.5588 18.7381 42.0632 19.5275 41.4163 20.1834C40.7455 20.7617 39.9185 21.1284 39.0396 21.2373C39.8834 21.0633 40.6291 20.5742 41.1248 19.8696C42.0397 18.4763 42.4801 16.8247 42.3805 15.1608C42.3805 10.5867 40.1158 9.2413 39.0396 9.10677Z" fill="#0098DB"/>
<path d="M38.8839 9.10677L39.0184 9.10677C40.0947 9.2413 42.3594 10.6091 42.3594 15.1608C42.4591 16.8247 42.0187 18.4763 41.1037 19.8696C40.608 20.5742 39.8622 21.0633 39.0184 21.2373V21.2373C38.0318 21.2373 29.5786 20.9234 29.5786 20.9234C29.8949 20.917 30.2063 20.8438 30.4922 20.7086C30.7782 20.5733 31.0323 20.3791 31.2379 20.1386C32.313 18.706 32.8943 16.9632 32.8943 15.1721C32.8943 13.3809 32.313 11.638 31.2379 10.2054C31.0305 9.97282 30.7791 9.7837 30.4981 9.64899C30.2171 9.51427 29.9122 9.4367 29.601 9.42071C29.8477 9.42071 32.2469 9.42067 34.5788 9.24129L34.8255 9.24129C36.6192 9.1516 38.4579 9.10677 38.8839 9.10677Z" fill="#00ADEF"/>
<ellipse cx="29.5786" cy="15.1812" rx="3.06712" ry="5.18115" fill="#BFBFD2"/>
<path d="M31.0367 19.7737C30.6812 19.7958 29.9083 19.8443 29.6605 19.8623C29.3507 19.8847 28.4218 19.718 28.1465 19.718C27.8713 19.718 24.1883 19.3369 24.0678 19.448C23.9715 19.5369 26.7073 20.225 26.6328 20.2954C26.5869 20.4324 26.5434 20.7131 26.736 20.7397C26.9768 20.7731 23.8957 23.0469 24.0677 23.0469C24.2398 23.0469 27.9574 20.9397 28.5079 20.7397C29.0584 20.5398 29.2821 20.4509 29.6605 20.3732C29.9632 20.311 30.7041 19.9476 31.0367 19.7737Z" fill="#7A3D00"/>
</svg>
